<?xml version="1.0" encoding="UTF-8" standalone="no"?>
<!DOCTYPE svg PUBLIC "-//W3C//DTD SVG 1.1//EN"
 "http://www.w3.org/Graphics/SVG/1.1/DTD/svg11.dtd">
<!-- Generated by graphviz version 2.43.0 (0)
 -->
<!-- Title: %3 Pages: 1 -->
<svg width="940pt" height="833pt"
 viewBox="0.00 0.00 939.72 833.00" xmlns="http://www.w3.org/2000/svg" xmlns:xlink="http://www.w3.org/1999/xlink">
<g id="graph0" class="graph" transform="scale(1 1) rotate(0) translate(4 829)">
<title>%3</title>
<polygon fill="white" stroke="transparent" points="-4,4 -4,-829 935.72,-829 935.72,4 -4,4"/>
<g id="clust1" class="cluster">
<title>cluster_left</title>
<polygon fill="none" stroke="black" points="56.72,-8 56.72,-658 329.72,-658 329.72,-8 56.72,-8"/>
</g>
<g id="clust2" class="cluster">
<title>cluster_relations</title>
<polygon fill="none" stroke="black" points="64.72,-16 64.72,-650 321.72,-650 321.72,-16 64.72,-16"/>
</g>
<g id="clust3" class="cluster">
<title>cluster_rel_0</title>
<path fill="none" stroke="#a6a6a6" stroke-width="1.2" stroke-dasharray="5,2" d="M84.72,-337C84.72,-337 301.72,-337 301.72,-337 307.72,-337 313.72,-343 313.72,-349 313.72,-349 313.72,-630 313.72,-630 313.72,-636 307.72,-642 301.72,-642 301.72,-642 84.72,-642 84.72,-642 78.72,-642 72.72,-636 72.72,-630 72.72,-630 72.72,-349 72.72,-349 72.72,-343 78.72,-337 84.72,-337"/>
<text text-anchor="middle" x="193.22" y="-630" font-family="Arial" font-size="10.00">PID 1723791 • Relation RTI 1 (public.test1 (26144))</text>
</g>
<g id="clust4" class="cluster">
<title>cluster_rel_1</title>
<path fill="none" stroke="#a6a6a6" stroke-width="1.2" stroke-dasharray="5,2" d="M84.72,-24C84.72,-24 301.72,-24 301.72,-24 307.72,-24 313.72,-30 313.72,-36 313.72,-36 313.72,-317 313.72,-317 313.72,-323 307.72,-329 301.72,-329 301.72,-329 84.72,-329 84.72,-329 78.72,-329 72.72,-323 72.72,-317 72.72,-317 72.72,-36 72.72,-36 72.72,-30 78.72,-24 84.72,-24"/>
<text text-anchor="middle" x="193.22" y="-317" font-family="Arial" font-size="10.00">PID 1723791 • Relation RTI 2 (public.test2 (26149))</text>
</g>
<g id="clust5" class="cluster">
<title>cluster_join_0</title>
<path fill="none" stroke="#6e7b8b" stroke-width="1.2" stroke-dasharray="5,2" d="M604.72,-433C604.72,-433 911.72,-433 911.72,-433 917.72,-433 923.72,-439 923.72,-445 923.72,-445 923.72,-534 923.72,-534 923.72,-540 917.72,-546 911.72,-546 911.72,-546 604.72,-546 604.72,-546 598.72,-546 592.72,-540 592.72,-534 592.72,-534 592.72,-445 592.72,-445 592.72,-439 598.72,-433 604.72,-433"/>
<text text-anchor="middle" x="758.22" y="-534" font-family="Arial" font-size="10.00">PID 1723791 • JOIN_LEFT (outer: RTI 1, inner: RTI 2)</text>
</g>
<!-- plan_1723791_0 -->
<g id="node1" class="node">
<title>plan_1723791_0</title>
<path fill="lightblue" stroke="black" d="M245.72,-615C245.72,-615 140.72,-615 140.72,-615 134.72,-615 128.72,-609 128.72,-603 128.72,-603 128.72,-569 128.72,-569 128.72,-563 134.72,-557 140.72,-557 140.72,-557 245.72,-557 245.72,-557 251.72,-557 257.72,-563 257.72,-569 257.72,-569 257.72,-603 257.72,-603 257.72,-609 251.72,-615 245.72,-615"/>
<text text-anchor="middle" x="193.22" y="-603.8" font-family="Arial" font-size="9.00">T_SeqScan</text>
<text text-anchor="middle" x="193.22" y="-593.8" font-family="Arial" font-size="9.00">Startup: 0.000</text>
<text text-anchor="middle" x="193.22" y="-583.8" font-family="Arial" font-size="9.00">Total: 17.500</text>
<text text-anchor="middle" x="193.22" y="-573.8" font-family="Arial" font-size="9.00">Rows: 1</text>
<text text-anchor="middle" x="193.22" y="-563.8" font-family="Arial" font-size="9.00">Parent: public.test1 (26144)</text>
</g>
<!-- plan_1723791_1 -->
<g id="node2" class="node">
<title>plan_1723791_1</title>
<path fill="lightgreen" stroke="black" stroke-width="3" d="M245.72,-514C245.72,-514 140.72,-514 140.72,-514 134.72,-514 128.72,-508 128.72,-502 128.72,-502 128.72,-458 128.72,-458 128.72,-452 134.72,-446 140.72,-446 140.72,-446 245.72,-446 245.72,-446 251.72,-446 257.72,-452 257.72,-458 257.72,-458 257.72,-502 257.72,-502 257.72,-508 251.72,-514 245.72,-514"/>
<text text-anchor="middle" x="193.22" y="-502.8" font-family="Arial" font-size="9.00">T_IndexOnlyScan</text>
<text text-anchor="middle" x="193.22" y="-492.8" font-family="Arial" font-size="9.00">[CHOSEN]</text>
<text text-anchor="middle" x="193.22" y="-482.8" font-family="Arial" font-size="9.00">Startup: 0.275</text>
<text text-anchor="middle" x="193.22" y="-472.8" font-family="Arial" font-size="9.00">Total: 8.293</text>
<text text-anchor="middle" x="193.22" y="-462.8" font-family="Arial" font-size="9.00">Rows: 1</text>
<text text-anchor="middle" x="193.22" y="-452.8" font-family="Arial" font-size="9.00">Parent: public.test1 (26144)</text>
</g>
<!-- plan_1723791_0&#45;&gt;plan_1723791_1 -->
<g id="edge1" class="edge">
<title>plan_1723791_0&#45;&gt;plan_1723791_1</title>
<path fill="none" stroke="#7f7f7f" stroke-dasharray="5,2" d="M193.22,-556.9C193.22,-542.72 193.22,-528.54 193.22,-514.37"/>
<text text-anchor="middle" x="188.22" y="-528.43" font-family="Arial" font-size="9.00">alt</text>
</g>
<!-- plan_1723791_3 -->
<g id="node4" class="node">
<title>plan_1723791_3</title>
<path fill="lightblue" stroke="black" d="M245.72,-302C245.72,-302 140.72,-302 140.72,-302 134.72,-302 128.72,-296 128.72,-290 128.72,-290 128.72,-256 128.72,-256 128.72,-250 134.72,-244 140.72,-244 140.72,-244 245.72,-244 245.72,-244 251.72,-244 257.72,-250 257.72,-256 257.72,-256 257.72,-290 257.72,-290 257.72,-296 251.72,-302 245.72,-302"/>
<text text-anchor="middle" x="193.22" y="-290.8" font-family="Arial" font-size="9.00">T_SeqScan</text>
<text text-anchor="middle" x="193.22" y="-280.8" font-family="Arial" font-size="9.00">Startup: 0.000</text>
<text text-anchor="middle" x="193.22" y="-270.8" font-family="Arial" font-size="9.00">Total: 17.500</text>
<text text-anchor="middle" x="193.22" y="-260.8" font-family="Arial" font-size="9.00">Rows: 1</text>
<text text-anchor="middle" x="193.22" y="-250.8" font-family="Arial" font-size="9.00">Parent: public.test2 (26149)</text>
</g>
<!-- plan_1723791_0&#45;&gt;plan_1723791_3 -->
<!-- plan_1723791_2 -->
<g id="node3" class="node">
<title>plan_1723791_2</title>
<path fill="lightblue" stroke="black" d="M245.72,-403C245.72,-403 140.72,-403 140.72,-403 134.72,-403 128.72,-397 128.72,-391 128.72,-391 128.72,-357 128.72,-357 128.72,-351 134.72,-345 140.72,-345 140.72,-345 245.72,-345 245.72,-345 251.72,-345 257.72,-351 257.72,-357 257.72,-357 257.72,-391 257.72,-391 257.72,-397 251.72,-403 245.72,-403"/>
<text text-anchor="middle" x="193.22" y="-391.8" font-family="Arial" font-size="9.00">T_BitmapHeapScan</text>
<text text-anchor="middle" x="193.22" y="-381.8" font-family="Arial" font-size="9.00">Startup: 4.283</text>
<text text-anchor="middle" x="193.22" y="-371.8" font-family="Arial" font-size="9.00">Total: 8.295</text>
<text text-anchor="middle" x="193.22" y="-361.8" font-family="Arial" font-size="9.00">Rows: 1</text>
<text text-anchor="middle" x="193.22" y="-351.8" font-family="Arial" font-size="9.00">Parent: public.test1 (26144)</text>
</g>
<!-- plan_1723791_1&#45;&gt;plan_1723791_2 -->
<g id="edge2" class="edge">
<title>plan_1723791_1&#45;&gt;plan_1723791_2</title>
<path fill="none" stroke="#7f7f7f" stroke-dasharray="5,2" d="M193.22,-445.89C193.22,-431.73 193.22,-417.56 193.22,-403.4"/>
<text text-anchor="middle" x="188.22" y="-417.44" font-family="Arial" font-size="9.00">alt</text>
</g>
<!-- plan_1723791_4 -->
<g id="node5" class="node">
<title>plan_1723791_4</title>
<path fill="lightgreen" stroke="black" stroke-width="3" d="M245.72,-201C245.72,-201 140.72,-201 140.72,-201 134.72,-201 128.72,-195 128.72,-189 128.72,-189 128.72,-145 128.72,-145 128.72,-139 134.72,-133 140.72,-133 140.72,-133 245.72,-133 245.72,-133 251.72,-133 257.72,-139 257.72,-145 257.72,-145 257.72,-189 257.72,-189 257.72,-195 251.72,-201 245.72,-201"/>
<text text-anchor="middle" x="193.22" y="-189.8" font-family="Arial" font-size="9.00">T_IndexOnlyScan</text>
<text text-anchor="middle" x="193.22" y="-179.8" font-family="Arial" font-size="9.00">[CHOSEN]</text>
<text text-anchor="middle" x="193.22" y="-169.8" font-family="Arial" font-size="9.00">Startup: 0.275</text>
<text text-anchor="middle" x="193.22" y="-159.8" font-family="Arial" font-size="9.00">Total: 8.293</text>
<text text-anchor="middle" x="193.22" y="-149.8" font-family="Arial" font-size="9.00">Rows: 1</text>
<text text-anchor="middle" x="193.22" y="-139.8" font-family="Arial" font-size="9.00">Parent: public.test2 (26149)</text>
</g>
<!-- plan_1723791_1&#45;&gt;plan_1723791_4 -->
<!-- plan_1723791_6 -->
<g id="node7" class="node">
<title>plan_1723791_6</title>
<path fill="lightgreen" stroke="black" stroke-width="3" d="M713.72,-519C713.72,-519 612.72,-519 612.72,-519 606.72,-519 600.72,-513 600.72,-507 600.72,-507 600.72,-453 600.72,-453 600.72,-447 606.72,-441 612.72,-441 612.72,-441 713.72,-441 713.72,-441 719.72,-441 725.72,-447 725.72,-453 725.72,-453 725.72,-507 725.72,-507 725.72,-513 719.72,-519 713.72,-519"/>
<text text-anchor="middle" x="663.22" y="-507.8" font-family="Arial" font-size="9.00">T_NestLoop</text>
<text text-anchor="middle" x="663.22" y="-497.8" font-family="Arial" font-size="9.00">[CHOSEN]</text>
<text text-anchor="middle" x="663.22" y="-487.8" font-family="Arial" font-size="9.00">Startup: 0.550</text>
<text text-anchor="middle" x="663.22" y="-477.8" font-family="Arial" font-size="9.00">Total: 16.595</text>
<text text-anchor="middle" x="663.22" y="-467.8" font-family="Arial" font-size="9.00">Rows: 1</text>
<text text-anchor="middle" x="663.22" y="-457.8" font-family="Arial" font-size="9.00">Outer: public.test1 (26144)</text>
<text text-anchor="middle" x="663.22" y="-447.8" font-family="Arial" font-size="9.00">Inner: public.test2 (26149)</text>
</g>
<!-- plan_1723791_1&#45;&gt;plan_1723791_6 -->
<g id="edge6" class="edge">
<title>plan_1723791_1&#45;&gt;plan_1723791_6</title>
<path fill="none" stroke="#4f94cd" d="M257.82,-480C345.55,-480 503.04,-480 593.43,-480"/>
<polygon fill="#4f94cd" stroke="#4f94cd" points="593.62,-482.45 600.62,-480 593.62,-477.55 593.62,-482.45"/>
<text text-anchor="middle" x="418.32" y="-472.8" font-family="Arial" font-size="9.00">outer</text>
</g>
<!-- plan_1723791_7 -->
<g id="node8" class="node">
<title>plan_1723791_7</title>
<path fill="lightblue" stroke="black" d="M903.72,-509C903.72,-509 802.72,-509 802.72,-509 796.72,-509 790.72,-503 790.72,-497 790.72,-497 790.72,-453 790.72,-453 790.72,-447 796.72,-441 802.72,-441 802.72,-441 903.72,-441 903.72,-441 909.72,-441 915.72,-447 915.72,-453 915.72,-453 915.72,-497 915.72,-497 915.72,-503 909.72,-509 903.72,-509"/>
<text text-anchor="middle" x="853.22" y="-497.8" font-family="Arial" font-size="9.00">T_NestLoop</text>
<text text-anchor="middle" x="853.22" y="-487.8" font-family="Arial" font-size="9.00">Startup: 0.550</text>
<text text-anchor="middle" x="853.22" y="-477.8" font-family="Arial" font-size="9.00">Total: 16.600</text>
<text text-anchor="middle" x="853.22" y="-467.8" font-family="Arial" font-size="9.00">Rows: 1</text>
<text text-anchor="middle" x="853.22" y="-457.8" font-family="Arial" font-size="9.00">Outer: public.test1 (26144)</text>
<text text-anchor="middle" x="853.22" y="-447.8" font-family="Arial" font-size="9.00">Inner: public.test2 (26149)</text>
</g>
<!-- plan_1723791_1&#45;&gt;plan_1723791_7 -->
<g id="edge8" class="edge">
<title>plan_1723791_1&#45;&gt;plan_1723791_7</title>
<path fill="none" stroke="#4f94cd" d="M257.82,-459.94C358.14,-431.17 558.89,-385.3 725.72,-420 745.25,-424.06 765.45,-431.3 783.83,-439.22"/>
<polygon fill="#4f94cd" stroke="#4f94cd" points="783.12,-441.58 790.52,-442.16 785.1,-437.1 783.12,-441.58"/>
<text text-anchor="middle" x="510.18" y="-403.32" font-family="Arial" font-size="9.00">outer</text>
</g>
<!-- plan_1723791_5 -->
<g id="node6" class="node">
<title>plan_1723791_5</title>
<path fill="lightblue" stroke="black" d="M245.72,-90C245.72,-90 140.72,-90 140.72,-90 134.72,-90 128.72,-84 128.72,-78 128.72,-78 128.72,-44 128.72,-44 128.72,-38 134.72,-32 140.72,-32 140.72,-32 245.72,-32 245.72,-32 251.72,-32 257.72,-38 257.72,-44 257.72,-44 257.72,-78 257.72,-78 257.72,-84 251.72,-90 245.72,-90"/>
<text text-anchor="middle" x="193.22" y="-78.8" font-family="Arial" font-size="9.00">T_BitmapHeapScan</text>
<text text-anchor="middle" x="193.22" y="-68.8" font-family="Arial" font-size="9.00">Startup: 4.283</text>
<text text-anchor="middle" x="193.22" y="-58.8" font-family="Arial" font-size="9.00">Total: 8.295</text>
<text text-anchor="middle" x="193.22" y="-48.8" font-family="Arial" font-size="9.00">Rows: 1</text>
<text text-anchor="middle" x="193.22" y="-38.8" font-family="Arial" font-size="9.00">Parent: public.test2 (26149)</text>
</g>
<!-- plan_1723791_2&#45;&gt;plan_1723791_5 -->
<!-- plan_1723791_3&#45;&gt;plan_1723791_4 -->
<g id="edge3" class="edge">
<title>plan_1723791_3&#45;&gt;plan_1723791_4</title>
<path fill="none" stroke="#7f7f7f" stroke-dasharray="5,2" d="M193.22,-243.9C193.22,-229.72 193.22,-215.54 193.22,-201.37"/>
<text text-anchor="middle" x="188.22" y="-215.43" font-family="Arial" font-size="9.00">alt</text>
</g>
<!-- plan_1723791_4&#45;&gt;plan_1723791_5 -->
<g id="edge4" class="edge">
<title>plan_1723791_4&#45;&gt;plan_1723791_5</title>
<path fill="none" stroke="#7f7f7f" stroke-dasharray="5,2" d="M193.22,-132.89C193.22,-118.73 193.22,-104.56 193.22,-90.4"/>
<text text-anchor="middle" x="188.22" y="-104.44" font-family="Arial" font-size="9.00">alt</text>
</g>
<!-- plan_1723791_4&#45;&gt;plan_1723791_6 -->
<g id="edge7" class="edge">
<title>plan_1723791_4&#45;&gt;plan_1723791_6</title>
<path fill="none" stroke="#cd6600" d="M257.94,-189.29C281.18,-198.45 307.25,-209.99 329.72,-223 438.65,-286.09 551.79,-380.88 613.98,-435.98"/>
<polygon fill="#cd6600" stroke="#cd6600" points="612.61,-438.04 619.47,-440.86 615.86,-434.38 612.61,-438.04"/>
<text text-anchor="middle" x="437.38" y="-294.36" font-family="Arial" font-size="9.00">inner</text>
</g>
<!-- plan_1723791_8 -->
<g id="node9" class="node">
<title>plan_1723791_8</title>
<path fill="lightblue" stroke="black" d="M523.72,-224C523.72,-224 418.72,-224 418.72,-224 412.72,-224 406.72,-218 406.72,-212 406.72,-212 406.72,-178 406.72,-178 406.72,-172 412.72,-166 418.72,-166 418.72,-166 523.72,-166 523.72,-166 529.72,-166 535.72,-172 535.72,-178 535.72,-178 535.72,-212 535.72,-212 535.72,-218 529.72,-224 523.72,-224"/>
<text text-anchor="middle" x="471.22" y="-212.8" font-family="Arial" font-size="9.00">T_Material</text>
<text text-anchor="middle" x="471.22" y="-202.8" font-family="Arial" font-size="9.00">Startup: 0.275</text>
<text text-anchor="middle" x="471.22" y="-192.8" font-family="Arial" font-size="9.00">Total: 8.298</text>
<text text-anchor="middle" x="471.22" y="-182.8" font-family="Arial" font-size="9.00">Rows: 1</text>
<text text-anchor="middle" x="471.22" y="-172.8" font-family="Arial" font-size="9.00">Parent: public.test2 (26149)</text>
</g>
<!-- plan_1723791_5&#45;&gt;plan_1723791_8 -->
<g id="edge5" class="edge">
<title>plan_1723791_5&#45;&gt;plan_1723791_8</title>
<path fill="none" stroke="black" d="M257.91,-82.39C280.91,-90.78 306.83,-101.03 329.72,-112 360.35,-126.68 393.11,-145.81 419.28,-162.01"/>
<polygon fill="black" stroke="black" points="418.2,-164.22 425.44,-165.84 420.79,-160.06 418.2,-164.22"/>
</g>
<!-- plan_1723791_6&#45;&gt;plan_1723791_7 -->
<!-- plan_1723791_8&#45;&gt;plan_1723791_7 -->
<g id="edge9" class="edge">
<title>plan_1723791_8&#45;&gt;plan_1723791_7</title>
<path fill="none" stroke="#cd6600" d="M531.73,-224.08C585.03,-251.46 664.06,-295.44 725.72,-344 760.42,-371.33 794.91,-407.83 819.1,-435.37"/>
<polygon fill="#cd6600" stroke="#cd6600" points="817.34,-437.09 823.79,-440.75 821.04,-433.87 817.34,-437.09"/>
<text text-anchor="middle" x="677.71" y="-309.5" font-family="Arial" font-size="9.00">inner</text>
</g>
<!-- stats -->
<g id="node10" class="node">
<title>stats</title>
<polygon fill="lightyellow" stroke="black" points="269.22,-714 111.22,-714 111.22,-666 275.22,-666 275.22,-708 269.22,-714"/>
<polyline fill="none" stroke="black" points="269.22,-714 269.22,-708 "/>
<polyline fill="none" stroke="black" points="275.22,-708 269.22,-708 "/>
<text text-anchor="middle" x="193.22" y="-702.8" font-family="Arial" font-size="9.00">Statistics</text>
<text text-anchor="middle" x="193.22" y="-692.8" font-family="Arial" font-size="9.00">Total paths considered: 9</text>
<text text-anchor="middle" x="193.22" y="-682.8" font-family="Arial" font-size="9.00">Cheapest: T_IndexOnlyScan (8.29)</text>
<text text-anchor="middle" x="193.22" y="-672.8" font-family="Arial" font-size="9.00">Most expensive: T_SeqScan (17.50)</text>
</g>
<!-- legend -->
<g id="node11" class="node">
<title>legend</title>
<polygon fill="white" stroke="black" points="271.72,-825 108.72,-825 108.72,-757 277.72,-757 277.72,-819 271.72,-825"/>
<polyline fill="none" stroke="black" points="271.72,-825 271.72,-819 "/>
<polyline fill="none" stroke="black" points="277.72,-819 271.72,-819 "/>
<text text-anchor="middle" x="193.22" y="-813.8" font-family="Arial" font-size="9.00">Legend</text>
<text text-anchor="middle" x="193.22" y="-803.8" font-family="Arial" font-size="9.00">Blue edge: outer input</text>
<text text-anchor="middle" x="193.22" y="-793.8" font-family="Arial" font-size="9.00">Orange edge: inner input</text>
<text text-anchor="middle" x="193.22" y="-783.8" font-family="Arial" font-size="9.00">Dashed cluster: relation/join group</text>
<text text-anchor="middle" x="193.22" y="-773.8" font-family="Arial" font-size="9.00">Green node: selected plan</text>
<text text-anchor="middle" x="193.22" y="-763.8" font-family="Arial" font-size="9.00">Black edge: relation path progression</text>
</g>
</g>
</svg>
