<?xml version="1.0" encoding="UTF-8" standalone="no"?>
<!DOCTYPE svg PUBLIC "-//W3C//DTD SVG 1.1//EN"
 "http://www.w3.org/Graphics/SVG/1.1/DTD/svg11.dtd">
<!-- Generated by graphviz version 2.43.0 (0)
 -->
<!-- Title: %3 Pages: 1 -->
<svg width="1322pt" height="1646pt"
 viewBox="0.00 0.00 1322.01 1646.00" xmlns="http://www.w3.org/2000/svg" xmlns:xlink="http://www.w3.org/1999/xlink">
<g id="graph0" class="graph" transform="scale(1 1) rotate(0) translate(4 1642)">
<title>%3</title>
<polygon fill="white" stroke="transparent" points="-4,4 -4,-1642 1318.01,-1642 1318.01,4 -4,4"/>
<g id="clust1" class="cluster">
<title>cluster_left</title>
<polygon fill="none" stroke="black" points="63.51,-455 63.51,-1105 336.51,-1105 336.51,-455 63.51,-455"/>
</g>
<g id="clust2" class="cluster">
<title>cluster_relations</title>
<polygon fill="none" stroke="black" points="71.51,-463 71.51,-1097 328.51,-1097 328.51,-463 71.51,-463"/>
</g>
<g id="clust3" class="cluster">
<title>cluster_rel_0</title>
<path fill="none" stroke="#a6a6a6" stroke-width="1.2" stroke-dasharray="5,2" d="M91.51,-471C91.51,-471 308.51,-471 308.51,-471 314.51,-471 320.51,-477 320.51,-483 320.51,-483 320.51,-663 320.51,-663 320.51,-669 314.51,-675 308.51,-675 308.51,-675 91.51,-675 91.51,-675 85.51,-675 79.51,-669 79.51,-663 79.51,-663 79.51,-483 79.51,-483 79.51,-477 85.51,-471 91.51,-471"/>
<text text-anchor="middle" x="200.01" y="-663" font-family="Arial" font-size="10.00">PID 1723791 • Relation RTI 1 (public.test1 (26144))</text>
</g>
<g id="clust4" class="cluster">
<title>cluster_rel_1</title>
<path fill="none" stroke="#a6a6a6" stroke-width="1.2" stroke-dasharray="5,2" d="M91.51,-683C91.51,-683 308.51,-683 308.51,-683 314.51,-683 320.51,-689 320.51,-695 320.51,-695 320.51,-1077 320.51,-1077 320.51,-1083 314.51,-1089 308.51,-1089 308.51,-1089 91.51,-1089 91.51,-1089 85.51,-1089 79.51,-1083 79.51,-1077 79.51,-1077 79.51,-695 79.51,-695 79.51,-689 85.51,-683 91.51,-683"/>
<text text-anchor="middle" x="200.01" y="-1077" font-family="Arial" font-size="10.00">PID 1723791 • Relation RTI 2 (public.test2 (26149))</text>
</g>
<g id="clust5" class="cluster">
<title>cluster_join_0</title>
<path fill="none" stroke="#6e7b8b" stroke-width="1.2" stroke-dasharray="5,2" d="M487.01,-229C487.01,-229 1294.01,-229 1294.01,-229 1300.01,-229 1306.01,-235 1306.01,-241 1306.01,-241 1306.01,-552 1306.01,-552 1306.01,-558 1300.01,-564 1294.01,-564 1294.01,-564 487.01,-564 487.01,-564 481.01,-564 475.01,-558 475.01,-552 475.01,-552 475.01,-241 475.01,-241 475.01,-235 481.01,-229 487.01,-229"/>
<text text-anchor="middle" x="890.51" y="-552" font-family="Arial" font-size="10.00">PID 1723791 • JOIN_LEFT (outer: RTI 1, inner: RTI 2)</text>
</g>
<g id="clust6" class="cluster">
<title>cluster_join_1</title>
<path fill="none" stroke="#6e7b8b" stroke-width="1.2" stroke-dasharray="5,2" d="M677.01,-572C677.01,-572 914.01,-572 914.01,-572 920.01,-572 926.01,-578 926.01,-584 926.01,-584 926.01,-663 926.01,-663 926.01,-669 920.01,-675 914.01,-675 914.01,-675 677.01,-675 677.01,-675 671.01,-675 665.01,-669 665.01,-663 665.01,-663 665.01,-584 665.01,-584 665.01,-578 671.01,-572 677.01,-572"/>
<text text-anchor="middle" x="795.51" y="-663" font-family="Arial" font-size="10.00">PID 1723791 • JOIN_RIGHT (outer: RTI 2, inner: RTI 1)</text>
</g>
<!-- plan_1723791_0 -->
<g id="node1" class="node">
<title>plan_1723791_0</title>
<path fill="lightgreen" stroke="black" stroke-width="3" d="M252.51,-648C252.51,-648 147.51,-648 147.51,-648 141.51,-648 135.51,-642 135.51,-636 135.51,-636 135.51,-592 135.51,-592 135.51,-586 141.51,-580 147.51,-580 147.51,-580 252.51,-580 252.51,-580 258.51,-580 264.51,-586 264.51,-592 264.51,-592 264.51,-636 264.51,-636 264.51,-642 258.51,-648 252.51,-648"/>
<text text-anchor="middle" x="200.01" y="-636.8" font-family="Arial" font-size="9.00">T_SeqScan</text>
<text text-anchor="middle" x="200.01" y="-626.8" font-family="Arial" font-size="9.00">[CHOSEN]</text>
<text text-anchor="middle" x="200.01" y="-616.8" font-family="Arial" font-size="9.00">Startup: 0.000</text>
<text text-anchor="middle" x="200.01" y="-606.8" font-family="Arial" font-size="9.00">Total: 15.000</text>
<text text-anchor="middle" x="200.01" y="-596.8" font-family="Arial" font-size="9.00">Rows: 1000</text>
<text text-anchor="middle" x="200.01" y="-586.8" font-family="Arial" font-size="9.00">Parent: public.test1 (26144)</text>
</g>
<!-- plan_1723791_1 -->
<g id="node2" class="node">
<title>plan_1723791_1</title>
<path fill="lightblue" stroke="black" d="M252.51,-537C252.51,-537 147.51,-537 147.51,-537 141.51,-537 135.51,-531 135.51,-525 135.51,-525 135.51,-491 135.51,-491 135.51,-485 141.51,-479 147.51,-479 147.51,-479 252.51,-479 252.51,-479 258.51,-479 264.51,-485 264.51,-491 264.51,-491 264.51,-525 264.51,-525 264.51,-531 258.51,-537 252.51,-537"/>
<text text-anchor="middle" x="200.01" y="-525.8" font-family="Arial" font-size="9.00">T_IndexOnlyScan</text>
<text text-anchor="middle" x="200.01" y="-515.8" font-family="Arial" font-size="9.00">Startup: 0.275</text>
<text text-anchor="middle" x="200.01" y="-505.8" font-family="Arial" font-size="9.00">Total: 43.275</text>
<text text-anchor="middle" x="200.01" y="-495.8" font-family="Arial" font-size="9.00">Rows: 1000</text>
<text text-anchor="middle" x="200.01" y="-485.8" font-family="Arial" font-size="9.00">Parent: public.test1 (26144)</text>
</g>
<!-- plan_1723791_0&#45;&gt;plan_1723791_1 -->
<g id="edge1" class="edge">
<title>plan_1723791_0&#45;&gt;plan_1723791_1</title>
<path fill="none" stroke="#7f7f7f" stroke-dasharray="5,2" d="M200.01,-579.89C200.01,-565.73 200.01,-551.56 200.01,-537.4"/>
<text text-anchor="middle" x="195.01" y="-551.44" font-family="Arial" font-size="9.00">alt</text>
</g>
<!-- plan_1723791_2 -->
<g id="node3" class="node">
<title>plan_1723791_2</title>
<path fill="lightgreen" stroke="black" stroke-width="3" d="M252.51,-1062C252.51,-1062 147.51,-1062 147.51,-1062 141.51,-1062 135.51,-1056 135.51,-1050 135.51,-1050 135.51,-1006 135.51,-1006 135.51,-1000 141.51,-994 147.51,-994 147.51,-994 252.51,-994 252.51,-994 258.51,-994 264.51,-1000 264.51,-1006 264.51,-1006 264.51,-1050 264.51,-1050 264.51,-1056 258.51,-1062 252.51,-1062"/>
<text text-anchor="middle" x="200.01" y="-1050.8" font-family="Arial" font-size="9.00">T_SeqScan</text>
<text text-anchor="middle" x="200.01" y="-1040.8" font-family="Arial" font-size="9.00">[CHOSEN]</text>
<text text-anchor="middle" x="200.01" y="-1030.8" font-family="Arial" font-size="9.00">Startup: 0.000</text>
<text text-anchor="middle" x="200.01" y="-1020.8" font-family="Arial" font-size="9.00">Total: 15.000</text>
<text text-anchor="middle" x="200.01" y="-1010.8" font-family="Arial" font-size="9.00">Rows: 1000</text>
<text text-anchor="middle" x="200.01" y="-1000.8" font-family="Arial" font-size="9.00">Parent: public.test2 (26149)</text>
</g>
<!-- plan_1723791_0&#45;&gt;plan_1723791_2 -->
<!-- plan_1723791_6 -->
<g id="node7" class="node">
<title>plan_1723791_6</title>
<path fill="lightblue" stroke="black" d="M1096.01,-416C1096.01,-416 995.01,-416 995.01,-416 989.01,-416 983.01,-410 983.01,-404 983.01,-404 983.01,-360 983.01,-360 983.01,-354 989.01,-348 995.01,-348 995.01,-348 1096.01,-348 1096.01,-348 1102.01,-348 1108.01,-354 1108.01,-360 1108.01,-360 1108.01,-404 1108.01,-404 1108.01,-410 1102.01,-416 1096.01,-416"/>
<text text-anchor="middle" x="1045.51" y="-404.8" font-family="Arial" font-size="9.00">T_MergeJoin</text>
<text text-anchor="middle" x="1045.51" y="-394.8" font-family="Arial" font-size="9.00">Startup: 129.658</text>
<text text-anchor="middle" x="1045.51" y="-384.8" font-family="Arial" font-size="9.00">Total: 149.658</text>
<text text-anchor="middle" x="1045.51" y="-374.8" font-family="Arial" font-size="9.00">Rows: 1000</text>
<text text-anchor="middle" x="1045.51" y="-364.8" font-family="Arial" font-size="9.00">Outer: public.test1 (26144)</text>
<text text-anchor="middle" x="1045.51" y="-354.8" font-family="Arial" font-size="9.00">Inner: public.test2 (26149)</text>
</g>
<!-- plan_1723791_0&#45;&gt;plan_1723791_6 -->
<g id="edge6" class="edge">
<title>plan_1723791_0&#45;&gt;plan_1723791_6</title>
<path fill="none" stroke="#4f94cd" d="M264.61,-636.6C288.09,-646.23 314.35,-658.6 336.51,-673 406.53,-718.52 397.17,-769.72 475.01,-800 661.81,-872.68 773.65,-930.25 926.01,-800 1049.81,-694.17 905.76,-581.39 983.01,-438 986.13,-432.21 990.08,-426.71 994.47,-421.58"/>
<polygon fill="#4f94cd" stroke="#4f94cd" points="996.5,-422.99 999.4,-416.16 992.88,-419.69 996.5,-422.99"/>
<text text-anchor="middle" x="947.92" y="-532.98" font-family="Arial" font-size="9.00">outer</text>
</g>
<!-- plan_1723791_7 -->
<g id="node8" class="node">
<title>plan_1723791_7</title>
<path fill="lightblue" stroke="black" d="M1096.01,-305C1096.01,-305 995.01,-305 995.01,-305 989.01,-305 983.01,-299 983.01,-293 983.01,-293 983.01,-249 983.01,-249 983.01,-243 989.01,-237 995.01,-237 995.01,-237 1096.01,-237 1096.01,-237 1102.01,-237 1108.01,-243 1108.01,-249 1108.01,-249 1108.01,-293 1108.01,-293 1108.01,-299 1102.01,-305 1096.01,-305"/>
<text text-anchor="middle" x="1045.51" y="-293.8" font-family="Arial" font-size="9.00">T_NestLoop</text>
<text text-anchor="middle" x="1045.51" y="-283.8" font-family="Arial" font-size="9.00">Startup: 0.000</text>
<text text-anchor="middle" x="1045.51" y="-273.8" font-family="Arial" font-size="9.00">Total: 27487.555</text>
<text text-anchor="middle" x="1045.51" y="-263.8" font-family="Arial" font-size="9.00">Rows: 1000</text>
<text text-anchor="middle" x="1045.51" y="-253.8" font-family="Arial" font-size="9.00">Outer: public.test1 (26144)</text>
<text text-anchor="middle" x="1045.51" y="-243.8" font-family="Arial" font-size="9.00">Inner: public.test2 (26149)</text>
</g>
<!-- plan_1723791_0&#45;&gt;plan_1723791_7 -->
<g id="edge8" class="edge">
<title>plan_1723791_0&#45;&gt;plan_1723791_7</title>
<path fill="none" stroke="#4f94cd" d="M264.7,-631.51C422.81,-673.24 827.54,-769.07 926.01,-685 1048.87,-580.1 905.65,-467.83 983.01,-326 986.03,-320.46 989.83,-315.2 994.06,-310.28"/>
<polygon fill="#4f94cd" stroke="#4f94cd" points="995.89,-311.91 998.79,-305.08 992.27,-308.61 995.89,-311.91"/>
<text text-anchor="middle" x="960.57" y="-512.15" font-family="Arial" font-size="9.00">outer</text>
</g>
<!-- plan_1723791_8 -->
<g id="node9" class="node">
<title>plan_1723791_8</title>
<path fill="lightblue" stroke="black" d="M596.01,-307C596.01,-307 495.01,-307 495.01,-307 489.01,-307 483.01,-301 483.01,-295 483.01,-295 483.01,-251 483.01,-251 483.01,-245 489.01,-239 495.01,-239 495.01,-239 596.01,-239 596.01,-239 602.01,-239 608.01,-245 608.01,-251 608.01,-251 608.01,-295 608.01,-295 608.01,-301 602.01,-307 596.01,-307"/>
<text text-anchor="middle" x="545.51" y="-295.8" font-family="Arial" font-size="9.00">T_NestLoop</text>
<text text-anchor="middle" x="545.51" y="-285.8" font-family="Arial" font-size="9.00">Startup: 0.000</text>
<text text-anchor="middle" x="545.51" y="-275.8" font-family="Arial" font-size="9.00">Total: 15017.530</text>
<text text-anchor="middle" x="545.51" y="-265.8" font-family="Arial" font-size="9.00">Rows: 1000</text>
<text text-anchor="middle" x="545.51" y="-255.8" font-family="Arial" font-size="9.00">Outer: public.test1 (26144)</text>
<text text-anchor="middle" x="545.51" y="-245.8" font-family="Arial" font-size="9.00">Inner: public.test2 (26149)</text>
</g>
<!-- plan_1723791_0&#45;&gt;plan_1723791_8 -->
<g id="edge10" class="edge">
<title>plan_1723791_0&#45;&gt;plan_1723791_8</title>
<path fill="none" stroke="#4f94cd" d="M264.65,-597.63C289.07,-589.06 315.97,-576.59 336.51,-559 427.43,-481.14 396.01,-417.94 475.01,-328 479.9,-322.42 485.42,-317 491.16,-311.86"/>
<polygon fill="#4f94cd" stroke="#4f94cd" points="492.8,-313.67 496.47,-307.23 489.58,-309.98 492.8,-313.67"/>
<text text-anchor="middle" x="393.92" y="-454.99" font-family="Arial" font-size="9.00">outer</text>
</g>
<!-- plan_1723791_14 -->
<g id="node15" class="node">
<title>plan_1723791_14</title>
<path fill="lightblue" stroke="black" d="M596.01,-529C596.01,-529 495.01,-529 495.01,-529 489.01,-529 483.01,-523 483.01,-517 483.01,-517 483.01,-473 483.01,-473 483.01,-467 489.01,-461 495.01,-461 495.01,-461 596.01,-461 596.01,-461 602.01,-461 608.01,-467 608.01,-473 608.01,-473 608.01,-517 608.01,-517 608.01,-523 602.01,-529 596.01,-529"/>
<text text-anchor="middle" x="545.51" y="-517.8" font-family="Arial" font-size="9.00">T_HashJoin</text>
<text text-anchor="middle" x="545.51" y="-507.8" font-family="Arial" font-size="9.00">Startup: 27.500</text>
<text text-anchor="middle" x="545.51" y="-497.8" font-family="Arial" font-size="9.00">Total: 45.136</text>
<text text-anchor="middle" x="545.51" y="-487.8" font-family="Arial" font-size="9.00">Rows: 1000</text>
<text text-anchor="middle" x="545.51" y="-477.8" font-family="Arial" font-size="9.00">Outer: public.test1 (26144)</text>
<text text-anchor="middle" x="545.51" y="-467.8" font-family="Arial" font-size="9.00">Inner: public.test2 (26149)</text>
</g>
<!-- plan_1723791_0&#45;&gt;plan_1723791_14 -->
<g id="edge20" class="edge">
<title>plan_1723791_0&#45;&gt;plan_1723791_14</title>
<path fill="none" stroke="#4f94cd" d="M264.81,-591.9C324.78,-571.12 414.28,-540.12 475.79,-518.8"/>
<polygon fill="#4f94cd" stroke="#4f94cd" points="476.97,-520.99 482.78,-516.38 475.36,-516.36 476.97,-520.99"/>
<text text-anchor="middle" x="362.68" y="-546.98" font-family="Arial" font-size="9.00">outer</text>
</g>
<!-- plan_1723791_15 -->
<g id="node16" class="node">
<title>plan_1723791_15</title>
<path fill="lightblue" stroke="black" d="M846.01,-648C846.01,-648 745.01,-648 745.01,-648 739.01,-648 733.01,-642 733.01,-636 733.01,-636 733.01,-592 733.01,-592 733.01,-586 739.01,-580 745.01,-580 745.01,-580 846.01,-580 846.01,-580 852.01,-580 858.01,-586 858.01,-592 858.01,-592 858.01,-636 858.01,-636 858.01,-642 852.01,-648 846.01,-648"/>
<text text-anchor="middle" x="795.51" y="-636.8" font-family="Arial" font-size="9.00">T_HashJoin</text>
<text text-anchor="middle" x="795.51" y="-626.8" font-family="Arial" font-size="9.00">Startup: 27.500</text>
<text text-anchor="middle" x="795.51" y="-616.8" font-family="Arial" font-size="9.00">Total: 45.136</text>
<text text-anchor="middle" x="795.51" y="-606.8" font-family="Arial" font-size="9.00">Rows: 1000</text>
<text text-anchor="middle" x="795.51" y="-596.8" font-family="Arial" font-size="9.00">Outer: public.test2 (26149)</text>
<text text-anchor="middle" x="795.51" y="-586.8" font-family="Arial" font-size="9.00">Inner: public.test1 (26144)</text>
</g>
<!-- plan_1723791_0&#45;&gt;plan_1723791_15 -->
<g id="edge23" class="edge">
<title>plan_1723791_0&#45;&gt;plan_1723791_15</title>
<path fill="none" stroke="#cd6600" d="M264.52,-614C376.85,-614 609.63,-614 725.65,-614"/>
<polygon fill="#cd6600" stroke="#cd6600" points="725.78,-616.45 732.78,-614 725.78,-611.55 725.78,-616.45"/>
<text text-anchor="middle" x="487.78" y="-606.8" font-family="Arial" font-size="9.00">inner</text>
</g>
<!-- plan_1723791_16 -->
<g id="node17" class="node">
<title>plan_1723791_16</title>
<path fill="lightgreen" stroke="black" stroke-width="3" d="M1096.01,-537C1096.01,-537 995.01,-537 995.01,-537 989.01,-537 983.01,-531 983.01,-525 983.01,-525 983.01,-471 983.01,-471 983.01,-465 989.01,-459 995.01,-459 995.01,-459 1096.01,-459 1096.01,-459 1102.01,-459 1108.01,-465 1108.01,-471 1108.01,-471 1108.01,-525 1108.01,-525 1108.01,-531 1102.01,-537 1096.01,-537"/>
<text text-anchor="middle" x="1045.51" y="-525.8" font-family="Arial" font-size="9.00">T_HashJoin</text>
<text text-anchor="middle" x="1045.51" y="-515.8" font-family="Arial" font-size="9.00">[CHOSEN]</text>
<text text-anchor="middle" x="1045.51" y="-505.8" font-family="Arial" font-size="9.00">Startup: 27.500</text>
<text text-anchor="middle" x="1045.51" y="-495.8" font-family="Arial" font-size="9.00">Total: 45.136</text>
<text text-anchor="middle" x="1045.51" y="-485.8" font-family="Arial" font-size="9.00">Rows: 1000</text>
<text text-anchor="middle" x="1045.51" y="-475.8" font-family="Arial" font-size="9.00">Outer: public.test1 (26144)</text>
<text text-anchor="middle" x="1045.51" y="-465.8" font-family="Arial" font-size="9.00">Inner: public.test2 (26149)</text>
</g>
<!-- plan_1723791_0&#45;&gt;plan_1723791_16 -->
<g id="edge24" class="edge">
<title>plan_1723791_0&#45;&gt;plan_1723791_16</title>
<path fill="none" stroke="#4f94cd" d="M264.78,-632.81C289.07,-642.15 315.85,-655.31 336.51,-673 422.55,-746.7 375.12,-833.54 475.01,-887 651.73,-981.58 764.94,-1006.31 926.01,-887 981.78,-845.69 1021.78,-638.35 1037.34,-544.4"/>
<polygon fill="#4f94cd" stroke="#4f94cd" points="1039.79,-544.6 1038.51,-537.29 1034.96,-543.8 1039.79,-544.6"/>
<text text-anchor="middle" x="369.41" y="-722.83" font-family="Arial" font-size="9.00">outer</text>
</g>
<!-- plan_1723791_3 -->
<g id="node4" class="node">
<title>plan_1723791_3</title>
<path fill="lightblue" stroke="black" d="M252.51,-951C252.51,-951 147.51,-951 147.51,-951 141.51,-951 135.51,-945 135.51,-939 135.51,-939 135.51,-905 135.51,-905 135.51,-899 141.51,-893 147.51,-893 147.51,-893 252.51,-893 252.51,-893 258.51,-893 264.51,-899 264.51,-905 264.51,-905 264.51,-939 264.51,-939 264.51,-945 258.51,-951 252.51,-951"/>
<text text-anchor="middle" x="200.01" y="-939.8" font-family="Arial" font-size="9.00">T_IndexOnlyScan</text>
<text text-anchor="middle" x="200.01" y="-929.8" font-family="Arial" font-size="9.00">Startup: 0.275</text>
<text text-anchor="middle" x="200.01" y="-919.8" font-family="Arial" font-size="9.00">Total: 43.275</text>
<text text-anchor="middle" x="200.01" y="-909.8" font-family="Arial" font-size="9.00">Rows: 1000</text>
<text text-anchor="middle" x="200.01" y="-899.8" font-family="Arial" font-size="9.00">Parent: public.test2 (26149)</text>
</g>
<!-- plan_1723791_1&#45;&gt;plan_1723791_3 -->
<!-- plan_1723791_10 -->
<g id="node11" class="node">
<title>plan_1723791_10</title>
<path fill="lightblue" stroke="black" d="M1286.01,-537C1286.01,-537 1185.01,-537 1185.01,-537 1179.01,-537 1173.01,-531 1173.01,-525 1173.01,-525 1173.01,-481 1173.01,-481 1173.01,-475 1179.01,-469 1185.01,-469 1185.01,-469 1286.01,-469 1286.01,-469 1292.01,-469 1298.01,-475 1298.01,-481 1298.01,-481 1298.01,-525 1298.01,-525 1298.01,-531 1292.01,-537 1286.01,-537"/>
<text text-anchor="middle" x="1235.51" y="-525.8" font-family="Arial" font-size="9.00">T_NestLoop</text>
<text text-anchor="middle" x="1235.51" y="-515.8" font-family="Arial" font-size="9.00">Startup: 0.275</text>
<text text-anchor="middle" x="1235.51" y="-505.8" font-family="Arial" font-size="9.00">Total: 27515.830</text>
<text text-anchor="middle" x="1235.51" y="-495.8" font-family="Arial" font-size="9.00">Rows: 1000</text>
<text text-anchor="middle" x="1235.51" y="-485.8" font-family="Arial" font-size="9.00">Outer: public.test1 (26144)</text>
<text text-anchor="middle" x="1235.51" y="-475.8" font-family="Arial" font-size="9.00">Inner: public.test2 (26149)</text>
</g>
<!-- plan_1723791_1&#45;&gt;plan_1723791_10 -->
<g id="edge12" class="edge">
<title>plan_1723791_1&#45;&gt;plan_1723791_10</title>
<path fill="none" stroke="#4f94cd" d="M264.8,-531.92C287.45,-540.43 313.13,-550.12 336.51,-559 586.95,-654.16 667.55,-755.56 926.01,-685 1027.79,-657.21 1130.17,-586.31 1187.65,-541.65"/>
<polygon fill="#4f94cd" stroke="#4f94cd" points="1189.4,-543.39 1193.41,-537.15 1186.38,-539.53 1189.4,-543.39"/>
<text text-anchor="middle" x="689.64" y="-695.6" font-family="Arial" font-size="9.00">outer</text>
</g>
<!-- plan_1723791_11 -->
<g id="node12" class="node">
<title>plan_1723791_11</title>
<path fill="lightblue" stroke="black" d="M846.01,-305C846.01,-305 745.01,-305 745.01,-305 739.01,-305 733.01,-299 733.01,-293 733.01,-293 733.01,-249 733.01,-249 733.01,-243 739.01,-237 745.01,-237 745.01,-237 846.01,-237 846.01,-237 852.01,-237 858.01,-243 858.01,-249 858.01,-249 858.01,-293 858.01,-293 858.01,-299 852.01,-305 846.01,-305"/>
<text text-anchor="middle" x="795.51" y="-293.8" font-family="Arial" font-size="9.00">T_NestLoop</text>
<text text-anchor="middle" x="795.51" y="-283.8" font-family="Arial" font-size="9.00">Startup: 0.275</text>
<text text-anchor="middle" x="795.51" y="-273.8" font-family="Arial" font-size="9.00">Total: 15045.805</text>
<text text-anchor="middle" x="795.51" y="-263.8" font-family="Arial" font-size="9.00">Rows: 1000</text>
<text text-anchor="middle" x="795.51" y="-253.8" font-family="Arial" font-size="9.00">Outer: public.test1 (26144)</text>
<text text-anchor="middle" x="795.51" y="-243.8" font-family="Arial" font-size="9.00">Inner: public.test2 (26149)</text>
</g>
<!-- plan_1723791_1&#45;&gt;plan_1723791_11 -->
<g id="edge14" class="edge">
<title>plan_1723791_1&#45;&gt;plan_1723791_11</title>
<path fill="none" stroke="#4f94cd" d="M209.15,-478.95C233.4,-399.06 313.71,-177.42 475.01,-109 529.42,-85.92 552.63,-88.31 608.01,-109 672.91,-133.25 730.17,-191.41 763.59,-231.02"/>
<polygon fill="#4f94cd" stroke="#4f94cd" points="761.98,-232.92 768.34,-236.73 765.74,-229.78 761.98,-232.92"/>
<text text-anchor="middle" x="464.01" y="-101.8" font-family="Arial" font-size="9.00">outer</text>
</g>
<!-- plan_1723791_12 -->
<g id="node13" class="node">
<title>plan_1723791_12</title>
<path fill="lightblue" stroke="black" d="M846.01,-416C846.01,-416 745.01,-416 745.01,-416 739.01,-416 733.01,-410 733.01,-404 733.01,-404 733.01,-360 733.01,-360 733.01,-354 739.01,-348 745.01,-348 745.01,-348 846.01,-348 846.01,-348 852.01,-348 858.01,-354 858.01,-360 858.01,-360 858.01,-404 858.01,-404 858.01,-410 852.01,-416 846.01,-416"/>
<text text-anchor="middle" x="795.51" y="-404.8" font-family="Arial" font-size="9.00">T_MergeJoin</text>
<text text-anchor="middle" x="795.51" y="-394.8" font-family="Arial" font-size="9.00">Startup: 65.104</text>
<text text-anchor="middle" x="795.51" y="-384.8" font-family="Arial" font-size="9.00">Total: 125.604</text>
<text text-anchor="middle" x="795.51" y="-374.8" font-family="Arial" font-size="9.00">Rows: 1000</text>
<text text-anchor="middle" x="795.51" y="-364.8" font-family="Arial" font-size="9.00">Outer: public.test1 (26144)</text>
<text text-anchor="middle" x="795.51" y="-354.8" font-family="Arial" font-size="9.00">Inner: public.test2 (26149)</text>
</g>
<!-- plan_1723791_1&#45;&gt;plan_1723791_12 -->
<g id="edge16" class="edge">
<title>plan_1723791_1&#45;&gt;plan_1723791_12</title>
<path fill="none" stroke="#4f94cd" d="M211.97,-478.88C241.33,-405.72 329.5,-214.83 475.01,-142 527.87,-115.54 560.42,-106.93 608.01,-142 676.92,-192.8 607.82,-262.29 665.01,-326 681.1,-343.92 703.93,-356.34 725.95,-364.84"/>
<polygon fill="#4f94cd" stroke="#4f94cd" points="725.34,-367.22 732.76,-367.35 727.04,-362.62 725.34,-367.22"/>
<text text-anchor="middle" x="643.02" y="-304.15" font-family="Arial" font-size="9.00">outer</text>
</g>
<!-- plan_1723791_13 -->
<g id="node14" class="node">
<title>plan_1723791_13</title>
<path fill="lightblue" stroke="black" d="M596.01,-418C596.01,-418 495.01,-418 495.01,-418 489.01,-418 483.01,-412 483.01,-406 483.01,-406 483.01,-362 483.01,-362 483.01,-356 489.01,-350 495.01,-350 495.01,-350 596.01,-350 596.01,-350 602.01,-350 608.01,-356 608.01,-362 608.01,-362 608.01,-406 608.01,-406 608.01,-412 602.01,-418 596.01,-418"/>
<text text-anchor="middle" x="545.51" y="-406.8" font-family="Arial" font-size="9.00">T_MergeJoin</text>
<text text-anchor="middle" x="545.51" y="-396.8" font-family="Arial" font-size="9.00">Startup: 0.550</text>
<text text-anchor="middle" x="545.51" y="-386.8" font-family="Arial" font-size="9.00">Total: 101.550</text>
<text text-anchor="middle" x="545.51" y="-376.8" font-family="Arial" font-size="9.00">Rows: 1000</text>
<text text-anchor="middle" x="545.51" y="-366.8" font-family="Arial" font-size="9.00">Outer: public.test1 (26144)</text>
<text text-anchor="middle" x="545.51" y="-356.8" font-family="Arial" font-size="9.00">Inner: public.test2 (26149)</text>
</g>
<!-- plan_1723791_1&#45;&gt;plan_1723791_13 -->
<g id="edge18" class="edge">
<title>plan_1723791_1&#45;&gt;plan_1723791_13</title>
<path fill="none" stroke="#4f94cd" d="M264.81,-484.97C324.9,-463.28 414.64,-430.88 476.17,-408.67"/>
<polygon fill="#4f94cd" stroke="#4f94cd" points="477.03,-410.96 482.78,-406.28 475.36,-406.36 477.03,-410.96"/>
<text text-anchor="middle" x="362.92" y="-438.38" font-family="Arial" font-size="9.00">outer</text>
</g>
<!-- plan_1723791_2&#45;&gt;plan_1723791_3 -->
<g id="edge2" class="edge">
<title>plan_1723791_2&#45;&gt;plan_1723791_3</title>
<path fill="none" stroke="#7f7f7f" stroke-dasharray="5,2" d="M200.01,-993.89C200.01,-979.73 200.01,-965.56 200.01,-951.4"/>
<text text-anchor="middle" x="195.01" y="-965.44" font-family="Arial" font-size="9.00">alt</text>
</g>
<!-- plan_1723791_2&#45;&gt;plan_1723791_6 -->
<g id="edge7" class="edge">
<title>plan_1723791_2&#45;&gt;plan_1723791_6</title>
<path fill="none" stroke="#cd6600" d="M264.61,-1046.09C289.9,-1056.06 317.44,-1070.83 336.51,-1092 408.98,-1172.48 328.68,-1259.33 417.01,-1322 509.26,-1387.45 843.49,-1399.37 926.01,-1322 997.81,-1254.68 940.35,-526.7 983.01,-438 985.81,-432.17 989.52,-426.67 993.72,-421.55"/>
<polygon fill="#cd6600" stroke="#cd6600" points="995.68,-423.03 998.46,-416.16 992,-419.8 995.68,-423.03"/>
<text text-anchor="middle" x="954.16" y="-723.85" font-family="Arial" font-size="9.00">inner</text>
</g>
<!-- plan_1723791_2&#45;&gt;plan_1723791_7 -->
<g id="edge9" class="edge">
<title>plan_1723791_2&#45;&gt;plan_1723791_7</title>
<path fill="none" stroke="#cd6600" d="M264.9,-1039.62C308.52,-1045.45 367.37,-1049.16 418.01,-1038 675.18,-981.33 787.11,-956.74 926.01,-733 1022.34,-577.82 897.02,-487.15 983.01,-326 985.98,-320.43 989.75,-315.15 993.95,-310.22"/>
<polygon fill="#cd6600" stroke="#cd6600" points="995.79,-311.85 998.67,-305.02 992.16,-308.56 995.79,-311.85"/>
<text text-anchor="middle" x="915.01" y="-725.8" font-family="Arial" font-size="9.00">inner</text>
</g>
<!-- plan_1723791_2&#45;&gt;plan_1723791_10 -->
<g id="edge13" class="edge">
<title>plan_1723791_2&#45;&gt;plan_1723791_10</title>
<path fill="none" stroke="#cd6600" d="M264.74,-1044.69C290.51,-1054.49 318.39,-1069.51 336.51,-1092 499.41,-1294.23 284.83,-1638 544.51,-1638 544.51,-1638 544.51,-1638 796.51,-1638 1035.9,-1638 1194.77,-748.04 1228.01,-544.24"/>
<polygon fill="#cd6600" stroke="#cd6600" points="1230.44,-544.58 1229.14,-537.28 1225.6,-543.79 1230.44,-544.58"/>
<text text-anchor="middle" x="1151.44" y="-876.47" font-family="Arial" font-size="9.00">inner</text>
</g>
<!-- plan_1723791_2&#45;&gt;plan_1723791_12 -->
<g id="edge17" class="edge">
<title>plan_1723791_2&#45;&gt;plan_1723791_12</title>
<path fill="none" stroke="#cd6600" d="M264.7,-1016.2C290.63,-1008.22 318.64,-994.95 336.51,-973 552.15,-708.08 212.6,-435.7 475.01,-217 520.41,-179.16 557.44,-186.38 608.01,-217 654.77,-245.32 624.95,-288.79 665.01,-326 682.25,-342.01 704.78,-353.9 726.21,-362.49"/>
<polygon fill="#cd6600" stroke="#cd6600" points="725.41,-364.81 732.82,-365.05 727.18,-360.24 725.41,-364.81"/>
<text text-anchor="middle" x="398.16" y="-693.21" font-family="Arial" font-size="9.00">inner</text>
</g>
<!-- plan_1723791_2&#45;&gt;plan_1723791_14 -->
<g id="edge21" class="edge">
<title>plan_1723791_2&#45;&gt;plan_1723791_14</title>
<path fill="none" stroke="#cd6600" d="M264.91,-1028.67C313.18,-1025.68 377.78,-1013.66 418.01,-974 480.95,-911.95 524.36,-640.79 539.03,-536.28"/>
<polygon fill="#cd6600" stroke="#cd6600" points="541.46,-536.62 540,-529.34 536.61,-535.94 541.46,-536.62"/>
<text text-anchor="middle" x="478.41" y="-793.7" font-family="Arial" font-size="9.00">inner</text>
</g>
<!-- plan_1723791_2&#45;&gt;plan_1723791_15 -->
<g id="edge22" class="edge">
<title>plan_1723791_2&#45;&gt;plan_1723791_15</title>
<path fill="none" stroke="#4f94cd" d="M264.94,-1032.84C309.92,-1033.62 370.35,-1029.22 418.01,-1006 584.81,-924.75 717.49,-737.05 770.06,-654.36"/>
<polygon fill="#4f94cd" stroke="#4f94cd" points="772.34,-655.34 774.01,-648.12 768.2,-652.73 772.34,-655.34"/>
<text text-anchor="middle" x="561" y="-889.65" font-family="Arial" font-size="9.00">outer</text>
</g>
<!-- plan_1723791_2&#45;&gt;plan_1723791_16 -->
<g id="edge25" class="edge">
<title>plan_1723791_2&#45;&gt;plan_1723791_16</title>
<path fill="none" stroke="#cd6600" d="M264.85,-1045.02C290.48,-1054.85 318.23,-1069.81 336.51,-1092 428.93,-1204.19 302.27,-1319.76 417.01,-1409 595.57,-1547.89 756.04,-1558.29 926.01,-1409 991.83,-1351.19 1031.95,-721.62 1042.01,-544.26"/>
<polygon fill="#cd6600" stroke="#cd6600" points="1044.46,-544.27 1042.41,-537.15 1039.57,-544 1044.46,-544.27"/>
<text text-anchor="middle" x="1012.19" y="-813.56" font-family="Arial" font-size="9.00">inner</text>
</g>
<!-- plan_1723791_4 -->
<g id="node5" class="node">
<title>plan_1723791_4</title>
<path fill="lightblue" stroke="black" d="M252.51,-850C252.51,-850 147.51,-850 147.51,-850 141.51,-850 135.51,-844 135.51,-838 135.51,-838 135.51,-804 135.51,-804 135.51,-798 141.51,-792 147.51,-792 147.51,-792 252.51,-792 252.51,-792 258.51,-792 264.51,-798 264.51,-804 264.51,-804 264.51,-838 264.51,-838 264.51,-844 258.51,-850 252.51,-850"/>
<text text-anchor="middle" x="200.01" y="-838.8" font-family="Arial" font-size="9.00">T_IndexOnlyScan</text>
<text text-anchor="middle" x="200.01" y="-828.8" font-family="Arial" font-size="9.00">Startup: 0.275</text>
<text text-anchor="middle" x="200.01" y="-818.8" font-family="Arial" font-size="9.00">Total: 0.333</text>
<text text-anchor="middle" x="200.01" y="-808.8" font-family="Arial" font-size="9.00">Rows: 1</text>
<text text-anchor="middle" x="200.01" y="-798.8" font-family="Arial" font-size="9.00">Parent: public.test2 (26149)</text>
</g>
<!-- plan_1723791_3&#45;&gt;plan_1723791_4 -->
<g id="edge3" class="edge">
<title>plan_1723791_3&#45;&gt;plan_1723791_4</title>
<path fill="none" stroke="#7f7f7f" stroke-dasharray="5,2" d="M200.01,-892.83C200.01,-878.62 200.01,-864.41 200.01,-850.2"/>
<text text-anchor="middle" x="195.01" y="-864.31" font-family="Arial" font-size="9.00">alt</text>
</g>
<!-- plan_1723791_3&#45;&gt;plan_1723791_13 -->
<g id="edge19" class="edge">
<title>plan_1723791_3&#45;&gt;plan_1723791_13</title>
<path fill="none" stroke="#cd6600" d="M264.68,-911.1C289.98,-903.84 317.52,-891.83 336.51,-872 475.96,-726.38 360.93,-606.25 475.01,-440 479.08,-434.06 483.97,-428.43 489.24,-423.19"/>
<polygon fill="#cd6600" stroke="#cd6600" points="491.23,-424.68 494.63,-418.09 487.86,-421.13 491.23,-424.68"/>
<text text-anchor="middle" x="404.17" y="-658.96" font-family="Arial" font-size="9.00">inner</text>
</g>
<!-- plan_1723791_4&#45;&gt;plan_1723791_1 -->
<!-- plan_1723791_5 -->
<g id="node6" class="node">
<title>plan_1723791_5</title>
<path fill="lightblue" stroke="black" d="M252.51,-749C252.51,-749 147.51,-749 147.51,-749 141.51,-749 135.51,-743 135.51,-737 135.51,-737 135.51,-703 135.51,-703 135.51,-697 141.51,-691 147.51,-691 147.51,-691 252.51,-691 252.51,-691 258.51,-691 264.51,-697 264.51,-703 264.51,-703 264.51,-737 264.51,-737 264.51,-743 258.51,-749 252.51,-749"/>
<text text-anchor="middle" x="200.01" y="-737.8" font-family="Arial" font-size="9.00">T_BitmapHeapScan</text>
<text text-anchor="middle" x="200.01" y="-727.8" font-family="Arial" font-size="9.00">Startup: 0.303</text>
<text text-anchor="middle" x="200.01" y="-717.8" font-family="Arial" font-size="9.00">Total: 4.315</text>
<text text-anchor="middle" x="200.01" y="-707.8" font-family="Arial" font-size="9.00">Rows: 1</text>
<text text-anchor="middle" x="200.01" y="-697.8" font-family="Arial" font-size="9.00">Parent: public.test2 (26149)</text>
</g>
<!-- plan_1723791_4&#45;&gt;plan_1723791_5 -->
<g id="edge4" class="edge">
<title>plan_1723791_4&#45;&gt;plan_1723791_5</title>
<path fill="none" stroke="#7f7f7f" stroke-dasharray="5,2" d="M200.01,-791.83C200.01,-777.62 200.01,-763.41 200.01,-749.2"/>
<text text-anchor="middle" x="195.01" y="-763.31" font-family="Arial" font-size="9.00">alt</text>
</g>
<!-- plan_1723791_9 -->
<g id="node10" class="node">
<title>plan_1723791_9</title>
<path fill="lightblue" stroke="black" d="M252.51,-58C252.51,-58 147.51,-58 147.51,-58 141.51,-58 135.51,-52 135.51,-46 135.51,-46 135.51,-12 135.51,-12 135.51,-6 141.51,0 147.51,0 147.51,0 252.51,0 252.51,0 258.51,0 264.51,-6 264.51,-12 264.51,-12 264.51,-46 264.51,-46 264.51,-52 258.51,-58 252.51,-58"/>
<text text-anchor="middle" x="200.01" y="-46.8" font-family="Arial" font-size="9.00">T_Material</text>
<text text-anchor="middle" x="200.01" y="-36.8" font-family="Arial" font-size="9.00">Startup: 0.000</text>
<text text-anchor="middle" x="200.01" y="-26.8" font-family="Arial" font-size="9.00">Total: 20.000</text>
<text text-anchor="middle" x="200.01" y="-16.8" font-family="Arial" font-size="9.00">Rows: 1000</text>
<text text-anchor="middle" x="200.01" y="-6.8" font-family="Arial" font-size="9.00">Parent: public.test2 (26149)</text>
</g>
<!-- plan_1723791_5&#45;&gt;plan_1723791_9 -->
<g id="edge5" class="edge">
<title>plan_1723791_5&#45;&gt;plan_1723791_9</title>
<path fill="none" stroke="black" d="M135.25,-718.67C96.36,-713.89 50.71,-700.15 31.01,-663.5 -7.08,-592.64 16.73,-561.67 31.01,-482.5 60.31,-319.96 144.25,-139.66 181.65,-64.7"/>
<polygon fill="black" stroke="black" points="183.96,-65.56 184.9,-58.2 179.58,-63.36 183.96,-65.56"/>
</g>
<!-- plan_1723791_7&#45;&gt;plan_1723791_10 -->
<!-- plan_1723791_8&#45;&gt;plan_1723791_11 -->
<!-- plan_1723791_9&#45;&gt;plan_1723791_8 -->
<g id="edge11" class="edge">
<title>plan_1723791_9&#45;&gt;plan_1723791_8</title>
<path fill="none" stroke="#cd6600" d="M242.1,-58.19C304.07,-102.21 421.5,-185.63 490.38,-234.55"/>
<polygon fill="#cd6600" stroke="#cd6600" points="489.35,-236.83 496.48,-238.88 492.19,-232.83 489.35,-236.83"/>
<text text-anchor="middle" x="358.55" y="-141.52" font-family="Arial" font-size="9.00">inner</text>
</g>
<!-- plan_1723791_9&#45;&gt;plan_1723791_11 -->
<g id="edge15" class="edge">
<title>plan_1723791_9&#45;&gt;plan_1723791_11</title>
<path fill="none" stroke="#cd6600" d="M264.62,-25.12C347.96,-22.7 496.59,-27.71 608.01,-83 676.78,-117.13 735.19,-186.74 767.49,-231.01"/>
<polygon fill="#cd6600" stroke="#cd6600" points="765.6,-232.57 771.69,-236.81 769.57,-229.7 765.6,-232.57"/>
<text text-anchor="middle" x="597.01" y="-75.8" font-family="Arial" font-size="9.00">inner</text>
</g>
<!-- plan_1723791_11&#45;&gt;plan_1723791_7 -->
<!-- plan_1723791_12&#45;&gt;plan_1723791_6 -->
<!-- plan_1723791_13&#45;&gt;plan_1723791_12 -->
<!-- plan_1723791_14&#45;&gt;plan_1723791_15 -->
<!-- plan_1723791_15&#45;&gt;plan_1723791_16 -->
<!-- stats -->
<g id="node18" class="node">
<title>stats</title>
<polygon fill="lightyellow" stroke="black" points="285.01,-1161 109.01,-1161 109.01,-1113 291.01,-1113 291.01,-1155 285.01,-1161"/>
<polyline fill="none" stroke="black" points="285.01,-1161 285.01,-1155 "/>
<polyline fill="none" stroke="black" points="291.01,-1155 285.01,-1155 "/>
<text text-anchor="middle" x="200.01" y="-1149.8" font-family="Arial" font-size="9.00">Statistics</text>
<text text-anchor="middle" x="200.01" y="-1139.8" font-family="Arial" font-size="9.00">Total paths considered: 17</text>
<text text-anchor="middle" x="200.01" y="-1129.8" font-family="Arial" font-size="9.00">Cheapest: T_IndexOnlyScan (0.33)</text>
<text text-anchor="middle" x="200.01" y="-1119.8" font-family="Arial" font-size="9.00">Most expensive: T_NestLoop (27515.83)</text>
</g>
<!-- legend -->
<g id="node19" class="node">
<title>legend</title>
<polygon fill="white" stroke="black" points="278.51,-1272 115.51,-1272 115.51,-1204 284.51,-1204 284.51,-1266 278.51,-1272"/>
<polyline fill="none" stroke="black" points="278.51,-1272 278.51,-1266 "/>
<polyline fill="none" stroke="black" points="284.51,-1266 278.51,-1266 "/>
<text text-anchor="middle" x="200.01" y="-1260.8" font-family="Arial" font-size="9.00">Legend</text>
<text text-anchor="middle" x="200.01" y="-1250.8" font-family="Arial" font-size="9.00">Blue edge: outer input</text>
<text text-anchor="middle" x="200.01" y="-1240.8" font-family="Arial" font-size="9.00">Orange edge: inner input</text>
<text text-anchor="middle" x="200.01" y="-1230.8" font-family="Arial" font-size="9.00">Dashed cluster: relation/join group</text>
<text text-anchor="middle" x="200.01" y="-1220.8" font-family="Arial" font-size="9.00">Green node: selected plan</text>
<text text-anchor="middle" x="200.01" y="-1210.8" font-family="Arial" font-size="9.00">Black edge: relation path progression</text>
</g>
</g>
</svg>
