<?xml version="1.0" encoding="UTF-8" standalone="no"?>
<!DOCTYPE svg PUBLIC "-//W3C//DTD SVG 1.1//EN"
 "http://www.w3.org/Graphics/SVG/1.1/DTD/svg11.dtd">
<!-- Generated by graphviz version 2.43.0 (0)
 -->
<!-- Title: %3 Pages: 1 -->
<svg width="1318pt" height="1631pt"
 viewBox="0.00 0.00 1318.15 1631.00" xmlns="http://www.w3.org/2000/svg" xmlns:xlink="http://www.w3.org/1999/xlink">
<g id="graph0" class="graph" transform="scale(1 1) rotate(0) translate(4 1627)">
<title>%3</title>
<polygon fill="white" stroke="transparent" points="-4,4 -4,-1627 1314.15,-1627 1314.15,4 -4,4"/>
<g id="clust1" class="cluster">
<title>cluster_left</title>
<polygon fill="none" stroke="black" points="59.65,-180 59.65,-830 332.65,-830 332.65,-180 59.65,-180"/>
</g>
<g id="clust2" class="cluster">
<title>cluster_relations</title>
<polygon fill="none" stroke="black" points="67.65,-188 67.65,-822 324.65,-822 324.65,-188 67.65,-188"/>
</g>
<g id="clust3" class="cluster">
<title>cluster_rel_0</title>
<path fill="none" stroke="#a6a6a6" stroke-width="1.2" stroke-dasharray="5,2" d="M87.65,-610C87.65,-610 304.65,-610 304.65,-610 310.65,-610 316.65,-616 316.65,-622 316.65,-622 316.65,-802 316.65,-802 316.65,-808 310.65,-814 304.65,-814 304.65,-814 87.65,-814 87.65,-814 81.65,-814 75.65,-808 75.65,-802 75.65,-802 75.65,-622 75.65,-622 75.65,-616 81.65,-610 87.65,-610"/>
<text text-anchor="middle" x="196.15" y="-802" font-family="Arial" font-size="10.00">PID 1723791 • Relation RTI 1 (public.test1 (26144))</text>
</g>
<g id="clust4" class="cluster">
<title>cluster_rel_1</title>
<path fill="none" stroke="#a6a6a6" stroke-width="1.2" stroke-dasharray="5,2" d="M87.65,-196C87.65,-196 304.65,-196 304.65,-196 310.65,-196 316.65,-202 316.65,-208 316.65,-208 316.65,-590 316.65,-590 316.65,-596 310.65,-602 304.65,-602 304.65,-602 87.65,-602 87.65,-602 81.65,-602 75.65,-596 75.65,-590 75.65,-590 75.65,-208 75.65,-208 75.65,-202 81.65,-196 87.65,-196"/>
<text text-anchor="middle" x="196.15" y="-590" font-family="Arial" font-size="10.00">PID 1723791 • Relation RTI 2 (public.test2 (26149))</text>
</g>
<g id="clust5" class="cluster">
<title>cluster_join_0</title>
<path fill="none" stroke="#6e7b8b" stroke-width="1.2" stroke-dasharray="5,2" d="M483.15,-671C483.15,-671 1290.15,-671 1290.15,-671 1296.15,-671 1302.15,-677 1302.15,-683 1302.15,-683 1302.15,-994 1302.15,-994 1302.15,-1000 1296.15,-1006 1290.15,-1006 1290.15,-1006 483.15,-1006 483.15,-1006 477.15,-1006 471.15,-1000 471.15,-994 471.15,-994 471.15,-683 471.15,-683 471.15,-677 477.15,-671 483.15,-671"/>
<text text-anchor="middle" x="886.65" y="-994" font-family="Arial" font-size="10.00">PID 1723791 • JOIN_LEFT (outer: RTI 1, inner: RTI 2)</text>
</g>
<g id="clust6" class="cluster">
<title>cluster_join_1</title>
<path fill="none" stroke="#6e7b8b" stroke-width="1.2" stroke-dasharray="5,2" d="M673.15,-560C673.15,-560 910.15,-560 910.15,-560 916.15,-560 922.15,-566 922.15,-572 922.15,-572 922.15,-651 922.15,-651 922.15,-657 916.15,-663 910.15,-663 910.15,-663 673.15,-663 673.15,-663 667.15,-663 661.15,-657 661.15,-651 661.15,-651 661.15,-572 661.15,-572 661.15,-566 667.15,-560 673.15,-560"/>
<text text-anchor="middle" x="791.65" y="-651" font-family="Arial" font-size="10.00">PID 1723791 • JOIN_RIGHT (outer: RTI 2, inner: RTI 1)</text>
</g>
<!-- plan_1723791_0 -->
<g id="node1" class="node">
<title>plan_1723791_0</title>
<path fill="lightgreen" stroke="black" stroke-width="3" d="M248.65,-686C248.65,-686 143.65,-686 143.65,-686 137.65,-686 131.65,-680 131.65,-674 131.65,-674 131.65,-630 131.65,-630 131.65,-624 137.65,-618 143.65,-618 143.65,-618 248.65,-618 248.65,-618 254.65,-618 260.65,-624 260.65,-630 260.65,-630 260.65,-674 260.65,-674 260.65,-680 254.65,-686 248.65,-686"/>
<text text-anchor="middle" x="196.15" y="-674.8" font-family="Arial" font-size="9.00">T_SeqScan</text>
<text text-anchor="middle" x="196.15" y="-664.8" font-family="Arial" font-size="9.00">[CHOSEN]</text>
<text text-anchor="middle" x="196.15" y="-654.8" font-family="Arial" font-size="9.00">Startup: 0.000</text>
<text text-anchor="middle" x="196.15" y="-644.8" font-family="Arial" font-size="9.00">Total: 15.000</text>
<text text-anchor="middle" x="196.15" y="-634.8" font-family="Arial" font-size="9.00">Rows: 1000</text>
<text text-anchor="middle" x="196.15" y="-624.8" font-family="Arial" font-size="9.00">Parent: public.test1 (26144)</text>
</g>
<!-- plan_1723791_1 -->
<g id="node2" class="node">
<title>plan_1723791_1</title>
<path fill="lightblue" stroke="black" d="M248.65,-787C248.65,-787 143.65,-787 143.65,-787 137.65,-787 131.65,-781 131.65,-775 131.65,-775 131.65,-741 131.65,-741 131.65,-735 137.65,-729 143.65,-729 143.65,-729 248.65,-729 248.65,-729 254.65,-729 260.65,-735 260.65,-741 260.65,-741 260.65,-775 260.65,-775 260.65,-781 254.65,-787 248.65,-787"/>
<text text-anchor="middle" x="196.15" y="-775.8" font-family="Arial" font-size="9.00">T_IndexOnlyScan</text>
<text text-anchor="middle" x="196.15" y="-765.8" font-family="Arial" font-size="9.00">Startup: 0.275</text>
<text text-anchor="middle" x="196.15" y="-755.8" font-family="Arial" font-size="9.00">Total: 43.275</text>
<text text-anchor="middle" x="196.15" y="-745.8" font-family="Arial" font-size="9.00">Rows: 1000</text>
<text text-anchor="middle" x="196.15" y="-735.8" font-family="Arial" font-size="9.00">Parent: public.test1 (26144)</text>
</g>
<!-- plan_1723791_0&#45;&gt;plan_1723791_1 -->
<g id="edge1" class="edge">
<title>plan_1723791_0&#45;&gt;plan_1723791_1</title>
<path fill="none" stroke="#7f7f7f" stroke-dasharray="5,2" d="M196.15,-686.37C196.15,-700.54 196.15,-714.72 196.15,-728.9"/>
<text text-anchor="middle" x="191.15" y="-700.43" font-family="Arial" font-size="9.00">alt</text>
</g>
<!-- plan_1723791_2 -->
<g id="node3" class="node">
<title>plan_1723791_2</title>
<path fill="lightgreen" stroke="black" stroke-width="3" d="M248.65,-474C248.65,-474 143.65,-474 143.65,-474 137.65,-474 131.65,-468 131.65,-462 131.65,-462 131.65,-418 131.65,-418 131.65,-412 137.65,-406 143.65,-406 143.65,-406 248.65,-406 248.65,-406 254.65,-406 260.65,-412 260.65,-418 260.65,-418 260.65,-462 260.65,-462 260.65,-468 254.65,-474 248.65,-474"/>
<text text-anchor="middle" x="196.15" y="-462.8" font-family="Arial" font-size="9.00">T_SeqScan</text>
<text text-anchor="middle" x="196.15" y="-452.8" font-family="Arial" font-size="9.00">[CHOSEN]</text>
<text text-anchor="middle" x="196.15" y="-442.8" font-family="Arial" font-size="9.00">Startup: 0.000</text>
<text text-anchor="middle" x="196.15" y="-432.8" font-family="Arial" font-size="9.00">Total: 15.000</text>
<text text-anchor="middle" x="196.15" y="-422.8" font-family="Arial" font-size="9.00">Rows: 1000</text>
<text text-anchor="middle" x="196.15" y="-412.8" font-family="Arial" font-size="9.00">Parent: public.test2 (26149)</text>
</g>
<!-- plan_1723791_0&#45;&gt;plan_1723791_2 -->
<!-- plan_1723791_6 -->
<g id="node7" class="node">
<title>plan_1723791_6</title>
<path fill="lightblue" stroke="black" d="M1092.15,-747C1092.15,-747 991.15,-747 991.15,-747 985.15,-747 979.15,-741 979.15,-735 979.15,-735 979.15,-691 979.15,-691 979.15,-685 985.15,-679 991.15,-679 991.15,-679 1092.15,-679 1092.15,-679 1098.15,-679 1104.15,-685 1104.15,-691 1104.15,-691 1104.15,-735 1104.15,-735 1104.15,-741 1098.15,-747 1092.15,-747"/>
<text text-anchor="middle" x="1041.65" y="-735.8" font-family="Arial" font-size="9.00">T_MergeJoin</text>
<text text-anchor="middle" x="1041.65" y="-725.8" font-family="Arial" font-size="9.00">Startup: 129.658</text>
<text text-anchor="middle" x="1041.65" y="-715.8" font-family="Arial" font-size="9.00">Total: 149.658</text>
<text text-anchor="middle" x="1041.65" y="-705.8" font-family="Arial" font-size="9.00">Rows: 1000</text>
<text text-anchor="middle" x="1041.65" y="-695.8" font-family="Arial" font-size="9.00">Outer: public.test1 (26144)</text>
<text text-anchor="middle" x="1041.65" y="-685.8" font-family="Arial" font-size="9.00">Inner: public.test2 (26149)</text>
</g>
<!-- plan_1723791_0&#45;&gt;plan_1723791_6 -->
<g id="edge6" class="edge">
<title>plan_1723791_0&#45;&gt;plan_1723791_6</title>
<path fill="none" stroke="#4f94cd" d="M260.91,-642.6C285.06,-636.74 311.75,-627.26 332.65,-612 421.15,-547.37 374.31,-459.3 471.15,-408 648.27,-314.16 756.73,-294.8 922.15,-408 1009.9,-468.05 1032.68,-603.34 1038.59,-671.74"/>
<polygon fill="#4f94cd" stroke="#4f94cd" points="1036.16,-672.17 1039.17,-678.95 1041.05,-671.77 1036.16,-672.17"/>
<text text-anchor="middle" x="387.77" y="-497.8" font-family="Arial" font-size="9.00">outer</text>
</g>
<!-- plan_1723791_7 -->
<g id="node8" class="node">
<title>plan_1723791_7</title>
<path fill="lightblue" stroke="black" d="M1092.15,-858C1092.15,-858 991.15,-858 991.15,-858 985.15,-858 979.15,-852 979.15,-846 979.15,-846 979.15,-802 979.15,-802 979.15,-796 985.15,-790 991.15,-790 991.15,-790 1092.15,-790 1092.15,-790 1098.15,-790 1104.15,-796 1104.15,-802 1104.15,-802 1104.15,-846 1104.15,-846 1104.15,-852 1098.15,-858 1092.15,-858"/>
<text text-anchor="middle" x="1041.65" y="-846.8" font-family="Arial" font-size="9.00">T_NestLoop</text>
<text text-anchor="middle" x="1041.65" y="-836.8" font-family="Arial" font-size="9.00">Startup: 0.000</text>
<text text-anchor="middle" x="1041.65" y="-826.8" font-family="Arial" font-size="9.00">Total: 27487.555</text>
<text text-anchor="middle" x="1041.65" y="-816.8" font-family="Arial" font-size="9.00">Rows: 1000</text>
<text text-anchor="middle" x="1041.65" y="-806.8" font-family="Arial" font-size="9.00">Outer: public.test1 (26144)</text>
<text text-anchor="middle" x="1041.65" y="-796.8" font-family="Arial" font-size="9.00">Inner: public.test2 (26149)</text>
</g>
<!-- plan_1723791_0&#45;&gt;plan_1723791_7 -->
<g id="edge8" class="edge">
<title>plan_1723791_0&#45;&gt;plan_1723791_7</title>
<path fill="none" stroke="#4f94cd" d="M260.97,-633.36C349.76,-608.49 516.02,-565.76 661.15,-550 776.47,-537.47 830.37,-479.05 922.15,-550 1001.72,-611.51 926.76,-683.15 979.15,-769 982.49,-774.48 986.55,-779.72 990.96,-784.65"/>
<polygon fill="#4f94cd" stroke="#4f94cd" points="989.3,-786.45 995.88,-789.86 992.86,-783.09 989.3,-786.45"/>
<text text-anchor="middle" x="650.15" y="-542.8" font-family="Arial" font-size="9.00">outer</text>
</g>
<!-- plan_1723791_8 -->
<g id="node9" class="node">
<title>plan_1723791_8</title>
<path fill="lightblue" stroke="black" d="M592.15,-979C592.15,-979 491.15,-979 491.15,-979 485.15,-979 479.15,-973 479.15,-967 479.15,-967 479.15,-923 479.15,-923 479.15,-917 485.15,-911 491.15,-911 491.15,-911 592.15,-911 592.15,-911 598.15,-911 604.15,-917 604.15,-923 604.15,-923 604.15,-967 604.15,-967 604.15,-973 598.15,-979 592.15,-979"/>
<text text-anchor="middle" x="541.65" y="-967.8" font-family="Arial" font-size="9.00">T_NestLoop</text>
<text text-anchor="middle" x="541.65" y="-957.8" font-family="Arial" font-size="9.00">Startup: 0.000</text>
<text text-anchor="middle" x="541.65" y="-947.8" font-family="Arial" font-size="9.00">Total: 15017.530</text>
<text text-anchor="middle" x="541.65" y="-937.8" font-family="Arial" font-size="9.00">Rows: 1000</text>
<text text-anchor="middle" x="541.65" y="-927.8" font-family="Arial" font-size="9.00">Outer: public.test1 (26144)</text>
<text text-anchor="middle" x="541.65" y="-917.8" font-family="Arial" font-size="9.00">Inner: public.test2 (26149)</text>
</g>
<!-- plan_1723791_0&#45;&gt;plan_1723791_8 -->
<g id="edge10" class="edge">
<title>plan_1723791_0&#45;&gt;plan_1723791_8</title>
<path fill="none" stroke="#4f94cd" d="M260.86,-670.45C284.87,-679.35 311.47,-691.7 332.65,-708 413.19,-770.01 399.96,-817.45 471.15,-890 476.51,-895.47 482.42,-900.88 488.45,-906.07"/>
<polygon fill="#4f94cd" stroke="#4f94cd" points="487.08,-908.12 494.01,-910.76 490.24,-904.37 487.08,-908.12"/>
<text text-anchor="middle" x="385.53" y="-772.15" font-family="Arial" font-size="9.00">outer</text>
</g>
<!-- plan_1723791_14 -->
<g id="node15" class="node">
<title>plan_1723791_14</title>
<path fill="lightgreen" stroke="black" stroke-width="3" d="M592.15,-757C592.15,-757 491.15,-757 491.15,-757 485.15,-757 479.15,-751 479.15,-745 479.15,-745 479.15,-691 479.15,-691 479.15,-685 485.15,-679 491.15,-679 491.15,-679 592.15,-679 592.15,-679 598.15,-679 604.15,-685 604.15,-691 604.15,-691 604.15,-745 604.15,-745 604.15,-751 598.15,-757 592.15,-757"/>
<text text-anchor="middle" x="541.65" y="-745.8" font-family="Arial" font-size="9.00">T_HashJoin</text>
<text text-anchor="middle" x="541.65" y="-735.8" font-family="Arial" font-size="9.00">[CHOSEN]</text>
<text text-anchor="middle" x="541.65" y="-725.8" font-family="Arial" font-size="9.00">Startup: 27.500</text>
<text text-anchor="middle" x="541.65" y="-715.8" font-family="Arial" font-size="9.00">Total: 45.136</text>
<text text-anchor="middle" x="541.65" y="-705.8" font-family="Arial" font-size="9.00">Rows: 1000</text>
<text text-anchor="middle" x="541.65" y="-695.8" font-family="Arial" font-size="9.00">Outer: public.test1 (26144)</text>
<text text-anchor="middle" x="541.65" y="-685.8" font-family="Arial" font-size="9.00">Inner: public.test2 (26149)</text>
</g>
<!-- plan_1723791_0&#45;&gt;plan_1723791_14 -->
<g id="edge20" class="edge">
<title>plan_1723791_0&#45;&gt;plan_1723791_14</title>
<path fill="none" stroke="#4f94cd" d="M260.73,-676.95C318.93,-699.34 398.34,-728.62 414.15,-728 432.81,-727.26 452.97,-725.92 471.61,-724.45"/>
<polygon fill="#4f94cd" stroke="#4f94cd" points="472.16,-726.86 478.94,-723.86 471.77,-721.98 472.16,-726.86"/>
<text text-anchor="middle" x="353.63" y="-707.74" font-family="Arial" font-size="9.00">outer</text>
</g>
<!-- plan_1723791_15 -->
<g id="node16" class="node">
<title>plan_1723791_15</title>
<path fill="lightblue" stroke="black" d="M842.15,-636C842.15,-636 741.15,-636 741.15,-636 735.15,-636 729.15,-630 729.15,-624 729.15,-624 729.15,-580 729.15,-580 729.15,-574 735.15,-568 741.15,-568 741.15,-568 842.15,-568 842.15,-568 848.15,-568 854.15,-574 854.15,-580 854.15,-580 854.15,-624 854.15,-624 854.15,-630 848.15,-636 842.15,-636"/>
<text text-anchor="middle" x="791.65" y="-624.8" font-family="Arial" font-size="9.00">T_HashJoin</text>
<text text-anchor="middle" x="791.65" y="-614.8" font-family="Arial" font-size="9.00">Startup: 27.500</text>
<text text-anchor="middle" x="791.65" y="-604.8" font-family="Arial" font-size="9.00">Total: 45.136</text>
<text text-anchor="middle" x="791.65" y="-594.8" font-family="Arial" font-size="9.00">Rows: 1000</text>
<text text-anchor="middle" x="791.65" y="-584.8" font-family="Arial" font-size="9.00">Outer: public.test2 (26149)</text>
<text text-anchor="middle" x="791.65" y="-574.8" font-family="Arial" font-size="9.00">Inner: public.test1 (26144)</text>
</g>
<!-- plan_1723791_0&#45;&gt;plan_1723791_15 -->
<g id="edge23" class="edge">
<title>plan_1723791_0&#45;&gt;plan_1723791_15</title>
<path fill="none" stroke="#cd6600" d="M260.82,-649.65C304.1,-647.84 362.62,-644.97 414.15,-641 521.89,-632.69 646.57,-618.97 721.97,-610.21"/>
<polygon fill="#cd6600" stroke="#cd6600" points="722.44,-612.62 729.11,-609.38 721.87,-607.75 722.44,-612.62"/>
<text text-anchor="middle" x="484.13" y="-626.9" font-family="Arial" font-size="9.00">inner</text>
</g>
<!-- plan_1723791_3 -->
<g id="node4" class="node">
<title>plan_1723791_3</title>
<path fill="lightblue" stroke="black" d="M248.65,-575C248.65,-575 143.65,-575 143.65,-575 137.65,-575 131.65,-569 131.65,-563 131.65,-563 131.65,-529 131.65,-529 131.65,-523 137.65,-517 143.65,-517 143.65,-517 248.65,-517 248.65,-517 254.65,-517 260.65,-523 260.65,-529 260.65,-529 260.65,-563 260.65,-563 260.65,-569 254.65,-575 248.65,-575"/>
<text text-anchor="middle" x="196.15" y="-563.8" font-family="Arial" font-size="9.00">T_IndexOnlyScan</text>
<text text-anchor="middle" x="196.15" y="-553.8" font-family="Arial" font-size="9.00">Startup: 0.275</text>
<text text-anchor="middle" x="196.15" y="-543.8" font-family="Arial" font-size="9.00">Total: 43.275</text>
<text text-anchor="middle" x="196.15" y="-533.8" font-family="Arial" font-size="9.00">Rows: 1000</text>
<text text-anchor="middle" x="196.15" y="-523.8" font-family="Arial" font-size="9.00">Parent: public.test2 (26149)</text>
</g>
<!-- plan_1723791_1&#45;&gt;plan_1723791_3 -->
<!-- plan_1723791_10 -->
<g id="node11" class="node">
<title>plan_1723791_10</title>
<path fill="lightblue" stroke="black" d="M1282.15,-858C1282.15,-858 1181.15,-858 1181.15,-858 1175.15,-858 1169.15,-852 1169.15,-846 1169.15,-846 1169.15,-802 1169.15,-802 1169.15,-796 1175.15,-790 1181.15,-790 1181.15,-790 1282.15,-790 1282.15,-790 1288.15,-790 1294.15,-796 1294.15,-802 1294.15,-802 1294.15,-846 1294.15,-846 1294.15,-852 1288.15,-858 1282.15,-858"/>
<text text-anchor="middle" x="1231.65" y="-846.8" font-family="Arial" font-size="9.00">T_NestLoop</text>
<text text-anchor="middle" x="1231.65" y="-836.8" font-family="Arial" font-size="9.00">Startup: 0.275</text>
<text text-anchor="middle" x="1231.65" y="-826.8" font-family="Arial" font-size="9.00">Total: 27515.830</text>
<text text-anchor="middle" x="1231.65" y="-816.8" font-family="Arial" font-size="9.00">Rows: 1000</text>
<text text-anchor="middle" x="1231.65" y="-806.8" font-family="Arial" font-size="9.00">Outer: public.test1 (26144)</text>
<text text-anchor="middle" x="1231.65" y="-796.8" font-family="Arial" font-size="9.00">Inner: public.test2 (26149)</text>
</g>
<!-- plan_1723791_1&#45;&gt;plan_1723791_10 -->
<g id="edge12" class="edge">
<title>plan_1723791_1&#45;&gt;plan_1723791_10</title>
<path fill="none" stroke="#4f94cd" d="M198.92,-787.31C208.15,-912 261.8,-1392 540.65,-1392 540.65,-1392 540.65,-1392 792.65,-1392 1058.77,-1392 1185.82,-996.16 1220.53,-865.38"/>
<polygon fill="#4f94cd" stroke="#4f94cd" points="1222.99,-865.64 1222.4,-858.25 1218.25,-864.4 1222.99,-865.64"/>
<text text-anchor="middle" x="1167.64" y="-989.81" font-family="Arial" font-size="9.00">outer</text>
</g>
<!-- plan_1723791_11 -->
<g id="node12" class="node">
<title>plan_1723791_11</title>
<path fill="lightblue" stroke="black" d="M842.15,-979C842.15,-979 741.15,-979 741.15,-979 735.15,-979 729.15,-973 729.15,-967 729.15,-967 729.15,-923 729.15,-923 729.15,-917 735.15,-911 741.15,-911 741.15,-911 842.15,-911 842.15,-911 848.15,-911 854.15,-917 854.15,-923 854.15,-923 854.15,-967 854.15,-967 854.15,-973 848.15,-979 842.15,-979"/>
<text text-anchor="middle" x="791.65" y="-967.8" font-family="Arial" font-size="9.00">T_NestLoop</text>
<text text-anchor="middle" x="791.65" y="-957.8" font-family="Arial" font-size="9.00">Startup: 0.275</text>
<text text-anchor="middle" x="791.65" y="-947.8" font-family="Arial" font-size="9.00">Total: 15045.805</text>
<text text-anchor="middle" x="791.65" y="-937.8" font-family="Arial" font-size="9.00">Rows: 1000</text>
<text text-anchor="middle" x="791.65" y="-927.8" font-family="Arial" font-size="9.00">Outer: public.test1 (26144)</text>
<text text-anchor="middle" x="791.65" y="-917.8" font-family="Arial" font-size="9.00">Inner: public.test2 (26149)</text>
</g>
<!-- plan_1723791_1&#45;&gt;plan_1723791_11 -->
<g id="edge14" class="edge">
<title>plan_1723791_1&#45;&gt;plan_1723791_11</title>
<path fill="none" stroke="#4f94cd" d="M206.7,-787.1C230.32,-854.4 298.05,-1021.67 413.15,-1108 481.3,-1159.11 525.12,-1155.79 604.15,-1124 673.48,-1096.11 731.53,-1028.76 763.64,-985.09"/>
<polygon fill="#4f94cd" stroke="#4f94cd" points="765.67,-986.46 767.8,-979.36 761.71,-983.58 765.67,-986.46"/>
<text text-anchor="middle" x="304.78" y="-997.12" font-family="Arial" font-size="9.00">outer</text>
</g>
<!-- plan_1723791_12 -->
<g id="node13" class="node">
<title>plan_1723791_12</title>
<path fill="lightblue" stroke="black" d="M842.15,-868C842.15,-868 741.15,-868 741.15,-868 735.15,-868 729.15,-862 729.15,-856 729.15,-856 729.15,-812 729.15,-812 729.15,-806 735.15,-800 741.15,-800 741.15,-800 842.15,-800 842.15,-800 848.15,-800 854.15,-806 854.15,-812 854.15,-812 854.15,-856 854.15,-856 854.15,-862 848.15,-868 842.15,-868"/>
<text text-anchor="middle" x="791.65" y="-856.8" font-family="Arial" font-size="9.00">T_MergeJoin</text>
<text text-anchor="middle" x="791.65" y="-846.8" font-family="Arial" font-size="9.00">Startup: 65.104</text>
<text text-anchor="middle" x="791.65" y="-836.8" font-family="Arial" font-size="9.00">Total: 125.604</text>
<text text-anchor="middle" x="791.65" y="-826.8" font-family="Arial" font-size="9.00">Rows: 1000</text>
<text text-anchor="middle" x="791.65" y="-816.8" font-family="Arial" font-size="9.00">Outer: public.test1 (26144)</text>
<text text-anchor="middle" x="791.65" y="-806.8" font-family="Arial" font-size="9.00">Inner: public.test2 (26149)</text>
</g>
<!-- plan_1723791_1&#45;&gt;plan_1723791_12 -->
<g id="edge16" class="edge">
<title>plan_1723791_1&#45;&gt;plan_1723791_12</title>
<path fill="none" stroke="#4f94cd" d="M206.36,-787.03C229.05,-852.98 294.6,-1013.21 413.15,-1076 488.17,-1115.73 535.89,-1126.47 604.15,-1076 673.67,-1024.59 603.49,-954.43 661.15,-890 677.21,-872.05 700.04,-859.63 722.07,-851.14"/>
<polygon fill="#4f94cd" stroke="#4f94cd" points="723.15,-853.35 728.87,-848.63 721.45,-848.75 723.15,-853.35"/>
<text text-anchor="middle" x="635.96" y="-903.16" font-family="Arial" font-size="9.00">outer</text>
</g>
<!-- plan_1723791_13 -->
<g id="node14" class="node">
<title>plan_1723791_13</title>
<path fill="lightblue" stroke="black" d="M592.15,-868C592.15,-868 491.15,-868 491.15,-868 485.15,-868 479.15,-862 479.15,-856 479.15,-856 479.15,-812 479.15,-812 479.15,-806 485.15,-800 491.15,-800 491.15,-800 592.15,-800 592.15,-800 598.15,-800 604.15,-806 604.15,-812 604.15,-812 604.15,-856 604.15,-856 604.15,-862 598.15,-868 592.15,-868"/>
<text text-anchor="middle" x="541.65" y="-856.8" font-family="Arial" font-size="9.00">T_MergeJoin</text>
<text text-anchor="middle" x="541.65" y="-846.8" font-family="Arial" font-size="9.00">Startup: 0.550</text>
<text text-anchor="middle" x="541.65" y="-836.8" font-family="Arial" font-size="9.00">Total: 101.550</text>
<text text-anchor="middle" x="541.65" y="-826.8" font-family="Arial" font-size="9.00">Rows: 1000</text>
<text text-anchor="middle" x="541.65" y="-816.8" font-family="Arial" font-size="9.00">Outer: public.test1 (26144)</text>
<text text-anchor="middle" x="541.65" y="-806.8" font-family="Arial" font-size="9.00">Inner: public.test2 (26149)</text>
</g>
<!-- plan_1723791_1&#45;&gt;plan_1723791_13 -->
<g id="edge18" class="edge">
<title>plan_1723791_1&#45;&gt;plan_1723791_13</title>
<path fill="none" stroke="#4f94cd" d="M260.95,-772.12C320.92,-785.39 410.42,-805.19 471.94,-818.8"/>
<polygon fill="#4f94cd" stroke="#4f94cd" points="471.56,-821.22 478.92,-820.34 472.62,-816.44 471.56,-821.22"/>
<text text-anchor="middle" x="358.83" y="-789.01" font-family="Arial" font-size="9.00">outer</text>
</g>
<!-- plan_1723791_2&#45;&gt;plan_1723791_3 -->
<g id="edge2" class="edge">
<title>plan_1723791_2&#45;&gt;plan_1723791_3</title>
<path fill="none" stroke="#7f7f7f" stroke-dasharray="5,2" d="M196.15,-474.37C196.15,-488.54 196.15,-502.72 196.15,-516.9"/>
<text text-anchor="middle" x="191.15" y="-488.43" font-family="Arial" font-size="9.00">alt</text>
</g>
<!-- plan_1723791_2&#45;&gt;plan_1723791_6 -->
<g id="edge7" class="edge">
<title>plan_1723791_2&#45;&gt;plan_1723791_6</title>
<path fill="none" stroke="#cd6600" d="M260.82,-426.52C286.11,-418.29 313.65,-405.29 332.65,-385 410.41,-301.95 320.91,-208.61 413.15,-142 481.97,-92.3 522.07,-122.34 604.15,-144 760.34,-185.22 820.69,-194.3 922.15,-320 1008.11,-426.5 1031.79,-594.39 1038.25,-671.62"/>
<polygon fill="#cd6600" stroke="#cd6600" points="1035.83,-672.03 1038.83,-678.81 1040.71,-671.64 1035.83,-672.03"/>
<text text-anchor="middle" x="337.45" y="-357.42" font-family="Arial" font-size="9.00">inner</text>
</g>
<!-- plan_1723791_2&#45;&gt;plan_1723791_7 -->
<g id="edge9" class="edge">
<title>plan_1723791_2&#45;&gt;plan_1723791_7</title>
<path fill="none" stroke="#cd6600" d="M261.03,-418.5C303.57,-405.33 361.03,-389.76 413.15,-383 643.85,-353.07 759.56,-338.62 922.15,-505 1006.04,-590.85 918.79,-665.24 979.15,-769 982.32,-774.46 986.23,-779.66 990.51,-784.54"/>
<polygon fill="#cd6600" stroke="#cd6600" points="988.75,-786.24 995.3,-789.71 992.34,-782.91 988.75,-786.24"/>
<text text-anchor="middle" x="626.59" y="-357.55" font-family="Arial" font-size="9.00">inner</text>
</g>
<!-- plan_1723791_2&#45;&gt;plan_1723791_10 -->
<g id="edge13" class="edge">
<title>plan_1723791_2&#45;&gt;plan_1723791_10</title>
<path fill="none" stroke="#cd6600" d="M260.94,-426.63C286.25,-418.42 313.77,-405.4 332.65,-385 412.79,-298.39 352.68,-233.33 413.15,-132 454.95,-61.96 459.08,0 540.65,0 540.65,0 540.65,0 792.65,0 1151.23,0 1217.17,-615.95 1228.46,-782.76"/>
<polygon fill="#cd6600" stroke="#cd6600" points="1226.02,-783.08 1228.92,-789.9 1230.91,-782.76 1226.02,-783.08"/>
<text text-anchor="middle" x="364.94" y="-350.56" font-family="Arial" font-size="9.00">inner</text>
</g>
<!-- plan_1723791_2&#45;&gt;plan_1723791_12 -->
<g id="edge17" class="edge">
<title>plan_1723791_2&#45;&gt;plan_1723791_12</title>
<path fill="none" stroke="#cd6600" d="M260.67,-453.27C286.24,-461.6 314.03,-474.92 332.65,-496 486.68,-670.46 286.1,-859.86 471.15,-1001 518.15,-1036.85 553.7,-1031.81 604.15,-1001 651.48,-972.1 620.66,-927.89 661.15,-890 678.33,-873.92 700.85,-862.02 722.29,-853.44"/>
<polygon fill="#cd6600" stroke="#cd6600" points="723.25,-855.69 728.9,-850.87 721.48,-851.12 723.25,-855.69"/>
<text text-anchor="middle" x="384.56" y="-649.08" font-family="Arial" font-size="9.00">inner</text>
</g>
<!-- plan_1723791_2&#45;&gt;plan_1723791_14 -->
<g id="edge21" class="edge">
<title>plan_1723791_2&#45;&gt;plan_1723791_14</title>
<path fill="none" stroke="#cd6600" d="M260.97,-406.23C307.34,-386.79 369.52,-371.79 414.15,-403 474.64,-445.3 443.69,-490.48 471.15,-559 486.58,-597.51 505.52,-640.59 519.73,-672.19"/>
<polygon fill="#cd6600" stroke="#cd6600" points="517.58,-673.38 522.69,-678.75 522.05,-671.37 517.58,-673.38"/>
<text text-anchor="middle" x="450.91" y="-520.95" font-family="Arial" font-size="9.00">inner</text>
</g>
<!-- plan_1723791_2&#45;&gt;plan_1723791_15 -->
<g id="edge22" class="edge">
<title>plan_1723791_2&#45;&gt;plan_1723791_15</title>
<path fill="none" stroke="#4f94cd" d="M261.08,-410.39C304.47,-394.15 363.03,-379.76 414.15,-393 541.92,-426.08 672.51,-512.93 741.27,-563.65"/>
<polygon fill="#4f94cd" stroke="#4f94cd" points="739.84,-565.64 746.92,-567.84 742.76,-561.71 739.84,-565.64"/>
<text text-anchor="middle" x="518.17" y="-428.13" font-family="Arial" font-size="9.00">outer</text>
</g>
<!-- plan_1723791_4 -->
<g id="node5" class="node">
<title>plan_1723791_4</title>
<path fill="lightblue" stroke="black" d="M248.65,-363C248.65,-363 143.65,-363 143.65,-363 137.65,-363 131.65,-357 131.65,-351 131.65,-351 131.65,-317 131.65,-317 131.65,-311 137.65,-305 143.65,-305 143.65,-305 248.65,-305 248.65,-305 254.65,-305 260.65,-311 260.65,-317 260.65,-317 260.65,-351 260.65,-351 260.65,-357 254.65,-363 248.65,-363"/>
<text text-anchor="middle" x="196.15" y="-351.8" font-family="Arial" font-size="9.00">T_IndexOnlyScan</text>
<text text-anchor="middle" x="196.15" y="-341.8" font-family="Arial" font-size="9.00">Startup: 0.275</text>
<text text-anchor="middle" x="196.15" y="-331.8" font-family="Arial" font-size="9.00">Total: 0.333</text>
<text text-anchor="middle" x="196.15" y="-321.8" font-family="Arial" font-size="9.00">Rows: 1</text>
<text text-anchor="middle" x="196.15" y="-311.8" font-family="Arial" font-size="9.00">Parent: public.test2 (26149)</text>
</g>
<!-- plan_1723791_3&#45;&gt;plan_1723791_4 -->
<g id="edge3" class="edge">
<title>plan_1723791_3&#45;&gt;plan_1723791_4</title>
<path fill="none" stroke="#7f7f7f" stroke-dasharray="5,2" d="M131.36,-538.38C92.72,-529.93 47.36,-512.1 27.15,-474.5 12.84,-447.88 12.84,-433.12 27.15,-406.5 47.4,-368.82 92.76,-350.72 131.39,-342.03"/>
<text text-anchor="middle" x="93.84" y="-344.28" font-family="Arial" font-size="9.00">alt</text>
</g>
<!-- plan_1723791_3&#45;&gt;plan_1723791_13 -->
<g id="edge19" class="edge">
<title>plan_1723791_3&#45;&gt;plan_1723791_13</title>
<path fill="none" stroke="#cd6600" d="M260.8,-563.5C284.8,-572.04 311.41,-584 332.65,-600 412.98,-660.53 400.41,-707.49 471.15,-779 476.53,-784.44 482.45,-789.85 488.49,-795.03"/>
<polygon fill="#cd6600" stroke="#cd6600" points="487.13,-797.08 494.06,-799.71 490.28,-793.33 487.13,-797.08"/>
<text text-anchor="middle" x="385.77" y="-663.06" font-family="Arial" font-size="9.00">inner</text>
</g>
<!-- plan_1723791_4&#45;&gt;plan_1723791_1 -->
<!-- plan_1723791_5 -->
<g id="node6" class="node">
<title>plan_1723791_5</title>
<path fill="lightblue" stroke="black" d="M248.65,-262C248.65,-262 143.65,-262 143.65,-262 137.65,-262 131.65,-256 131.65,-250 131.65,-250 131.65,-216 131.65,-216 131.65,-210 137.65,-204 143.65,-204 143.65,-204 248.65,-204 248.65,-204 254.65,-204 260.65,-210 260.65,-216 260.65,-216 260.65,-250 260.65,-250 260.65,-256 254.65,-262 248.65,-262"/>
<text text-anchor="middle" x="196.15" y="-250.8" font-family="Arial" font-size="9.00">T_BitmapHeapScan</text>
<text text-anchor="middle" x="196.15" y="-240.8" font-family="Arial" font-size="9.00">Startup: 0.303</text>
<text text-anchor="middle" x="196.15" y="-230.8" font-family="Arial" font-size="9.00">Total: 4.315</text>
<text text-anchor="middle" x="196.15" y="-220.8" font-family="Arial" font-size="9.00">Rows: 1</text>
<text text-anchor="middle" x="196.15" y="-210.8" font-family="Arial" font-size="9.00">Parent: public.test2 (26149)</text>
</g>
<!-- plan_1723791_4&#45;&gt;plan_1723791_5 -->
<g id="edge4" class="edge">
<title>plan_1723791_4&#45;&gt;plan_1723791_5</title>
<path fill="none" stroke="#7f7f7f" stroke-dasharray="5,2" d="M196.15,-304.83C196.15,-290.62 196.15,-276.41 196.15,-262.2"/>
<text text-anchor="middle" x="191.15" y="-276.31" font-family="Arial" font-size="9.00">alt</text>
</g>
<!-- plan_1723791_9 -->
<g id="node10" class="node">
<title>plan_1723791_9</title>
<path fill="lightblue" stroke="black" d="M248.65,-1421C248.65,-1421 143.65,-1421 143.65,-1421 137.65,-1421 131.65,-1415 131.65,-1409 131.65,-1409 131.65,-1375 131.65,-1375 131.65,-1369 137.65,-1363 143.65,-1363 143.65,-1363 248.65,-1363 248.65,-1363 254.65,-1363 260.65,-1369 260.65,-1375 260.65,-1375 260.65,-1409 260.65,-1409 260.65,-1415 254.65,-1421 248.65,-1421"/>
<text text-anchor="middle" x="196.15" y="-1409.8" font-family="Arial" font-size="9.00">T_Material</text>
<text text-anchor="middle" x="196.15" y="-1399.8" font-family="Arial" font-size="9.00">Startup: 0.000</text>
<text text-anchor="middle" x="196.15" y="-1389.8" font-family="Arial" font-size="9.00">Total: 20.000</text>
<text text-anchor="middle" x="196.15" y="-1379.8" font-family="Arial" font-size="9.00">Rows: 1000</text>
<text text-anchor="middle" x="196.15" y="-1369.8" font-family="Arial" font-size="9.00">Parent: public.test2 (26149)</text>
</g>
<!-- plan_1723791_5&#45;&gt;plan_1723791_9 -->
<g id="edge5" class="edge">
<title>plan_1723791_5&#45;&gt;plan_1723791_9</title>
<path fill="none" stroke="black" d="M131.39,-241.03C92.76,-249.72 47.4,-267.82 27.15,-305.5 -25.14,-402.78 11.78,-693.13 27.15,-802.5 57.43,-1018.03 147.12,-1265.24 182.02,-1356.1"/>
<polygon fill="black" stroke="black" points="179.83,-1357.23 184.64,-1362.88 184.4,-1355.47 179.83,-1357.23"/>
</g>
<!-- plan_1723791_7&#45;&gt;plan_1723791_10 -->
<!-- plan_1723791_8&#45;&gt;plan_1723791_11 -->
<!-- plan_1723791_9&#45;&gt;plan_1723791_8 -->
<g id="edge11" class="edge">
<title>plan_1723791_9&#45;&gt;plan_1723791_8</title>
<path fill="none" stroke="#cd6600" d="M219.69,-1362.67C279.42,-1284.94 441.88,-1073.53 509.97,-984.92"/>
<polygon fill="#cd6600" stroke="#cd6600" points="512,-986.31 514.32,-979.26 508.11,-983.32 512,-986.31"/>
<text text-anchor="middle" x="356" y="-1163.77" font-family="Arial" font-size="9.00">inner</text>
</g>
<!-- plan_1723791_9&#45;&gt;plan_1723791_11 -->
<g id="edge15" class="edge">
<title>plan_1723791_9&#45;&gt;plan_1723791_11</title>
<path fill="none" stroke="#cd6600" d="M260.84,-1365.64C344.92,-1328.96 495.05,-1256.78 604.15,-1167 670.13,-1112.71 730.6,-1032.81 763.87,-985.14"/>
<polygon fill="#cd6600" stroke="#cd6600" points="766.01,-986.35 767.98,-979.2 761.98,-983.56 766.01,-986.35"/>
<text text-anchor="middle" x="531.69" y="-1205.9" font-family="Arial" font-size="9.00">inner</text>
</g>
<!-- plan_1723791_11&#45;&gt;plan_1723791_7 -->
<!-- plan_1723791_12&#45;&gt;plan_1723791_6 -->
<!-- plan_1723791_13&#45;&gt;plan_1723791_12 -->
<!-- plan_1723791_14&#45;&gt;plan_1723791_15 -->
<!-- stats -->
<g id="node17" class="node">
<title>stats</title>
<polygon fill="lightyellow" stroke="black" points="281.15,-1512 105.15,-1512 105.15,-1464 287.15,-1464 287.15,-1506 281.15,-1512"/>
<polyline fill="none" stroke="black" points="281.15,-1512 281.15,-1506 "/>
<polyline fill="none" stroke="black" points="287.15,-1506 281.15,-1506 "/>
<text text-anchor="middle" x="196.15" y="-1500.8" font-family="Arial" font-size="9.00">Statistics</text>
<text text-anchor="middle" x="196.15" y="-1490.8" font-family="Arial" font-size="9.00">Total paths considered: 16</text>
<text text-anchor="middle" x="196.15" y="-1480.8" font-family="Arial" font-size="9.00">Cheapest: T_IndexOnlyScan (0.33)</text>
<text text-anchor="middle" x="196.15" y="-1470.8" font-family="Arial" font-size="9.00">Most expensive: T_NestLoop (27515.83)</text>
</g>
<!-- legend -->
<g id="node18" class="node">
<title>legend</title>
<polygon fill="white" stroke="black" points="274.65,-1623 111.65,-1623 111.65,-1555 280.65,-1555 280.65,-1617 274.65,-1623"/>
<polyline fill="none" stroke="black" points="274.65,-1623 274.65,-1617 "/>
<polyline fill="none" stroke="black" points="280.65,-1617 274.65,-1617 "/>
<text text-anchor="middle" x="196.15" y="-1611.8" font-family="Arial" font-size="9.00">Legend</text>
<text text-anchor="middle" x="196.15" y="-1601.8" font-family="Arial" font-size="9.00">Blue edge: outer input</text>
<text text-anchor="middle" x="196.15" y="-1591.8" font-family="Arial" font-size="9.00">Orange edge: inner input</text>
<text text-anchor="middle" x="196.15" y="-1581.8" font-family="Arial" font-size="9.00">Dashed cluster: relation/join group</text>
<text text-anchor="middle" x="196.15" y="-1571.8" font-family="Arial" font-size="9.00">Green node: selected plan</text>
<text text-anchor="middle" x="196.15" y="-1561.8" font-family="Arial" font-size="9.00">Black edge: relation path progression</text>
</g>
</g>
</svg>
