<?xml version="1.0" encoding="UTF-8" standalone="no"?>
<!DOCTYPE svg PUBLIC "-//W3C//DTD SVG 1.1//EN"
 "http://www.w3.org/Graphics/SVG/1.1/DTD/svg11.dtd">
<!-- Generated by graphviz version 2.43.0 (0)
 -->
<!-- Title: %3 Pages: 1 -->
<svg width="1315pt" height="1473pt"
 viewBox="0.00 0.00 1314.83 1473.00" xmlns="http://www.w3.org/2000/svg" xmlns:xlink="http://www.w3.org/1999/xlink">
<g id="graph0" class="graph" transform="scale(1 1) rotate(0) translate(4 1469)">
<title>%3</title>
<polygon fill="white" stroke="transparent" points="-4,4 -4,-1469 1310.83,-1469 1310.83,4 -4,4"/>
<g id="clust1" class="cluster">
<title>cluster_left</title>
<polygon fill="none" stroke="black" points="56.33,-287 56.33,-937 329.33,-937 329.33,-287 56.33,-287"/>
</g>
<g id="clust2" class="cluster">
<title>cluster_relations</title>
<polygon fill="none" stroke="black" points="64.33,-295 64.33,-929 321.33,-929 321.33,-295 64.33,-295"/>
</g>
<g id="clust3" class="cluster">
<title>cluster_rel_0</title>
<path fill="none" stroke="#a6a6a6" stroke-width="1.2" stroke-dasharray="5,2" d="M84.33,-717C84.33,-717 301.33,-717 301.33,-717 307.33,-717 313.33,-723 313.33,-729 313.33,-729 313.33,-909 313.33,-909 313.33,-915 307.33,-921 301.33,-921 301.33,-921 84.33,-921 84.33,-921 78.33,-921 72.33,-915 72.33,-909 72.33,-909 72.33,-729 72.33,-729 72.33,-723 78.33,-717 84.33,-717"/>
<text text-anchor="middle" x="192.83" y="-909" font-family="Arial" font-size="10.00">PID 1723791 • Relation RTI 1 (public.test1 (26144))</text>
</g>
<g id="clust4" class="cluster">
<title>cluster_rel_1</title>
<path fill="none" stroke="#a6a6a6" stroke-width="1.2" stroke-dasharray="5,2" d="M84.33,-303C84.33,-303 301.33,-303 301.33,-303 307.33,-303 313.33,-309 313.33,-315 313.33,-315 313.33,-697 313.33,-697 313.33,-703 307.33,-709 301.33,-709 301.33,-709 84.33,-709 84.33,-709 78.33,-709 72.33,-703 72.33,-697 72.33,-697 72.33,-315 72.33,-315 72.33,-309 78.33,-303 84.33,-303"/>
<text text-anchor="middle" x="192.83" y="-697" font-family="Arial" font-size="10.00">PID 1723791 • Relation RTI 2 (public.test2 (26149))</text>
</g>
<g id="clust5" class="cluster">
<title>cluster_join_0</title>
<path fill="none" stroke="#6e7b8b" stroke-width="1.2" stroke-dasharray="5,2" d="M479.83,-217C479.83,-217 1286.83,-217 1286.83,-217 1292.83,-217 1298.83,-223 1298.83,-229 1298.83,-229 1298.83,-540 1298.83,-540 1298.83,-546 1292.83,-552 1286.83,-552 1286.83,-552 479.83,-552 479.83,-552 473.83,-552 467.83,-546 467.83,-540 467.83,-540 467.83,-229 467.83,-229 467.83,-223 473.83,-217 479.83,-217"/>
<text text-anchor="middle" x="883.33" y="-540" font-family="Arial" font-size="10.00">PID 1723791 • JOIN_LEFT (outer: RTI 1, inner: RTI 2)</text>
</g>
<g id="clust6" class="cluster">
<title>cluster_join_1</title>
<path fill="none" stroke="#6e7b8b" stroke-width="1.2" stroke-dasharray="5,2" d="M669.83,-73C669.83,-73 906.83,-73 906.83,-73 912.83,-73 918.83,-79 918.83,-85 918.83,-85 918.83,-164 918.83,-164 918.83,-170 912.83,-176 906.83,-176 906.83,-176 669.83,-176 669.83,-176 663.83,-176 657.83,-170 657.83,-164 657.83,-164 657.83,-85 657.83,-85 657.83,-79 663.83,-73 669.83,-73"/>
<text text-anchor="middle" x="788.33" y="-164" font-family="Arial" font-size="10.00">PID 1723791 • JOIN_RIGHT (outer: RTI 2, inner: RTI 1)</text>
</g>
<!-- plan_1723791_0 -->
<g id="node1" class="node">
<title>plan_1723791_0</title>
<path fill="lightgreen" stroke="black" stroke-width="3" d="M245.33,-793C245.33,-793 140.33,-793 140.33,-793 134.33,-793 128.33,-787 128.33,-781 128.33,-781 128.33,-737 128.33,-737 128.33,-731 134.33,-725 140.33,-725 140.33,-725 245.33,-725 245.33,-725 251.33,-725 257.33,-731 257.33,-737 257.33,-737 257.33,-781 257.33,-781 257.33,-787 251.33,-793 245.33,-793"/>
<text text-anchor="middle" x="192.83" y="-781.8" font-family="Arial" font-size="9.00">T_SeqScan</text>
<text text-anchor="middle" x="192.83" y="-771.8" font-family="Arial" font-size="9.00">[CHOSEN]</text>
<text text-anchor="middle" x="192.83" y="-761.8" font-family="Arial" font-size="9.00">Startup: 0.000</text>
<text text-anchor="middle" x="192.83" y="-751.8" font-family="Arial" font-size="9.00">Total: 15.000</text>
<text text-anchor="middle" x="192.83" y="-741.8" font-family="Arial" font-size="9.00">Rows: 1000</text>
<text text-anchor="middle" x="192.83" y="-731.8" font-family="Arial" font-size="9.00">Parent: public.test1 (26144)</text>
</g>
<!-- plan_1723791_1 -->
<g id="node2" class="node">
<title>plan_1723791_1</title>
<path fill="lightblue" stroke="black" d="M245.33,-894C245.33,-894 140.33,-894 140.33,-894 134.33,-894 128.33,-888 128.33,-882 128.33,-882 128.33,-848 128.33,-848 128.33,-842 134.33,-836 140.33,-836 140.33,-836 245.33,-836 245.33,-836 251.33,-836 257.33,-842 257.33,-848 257.33,-848 257.33,-882 257.33,-882 257.33,-888 251.33,-894 245.33,-894"/>
<text text-anchor="middle" x="192.83" y="-882.8" font-family="Arial" font-size="9.00">T_IndexOnlyScan</text>
<text text-anchor="middle" x="192.83" y="-872.8" font-family="Arial" font-size="9.00">Startup: 0.275</text>
<text text-anchor="middle" x="192.83" y="-862.8" font-family="Arial" font-size="9.00">Total: 43.275</text>
<text text-anchor="middle" x="192.83" y="-852.8" font-family="Arial" font-size="9.00">Rows: 1000</text>
<text text-anchor="middle" x="192.83" y="-842.8" font-family="Arial" font-size="9.00">Parent: public.test1 (26144)</text>
</g>
<!-- plan_1723791_0&#45;&gt;plan_1723791_1 -->
<g id="edge1" class="edge">
<title>plan_1723791_0&#45;&gt;plan_1723791_1</title>
<path fill="none" stroke="#7f7f7f" stroke-dasharray="5,2" d="M192.83,-793.37C192.83,-807.54 192.83,-821.72 192.83,-835.9"/>
<text text-anchor="middle" x="187.83" y="-807.43" font-family="Arial" font-size="9.00">alt</text>
</g>
<!-- plan_1723791_2 -->
<g id="node3" class="node">
<title>plan_1723791_2</title>
<path fill="lightgreen" stroke="black" stroke-width="3" d="M245.33,-682C245.33,-682 140.33,-682 140.33,-682 134.33,-682 128.33,-676 128.33,-670 128.33,-670 128.33,-626 128.33,-626 128.33,-620 134.33,-614 140.33,-614 140.33,-614 245.33,-614 245.33,-614 251.33,-614 257.33,-620 257.33,-626 257.33,-626 257.33,-670 257.33,-670 257.33,-676 251.33,-682 245.33,-682"/>
<text text-anchor="middle" x="192.83" y="-670.8" font-family="Arial" font-size="9.00">T_SeqScan</text>
<text text-anchor="middle" x="192.83" y="-660.8" font-family="Arial" font-size="9.00">[CHOSEN]</text>
<text text-anchor="middle" x="192.83" y="-650.8" font-family="Arial" font-size="9.00">Startup: 0.000</text>
<text text-anchor="middle" x="192.83" y="-640.8" font-family="Arial" font-size="9.00">Total: 15.000</text>
<text text-anchor="middle" x="192.83" y="-630.8" font-family="Arial" font-size="9.00">Rows: 1000</text>
<text text-anchor="middle" x="192.83" y="-620.8" font-family="Arial" font-size="9.00">Parent: public.test2 (26149)</text>
</g>
<!-- plan_1723791_0&#45;&gt;plan_1723791_2 -->
<!-- plan_1723791_6 -->
<g id="node7" class="node">
<title>plan_1723791_6</title>
<path fill="lightblue" stroke="black" d="M1088.83,-525C1088.83,-525 987.83,-525 987.83,-525 981.83,-525 975.83,-519 975.83,-513 975.83,-513 975.83,-469 975.83,-469 975.83,-463 981.83,-457 987.83,-457 987.83,-457 1088.83,-457 1088.83,-457 1094.83,-457 1100.83,-463 1100.83,-469 1100.83,-469 1100.83,-513 1100.83,-513 1100.83,-519 1094.83,-525 1088.83,-525"/>
<text text-anchor="middle" x="1038.33" y="-513.8" font-family="Arial" font-size="9.00">T_MergeJoin</text>
<text text-anchor="middle" x="1038.33" y="-503.8" font-family="Arial" font-size="9.00">Startup: 129.658</text>
<text text-anchor="middle" x="1038.33" y="-493.8" font-family="Arial" font-size="9.00">Total: 149.658</text>
<text text-anchor="middle" x="1038.33" y="-483.8" font-family="Arial" font-size="9.00">Rows: 1000</text>
<text text-anchor="middle" x="1038.33" y="-473.8" font-family="Arial" font-size="9.00">Outer: public.test1 (26144)</text>
<text text-anchor="middle" x="1038.33" y="-463.8" font-family="Arial" font-size="9.00">Inner: public.test2 (26149)</text>
</g>
<!-- plan_1723791_0&#45;&gt;plan_1723791_6 -->
<g id="edge6" class="edge">
<title>plan_1723791_0&#45;&gt;plan_1723791_6</title>
<path fill="none" stroke="#4f94cd" d="M257.56,-772.94C282.86,-781.35 310.39,-794.55 329.33,-815 407.77,-899.72 316.39,-994.18 409.83,-1062 480.49,-1113.29 522.09,-1053.74 600.83,-1016 761.71,-938.88 809.81,-912.24 918.83,-771 976.32,-696.52 1011.2,-590 1027.08,-532.18"/>
<polygon fill="#4f94cd" stroke="#4f94cd" points="1029.46,-532.77 1028.93,-525.37 1024.73,-531.49 1029.46,-532.77"/>
<text text-anchor="middle" x="907.83" y="-763.8" font-family="Arial" font-size="9.00">outer</text>
</g>
<!-- plan_1723791_7 -->
<g id="node8" class="node">
<title>plan_1723791_7</title>
<path fill="lightblue" stroke="black" d="M1088.83,-414C1088.83,-414 987.83,-414 987.83,-414 981.83,-414 975.83,-408 975.83,-402 975.83,-402 975.83,-358 975.83,-358 975.83,-352 981.83,-346 987.83,-346 987.83,-346 1088.83,-346 1088.83,-346 1094.83,-346 1100.83,-352 1100.83,-358 1100.83,-358 1100.83,-402 1100.83,-402 1100.83,-408 1094.83,-414 1088.83,-414"/>
<text text-anchor="middle" x="1038.33" y="-402.8" font-family="Arial" font-size="9.00">T_NestLoop</text>
<text text-anchor="middle" x="1038.33" y="-392.8" font-family="Arial" font-size="9.00">Startup: 0.000</text>
<text text-anchor="middle" x="1038.33" y="-382.8" font-family="Arial" font-size="9.00">Total: 27487.555</text>
<text text-anchor="middle" x="1038.33" y="-372.8" font-family="Arial" font-size="9.00">Rows: 1000</text>
<text text-anchor="middle" x="1038.33" y="-362.8" font-family="Arial" font-size="9.00">Outer: public.test1 (26144)</text>
<text text-anchor="middle" x="1038.33" y="-352.8" font-family="Arial" font-size="9.00">Inner: public.test2 (26149)</text>
</g>
<!-- plan_1723791_0&#45;&gt;plan_1723791_7 -->
<g id="edge8" class="edge">
<title>plan_1723791_0&#45;&gt;plan_1723791_7</title>
<path fill="none" stroke="#4f94cd" d="M257.53,-768.24C396.91,-784.6 731.41,-802.28 918.83,-630 984.99,-569.18 928.17,-512.19 975.83,-436 979.5,-430.12 983.96,-424.48 988.78,-419.19"/>
<polygon fill="#4f94cd" stroke="#4f94cd" points="990.65,-420.79 993.71,-414.03 987.1,-417.4 990.65,-420.79"/>
<text text-anchor="middle" x="651.15" y="-746.97" font-family="Arial" font-size="9.00">outer</text>
</g>
<!-- plan_1723791_8 -->
<g id="node9" class="node">
<title>plan_1723791_8</title>
<path fill="lightblue" stroke="black" d="M588.83,-414C588.83,-414 487.83,-414 487.83,-414 481.83,-414 475.83,-408 475.83,-402 475.83,-402 475.83,-358 475.83,-358 475.83,-352 481.83,-346 487.83,-346 487.83,-346 588.83,-346 588.83,-346 594.83,-346 600.83,-352 600.83,-358 600.83,-358 600.83,-402 600.83,-402 600.83,-408 594.83,-414 588.83,-414"/>
<text text-anchor="middle" x="538.33" y="-402.8" font-family="Arial" font-size="9.00">T_NestLoop</text>
<text text-anchor="middle" x="538.33" y="-392.8" font-family="Arial" font-size="9.00">Startup: 0.000</text>
<text text-anchor="middle" x="538.33" y="-382.8" font-family="Arial" font-size="9.00">Total: 15017.530</text>
<text text-anchor="middle" x="538.33" y="-372.8" font-family="Arial" font-size="9.00">Rows: 1000</text>
<text text-anchor="middle" x="538.33" y="-362.8" font-family="Arial" font-size="9.00">Outer: public.test1 (26144)</text>
<text text-anchor="middle" x="538.33" y="-352.8" font-family="Arial" font-size="9.00">Inner: public.test2 (26149)</text>
</g>
<!-- plan_1723791_0&#45;&gt;plan_1723791_8 -->
<g id="edge10" class="edge">
<title>plan_1723791_0&#45;&gt;plan_1723791_8</title>
<path fill="none" stroke="#4f94cd" d="M257.64,-747.92C281.4,-741.86 307.8,-732.69 329.33,-719 375.42,-689.69 384.28,-674.74 410.83,-627 453.88,-549.58 418.44,-509.55 467.83,-436 471.78,-430.11 476.54,-424.54 481.69,-419.36"/>
<polygon fill="#4f94cd" stroke="#4f94cd" points="483.6,-420.93 486.96,-414.32 480.21,-417.39 483.6,-420.93"/>
<text text-anchor="middle" x="412.69" y="-592.18" font-family="Arial" font-size="9.00">outer</text>
</g>
<!-- plan_1723791_14 -->
<g id="node15" class="node">
<title>plan_1723791_14</title>
<path fill="lightgreen" stroke="black" stroke-width="3" d="M588.83,-303C588.83,-303 487.83,-303 487.83,-303 481.83,-303 475.83,-297 475.83,-291 475.83,-291 475.83,-237 475.83,-237 475.83,-231 481.83,-225 487.83,-225 487.83,-225 588.83,-225 588.83,-225 594.83,-225 600.83,-231 600.83,-237 600.83,-237 600.83,-291 600.83,-291 600.83,-297 594.83,-303 588.83,-303"/>
<text text-anchor="middle" x="538.33" y="-291.8" font-family="Arial" font-size="9.00">T_HashJoin</text>
<text text-anchor="middle" x="538.33" y="-281.8" font-family="Arial" font-size="9.00">[CHOSEN]</text>
<text text-anchor="middle" x="538.33" y="-271.8" font-family="Arial" font-size="9.00">Startup: 27.500</text>
<text text-anchor="middle" x="538.33" y="-261.8" font-family="Arial" font-size="9.00">Total: 45.136</text>
<text text-anchor="middle" x="538.33" y="-251.8" font-family="Arial" font-size="9.00">Rows: 1000</text>
<text text-anchor="middle" x="538.33" y="-241.8" font-family="Arial" font-size="9.00">Outer: public.test1 (26144)</text>
<text text-anchor="middle" x="538.33" y="-231.8" font-family="Arial" font-size="9.00">Inner: public.test2 (26149)</text>
</g>
<!-- plan_1723791_0&#45;&gt;plan_1723791_14 -->
<g id="edge20" class="edge">
<title>plan_1723791_0&#45;&gt;plan_1723791_14</title>
<path fill="none" stroke="#4f94cd" d="M257.62,-751.69C282.34,-746.12 309.42,-736.29 329.33,-719 469.45,-597.27 370.05,-482.77 467.83,-325 471.44,-319.17 475.79,-313.58 480.52,-308.32"/>
<polygon fill="#4f94cd" stroke="#4f94cd" points="482.35,-309.95 485.37,-303.17 478.78,-306.59 482.35,-309.95"/>
<text text-anchor="middle" x="403.45" y="-528.36" font-family="Arial" font-size="9.00">outer</text>
</g>
<!-- plan_1723791_15 -->
<g id="node16" class="node">
<title>plan_1723791_15</title>
<path fill="lightblue" stroke="black" d="M838.83,-149C838.83,-149 737.83,-149 737.83,-149 731.83,-149 725.83,-143 725.83,-137 725.83,-137 725.83,-93 725.83,-93 725.83,-87 731.83,-81 737.83,-81 737.83,-81 838.83,-81 838.83,-81 844.83,-81 850.83,-87 850.83,-93 850.83,-93 850.83,-137 850.83,-137 850.83,-143 844.83,-149 838.83,-149"/>
<text text-anchor="middle" x="788.33" y="-137.8" font-family="Arial" font-size="9.00">T_HashJoin</text>
<text text-anchor="middle" x="788.33" y="-127.8" font-family="Arial" font-size="9.00">Startup: 27.500</text>
<text text-anchor="middle" x="788.33" y="-117.8" font-family="Arial" font-size="9.00">Total: 45.136</text>
<text text-anchor="middle" x="788.33" y="-107.8" font-family="Arial" font-size="9.00">Rows: 1000</text>
<text text-anchor="middle" x="788.33" y="-97.8" font-family="Arial" font-size="9.00">Outer: public.test2 (26149)</text>
<text text-anchor="middle" x="788.33" y="-87.8" font-family="Arial" font-size="9.00">Inner: public.test1 (26144)</text>
</g>
<!-- plan_1723791_0&#45;&gt;plan_1723791_15 -->
<g id="edge23" class="edge">
<title>plan_1723791_0&#45;&gt;plan_1723791_15</title>
<path fill="none" stroke="#cd6600" d="M257.37,-753.64C282.8,-748.39 310.47,-738.3 329.33,-719 494.1,-550.42 302.49,-375.03 467.83,-207 534.07,-139.67 646.16,-120.83 718.43,-115.99"/>
<polygon fill="#cd6600" stroke="#cd6600" points="718.89,-118.42 725.73,-115.54 718.59,-113.53 718.89,-118.42"/>
<text text-anchor="middle" x="385.75" y="-433.95" font-family="Arial" font-size="9.00">inner</text>
</g>
<!-- plan_1723791_3 -->
<g id="node4" class="node">
<title>plan_1723791_3</title>
<path fill="lightblue" stroke="black" d="M245.33,-571C245.33,-571 140.33,-571 140.33,-571 134.33,-571 128.33,-565 128.33,-559 128.33,-559 128.33,-525 128.33,-525 128.33,-519 134.33,-513 140.33,-513 140.33,-513 245.33,-513 245.33,-513 251.33,-513 257.33,-519 257.33,-525 257.33,-525 257.33,-559 257.33,-559 257.33,-565 251.33,-571 245.33,-571"/>
<text text-anchor="middle" x="192.83" y="-559.8" font-family="Arial" font-size="9.00">T_IndexOnlyScan</text>
<text text-anchor="middle" x="192.83" y="-549.8" font-family="Arial" font-size="9.00">Startup: 0.275</text>
<text text-anchor="middle" x="192.83" y="-539.8" font-family="Arial" font-size="9.00">Total: 43.275</text>
<text text-anchor="middle" x="192.83" y="-529.8" font-family="Arial" font-size="9.00">Rows: 1000</text>
<text text-anchor="middle" x="192.83" y="-519.8" font-family="Arial" font-size="9.00">Parent: public.test2 (26149)</text>
</g>
<!-- plan_1723791_1&#45;&gt;plan_1723791_3 -->
<!-- plan_1723791_10 -->
<g id="node11" class="node">
<title>plan_1723791_10</title>
<path fill="lightblue" stroke="black" d="M1278.83,-525C1278.83,-525 1177.83,-525 1177.83,-525 1171.83,-525 1165.83,-519 1165.83,-513 1165.83,-513 1165.83,-469 1165.83,-469 1165.83,-463 1171.83,-457 1177.83,-457 1177.83,-457 1278.83,-457 1278.83,-457 1284.83,-457 1290.83,-463 1290.83,-469 1290.83,-469 1290.83,-513 1290.83,-513 1290.83,-519 1284.83,-525 1278.83,-525"/>
<text text-anchor="middle" x="1228.33" y="-513.8" font-family="Arial" font-size="9.00">T_NestLoop</text>
<text text-anchor="middle" x="1228.33" y="-503.8" font-family="Arial" font-size="9.00">Startup: 0.275</text>
<text text-anchor="middle" x="1228.33" y="-493.8" font-family="Arial" font-size="9.00">Total: 27515.830</text>
<text text-anchor="middle" x="1228.33" y="-483.8" font-family="Arial" font-size="9.00">Rows: 1000</text>
<text text-anchor="middle" x="1228.33" y="-473.8" font-family="Arial" font-size="9.00">Outer: public.test1 (26144)</text>
<text text-anchor="middle" x="1228.33" y="-463.8" font-family="Arial" font-size="9.00">Inner: public.test2 (26149)</text>
</g>
<!-- plan_1723791_1&#45;&gt;plan_1723791_10 -->
<g id="edge12" class="edge">
<title>plan_1723791_1&#45;&gt;plan_1723791_10</title>
<path fill="none" stroke="#4f94cd" d="M257.42,-881.04C282.55,-890.1 309.99,-903.8 329.33,-924 507.46,-1110.08 279.72,-1465 537.33,-1465 537.33,-1465 537.33,-1465 789.33,-1465 1205.11,-1465 1228.55,-717.59 1227.97,-532.22"/>
<polygon fill="#4f94cd" stroke="#4f94cd" points="1230.42,-532.08 1227.94,-525.09 1225.52,-532.11 1230.42,-532.08"/>
<text text-anchor="middle" x="345.25" y="-950.55" font-family="Arial" font-size="9.00">outer</text>
</g>
<!-- plan_1723791_11 -->
<g id="node12" class="node">
<title>plan_1723791_11</title>
<path fill="lightblue" stroke="black" d="M838.83,-414C838.83,-414 737.83,-414 737.83,-414 731.83,-414 725.83,-408 725.83,-402 725.83,-402 725.83,-358 725.83,-358 725.83,-352 731.83,-346 737.83,-346 737.83,-346 838.83,-346 838.83,-346 844.83,-346 850.83,-352 850.83,-358 850.83,-358 850.83,-402 850.83,-402 850.83,-408 844.83,-414 838.83,-414"/>
<text text-anchor="middle" x="788.33" y="-402.8" font-family="Arial" font-size="9.00">T_NestLoop</text>
<text text-anchor="middle" x="788.33" y="-392.8" font-family="Arial" font-size="9.00">Startup: 0.275</text>
<text text-anchor="middle" x="788.33" y="-382.8" font-family="Arial" font-size="9.00">Total: 15045.805</text>
<text text-anchor="middle" x="788.33" y="-372.8" font-family="Arial" font-size="9.00">Rows: 1000</text>
<text text-anchor="middle" x="788.33" y="-362.8" font-family="Arial" font-size="9.00">Outer: public.test1 (26144)</text>
<text text-anchor="middle" x="788.33" y="-352.8" font-family="Arial" font-size="9.00">Inner: public.test2 (26149)</text>
</g>
<!-- plan_1723791_1&#45;&gt;plan_1723791_11 -->
<g id="edge14" class="edge">
<title>plan_1723791_1&#45;&gt;plan_1723791_11</title>
<path fill="none" stroke="#4f94cd" d="M257.78,-846.38C303.92,-830.65 365.76,-804.61 410.83,-767 510.03,-684.23 528.58,-654.11 600.83,-547 631.84,-501.02 617.33,-473.89 657.83,-436 675.01,-419.92 697.53,-408.02 718.96,-399.44"/>
<polygon fill="#4f94cd" stroke="#4f94cd" points="719.93,-401.69 725.57,-396.87 718.16,-397.12 719.93,-401.69"/>
<text text-anchor="middle" x="517.57" y="-643.22" font-family="Arial" font-size="9.00">outer</text>
</g>
<!-- plan_1723791_12 -->
<g id="node13" class="node">
<title>plan_1723791_12</title>
<path fill="lightblue" stroke="black" d="M838.83,-525C838.83,-525 737.83,-525 737.83,-525 731.83,-525 725.83,-519 725.83,-513 725.83,-513 725.83,-469 725.83,-469 725.83,-463 731.83,-457 737.83,-457 737.83,-457 838.83,-457 838.83,-457 844.83,-457 850.83,-463 850.83,-469 850.83,-469 850.83,-513 850.83,-513 850.83,-519 844.83,-525 838.83,-525"/>
<text text-anchor="middle" x="788.33" y="-513.8" font-family="Arial" font-size="9.00">T_MergeJoin</text>
<text text-anchor="middle" x="788.33" y="-503.8" font-family="Arial" font-size="9.00">Startup: 65.104</text>
<text text-anchor="middle" x="788.33" y="-493.8" font-family="Arial" font-size="9.00">Total: 125.604</text>
<text text-anchor="middle" x="788.33" y="-483.8" font-family="Arial" font-size="9.00">Rows: 1000</text>
<text text-anchor="middle" x="788.33" y="-473.8" font-family="Arial" font-size="9.00">Outer: public.test1 (26144)</text>
<text text-anchor="middle" x="788.33" y="-463.8" font-family="Arial" font-size="9.00">Inner: public.test2 (26149)</text>
</g>
<!-- plan_1723791_1&#45;&gt;plan_1723791_12 -->
<g id="edge16" class="edge">
<title>plan_1723791_1&#45;&gt;plan_1723791_12</title>
<path fill="none" stroke="#4f94cd" d="M257.66,-880.81C282.82,-889.84 310.23,-903.57 329.33,-924 401.87,-1001.58 322.99,-1087.84 409.83,-1149 479.23,-1197.88 533.11,-1200.19 600.83,-1149 702.15,-1072.4 764.38,-664.23 782.09,-532.22"/>
<polygon fill="#4f94cd" stroke="#4f94cd" points="784.55,-532.29 783.04,-525.03 779.69,-531.65 784.55,-532.29"/>
<text text-anchor="middle" x="736.28" y="-739.5" font-family="Arial" font-size="9.00">outer</text>
</g>
<!-- plan_1723791_13 -->
<g id="node14" class="node">
<title>plan_1723791_13</title>
<path fill="lightblue" stroke="black" d="M588.83,-525C588.83,-525 487.83,-525 487.83,-525 481.83,-525 475.83,-519 475.83,-513 475.83,-513 475.83,-469 475.83,-469 475.83,-463 481.83,-457 487.83,-457 487.83,-457 588.83,-457 588.83,-457 594.83,-457 600.83,-463 600.83,-469 600.83,-469 600.83,-513 600.83,-513 600.83,-519 594.83,-525 588.83,-525"/>
<text text-anchor="middle" x="538.33" y="-513.8" font-family="Arial" font-size="9.00">T_MergeJoin</text>
<text text-anchor="middle" x="538.33" y="-503.8" font-family="Arial" font-size="9.00">Startup: 0.550</text>
<text text-anchor="middle" x="538.33" y="-493.8" font-family="Arial" font-size="9.00">Total: 101.550</text>
<text text-anchor="middle" x="538.33" y="-483.8" font-family="Arial" font-size="9.00">Rows: 1000</text>
<text text-anchor="middle" x="538.33" y="-473.8" font-family="Arial" font-size="9.00">Outer: public.test1 (26144)</text>
<text text-anchor="middle" x="538.33" y="-463.8" font-family="Arial" font-size="9.00">Inner: public.test2 (26149)</text>
</g>
<!-- plan_1723791_1&#45;&gt;plan_1723791_13 -->
<g id="edge18" class="edge">
<title>plan_1723791_1&#45;&gt;plan_1723791_13</title>
<path fill="none" stroke="#4f94cd" d="M257.66,-849.25C281.55,-841.42 308.04,-830.28 329.33,-815 431.3,-741.79 495.6,-601.63 522.62,-532.14"/>
<polygon fill="#4f94cd" stroke="#4f94cd" points="525.05,-532.65 525.27,-525.24 520.47,-530.9 525.05,-532.65"/>
<text text-anchor="middle" x="416.31" y="-705.67" font-family="Arial" font-size="9.00">outer</text>
</g>
<!-- plan_1723791_2&#45;&gt;plan_1723791_3 -->
<g id="edge2" class="edge">
<title>plan_1723791_2&#45;&gt;plan_1723791_3</title>
<path fill="none" stroke="#7f7f7f" stroke-dasharray="5,2" d="M192.83,-613.89C192.83,-599.73 192.83,-585.56 192.83,-571.4"/>
<text text-anchor="middle" x="187.83" y="-585.44" font-family="Arial" font-size="9.00">alt</text>
</g>
<!-- plan_1723791_2&#45;&gt;plan_1723791_6 -->
<g id="edge7" class="edge">
<title>plan_1723791_2&#45;&gt;plan_1723791_6</title>
<path fill="none" stroke="#cd6600" d="M257.52,-676.49C390.91,-731.5 704.94,-836.18 918.83,-709 983.19,-670.73 1014.78,-583.92 1028.43,-532.14"/>
<polygon fill="#cd6600" stroke="#cd6600" points="1030.88,-532.46 1030.24,-525.07 1026.13,-531.25 1030.88,-532.46"/>
<text text-anchor="middle" x="624.42" y="-761.31" font-family="Arial" font-size="9.00">inner</text>
</g>
<!-- plan_1723791_2&#45;&gt;plan_1723791_7 -->
<g id="edge9" class="edge">
<title>plan_1723791_2&#45;&gt;plan_1723791_7</title>
<path fill="none" stroke="#cd6600" d="M257.55,-657.32C393.04,-673.58 714.07,-692.71 918.83,-547 964.01,-514.85 942.12,-480.04 975.83,-436 980.17,-430.32 985.13,-424.75 990.32,-419.45"/>
<polygon fill="#cd6600" stroke="#cd6600" points="992.31,-420.92 995.55,-414.25 988.86,-417.44 992.31,-420.92"/>
<text text-anchor="middle" x="635.93" y="-644.52" font-family="Arial" font-size="9.00">inner</text>
</g>
<!-- plan_1723791_2&#45;&gt;plan_1723791_10 -->
<g id="edge13" class="edge">
<title>plan_1723791_2&#45;&gt;plan_1723791_10</title>
<path fill="none" stroke="#cd6600" d="M257.35,-672.87C280.45,-682.63 306.48,-694.5 329.33,-707 367.12,-727.68 372.15,-740.11 409.83,-761 607.72,-870.7 709.87,-857.78 918.83,-771 1043,-719.43 1149.5,-595.12 1198.52,-530.9"/>
<polygon fill="#cd6600" stroke="#cd6600" points="1200.53,-532.31 1202.8,-525.25 1196.62,-529.35 1200.53,-532.31"/>
<text text-anchor="middle" x="929.83" y="-763.8" font-family="Arial" font-size="9.00">inner</text>
</g>
<!-- plan_1723791_2&#45;&gt;plan_1723791_12 -->
<g id="edge17" class="edge">
<title>plan_1723791_2&#45;&gt;plan_1723791_12</title>
<path fill="none" stroke="#cd6600" d="M257.63,-633.76C282.65,-625.43 309.94,-612.57 329.33,-593 397.91,-523.74 329.24,-443.83 409.83,-389 471.67,-346.92 406.61,-504.01 467.83,-547 543.16,-599.91 652.57,-562.41 721.81,-528.39"/>
<polygon fill="#cd6600" stroke="#cd6600" points="723.21,-530.43 728.39,-525.11 721.03,-526.05 723.21,-530.43"/>
<text text-anchor="middle" x="487.99" y="-556.14" font-family="Arial" font-size="9.00">inner</text>
</g>
<!-- plan_1723791_2&#45;&gt;plan_1723791_14 -->
<g id="edge21" class="edge">
<title>plan_1723791_2&#45;&gt;plan_1723791_14</title>
<path fill="none" stroke="#cd6600" d="M257.65,-635.09C283.12,-626.94 310.75,-613.86 329.33,-593 418.57,-492.79 315.88,-397.82 409.83,-302 425.44,-286.08 447.41,-276.76 468.72,-271.33"/>
<polygon fill="#cd6600" stroke="#cd6600" points="469.36,-273.69 475.61,-269.7 468.24,-268.93 469.36,-273.69"/>
<text text-anchor="middle" x="357.17" y="-444.87" font-family="Arial" font-size="9.00">inner</text>
</g>
<!-- plan_1723791_2&#45;&gt;plan_1723791_15 -->
<g id="edge22" class="edge">
<title>plan_1723791_2&#45;&gt;plan_1723791_15</title>
<path fill="none" stroke="#4f94cd" d="M257.39,-635.28C282.97,-627.15 310.76,-614.03 329.33,-593 472.04,-431.35 294.32,-256.05 467.83,-128 540.05,-74.7 648.5,-83.54 718.6,-97.29"/>
<polygon fill="#4f94cd" stroke="#4f94cd" points="718.34,-99.74 725.69,-98.73 719.31,-94.94 718.34,-99.74"/>
<text text-anchor="middle" x="376.03" y="-340.69" font-family="Arial" font-size="9.00">outer</text>
</g>
<!-- plan_1723791_4 -->
<g id="node5" class="node">
<title>plan_1723791_4</title>
<path fill="lightblue" stroke="black" d="M245.33,-470C245.33,-470 140.33,-470 140.33,-470 134.33,-470 128.33,-464 128.33,-458 128.33,-458 128.33,-424 128.33,-424 128.33,-418 134.33,-412 140.33,-412 140.33,-412 245.33,-412 245.33,-412 251.33,-412 257.33,-418 257.33,-424 257.33,-424 257.33,-458 257.33,-458 257.33,-464 251.33,-470 245.33,-470"/>
<text text-anchor="middle" x="192.83" y="-458.8" font-family="Arial" font-size="9.00">T_IndexOnlyScan</text>
<text text-anchor="middle" x="192.83" y="-448.8" font-family="Arial" font-size="9.00">Startup: 0.275</text>
<text text-anchor="middle" x="192.83" y="-438.8" font-family="Arial" font-size="9.00">Total: 0.333</text>
<text text-anchor="middle" x="192.83" y="-428.8" font-family="Arial" font-size="9.00">Rows: 1</text>
<text text-anchor="middle" x="192.83" y="-418.8" font-family="Arial" font-size="9.00">Parent: public.test2 (26149)</text>
</g>
<!-- plan_1723791_3&#45;&gt;plan_1723791_4 -->
<g id="edge3" class="edge">
<title>plan_1723791_3&#45;&gt;plan_1723791_4</title>
<path fill="none" stroke="#7f7f7f" stroke-dasharray="5,2" d="M192.83,-512.83C192.83,-498.62 192.83,-484.41 192.83,-470.2"/>
<text text-anchor="middle" x="187.83" y="-484.31" font-family="Arial" font-size="9.00">alt</text>
</g>
<!-- plan_1723791_3&#45;&gt;plan_1723791_13 -->
<g id="edge19" class="edge">
<title>plan_1723791_3&#45;&gt;plan_1723791_13</title>
<path fill="none" stroke="#cd6600" d="M257.33,-530.03C282.3,-522.62 309.64,-510.78 329.33,-492 395.69,-428.7 333.37,-352.64 409.83,-302 463.93,-266.16 428.46,-384.41 467.83,-436 472.1,-441.6 477.06,-446.95 482.33,-451.97"/>
<polygon fill="#cd6600" stroke="#cd6600" points="480.87,-453.95 487.69,-456.87 484.18,-450.34 480.87,-453.95"/>
<text text-anchor="middle" x="333.56" y="-467.07" font-family="Arial" font-size="9.00">inner</text>
</g>
<!-- plan_1723791_4&#45;&gt;plan_1723791_1 -->
<!-- plan_1723791_5 -->
<g id="node6" class="node">
<title>plan_1723791_5</title>
<path fill="lightblue" stroke="black" d="M245.33,-369C245.33,-369 140.33,-369 140.33,-369 134.33,-369 128.33,-363 128.33,-357 128.33,-357 128.33,-323 128.33,-323 128.33,-317 134.33,-311 140.33,-311 140.33,-311 245.33,-311 245.33,-311 251.33,-311 257.33,-317 257.33,-323 257.33,-323 257.33,-357 257.33,-357 257.33,-363 251.33,-369 245.33,-369"/>
<text text-anchor="middle" x="192.83" y="-357.8" font-family="Arial" font-size="9.00">T_BitmapHeapScan</text>
<text text-anchor="middle" x="192.83" y="-347.8" font-family="Arial" font-size="9.00">Startup: 0.303</text>
<text text-anchor="middle" x="192.83" y="-337.8" font-family="Arial" font-size="9.00">Total: 4.315</text>
<text text-anchor="middle" x="192.83" y="-327.8" font-family="Arial" font-size="9.00">Rows: 1</text>
<text text-anchor="middle" x="192.83" y="-317.8" font-family="Arial" font-size="9.00">Parent: public.test2 (26149)</text>
</g>
<!-- plan_1723791_4&#45;&gt;plan_1723791_5 -->
<g id="edge4" class="edge">
<title>plan_1723791_4&#45;&gt;plan_1723791_5</title>
<path fill="none" stroke="#7f7f7f" stroke-dasharray="5,2" d="M192.83,-411.83C192.83,-397.62 192.83,-383.41 192.83,-369.2"/>
<text text-anchor="middle" x="187.83" y="-383.31" font-family="Arial" font-size="9.00">alt</text>
</g>
<!-- plan_1723791_9 -->
<g id="node10" class="node">
<title>plan_1723791_9</title>
<path fill="lightblue" stroke="black" d="M245.33,-58C245.33,-58 140.33,-58 140.33,-58 134.33,-58 128.33,-52 128.33,-46 128.33,-46 128.33,-12 128.33,-12 128.33,-6 134.33,0 140.33,0 140.33,0 245.33,0 245.33,0 251.33,0 257.33,-6 257.33,-12 257.33,-12 257.33,-46 257.33,-46 257.33,-52 251.33,-58 245.33,-58"/>
<text text-anchor="middle" x="192.83" y="-46.8" font-family="Arial" font-size="9.00">T_Material</text>
<text text-anchor="middle" x="192.83" y="-36.8" font-family="Arial" font-size="9.00">Startup: 0.000</text>
<text text-anchor="middle" x="192.83" y="-26.8" font-family="Arial" font-size="9.00">Total: 20.000</text>
<text text-anchor="middle" x="192.83" y="-16.8" font-family="Arial" font-size="9.00">Rows: 1000</text>
<text text-anchor="middle" x="192.83" y="-6.8" font-family="Arial" font-size="9.00">Parent: public.test2 (26149)</text>
</g>
<!-- plan_1723791_5&#45;&gt;plan_1723791_9 -->
<g id="edge5" class="edge">
<title>plan_1723791_5&#45;&gt;plan_1723791_9</title>
<path fill="none" stroke="black" d="M192.83,-310.82C192.83,-229.07 192.83,-147.31 192.83,-65.56"/>
<polygon fill="black" stroke="black" points="195.28,-65.16 192.83,-58.16 190.38,-65.16 195.28,-65.16"/>
</g>
<!-- plan_1723791_7&#45;&gt;plan_1723791_10 -->
<!-- plan_1723791_8&#45;&gt;plan_1723791_11 -->
<!-- plan_1723791_9&#45;&gt;plan_1723791_8 -->
<g id="edge11" class="edge">
<title>plan_1723791_9&#45;&gt;plan_1723791_8</title>
<path fill="none" stroke="#cd6600" d="M218.14,-58.13C264.36,-112.84 369.15,-233.68 467.83,-325 473.62,-330.36 479.88,-335.78 486.19,-341.02"/>
<polygon fill="#cd6600" stroke="#cd6600" points="485.02,-343.23 491.99,-345.78 488.13,-339.45 485.02,-343.23"/>
<text text-anchor="middle" x="338.97" y="-199.47" font-family="Arial" font-size="9.00">inner</text>
</g>
<!-- plan_1723791_9&#45;&gt;plan_1723791_11 -->
<g id="edge15" class="edge">
<title>plan_1723791_9&#45;&gt;plan_1723791_11</title>
<path fill="none" stroke="#cd6600" d="M257.6,-48.39C340.8,-75.4 488.94,-129.43 600.83,-203 660.37,-242.15 718.18,-301.31 753.26,-340.29"/>
<polygon fill="#cd6600" stroke="#cd6600" points="751.78,-342.31 758.27,-345.89 755.43,-339.04 751.78,-342.31"/>
<text text-anchor="middle" x="516.57" y="-152.69" font-family="Arial" font-size="9.00">inner</text>
</g>
<!-- plan_1723791_11&#45;&gt;plan_1723791_7 -->
<!-- plan_1723791_12&#45;&gt;plan_1723791_6 -->
<!-- plan_1723791_13&#45;&gt;plan_1723791_12 -->
<!-- plan_1723791_14&#45;&gt;plan_1723791_15 -->
<!-- plan_1723791_17 -->
<g id="node17" class="node">
<title>plan_1723791_17</title>
<path fill="lightgreen" stroke="black" stroke-width="3" d="M1065.83,-209C1065.83,-209 1010.83,-209 1010.83,-209 1004.83,-209 998.83,-203 998.83,-197 998.83,-197 998.83,-163 998.83,-163 998.83,-157 1004.83,-151 1010.83,-151 1010.83,-151 1065.83,-151 1065.83,-151 1071.83,-151 1077.83,-157 1077.83,-163 1077.83,-163 1077.83,-197 1077.83,-197 1077.83,-203 1071.83,-209 1065.83,-209"/>
<text text-anchor="middle" x="1038.33" y="-197.8" font-family="Arial" font-size="9.00">T_Sort</text>
<text text-anchor="middle" x="1038.33" y="-187.8" font-family="Arial" font-size="9.00">[CHOSEN]</text>
<text text-anchor="middle" x="1038.33" y="-177.8" font-family="Arial" font-size="9.00">Startup: 94.965</text>
<text text-anchor="middle" x="1038.33" y="-167.8" font-family="Arial" font-size="9.00">Total: 97.465</text>
<text text-anchor="middle" x="1038.33" y="-157.8" font-family="Arial" font-size="9.00">Rows: 1000</text>
</g>
<!-- plan_1723791_14&#45;&gt;plan_1723791_17 -->
<g id="edge24" class="edge">
<title>plan_1723791_14&#45;&gt;plan_1723791_17</title>
<path fill="none" stroke="#4f94cd" d="M600.89,-253.62C702.24,-236.52 901.92,-202.84 991.71,-187.7"/>
<polygon fill="#4f94cd" stroke="#4f94cd" points="992.26,-190.09 998.75,-186.51 991.44,-185.25 992.26,-190.09"/>
<text text-anchor="middle" x="783.85" y="-212.69" font-family="Arial" font-size="9.00">subpath</text>
</g>
<!-- stats -->
<g id="node18" class="node">
<title>stats</title>
<polygon fill="lightyellow" stroke="black" points="277.83,-993 101.83,-993 101.83,-945 283.83,-945 283.83,-987 277.83,-993"/>
<polyline fill="none" stroke="black" points="277.83,-993 277.83,-987 "/>
<polyline fill="none" stroke="black" points="283.83,-987 277.83,-987 "/>
<text text-anchor="middle" x="192.83" y="-981.8" font-family="Arial" font-size="9.00">Statistics</text>
<text text-anchor="middle" x="192.83" y="-971.8" font-family="Arial" font-size="9.00">Total paths considered: 19</text>
<text text-anchor="middle" x="192.83" y="-961.8" font-family="Arial" font-size="9.00">Cheapest: T_IndexOnlyScan (0.33)</text>
<text text-anchor="middle" x="192.83" y="-951.8" font-family="Arial" font-size="9.00">Most expensive: T_NestLoop (27515.83)</text>
</g>
<!-- legend -->
<g id="node19" class="node">
<title>legend</title>
<polygon fill="white" stroke="black" points="271.33,-1104 108.33,-1104 108.33,-1036 277.33,-1036 277.33,-1098 271.33,-1104"/>
<polyline fill="none" stroke="black" points="271.33,-1104 271.33,-1098 "/>
<polyline fill="none" stroke="black" points="277.33,-1098 271.33,-1098 "/>
<text text-anchor="middle" x="192.83" y="-1092.8" font-family="Arial" font-size="9.00">Legend</text>
<text text-anchor="middle" x="192.83" y="-1082.8" font-family="Arial" font-size="9.00">Blue edge: outer/subpath input</text>
<text text-anchor="middle" x="192.83" y="-1072.8" font-family="Arial" font-size="9.00">Orange edge: inner input</text>
<text text-anchor="middle" x="192.83" y="-1062.8" font-family="Arial" font-size="9.00">Dashed cluster: relation/join group</text>
<text text-anchor="middle" x="192.83" y="-1052.8" font-family="Arial" font-size="9.00">Green node: selected plan</text>
<text text-anchor="middle" x="192.83" y="-1042.8" font-family="Arial" font-size="9.00">Black edge: relation path progression</text>
</g>
</g>
</svg>
