<?xml version="1.0" encoding="UTF-8" standalone="no"?>
<!DOCTYPE svg PUBLIC "-//W3C//DTD SVG 1.1//EN"
 "http://www.w3.org/Graphics/SVG/1.1/DTD/svg11.dtd">
<!-- Generated by graphviz version 2.43.0 (0)
 -->
<!-- Title: %3 Pages: 1 -->
<svg width="1006pt" height="833pt"
 viewBox="0.00 0.00 1005.72 833.00" xmlns="http://www.w3.org/2000/svg" xmlns:xlink="http://www.w3.org/1999/xlink">
<g id="graph0" class="graph" transform="scale(1 1) rotate(0) translate(4 829)">
<title>%3</title>
<polygon fill="white" stroke="transparent" points="-4,4 -4,-829 1001.72,-829 1001.72,4 -4,4"/>
<g id="clust1" class="cluster">
<title>cluster_left</title>
<polygon fill="none" stroke="black" points="56.72,-8 56.72,-658 329.72,-658 329.72,-8 56.72,-8"/>
</g>
<g id="clust2" class="cluster">
<title>cluster_relations</title>
<polygon fill="none" stroke="black" points="64.72,-16 64.72,-650 321.72,-650 321.72,-16 64.72,-16"/>
</g>
<g id="clust3" class="cluster">
<title>cluster_rel_0</title>
<path fill="none" stroke="#a6a6a6" stroke-width="1.2" stroke-dasharray="5,2" d="M84.72,-337C84.72,-337 301.72,-337 301.72,-337 307.72,-337 313.72,-343 313.72,-349 313.72,-349 313.72,-630 313.72,-630 313.72,-636 307.72,-642 301.72,-642 301.72,-642 84.72,-642 84.72,-642 78.72,-642 72.72,-636 72.72,-630 72.72,-630 72.72,-349 72.72,-349 72.72,-343 78.72,-337 84.72,-337"/>
<text text-anchor="middle" x="193.22" y="-630" font-family="Arial" font-size="10.00">PID 1723791 • Relation RTI 1 (public.test1 (26144))</text>
</g>
<g id="clust4" class="cluster">
<title>cluster_rel_1</title>
<path fill="none" stroke="#a6a6a6" stroke-width="1.2" stroke-dasharray="5,2" d="M84.72,-24C84.72,-24 301.72,-24 301.72,-24 307.72,-24 313.72,-30 313.72,-36 313.72,-36 313.72,-317 313.72,-317 313.72,-323 307.72,-329 301.72,-329 301.72,-329 84.72,-329 84.72,-329 78.72,-329 72.72,-323 72.72,-317 72.72,-317 72.72,-36 72.72,-36 72.72,-30 78.72,-24 84.72,-24"/>
<text text-anchor="middle" x="193.22" y="-317" font-family="Arial" font-size="10.00">PID 1723791 • Relation RTI 2 (public.test2 (26149))</text>
</g>
<g id="clust5" class="cluster">
<title>cluster_join_0</title>
<path fill="none" stroke="#6e7b8b" stroke-width="1.2" stroke-dasharray="5,2" d="M478.72,-463C478.72,-463 977.72,-463 977.72,-463 983.72,-463 989.72,-469 989.72,-475 989.72,-475 989.72,-564 989.72,-564 989.72,-570 983.72,-576 977.72,-576 977.72,-576 478.72,-576 478.72,-576 472.72,-576 466.72,-570 466.72,-564 466.72,-564 466.72,-475 466.72,-475 466.72,-469 472.72,-463 478.72,-463"/>
<text text-anchor="middle" x="728.22" y="-564" font-family="Arial" font-size="10.00">PID 1723791 • JOIN_LEFT (outer: RTI 1, inner: RTI 2)</text>
</g>
<!-- plan_1723791_0 -->
<g id="node1" class="node">
<title>plan_1723791_0</title>
<path fill="lightblue" stroke="black" d="M245.72,-615C245.72,-615 140.72,-615 140.72,-615 134.72,-615 128.72,-609 128.72,-603 128.72,-603 128.72,-569 128.72,-569 128.72,-563 134.72,-557 140.72,-557 140.72,-557 245.72,-557 245.72,-557 251.72,-557 257.72,-563 257.72,-569 257.72,-569 257.72,-603 257.72,-603 257.72,-609 251.72,-615 245.72,-615"/>
<text text-anchor="middle" x="193.22" y="-603.8" font-family="Arial" font-size="9.00">T_SeqScan</text>
<text text-anchor="middle" x="193.22" y="-593.8" font-family="Arial" font-size="9.00">Startup: 0.000</text>
<text text-anchor="middle" x="193.22" y="-583.8" font-family="Arial" font-size="9.00">Total: 17.500</text>
<text text-anchor="middle" x="193.22" y="-573.8" font-family="Arial" font-size="9.00">Rows: 1</text>
<text text-anchor="middle" x="193.22" y="-563.8" font-family="Arial" font-size="9.00">Parent: public.test1 (26144)</text>
</g>
<!-- plan_1723791_1 -->
<g id="node2" class="node">
<title>plan_1723791_1</title>
<path fill="lightgreen" stroke="black" stroke-width="3" d="M245.72,-514C245.72,-514 140.72,-514 140.72,-514 134.72,-514 128.72,-508 128.72,-502 128.72,-502 128.72,-458 128.72,-458 128.72,-452 134.72,-446 140.72,-446 140.72,-446 245.72,-446 245.72,-446 251.72,-446 257.72,-452 257.72,-458 257.72,-458 257.72,-502 257.72,-502 257.72,-508 251.72,-514 245.72,-514"/>
<text text-anchor="middle" x="193.22" y="-502.8" font-family="Arial" font-size="9.00">T_IndexOnlyScan</text>
<text text-anchor="middle" x="193.22" y="-492.8" font-family="Arial" font-size="9.00">[CHOSEN]</text>
<text text-anchor="middle" x="193.22" y="-482.8" font-family="Arial" font-size="9.00">Startup: 0.275</text>
<text text-anchor="middle" x="193.22" y="-472.8" font-family="Arial" font-size="9.00">Total: 8.293</text>
<text text-anchor="middle" x="193.22" y="-462.8" font-family="Arial" font-size="9.00">Rows: 1</text>
<text text-anchor="middle" x="193.22" y="-452.8" font-family="Arial" font-size="9.00">Parent: public.test1 (26144)</text>
</g>
<!-- plan_1723791_0&#45;&gt;plan_1723791_1 -->
<g id="edge1" class="edge">
<title>plan_1723791_0&#45;&gt;plan_1723791_1</title>
<path fill="none" stroke="#7f7f7f" stroke-dasharray="5,2" d="M193.22,-556.9C193.22,-542.72 193.22,-528.54 193.22,-514.37"/>
<text text-anchor="middle" x="188.22" y="-528.43" font-family="Arial" font-size="9.00">alt</text>
</g>
<!-- plan_1723791_3 -->
<g id="node4" class="node">
<title>plan_1723791_3</title>
<path fill="lightblue" stroke="black" d="M245.72,-302C245.72,-302 140.72,-302 140.72,-302 134.72,-302 128.72,-296 128.72,-290 128.72,-290 128.72,-256 128.72,-256 128.72,-250 134.72,-244 140.72,-244 140.72,-244 245.72,-244 245.72,-244 251.72,-244 257.72,-250 257.72,-256 257.72,-256 257.72,-290 257.72,-290 257.72,-296 251.72,-302 245.72,-302"/>
<text text-anchor="middle" x="193.22" y="-290.8" font-family="Arial" font-size="9.00">T_SeqScan</text>
<text text-anchor="middle" x="193.22" y="-280.8" font-family="Arial" font-size="9.00">Startup: 0.000</text>
<text text-anchor="middle" x="193.22" y="-270.8" font-family="Arial" font-size="9.00">Total: 17.500</text>
<text text-anchor="middle" x="193.22" y="-260.8" font-family="Arial" font-size="9.00">Rows: 1</text>
<text text-anchor="middle" x="193.22" y="-250.8" font-family="Arial" font-size="9.00">Parent: public.test2 (26149)</text>
</g>
<!-- plan_1723791_0&#45;&gt;plan_1723791_3 -->
<!-- plan_1723791_2 -->
<g id="node3" class="node">
<title>plan_1723791_2</title>
<path fill="lightblue" stroke="black" d="M245.72,-403C245.72,-403 140.72,-403 140.72,-403 134.72,-403 128.72,-397 128.72,-391 128.72,-391 128.72,-357 128.72,-357 128.72,-351 134.72,-345 140.72,-345 140.72,-345 245.72,-345 245.72,-345 251.72,-345 257.72,-351 257.72,-357 257.72,-357 257.72,-391 257.72,-391 257.72,-397 251.72,-403 245.72,-403"/>
<text text-anchor="middle" x="193.22" y="-391.8" font-family="Arial" font-size="9.00">T_BitmapHeapScan</text>
<text text-anchor="middle" x="193.22" y="-381.8" font-family="Arial" font-size="9.00">Startup: 4.283</text>
<text text-anchor="middle" x="193.22" y="-371.8" font-family="Arial" font-size="9.00">Total: 8.295</text>
<text text-anchor="middle" x="193.22" y="-361.8" font-family="Arial" font-size="9.00">Rows: 1</text>
<text text-anchor="middle" x="193.22" y="-351.8" font-family="Arial" font-size="9.00">Parent: public.test1 (26144)</text>
</g>
<!-- plan_1723791_1&#45;&gt;plan_1723791_2 -->
<g id="edge2" class="edge">
<title>plan_1723791_1&#45;&gt;plan_1723791_2</title>
<path fill="none" stroke="#7f7f7f" stroke-dasharray="5,2" d="M193.22,-445.89C193.22,-431.73 193.22,-417.56 193.22,-403.4"/>
<text text-anchor="middle" x="188.22" y="-417.44" font-family="Arial" font-size="9.00">alt</text>
</g>
<!-- plan_1723791_4 -->
<g id="node5" class="node">
<title>plan_1723791_4</title>
<path fill="lightgreen" stroke="black" stroke-width="3" d="M245.72,-201C245.72,-201 140.72,-201 140.72,-201 134.72,-201 128.72,-195 128.72,-189 128.72,-189 128.72,-145 128.72,-145 128.72,-139 134.72,-133 140.72,-133 140.72,-133 245.72,-133 245.72,-133 251.72,-133 257.72,-139 257.72,-145 257.72,-145 257.72,-189 257.72,-189 257.72,-195 251.72,-201 245.72,-201"/>
<text text-anchor="middle" x="193.22" y="-189.8" font-family="Arial" font-size="9.00">T_IndexOnlyScan</text>
<text text-anchor="middle" x="193.22" y="-179.8" font-family="Arial" font-size="9.00">[CHOSEN]</text>
<text text-anchor="middle" x="193.22" y="-169.8" font-family="Arial" font-size="9.00">Startup: 0.275</text>
<text text-anchor="middle" x="193.22" y="-159.8" font-family="Arial" font-size="9.00">Total: 8.293</text>
<text text-anchor="middle" x="193.22" y="-149.8" font-family="Arial" font-size="9.00">Rows: 1</text>
<text text-anchor="middle" x="193.22" y="-139.8" font-family="Arial" font-size="9.00">Parent: public.test2 (26149)</text>
</g>
<!-- plan_1723791_1&#45;&gt;plan_1723791_4 -->
<!-- plan_1723791_6 -->
<g id="node7" class="node">
<title>plan_1723791_6</title>
<path fill="lightblue" stroke="black" d="M587.72,-549C587.72,-549 486.72,-549 486.72,-549 480.72,-549 474.72,-543 474.72,-537 474.72,-537 474.72,-493 474.72,-493 474.72,-487 480.72,-481 486.72,-481 486.72,-481 587.72,-481 587.72,-481 593.72,-481 599.72,-487 599.72,-493 599.72,-493 599.72,-537 599.72,-537 599.72,-543 593.72,-549 587.72,-549"/>
<text text-anchor="middle" x="537.22" y="-537.8" font-family="Arial" font-size="9.00">T_NestLoop</text>
<text text-anchor="middle" x="537.22" y="-527.8" font-family="Arial" font-size="9.00">Startup: 0.550</text>
<text text-anchor="middle" x="537.22" y="-517.8" font-family="Arial" font-size="9.00">Total: 16.595</text>
<text text-anchor="middle" x="537.22" y="-507.8" font-family="Arial" font-size="9.00">Rows: 1</text>
<text text-anchor="middle" x="537.22" y="-497.8" font-family="Arial" font-size="9.00">Outer: public.test1 (26144)</text>
<text text-anchor="middle" x="537.22" y="-487.8" font-family="Arial" font-size="9.00">Inner: public.test2 (26149)</text>
</g>
<!-- plan_1723791_1&#45;&gt;plan_1723791_6 -->
<g id="edge6" class="edge">
<title>plan_1723791_1&#45;&gt;plan_1723791_6</title>
<path fill="none" stroke="#4f94cd" d="M257.75,-486.5C317.24,-492.59 405.92,-501.67 467.15,-507.93"/>
<polygon fill="#4f94cd" stroke="#4f94cd" points="467.26,-510.41 474.48,-508.68 467.76,-505.53 467.26,-510.41"/>
<text text-anchor="middle" x="355.16" y="-490.4" font-family="Arial" font-size="9.00">outer</text>
</g>
<!-- plan_1723791_7 -->
<g id="node8" class="node">
<title>plan_1723791_7</title>
<path fill="lightblue" stroke="black" d="M969.72,-539C969.72,-539 868.72,-539 868.72,-539 862.72,-539 856.72,-533 856.72,-527 856.72,-527 856.72,-483 856.72,-483 856.72,-477 862.72,-471 868.72,-471 868.72,-471 969.72,-471 969.72,-471 975.72,-471 981.72,-477 981.72,-483 981.72,-483 981.72,-527 981.72,-527 981.72,-533 975.72,-539 969.72,-539"/>
<text text-anchor="middle" x="919.22" y="-527.8" font-family="Arial" font-size="9.00">T_NestLoop</text>
<text text-anchor="middle" x="919.22" y="-517.8" font-family="Arial" font-size="9.00">Startup: 0.550</text>
<text text-anchor="middle" x="919.22" y="-507.8" font-family="Arial" font-size="9.00">Total: 16.600</text>
<text text-anchor="middle" x="919.22" y="-497.8" font-family="Arial" font-size="9.00">Rows: 1</text>
<text text-anchor="middle" x="919.22" y="-487.8" font-family="Arial" font-size="9.00">Outer: public.test1 (26144)</text>
<text text-anchor="middle" x="919.22" y="-477.8" font-family="Arial" font-size="9.00">Inner: public.test2 (26149)</text>
</g>
<!-- plan_1723791_1&#45;&gt;plan_1723791_7 -->
<g id="edge8" class="edge">
<title>plan_1723791_1&#45;&gt;plan_1723791_7</title>
<path fill="none" stroke="#4f94cd" d="M258,-465.36C300.01,-456.37 356.35,-445.55 406.72,-440 576.86,-421.26 625.32,-409.88 791.72,-450 811.21,-454.7 831.48,-462.21 849.94,-470.18"/>
<polygon fill="#4f94cd" stroke="#4f94cd" points="849.26,-472.56 856.65,-473.14 851.23,-468.08 849.26,-472.56"/>
<text text-anchor="middle" x="543.46" y="-417.47" font-family="Arial" font-size="9.00">outer</text>
</g>
<!-- plan_1723791_9 -->
<g id="node10" class="node">
<title>plan_1723791_9</title>
<path fill="lightgreen" stroke="black" stroke-width="3" d="M779.72,-549C779.72,-549 678.72,-549 678.72,-549 672.72,-549 666.72,-543 666.72,-537 666.72,-537 666.72,-483 666.72,-483 666.72,-477 672.72,-471 678.72,-471 678.72,-471 779.72,-471 779.72,-471 785.72,-471 791.72,-477 791.72,-483 791.72,-483 791.72,-537 791.72,-537 791.72,-543 785.72,-549 779.72,-549"/>
<text text-anchor="middle" x="729.22" y="-537.8" font-family="Arial" font-size="9.00">T_NestLoop</text>
<text text-anchor="middle" x="729.22" y="-527.8" font-family="Arial" font-size="9.00">[CHOSEN]</text>
<text text-anchor="middle" x="729.22" y="-517.8" font-family="Arial" font-size="9.00">Startup: 0.550</text>
<text text-anchor="middle" x="729.22" y="-507.8" font-family="Arial" font-size="9.00">Total: 16.595</text>
<text text-anchor="middle" x="729.22" y="-497.8" font-family="Arial" font-size="9.00">Rows: 1</text>
<text text-anchor="middle" x="729.22" y="-487.8" font-family="Arial" font-size="9.00">Outer: public.test1 (26144)</text>
<text text-anchor="middle" x="729.22" y="-477.8" font-family="Arial" font-size="9.00">Inner: public.test2 (26149)</text>
</g>
<!-- plan_1723791_1&#45;&gt;plan_1723791_9 -->
<g id="edge10" class="edge">
<title>plan_1723791_1&#45;&gt;plan_1723791_9</title>
<path fill="none" stroke="#4f94cd" d="M258.04,-467.65C338.81,-454.12 481.87,-437.17 601.72,-460 621.14,-463.7 641.39,-470.33 659.85,-477.57"/>
<polygon fill="#4f94cd" stroke="#4f94cd" points="659.15,-479.93 666.56,-480.26 660.97,-475.38 659.15,-479.93"/>
<text text-anchor="middle" x="451.34" y="-441.62" font-family="Arial" font-size="9.00">outer</text>
</g>
<!-- plan_1723791_5 -->
<g id="node6" class="node">
<title>plan_1723791_5</title>
<path fill="lightblue" stroke="black" d="M245.72,-90C245.72,-90 140.72,-90 140.72,-90 134.72,-90 128.72,-84 128.72,-78 128.72,-78 128.72,-44 128.72,-44 128.72,-38 134.72,-32 140.72,-32 140.72,-32 245.72,-32 245.72,-32 251.72,-32 257.72,-38 257.72,-44 257.72,-44 257.72,-78 257.72,-78 257.72,-84 251.72,-90 245.72,-90"/>
<text text-anchor="middle" x="193.22" y="-78.8" font-family="Arial" font-size="9.00">T_BitmapHeapScan</text>
<text text-anchor="middle" x="193.22" y="-68.8" font-family="Arial" font-size="9.00">Startup: 4.283</text>
<text text-anchor="middle" x="193.22" y="-58.8" font-family="Arial" font-size="9.00">Total: 8.295</text>
<text text-anchor="middle" x="193.22" y="-48.8" font-family="Arial" font-size="9.00">Rows: 1</text>
<text text-anchor="middle" x="193.22" y="-38.8" font-family="Arial" font-size="9.00">Parent: public.test2 (26149)</text>
</g>
<!-- plan_1723791_2&#45;&gt;plan_1723791_5 -->
<!-- plan_1723791_3&#45;&gt;plan_1723791_4 -->
<g id="edge3" class="edge">
<title>plan_1723791_3&#45;&gt;plan_1723791_4</title>
<path fill="none" stroke="#7f7f7f" stroke-dasharray="5,2" d="M193.22,-243.9C193.22,-229.72 193.22,-215.54 193.22,-201.37"/>
<text text-anchor="middle" x="188.22" y="-215.43" font-family="Arial" font-size="9.00">alt</text>
</g>
<!-- plan_1723791_4&#45;&gt;plan_1723791_5 -->
<g id="edge4" class="edge">
<title>plan_1723791_4&#45;&gt;plan_1723791_5</title>
<path fill="none" stroke="#7f7f7f" stroke-dasharray="5,2" d="M193.22,-132.89C193.22,-118.73 193.22,-104.56 193.22,-90.4"/>
<text text-anchor="middle" x="188.22" y="-104.44" font-family="Arial" font-size="9.00">alt</text>
</g>
<!-- plan_1723791_4&#45;&gt;plan_1723791_6 -->
<g id="edge7" class="edge">
<title>plan_1723791_4&#45;&gt;plan_1723791_6</title>
<path fill="none" stroke="#cd6600" d="M257.89,-184.94C282.03,-193.79 308.73,-206.25 329.72,-223 418.45,-293.82 485.77,-412.42 517,-474.44"/>
<polygon fill="#cd6600" stroke="#cd6600" points="514.95,-475.82 520.27,-480.98 519.34,-473.63 514.95,-475.82"/>
<text text-anchor="middle" x="404.78" y="-305.01" font-family="Arial" font-size="9.00">inner</text>
</g>
<!-- plan_1723791_4&#45;&gt;plan_1723791_9 -->
<g id="edge11" class="edge">
<title>plan_1723791_4&#45;&gt;plan_1723791_9</title>
<path fill="none" stroke="#cd6600" d="M258.04,-189.84C281.17,-199.03 307.15,-210.43 329.72,-223 461.85,-296.57 602.2,-405.97 675.94,-466.23"/>
<polygon fill="#cd6600" stroke="#cd6600" points="674.59,-468.3 681.56,-470.84 677.7,-464.51 674.59,-468.3"/>
<text text-anchor="middle" x="468.01" y="-309.98" font-family="Arial" font-size="9.00">inner</text>
</g>
<!-- plan_1723791_8 -->
<g id="node9" class="node">
<title>plan_1723791_8</title>
<path fill="lightblue" stroke="black" d="M589.72,-102C589.72,-102 484.72,-102 484.72,-102 478.72,-102 472.72,-96 472.72,-90 472.72,-90 472.72,-56 472.72,-56 472.72,-50 478.72,-44 484.72,-44 484.72,-44 589.72,-44 589.72,-44 595.72,-44 601.72,-50 601.72,-56 601.72,-56 601.72,-90 601.72,-90 601.72,-96 595.72,-102 589.72,-102"/>
<text text-anchor="middle" x="537.22" y="-90.8" font-family="Arial" font-size="9.00">T_Material</text>
<text text-anchor="middle" x="537.22" y="-80.8" font-family="Arial" font-size="9.00">Startup: 0.275</text>
<text text-anchor="middle" x="537.22" y="-70.8" font-family="Arial" font-size="9.00">Total: 8.298</text>
<text text-anchor="middle" x="537.22" y="-60.8" font-family="Arial" font-size="9.00">Rows: 1</text>
<text text-anchor="middle" x="537.22" y="-50.8" font-family="Arial" font-size="9.00">Parent: public.test2 (26149)</text>
</g>
<!-- plan_1723791_5&#45;&gt;plan_1723791_8 -->
<g id="edge5" class="edge">
<title>plan_1723791_5&#45;&gt;plan_1723791_8</title>
<path fill="none" stroke="black" d="M257.75,-63.23C316.59,-65.29 403.99,-68.36 465.13,-70.51"/>
<polygon fill="black" stroke="black" points="465.37,-72.97 472.46,-70.76 465.55,-68.07 465.37,-72.97"/>
</g>
<!-- plan_1723791_6&#45;&gt;plan_1723791_9 -->
<!-- plan_1723791_8&#45;&gt;plan_1723791_7 -->
<g id="edge9" class="edge">
<title>plan_1723791_8&#45;&gt;plan_1723791_7</title>
<path fill="none" stroke="#cd6600" d="M601.92,-97.21C658.21,-121.39 739.3,-163.41 791.72,-222 856.2,-294.07 892.49,-404.4 908.39,-463.77"/>
<polygon fill="#cd6600" stroke="#cd6600" points="906.08,-464.61 910.23,-470.75 910.82,-463.36 906.08,-464.61"/>
<text text-anchor="middle" x="798.47" y="-236.47" font-family="Arial" font-size="9.00">inner</text>
</g>
<!-- plan_1723791_9&#45;&gt;plan_1723791_7 -->
<!-- stats -->
<g id="node11" class="node">
<title>stats</title>
<polygon fill="lightyellow" stroke="black" points="269.22,-714 111.22,-714 111.22,-666 275.22,-666 275.22,-708 269.22,-714"/>
<polyline fill="none" stroke="black" points="269.22,-714 269.22,-708 "/>
<polyline fill="none" stroke="black" points="275.22,-708 269.22,-708 "/>
<text text-anchor="middle" x="193.22" y="-702.8" font-family="Arial" font-size="9.00">Statistics</text>
<text text-anchor="middle" x="193.22" y="-692.8" font-family="Arial" font-size="9.00">Total paths considered: 10</text>
<text text-anchor="middle" x="193.22" y="-682.8" font-family="Arial" font-size="9.00">Cheapest: T_IndexOnlyScan (8.29)</text>
<text text-anchor="middle" x="193.22" y="-672.8" font-family="Arial" font-size="9.00">Most expensive: T_SeqScan (17.50)</text>
</g>
<!-- legend -->
<g id="node12" class="node">
<title>legend</title>
<polygon fill="white" stroke="black" points="271.72,-825 108.72,-825 108.72,-757 277.72,-757 277.72,-819 271.72,-825"/>
<polyline fill="none" stroke="black" points="271.72,-825 271.72,-819 "/>
<polyline fill="none" stroke="black" points="277.72,-819 271.72,-819 "/>
<text text-anchor="middle" x="193.22" y="-813.8" font-family="Arial" font-size="9.00">Legend</text>
<text text-anchor="middle" x="193.22" y="-803.8" font-family="Arial" font-size="9.00">Blue edge: outer input</text>
<text text-anchor="middle" x="193.22" y="-793.8" font-family="Arial" font-size="9.00">Orange edge: inner input</text>
<text text-anchor="middle" x="193.22" y="-783.8" font-family="Arial" font-size="9.00">Dashed cluster: relation/join group</text>
<text text-anchor="middle" x="193.22" y="-773.8" font-family="Arial" font-size="9.00">Green node: selected plan</text>
<text text-anchor="middle" x="193.22" y="-763.8" font-family="Arial" font-size="9.00">Black edge: relation path progression</text>
</g>
</g>
</svg>
