<?xml version="1.0" encoding="UTF-8" standalone="no"?>
<!DOCTYPE svg PUBLIC "-//W3C//DTD SVG 1.1//EN"
 "http://www.w3.org/Graphics/SVG/1.1/DTD/svg11.dtd">
<!-- Generated by graphviz version 2.43.0 (0)
 -->
<!-- Title: %3 Pages: 1 -->
<svg width="1493pt" height="1502pt"
 viewBox="0.00 0.00 1493.40 1502.00" xmlns="http://www.w3.org/2000/svg" xmlns:xlink="http://www.w3.org/1999/xlink">
<g id="graph0" class="graph" transform="scale(1 1) rotate(0) translate(4 1498)">
<title>%3</title>
<polygon fill="white" stroke="transparent" points="-4,4 -4,-1498 1489.4,-1498 1489.4,4 -4,4"/>
<g id="clust1" class="cluster">
<title>cluster_left</title>
<polygon fill="none" stroke="black" points="57.9,-266 57.9,-976 330.9,-976 330.9,-266 57.9,-266"/>
</g>
<g id="clust2" class="cluster">
<title>cluster_relations</title>
<polygon fill="none" stroke="black" points="65.9,-274 65.9,-968 322.9,-968 322.9,-274 65.9,-274"/>
</g>
<g id="clust3" class="cluster">
<title>cluster_rel_0</title>
<path fill="none" stroke="#a6a6a6" stroke-width="1.2" stroke-dasharray="5,2" d="M85.9,-736C85.9,-736 302.9,-736 302.9,-736 308.9,-736 314.9,-742 314.9,-748 314.9,-748 314.9,-948 314.9,-948 314.9,-954 308.9,-960 302.9,-960 302.9,-960 85.9,-960 85.9,-960 79.9,-960 73.9,-954 73.9,-948 73.9,-948 73.9,-748 73.9,-748 73.9,-742 79.9,-736 85.9,-736"/>
<text text-anchor="middle" x="194.4" y="-948" font-family="Arial" font-size="10.00">PID 1723791 • Relation RTI 1 (public.test1 (26144))</text>
</g>
<g id="clust4" class="cluster">
<title>cluster_rel_1</title>
<path fill="none" stroke="#a6a6a6" stroke-width="1.2" stroke-dasharray="5,2" d="M85.9,-282C85.9,-282 302.9,-282 302.9,-282 308.9,-282 314.9,-288 314.9,-294 314.9,-294 314.9,-716 314.9,-716 314.9,-722 308.9,-728 302.9,-728 302.9,-728 85.9,-728 85.9,-728 79.9,-728 73.9,-722 73.9,-716 73.9,-716 73.9,-294 73.9,-294 73.9,-288 79.9,-282 85.9,-282"/>
<text text-anchor="middle" x="194.4" y="-716" font-family="Arial" font-size="10.00">PID 1723791 • Relation RTI 2 (public.test2 (26149))</text>
</g>
<g id="clust5" class="cluster">
<title>cluster_join_0</title>
<path fill="none" stroke="#6e7b8b" stroke-width="1.2" stroke-dasharray="5,2" d="M481.4,-246C481.4,-246 1288.4,-246 1288.4,-246 1294.4,-246 1300.4,-252 1300.4,-258 1300.4,-258 1300.4,-599 1300.4,-599 1300.4,-605 1294.4,-611 1288.4,-611 1288.4,-611 481.4,-611 481.4,-611 475.4,-611 469.4,-605 469.4,-599 469.4,-599 469.4,-258 469.4,-258 469.4,-252 475.4,-246 481.4,-246"/>
<text text-anchor="middle" x="884.9" y="-599" font-family="Arial" font-size="10.00">PID 1723791 • JOIN_LEFT (outer: RTI 1, inner: RTI 2)</text>
</g>
<g id="clust6" class="cluster">
<title>cluster_join_1</title>
<path fill="none" stroke="#6e7b8b" stroke-width="1.2" stroke-dasharray="5,2" d="M671.4,-125C671.4,-125 908.4,-125 908.4,-125 914.4,-125 920.4,-131 920.4,-137 920.4,-137 920.4,-226 920.4,-226 920.4,-232 914.4,-238 908.4,-238 908.4,-238 671.4,-238 671.4,-238 665.4,-238 659.4,-232 659.4,-226 659.4,-226 659.4,-137 659.4,-137 659.4,-131 665.4,-125 671.4,-125"/>
<text text-anchor="middle" x="789.9" y="-226" font-family="Arial" font-size="10.00">PID 1723791 • JOIN_RIGHT (outer: RTI 2, inner: RTI 1)</text>
</g>
<g id="clust7" class="cluster">
<title>cluster_parent_rel_0</title>
<path fill="none" stroke="#8c8c8c" stroke-width="1.2" stroke-dasharray="5,2" d="M1000.4,-135C1000.4,-135 1465.4,-135 1465.4,-135 1471.4,-135 1477.4,-141 1477.4,-147 1477.4,-147 1477.4,-226 1477.4,-226 1477.4,-232 1471.4,-238 1465.4,-238 1465.4,-238 1000.4,-238 1000.4,-238 994.4,-238 988.4,-232 988.4,-226 988.4,-226 988.4,-147 988.4,-147 988.4,-141 994.4,-135 1000.4,-135"/>
<text text-anchor="middle" x="1232.9" y="-226" font-family="Arial" font-size="10.00">PID 1723791 • Derived relation 187651256209160</text>
</g>
<!-- plan_1723791_0 -->
<g id="node1" class="node">
<title>plan_1723791_0</title>
<path fill="lightgreen" stroke="black" stroke-width="3" d="M246.9,-822C246.9,-822 141.9,-822 141.9,-822 135.9,-822 129.9,-816 129.9,-810 129.9,-810 129.9,-756 129.9,-756 129.9,-750 135.9,-744 141.9,-744 141.9,-744 246.9,-744 246.9,-744 252.9,-744 258.9,-750 258.9,-756 258.9,-756 258.9,-810 258.9,-810 258.9,-816 252.9,-822 246.9,-822"/>
<text text-anchor="middle" x="194.4" y="-810.8" font-family="Arial" font-size="9.00">T_SeqScan</text>
<text text-anchor="middle" x="194.4" y="-800.8" font-family="Arial" font-size="9.00">[CHOSEN]</text>
<text text-anchor="middle" x="194.4" y="-790.8" font-family="Arial" font-size="9.00">Type: T_Path</text>
<text text-anchor="middle" x="194.4" y="-780.8" font-family="Arial" font-size="9.00">Startup: 0.000</text>
<text text-anchor="middle" x="194.4" y="-770.8" font-family="Arial" font-size="9.00">Total: 15.000</text>
<text text-anchor="middle" x="194.4" y="-760.8" font-family="Arial" font-size="9.00">Rows: 1000</text>
<text text-anchor="middle" x="194.4" y="-750.8" font-family="Arial" font-size="9.00">Parent: public.test1 (26144)</text>
</g>
<!-- plan_1723791_1 -->
<g id="node2" class="node">
<title>plan_1723791_1</title>
<path fill="lightblue" stroke="black" d="M246.9,-933C246.9,-933 141.9,-933 141.9,-933 135.9,-933 129.9,-927 129.9,-921 129.9,-921 129.9,-877 129.9,-877 129.9,-871 135.9,-865 141.9,-865 141.9,-865 246.9,-865 246.9,-865 252.9,-865 258.9,-871 258.9,-877 258.9,-877 258.9,-921 258.9,-921 258.9,-927 252.9,-933 246.9,-933"/>
<text text-anchor="middle" x="194.4" y="-921.8" font-family="Arial" font-size="9.00">T_IndexOnlyScan</text>
<text text-anchor="middle" x="194.4" y="-911.8" font-family="Arial" font-size="9.00">Type: T_IndexPath</text>
<text text-anchor="middle" x="194.4" y="-901.8" font-family="Arial" font-size="9.00">Startup: 0.275</text>
<text text-anchor="middle" x="194.4" y="-891.8" font-family="Arial" font-size="9.00">Total: 43.275</text>
<text text-anchor="middle" x="194.4" y="-881.8" font-family="Arial" font-size="9.00">Rows: 1000</text>
<text text-anchor="middle" x="194.4" y="-871.8" font-family="Arial" font-size="9.00">Parent: public.test1 (26144)</text>
</g>
<!-- plan_1723791_0&#45;&gt;plan_1723791_1 -->
<g id="edge1" class="edge">
<title>plan_1723791_0&#45;&gt;plan_1723791_1</title>
<path fill="none" stroke="#7f7f7f" stroke-dasharray="5,2" d="M194.4,-822.42C194.4,-836.58 194.4,-850.74 194.4,-864.9"/>
<text text-anchor="middle" x="189.4" y="-836.46" font-family="Arial" font-size="9.00">alt</text>
</g>
<!-- plan_1723791_2 -->
<g id="node3" class="node">
<title>plan_1723791_2</title>
<path fill="lightgreen" stroke="black" stroke-width="3" d="M246.9,-701C246.9,-701 141.9,-701 141.9,-701 135.9,-701 129.9,-695 129.9,-689 129.9,-689 129.9,-635 129.9,-635 129.9,-629 135.9,-623 141.9,-623 141.9,-623 246.9,-623 246.9,-623 252.9,-623 258.9,-629 258.9,-635 258.9,-635 258.9,-689 258.9,-689 258.9,-695 252.9,-701 246.9,-701"/>
<text text-anchor="middle" x="194.4" y="-689.8" font-family="Arial" font-size="9.00">T_SeqScan</text>
<text text-anchor="middle" x="194.4" y="-679.8" font-family="Arial" font-size="9.00">[CHOSEN]</text>
<text text-anchor="middle" x="194.4" y="-669.8" font-family="Arial" font-size="9.00">Type: T_Path</text>
<text text-anchor="middle" x="194.4" y="-659.8" font-family="Arial" font-size="9.00">Startup: 0.000</text>
<text text-anchor="middle" x="194.4" y="-649.8" font-family="Arial" font-size="9.00">Total: 15.000</text>
<text text-anchor="middle" x="194.4" y="-639.8" font-family="Arial" font-size="9.00">Rows: 1000</text>
<text text-anchor="middle" x="194.4" y="-629.8" font-family="Arial" font-size="9.00">Parent: public.test2 (26149)</text>
</g>
<!-- plan_1723791_0&#45;&gt;plan_1723791_2 -->
<!-- plan_1723791_6 -->
<g id="node7" class="node">
<title>plan_1723791_6</title>
<path fill="lightblue" stroke="black" d="M1090.4,-584C1090.4,-584 989.4,-584 989.4,-584 983.4,-584 977.4,-578 977.4,-572 977.4,-572 977.4,-518 977.4,-518 977.4,-512 983.4,-506 989.4,-506 989.4,-506 1090.4,-506 1090.4,-506 1096.4,-506 1102.4,-512 1102.4,-518 1102.4,-518 1102.4,-572 1102.4,-572 1102.4,-578 1096.4,-584 1090.4,-584"/>
<text text-anchor="middle" x="1039.9" y="-572.8" font-family="Arial" font-size="9.00">T_MergeJoin</text>
<text text-anchor="middle" x="1039.9" y="-562.8" font-family="Arial" font-size="9.00">Type: T_MergePath</text>
<text text-anchor="middle" x="1039.9" y="-552.8" font-family="Arial" font-size="9.00">Startup: 129.658</text>
<text text-anchor="middle" x="1039.9" y="-542.8" font-family="Arial" font-size="9.00">Total: 149.658</text>
<text text-anchor="middle" x="1039.9" y="-532.8" font-family="Arial" font-size="9.00">Rows: 1000</text>
<text text-anchor="middle" x="1039.9" y="-522.8" font-family="Arial" font-size="9.00">Outer: public.test1 (26144)</text>
<text text-anchor="middle" x="1039.9" y="-512.8" font-family="Arial" font-size="9.00">Inner: public.test2 (26149)</text>
</g>
<!-- plan_1723791_0&#45;&gt;plan_1723791_6 -->
<g id="edge6" class="edge">
<title>plan_1723791_0&#45;&gt;plan_1723791_6</title>
<path fill="none" stroke="#4f94cd" d="M259.2,-799.41C284.52,-808.78 312.04,-822.98 330.9,-844 408.02,-929.93 317.96,-1023.18 411.4,-1091 481,-1141.52 523.09,-1093.25 602.4,-1060 763.99,-992.25 811.86,-964.54 920.4,-827 977.63,-754.49 1011.79,-650.34 1027.82,-591.01"/>
<polygon fill="#4f94cd" stroke="#4f94cd" points="1030.25,-591.4 1029.68,-584 1025.52,-590.14 1030.25,-591.4"/>
<text text-anchor="middle" x="909.41" y="-819.8" font-family="Arial" font-size="9.00">outer</text>
</g>
<!-- plan_1723791_7 -->
<g id="node8" class="node">
<title>plan_1723791_7</title>
<path fill="lightblue" stroke="black" d="M1090.4,-463C1090.4,-463 989.4,-463 989.4,-463 983.4,-463 977.4,-457 977.4,-451 977.4,-451 977.4,-397 977.4,-397 977.4,-391 983.4,-385 989.4,-385 989.4,-385 1090.4,-385 1090.4,-385 1096.4,-385 1102.4,-391 1102.4,-397 1102.4,-397 1102.4,-451 1102.4,-451 1102.4,-457 1096.4,-463 1090.4,-463"/>
<text text-anchor="middle" x="1039.9" y="-451.8" font-family="Arial" font-size="9.00">T_NestLoop</text>
<text text-anchor="middle" x="1039.9" y="-441.8" font-family="Arial" font-size="9.00">Type: T_NestPath</text>
<text text-anchor="middle" x="1039.9" y="-431.8" font-family="Arial" font-size="9.00">Startup: 0.000</text>
<text text-anchor="middle" x="1039.9" y="-421.8" font-family="Arial" font-size="9.00">Total: 27487.555</text>
<text text-anchor="middle" x="1039.9" y="-411.8" font-family="Arial" font-size="9.00">Rows: 1000</text>
<text text-anchor="middle" x="1039.9" y="-401.8" font-family="Arial" font-size="9.00">Outer: public.test1 (26144)</text>
<text text-anchor="middle" x="1039.9" y="-391.8" font-family="Arial" font-size="9.00">Inner: public.test2 (26149)</text>
</g>
<!-- plan_1723791_0&#45;&gt;plan_1723791_7 -->
<g id="edge8" class="edge">
<title>plan_1723791_0&#45;&gt;plan_1723791_7</title>
<path fill="none" stroke="#4f94cd" d="M258.97,-795.63C398.07,-819.29 732.05,-853.79 920.4,-685 989.24,-623.32 930.4,-564.58 977.4,-485 980.72,-479.39 984.67,-473.93 988.95,-468.73"/>
<polygon fill="#4f94cd" stroke="#4f94cd" points="991.01,-470.11 993.72,-463.2 987.29,-466.91 991.01,-470.11"/>
<text text-anchor="middle" x="645.61" y="-794.74" font-family="Arial" font-size="9.00">outer</text>
</g>
<!-- plan_1723791_8 -->
<g id="node9" class="node">
<title>plan_1723791_8</title>
<path fill="lightblue" stroke="black" d="M590.4,-463C590.4,-463 489.4,-463 489.4,-463 483.4,-463 477.4,-457 477.4,-451 477.4,-451 477.4,-397 477.4,-397 477.4,-391 483.4,-385 489.4,-385 489.4,-385 590.4,-385 590.4,-385 596.4,-385 602.4,-391 602.4,-397 602.4,-397 602.4,-451 602.4,-451 602.4,-457 596.4,-463 590.4,-463"/>
<text text-anchor="middle" x="539.9" y="-451.8" font-family="Arial" font-size="9.00">T_NestLoop</text>
<text text-anchor="middle" x="539.9" y="-441.8" font-family="Arial" font-size="9.00">Type: T_NestPath</text>
<text text-anchor="middle" x="539.9" y="-431.8" font-family="Arial" font-size="9.00">Startup: 0.000</text>
<text text-anchor="middle" x="539.9" y="-421.8" font-family="Arial" font-size="9.00">Total: 15017.530</text>
<text text-anchor="middle" x="539.9" y="-411.8" font-family="Arial" font-size="9.00">Rows: 1000</text>
<text text-anchor="middle" x="539.9" y="-401.8" font-family="Arial" font-size="9.00">Outer: public.test1 (26144)</text>
<text text-anchor="middle" x="539.9" y="-391.8" font-family="Arial" font-size="9.00">Inner: public.test2 (26149)</text>
</g>
<!-- plan_1723791_0&#45;&gt;plan_1723791_8 -->
<g id="edge10" class="edge">
<title>plan_1723791_0&#45;&gt;plan_1723791_8</title>
<path fill="none" stroke="#4f94cd" d="M259.15,-768.5C282.77,-761.45 309.09,-751.51 330.9,-738 374.59,-710.94 385.46,-699.75 412.4,-656 454.42,-587.79 425.09,-551.74 469.4,-485 473.27,-479.18 477.82,-473.58 482.73,-468.29"/>
<polygon fill="#4f94cd" stroke="#4f94cd" points="484.63,-469.84 487.73,-463.1 481.11,-466.44 484.63,-469.84"/>
<text text-anchor="middle" x="410.57" y="-632.26" font-family="Arial" font-size="9.00">outer</text>
</g>
<!-- plan_1723791_14 -->
<g id="node15" class="node">
<title>plan_1723791_14</title>
<path fill="lightgreen" stroke="black" stroke-width="3" d="M590.4,-342C590.4,-342 489.4,-342 489.4,-342 483.4,-342 477.4,-336 477.4,-330 477.4,-330 477.4,-266 477.4,-266 477.4,-260 483.4,-254 489.4,-254 489.4,-254 590.4,-254 590.4,-254 596.4,-254 602.4,-260 602.4,-266 602.4,-266 602.4,-330 602.4,-330 602.4,-336 596.4,-342 590.4,-342"/>
<text text-anchor="middle" x="539.9" y="-330.8" font-family="Arial" font-size="9.00">T_HashJoin</text>
<text text-anchor="middle" x="539.9" y="-320.8" font-family="Arial" font-size="9.00">[CHOSEN]</text>
<text text-anchor="middle" x="539.9" y="-310.8" font-family="Arial" font-size="9.00">Type: T_HashPath</text>
<text text-anchor="middle" x="539.9" y="-300.8" font-family="Arial" font-size="9.00">Startup: 27.500</text>
<text text-anchor="middle" x="539.9" y="-290.8" font-family="Arial" font-size="9.00">Total: 45.136</text>
<text text-anchor="middle" x="539.9" y="-280.8" font-family="Arial" font-size="9.00">Rows: 1000</text>
<text text-anchor="middle" x="539.9" y="-270.8" font-family="Arial" font-size="9.00">Outer: public.test1 (26144)</text>
<text text-anchor="middle" x="539.9" y="-260.8" font-family="Arial" font-size="9.00">Inner: public.test2 (26149)</text>
</g>
<!-- plan_1723791_0&#45;&gt;plan_1723791_14 -->
<g id="edge20" class="edge">
<title>plan_1723791_0&#45;&gt;plan_1723791_14</title>
<path fill="none" stroke="#4f94cd" d="M259.09,-772.9C283.79,-766.34 310.89,-755.59 330.9,-738 464.04,-620.98 378.09,-515.92 469.4,-364 472.8,-358.34 476.82,-352.86 481.17,-347.62"/>
<polygon fill="#4f94cd" stroke="#4f94cd" points="483.28,-348.93 486.02,-342.04 479.58,-345.72 483.28,-348.93"/>
<text text-anchor="middle" x="404.83" y="-556.98" font-family="Arial" font-size="9.00">outer</text>
</g>
<!-- plan_1723791_15 -->
<g id="node16" class="node">
<title>plan_1723791_15</title>
<path fill="lightblue" stroke="black" d="M840.4,-211C840.4,-211 739.4,-211 739.4,-211 733.4,-211 727.4,-205 727.4,-199 727.4,-199 727.4,-145 727.4,-145 727.4,-139 733.4,-133 739.4,-133 739.4,-133 840.4,-133 840.4,-133 846.4,-133 852.4,-139 852.4,-145 852.4,-145 852.4,-199 852.4,-199 852.4,-205 846.4,-211 840.4,-211"/>
<text text-anchor="middle" x="789.9" y="-199.8" font-family="Arial" font-size="9.00">T_HashJoin</text>
<text text-anchor="middle" x="789.9" y="-189.8" font-family="Arial" font-size="9.00">Type: T_HashPath</text>
<text text-anchor="middle" x="789.9" y="-179.8" font-family="Arial" font-size="9.00">Startup: 27.500</text>
<text text-anchor="middle" x="789.9" y="-169.8" font-family="Arial" font-size="9.00">Total: 45.136</text>
<text text-anchor="middle" x="789.9" y="-159.8" font-family="Arial" font-size="9.00">Rows: 1000</text>
<text text-anchor="middle" x="789.9" y="-149.8" font-family="Arial" font-size="9.00">Outer: public.test2 (26149)</text>
<text text-anchor="middle" x="789.9" y="-139.8" font-family="Arial" font-size="9.00">Inner: public.test1 (26144)</text>
</g>
<!-- plan_1723791_0&#45;&gt;plan_1723791_15 -->
<g id="edge23" class="edge">
<title>plan_1723791_0&#45;&gt;plan_1723791_15</title>
<path fill="none" stroke="#cd6600" d="M259.03,-775.08C284.47,-768.86 312.13,-757.77 330.9,-738 490.3,-570.19 300,-393.7 469.4,-236 536.96,-173.11 648.17,-164.39 719.96,-166.33"/>
<polygon fill="#cd6600" stroke="#cd6600" points="720.14,-168.79 727.21,-166.57 720.3,-163.89 720.14,-168.79"/>
<text text-anchor="middle" x="385.02" y="-471.04" font-family="Arial" font-size="9.00">inner</text>
</g>
<!-- plan_1723791_3 -->
<g id="node4" class="node">
<title>plan_1723791_3</title>
<path fill="lightblue" stroke="black" d="M246.9,-580C246.9,-580 141.9,-580 141.9,-580 135.9,-580 129.9,-574 129.9,-568 129.9,-568 129.9,-524 129.9,-524 129.9,-518 135.9,-512 141.9,-512 141.9,-512 246.9,-512 246.9,-512 252.9,-512 258.9,-518 258.9,-524 258.9,-524 258.9,-568 258.9,-568 258.9,-574 252.9,-580 246.9,-580"/>
<text text-anchor="middle" x="194.4" y="-568.8" font-family="Arial" font-size="9.00">T_IndexOnlyScan</text>
<text text-anchor="middle" x="194.4" y="-558.8" font-family="Arial" font-size="9.00">Type: T_IndexPath</text>
<text text-anchor="middle" x="194.4" y="-548.8" font-family="Arial" font-size="9.00">Startup: 0.275</text>
<text text-anchor="middle" x="194.4" y="-538.8" font-family="Arial" font-size="9.00">Total: 43.275</text>
<text text-anchor="middle" x="194.4" y="-528.8" font-family="Arial" font-size="9.00">Rows: 1000</text>
<text text-anchor="middle" x="194.4" y="-518.8" font-family="Arial" font-size="9.00">Parent: public.test2 (26149)</text>
</g>
<!-- plan_1723791_1&#45;&gt;plan_1723791_3 -->
<!-- plan_1723791_10 -->
<g id="node11" class="node">
<title>plan_1723791_10</title>
<path fill="lightblue" stroke="black" d="M1280.4,-584C1280.4,-584 1179.4,-584 1179.4,-584 1173.4,-584 1167.4,-578 1167.4,-572 1167.4,-572 1167.4,-518 1167.4,-518 1167.4,-512 1173.4,-506 1179.4,-506 1179.4,-506 1280.4,-506 1280.4,-506 1286.4,-506 1292.4,-512 1292.4,-518 1292.4,-518 1292.4,-572 1292.4,-572 1292.4,-578 1286.4,-584 1280.4,-584"/>
<text text-anchor="middle" x="1229.9" y="-572.8" font-family="Arial" font-size="9.00">T_NestLoop</text>
<text text-anchor="middle" x="1229.9" y="-562.8" font-family="Arial" font-size="9.00">Type: T_NestPath</text>
<text text-anchor="middle" x="1229.9" y="-552.8" font-family="Arial" font-size="9.00">Startup: 0.275</text>
<text text-anchor="middle" x="1229.9" y="-542.8" font-family="Arial" font-size="9.00">Total: 27515.830</text>
<text text-anchor="middle" x="1229.9" y="-532.8" font-family="Arial" font-size="9.00">Rows: 1000</text>
<text text-anchor="middle" x="1229.9" y="-522.8" font-family="Arial" font-size="9.00">Outer: public.test1 (26144)</text>
<text text-anchor="middle" x="1229.9" y="-512.8" font-family="Arial" font-size="9.00">Inner: public.test2 (26149)</text>
</g>
<!-- plan_1723791_1&#45;&gt;plan_1723791_10 -->
<g id="edge12" class="edge">
<title>plan_1723791_1&#45;&gt;plan_1723791_10</title>
<path fill="none" stroke="#4f94cd" d="M258.98,-917.58C284.11,-927.6 311.54,-942.28 330.9,-963 503.94,-1148.21 285.44,-1494 538.9,-1494 538.9,-1494 538.9,-1494 790.9,-1494 1193.33,-1494 1227.22,-781.8 1229.09,-591.35"/>
<polygon fill="#4f94cd" stroke="#4f94cd" points="1231.54,-591.29 1229.15,-584.27 1226.64,-591.25 1231.54,-591.29"/>
<text text-anchor="middle" x="346.84" y="-990.5" font-family="Arial" font-size="9.00">outer</text>
</g>
<!-- plan_1723791_11 -->
<g id="node12" class="node">
<title>plan_1723791_11</title>
<path fill="lightblue" stroke="black" d="M840.4,-463C840.4,-463 739.4,-463 739.4,-463 733.4,-463 727.4,-457 727.4,-451 727.4,-451 727.4,-397 727.4,-397 727.4,-391 733.4,-385 739.4,-385 739.4,-385 840.4,-385 840.4,-385 846.4,-385 852.4,-391 852.4,-397 852.4,-397 852.4,-451 852.4,-451 852.4,-457 846.4,-463 840.4,-463"/>
<text text-anchor="middle" x="789.9" y="-451.8" font-family="Arial" font-size="9.00">T_NestLoop</text>
<text text-anchor="middle" x="789.9" y="-441.8" font-family="Arial" font-size="9.00">Type: T_NestPath</text>
<text text-anchor="middle" x="789.9" y="-431.8" font-family="Arial" font-size="9.00">Startup: 0.275</text>
<text text-anchor="middle" x="789.9" y="-421.8" font-family="Arial" font-size="9.00">Total: 15045.805</text>
<text text-anchor="middle" x="789.9" y="-411.8" font-family="Arial" font-size="9.00">Rows: 1000</text>
<text text-anchor="middle" x="789.9" y="-401.8" font-family="Arial" font-size="9.00">Outer: public.test1 (26144)</text>
<text text-anchor="middle" x="789.9" y="-391.8" font-family="Arial" font-size="9.00">Inner: public.test2 (26149)</text>
</g>
<!-- plan_1723791_1&#45;&gt;plan_1723791_11 -->
<g id="edge14" class="edge">
<title>plan_1723791_1&#45;&gt;plan_1723791_11</title>
<path fill="none" stroke="#4f94cd" d="M259.28,-877.11C304.8,-859.59 365.91,-832 412.4,-796 506.83,-722.89 533.72,-703.69 602.4,-606 636.6,-557.37 617.37,-527.03 659.4,-485 676.37,-468.04 698.94,-455.2 720.49,-445.78"/>
<polygon fill="#4f94cd" stroke="#4f94cd" points="721.65,-447.95 727.14,-442.96 719.74,-443.44 721.65,-447.95"/>
<text text-anchor="middle" x="520.13" y="-688.85" font-family="Arial" font-size="9.00">outer</text>
</g>
<!-- plan_1723791_12 -->
<g id="node13" class="node">
<title>plan_1723791_12</title>
<path fill="lightblue" stroke="black" d="M840.4,-584C840.4,-584 739.4,-584 739.4,-584 733.4,-584 727.4,-578 727.4,-572 727.4,-572 727.4,-518 727.4,-518 727.4,-512 733.4,-506 739.4,-506 739.4,-506 840.4,-506 840.4,-506 846.4,-506 852.4,-512 852.4,-518 852.4,-518 852.4,-572 852.4,-572 852.4,-578 846.4,-584 840.4,-584"/>
<text text-anchor="middle" x="789.9" y="-572.8" font-family="Arial" font-size="9.00">T_MergeJoin</text>
<text text-anchor="middle" x="789.9" y="-562.8" font-family="Arial" font-size="9.00">Type: T_MergePath</text>
<text text-anchor="middle" x="789.9" y="-552.8" font-family="Arial" font-size="9.00">Startup: 65.104</text>
<text text-anchor="middle" x="789.9" y="-542.8" font-family="Arial" font-size="9.00">Total: 125.604</text>
<text text-anchor="middle" x="789.9" y="-532.8" font-family="Arial" font-size="9.00">Rows: 1000</text>
<text text-anchor="middle" x="789.9" y="-522.8" font-family="Arial" font-size="9.00">Outer: public.test1 (26144)</text>
<text text-anchor="middle" x="789.9" y="-512.8" font-family="Arial" font-size="9.00">Inner: public.test2 (26149)</text>
</g>
<!-- plan_1723791_1&#45;&gt;plan_1723791_12 -->
<g id="edge16" class="edge">
<title>plan_1723791_1&#45;&gt;plan_1723791_12</title>
<path fill="none" stroke="#4f94cd" d="M259.13,-917.43C284.29,-927.43 311.7,-942.13 330.9,-963 400,-1038.08 327.55,-1119.86 411.4,-1178 481.16,-1226.37 534.42,-1228.84 602.4,-1178 698.86,-1105.86 762.69,-725.16 782.41,-591.47"/>
<polygon fill="#4f94cd" stroke="#4f94cd" points="784.89,-591.43 783.48,-584.15 780.04,-590.72 784.89,-591.43"/>
<text text-anchor="middle" x="735.33" y="-789.92" font-family="Arial" font-size="9.00">outer</text>
</g>
<!-- plan_1723791_13 -->
<g id="node14" class="node">
<title>plan_1723791_13</title>
<path fill="lightblue" stroke="black" d="M590.4,-584C590.4,-584 489.4,-584 489.4,-584 483.4,-584 477.4,-578 477.4,-572 477.4,-572 477.4,-518 477.4,-518 477.4,-512 483.4,-506 489.4,-506 489.4,-506 590.4,-506 590.4,-506 596.4,-506 602.4,-512 602.4,-518 602.4,-518 602.4,-572 602.4,-572 602.4,-578 596.4,-584 590.4,-584"/>
<text text-anchor="middle" x="539.9" y="-572.8" font-family="Arial" font-size="9.00">T_MergeJoin</text>
<text text-anchor="middle" x="539.9" y="-562.8" font-family="Arial" font-size="9.00">Type: T_MergePath</text>
<text text-anchor="middle" x="539.9" y="-552.8" font-family="Arial" font-size="9.00">Startup: 0.550</text>
<text text-anchor="middle" x="539.9" y="-542.8" font-family="Arial" font-size="9.00">Total: 101.550</text>
<text text-anchor="middle" x="539.9" y="-532.8" font-family="Arial" font-size="9.00">Rows: 1000</text>
<text text-anchor="middle" x="539.9" y="-522.8" font-family="Arial" font-size="9.00">Outer: public.test1 (26144)</text>
<text text-anchor="middle" x="539.9" y="-512.8" font-family="Arial" font-size="9.00">Inner: public.test2 (26149)</text>
</g>
<!-- plan_1723791_1&#45;&gt;plan_1723791_13 -->
<g id="edge18" class="edge">
<title>plan_1723791_1&#45;&gt;plan_1723791_13</title>
<path fill="none" stroke="#4f94cd" d="M259.22,-880.63C283.11,-871.89 309.6,-859.82 330.9,-844 422.2,-776.21 487.87,-656.12 518.86,-590.66"/>
<polygon fill="#4f94cd" stroke="#4f94cd" points="521.18,-591.49 521.93,-584.11 516.74,-589.41 521.18,-591.49"/>
<text text-anchor="middle" x="408.4" y="-747.88" font-family="Arial" font-size="9.00">outer</text>
</g>
<!-- plan_1723791_2&#45;&gt;plan_1723791_3 -->
<g id="edge2" class="edge">
<title>plan_1723791_2&#45;&gt;plan_1723791_3</title>
<path fill="none" stroke="#7f7f7f" stroke-dasharray="5,2" d="M194.4,-622.81C194.4,-608.69 194.4,-594.56 194.4,-580.44"/>
<text text-anchor="middle" x="189.4" y="-594.42" font-family="Arial" font-size="9.00">alt</text>
</g>
<!-- plan_1723791_2&#45;&gt;plan_1723791_6 -->
<g id="edge7" class="edge">
<title>plan_1723791_2&#45;&gt;plan_1723791_6</title>
<path fill="none" stroke="#cd6600" d="M259.02,-694.38C313.32,-720.09 394.32,-753.98 469.4,-768 666.44,-804.79 748.6,-871.26 920.4,-768 984.06,-729.74 1015.36,-644.48 1029.25,-591.16"/>
<polygon fill="#cd6600" stroke="#cd6600" points="1031.67,-591.57 1031.02,-584.18 1026.92,-590.37 1031.67,-591.57"/>
<text text-anchor="middle" x="592.73" y="-792.09" font-family="Arial" font-size="9.00">inner</text>
</g>
<!-- plan_1723791_2&#45;&gt;plan_1723791_7 -->
<g id="edge9" class="edge">
<title>plan_1723791_2&#45;&gt;plan_1723791_7</title>
<path fill="none" stroke="#cd6600" d="M258.95,-677.47C395.15,-706.68 719.12,-754.48 920.4,-606 968.24,-570.71 943.11,-533.56 977.4,-485 981.37,-479.38 985.89,-473.82 990.63,-468.48"/>
<polygon fill="#cd6600" stroke="#cd6600" points="992.52,-470.04 995.43,-463.22 988.9,-466.74 992.52,-470.04"/>
<text text-anchor="middle" x="630.38" y="-696.35" font-family="Arial" font-size="9.00">inner</text>
</g>
<!-- plan_1723791_2&#45;&gt;plan_1723791_10 -->
<g id="edge13" class="edge">
<title>plan_1723791_2&#45;&gt;plan_1723791_10</title>
<path fill="none" stroke="#cd6600" d="M259.16,-688.94C282.28,-699.53 308.27,-712.4 330.9,-726 369.16,-748.98 373.41,-762.6 411.4,-786 604.64,-905.03 708.83,-909.13 920.4,-827 1043.52,-779.21 1147.51,-656.83 1197.34,-590.08"/>
<polygon fill="#cd6600" stroke="#cd6600" points="1199.51,-591.27 1201.7,-584.19 1195.57,-588.36 1199.51,-591.27"/>
<text text-anchor="middle" x="931.41" y="-819.8" font-family="Arial" font-size="9.00">inner</text>
</g>
<!-- plan_1723791_2&#45;&gt;plan_1723791_12 -->
<g id="edge17" class="edge">
<title>plan_1723791_2&#45;&gt;plan_1723791_12</title>
<path fill="none" stroke="#cd6600" d="M259.25,-644.77C284.12,-635.45 311.3,-621.69 330.9,-602 393.88,-538.74 336.7,-466.86 411.4,-418 484.58,-370.14 399.17,-553.91 469.4,-606 542.93,-660.54 651.45,-621.55 721.17,-585.61"/>
<polygon fill="#cd6600" stroke="#cd6600" points="722.3,-587.78 727.37,-582.36 720.03,-583.44 722.3,-587.78"/>
<text text-anchor="middle" x="479.48" y="-611.53" font-family="Arial" font-size="9.00">inner</text>
</g>
<!-- plan_1723791_2&#45;&gt;plan_1723791_14 -->
<g id="edge21" class="edge">
<title>plan_1723791_2&#45;&gt;plan_1723791_14</title>
<path fill="none" stroke="#cd6600" d="M259.11,-646.45C284.57,-637.32 312.22,-623.25 330.9,-602 413.88,-507.65 321,-418.26 411.4,-331 427.15,-315.81 448.93,-307.36 470.05,-302.74"/>
<polygon fill="#cd6600" stroke="#cd6600" points="470.79,-305.09 477.17,-301.32 469.83,-300.29 470.79,-305.09"/>
<text text-anchor="middle" x="357.71" y="-466.68" font-family="Arial" font-size="9.00">inner</text>
</g>
<!-- plan_1723791_2&#45;&gt;plan_1723791_15 -->
<g id="edge22" class="edge">
<title>plan_1723791_2&#45;&gt;plan_1723791_15</title>
<path fill="none" stroke="#4f94cd" d="M259.22,-646.54C284.69,-637.42 312.32,-623.34 330.9,-602 466.94,-445.79 300.27,-276.58 469.4,-157 542.61,-105.24 650.56,-124.74 720.31,-146.19"/>
<polygon fill="#4f94cd" stroke="#4f94cd" points="719.95,-148.65 727.36,-148.41 721.42,-143.97 719.95,-148.65"/>
<text text-anchor="middle" x="376.74" y="-358.56" font-family="Arial" font-size="9.00">outer</text>
</g>
<!-- plan_1723791_4 -->
<g id="node5" class="node">
<title>plan_1723791_4</title>
<path fill="lightblue" stroke="black" d="M246.9,-469C246.9,-469 141.9,-469 141.9,-469 135.9,-469 129.9,-463 129.9,-457 129.9,-457 129.9,-413 129.9,-413 129.9,-407 135.9,-401 141.9,-401 141.9,-401 246.9,-401 246.9,-401 252.9,-401 258.9,-407 258.9,-413 258.9,-413 258.9,-457 258.9,-457 258.9,-463 252.9,-469 246.9,-469"/>
<text text-anchor="middle" x="194.4" y="-457.8" font-family="Arial" font-size="9.00">T_IndexOnlyScan</text>
<text text-anchor="middle" x="194.4" y="-447.8" font-family="Arial" font-size="9.00">Type: T_IndexPath</text>
<text text-anchor="middle" x="194.4" y="-437.8" font-family="Arial" font-size="9.00">Startup: 0.275</text>
<text text-anchor="middle" x="194.4" y="-427.8" font-family="Arial" font-size="9.00">Total: 0.333</text>
<text text-anchor="middle" x="194.4" y="-417.8" font-family="Arial" font-size="9.00">Rows: 1</text>
<text text-anchor="middle" x="194.4" y="-407.8" font-family="Arial" font-size="9.00">Parent: public.test2 (26149)</text>
</g>
<!-- plan_1723791_3&#45;&gt;plan_1723791_4 -->
<g id="edge3" class="edge">
<title>plan_1723791_3&#45;&gt;plan_1723791_4</title>
<path fill="none" stroke="#7f7f7f" stroke-dasharray="5,2" d="M194.4,-511.82C194.4,-497.63 194.4,-483.44 194.4,-469.25"/>
<text text-anchor="middle" x="189.4" y="-483.34" font-family="Arial" font-size="9.00">alt</text>
</g>
<!-- plan_1723791_3&#45;&gt;plan_1723791_13 -->
<g id="edge19" class="edge">
<title>plan_1723791_3&#45;&gt;plan_1723791_13</title>
<path fill="none" stroke="#cd6600" d="M259.04,-530.63C283.74,-522.17 310.84,-509.51 330.9,-491 389.56,-436.89 346.91,-285.4 412.4,-331 472.3,-372.7 427.8,-425.04 469.4,-485 473.14,-490.39 477.47,-495.59 482.11,-500.53"/>
<polygon fill="#cd6600" stroke="#cd6600" points="480.6,-502.49 487.24,-505.79 484.1,-499.07 480.6,-502.49"/>
<text text-anchor="middle" x="325.11" y="-478.45" font-family="Arial" font-size="9.00">inner</text>
</g>
<!-- plan_1723791_4&#45;&gt;plan_1723791_1 -->
<!-- plan_1723791_5 -->
<g id="node6" class="node">
<title>plan_1723791_5</title>
<path fill="lightblue" stroke="black" d="M246.9,-358C246.9,-358 141.9,-358 141.9,-358 135.9,-358 129.9,-352 129.9,-346 129.9,-346 129.9,-302 129.9,-302 129.9,-296 135.9,-290 141.9,-290 141.9,-290 246.9,-290 246.9,-290 252.9,-290 258.9,-296 258.9,-302 258.9,-302 258.9,-346 258.9,-346 258.9,-352 252.9,-358 246.9,-358"/>
<text text-anchor="middle" x="194.4" y="-346.8" font-family="Arial" font-size="9.00">T_BitmapHeapScan</text>
<text text-anchor="middle" x="194.4" y="-336.8" font-family="Arial" font-size="9.00">Type: T_BitmapHeapPath</text>
<text text-anchor="middle" x="194.4" y="-326.8" font-family="Arial" font-size="9.00">Startup: 0.303</text>
<text text-anchor="middle" x="194.4" y="-316.8" font-family="Arial" font-size="9.00">Total: 4.315</text>
<text text-anchor="middle" x="194.4" y="-306.8" font-family="Arial" font-size="9.00">Rows: 1</text>
<text text-anchor="middle" x="194.4" y="-296.8" font-family="Arial" font-size="9.00">Parent: public.test2 (26149)</text>
</g>
<!-- plan_1723791_4&#45;&gt;plan_1723791_5 -->
<g id="edge4" class="edge">
<title>plan_1723791_4&#45;&gt;plan_1723791_5</title>
<path fill="none" stroke="#7f7f7f" stroke-dasharray="5,2" d="M194.4,-400.82C194.4,-386.63 194.4,-372.44 194.4,-358.25"/>
<text text-anchor="middle" x="189.4" y="-372.34" font-family="Arial" font-size="9.00">alt</text>
</g>
<!-- plan_1723791_9 -->
<g id="node10" class="node">
<title>plan_1723791_9</title>
<path fill="lightblue" stroke="black" d="M246.9,-68C246.9,-68 141.9,-68 141.9,-68 135.9,-68 129.9,-62 129.9,-56 129.9,-56 129.9,-12 129.9,-12 129.9,-6 135.9,0 141.9,0 141.9,0 246.9,0 246.9,0 252.9,0 258.9,-6 258.9,-12 258.9,-12 258.9,-56 258.9,-56 258.9,-62 252.9,-68 246.9,-68"/>
<text text-anchor="middle" x="194.4" y="-56.8" font-family="Arial" font-size="9.00">T_Material</text>
<text text-anchor="middle" x="194.4" y="-46.8" font-family="Arial" font-size="9.00">Type: T_MaterialPath</text>
<text text-anchor="middle" x="194.4" y="-36.8" font-family="Arial" font-size="9.00">Startup: 0.000</text>
<text text-anchor="middle" x="194.4" y="-26.8" font-family="Arial" font-size="9.00">Total: 20.000</text>
<text text-anchor="middle" x="194.4" y="-16.8" font-family="Arial" font-size="9.00">Rows: 1000</text>
<text text-anchor="middle" x="194.4" y="-6.8" font-family="Arial" font-size="9.00">Parent: public.test2 (26149)</text>
</g>
<!-- plan_1723791_5&#45;&gt;plan_1723791_9 -->
<g id="edge5" class="edge">
<title>plan_1723791_5&#45;&gt;plan_1723791_9</title>
<path fill="none" stroke="black" d="M194.4,-289.54C194.4,-218.23 194.4,-146.92 194.4,-75.61"/>
<polygon fill="black" stroke="black" points="196.85,-75.27 194.4,-68.27 191.95,-75.27 196.85,-75.27"/>
</g>
<!-- plan_1723791_7&#45;&gt;plan_1723791_10 -->
<!-- plan_1723791_8&#45;&gt;plan_1723791_11 -->
<!-- plan_1723791_9&#45;&gt;plan_1723791_8 -->
<g id="edge11" class="edge">
<title>plan_1723791_9&#45;&gt;plan_1723791_8</title>
<path fill="none" stroke="#cd6600" d="M220.89,-68.35C267.39,-130.14 370.33,-263 469.4,-364 474.62,-369.31 480.24,-374.69 485.95,-379.92"/>
<polygon fill="#cd6600" stroke="#cd6600" points="484.38,-381.8 491.21,-384.68 487.67,-378.17 484.38,-381.8"/>
<text text-anchor="middle" x="339.24" y="-224.19" font-family="Arial" font-size="9.00">inner</text>
</g>
<!-- plan_1723791_9&#45;&gt;plan_1723791_11 -->
<g id="edge15" class="edge">
<title>plan_1723791_9&#45;&gt;plan_1723791_11</title>
<path fill="none" stroke="#cd6600" d="M259.07,-57.21C342.48,-89.33 491.18,-152.58 602.4,-233 661.35,-275.62 718.12,-337.78 753.23,-379.49"/>
<polygon fill="#cd6600" stroke="#cd6600" points="751.45,-381.19 757.82,-384.98 755.21,-378.04 751.45,-381.19"/>
<text text-anchor="middle" x="518.78" y="-178.4" font-family="Arial" font-size="9.00">inner</text>
</g>
<!-- plan_1723791_11&#45;&gt;plan_1723791_7 -->
<!-- plan_1723791_12&#45;&gt;plan_1723791_6 -->
<!-- plan_1723791_13&#45;&gt;plan_1723791_12 -->
<!-- plan_1723791_14&#45;&gt;plan_1723791_15 -->
<!-- plan_1723791_17 -->
<g id="node18" class="node">
<title>plan_1723791_17</title>
<path fill="lightgreen" stroke="black" stroke-width="3" d="M1071.4,-211C1071.4,-211 1008.4,-211 1008.4,-211 1002.4,-211 996.4,-205 996.4,-199 996.4,-199 996.4,-155 996.4,-155 996.4,-149 1002.4,-143 1008.4,-143 1008.4,-143 1071.4,-143 1071.4,-143 1077.4,-143 1083.4,-149 1083.4,-155 1083.4,-155 1083.4,-199 1083.4,-199 1083.4,-205 1077.4,-211 1071.4,-211"/>
<text text-anchor="middle" x="1039.9" y="-199.8" font-family="Arial" font-size="9.00">T_Sort</text>
<text text-anchor="middle" x="1039.9" y="-189.8" font-family="Arial" font-size="9.00">[CHOSEN]</text>
<text text-anchor="middle" x="1039.9" y="-179.8" font-family="Arial" font-size="9.00">Type: T_SortPath</text>
<text text-anchor="middle" x="1039.9" y="-169.8" font-family="Arial" font-size="9.00">Startup: 94.965</text>
<text text-anchor="middle" x="1039.9" y="-159.8" font-family="Arial" font-size="9.00">Total: 97.465</text>
<text text-anchor="middle" x="1039.9" y="-149.8" font-family="Arial" font-size="9.00">Rows: 1000</text>
</g>
<!-- plan_1723791_14&#45;&gt;plan_1723791_17 -->
<g id="edge25" class="edge">
<title>plan_1723791_14&#45;&gt;plan_1723791_17</title>
<path fill="none" stroke="#4f94cd" d="M602.47,-297.51C679.04,-295.2 812.78,-285.51 920.4,-248 944.83,-239.49 969.71,-225.54 990.32,-212.26"/>
<polygon fill="#4f94cd" stroke="#4f94cd" points="991.78,-214.23 996.3,-208.35 989.1,-210.13 991.78,-214.23"/>
<text text-anchor="middle" x="786.88" y="-270.39" font-family="Arial" font-size="9.00">subpath</text>
</g>
<!-- plan_1723791_16 -->
<g id="node17" class="node">
<title>plan_1723791_16</title>
<path fill="lightgreen" stroke="black" stroke-width="3" d="M1457.4,-211C1457.4,-211 1369.4,-211 1369.4,-211 1363.4,-211 1357.4,-205 1357.4,-199 1357.4,-199 1357.4,-155 1357.4,-155 1357.4,-149 1363.4,-143 1369.4,-143 1369.4,-143 1457.4,-143 1457.4,-143 1463.4,-143 1469.4,-149 1469.4,-155 1469.4,-155 1469.4,-199 1469.4,-199 1469.4,-205 1463.4,-211 1457.4,-211"/>
<text text-anchor="middle" x="1413.4" y="-199.8" font-family="Arial" font-size="9.00">T_Result</text>
<text text-anchor="middle" x="1413.4" y="-189.8" font-family="Arial" font-size="9.00">[CHOSEN]</text>
<text text-anchor="middle" x="1413.4" y="-179.8" font-family="Arial" font-size="9.00">Type: T_ProjectionPath</text>
<text text-anchor="middle" x="1413.4" y="-169.8" font-family="Arial" font-size="9.00">Startup: 94.965</text>
<text text-anchor="middle" x="1413.4" y="-159.8" font-family="Arial" font-size="9.00">Total: 97.465</text>
<text text-anchor="middle" x="1413.4" y="-149.8" font-family="Arial" font-size="9.00">Rows: 1000</text>
</g>
<!-- plan_1723791_17&#45;&gt;plan_1723791_16 -->
<g id="edge24" class="edge">
<title>plan_1723791_17&#45;&gt;plan_1723791_16</title>
<path fill="none" stroke="#4f94cd" d="M1083.52,-177C1148.97,-177 1274.59,-177 1350.21,-177"/>
<polygon fill="#4f94cd" stroke="#4f94cd" points="1350.37,-179.45 1357.37,-177 1350.37,-174.55 1350.37,-179.45"/>
<text text-anchor="middle" x="1203.53" y="-169.8" font-family="Arial" font-size="9.00">subpath</text>
</g>
<!-- stats -->
<g id="node19" class="node">
<title>stats</title>
<polygon fill="lightyellow" stroke="black" points="279.4,-1032 103.4,-1032 103.4,-984 285.4,-984 285.4,-1026 279.4,-1032"/>
<polyline fill="none" stroke="black" points="279.4,-1032 279.4,-1026 "/>
<polyline fill="none" stroke="black" points="285.4,-1026 279.4,-1026 "/>
<text text-anchor="middle" x="194.4" y="-1020.8" font-family="Arial" font-size="9.00">Statistics</text>
<text text-anchor="middle" x="194.4" y="-1010.8" font-family="Arial" font-size="9.00">Total paths considered: 18</text>
<text text-anchor="middle" x="194.4" y="-1000.8" font-family="Arial" font-size="9.00">Cheapest: T_IndexOnlyScan (0.33)</text>
<text text-anchor="middle" x="194.4" y="-990.8" font-family="Arial" font-size="9.00">Most expensive: T_NestLoop (27515.83)</text>
</g>
<!-- legend -->
<g id="node20" class="node">
<title>legend</title>
<polygon fill="white" stroke="black" points="272.9,-1143 109.9,-1143 109.9,-1075 278.9,-1075 278.9,-1137 272.9,-1143"/>
<polyline fill="none" stroke="black" points="272.9,-1143 272.9,-1137 "/>
<polyline fill="none" stroke="black" points="278.9,-1137 272.9,-1137 "/>
<text text-anchor="middle" x="194.4" y="-1131.8" font-family="Arial" font-size="9.00">Legend</text>
<text text-anchor="middle" x="194.4" y="-1121.8" font-family="Arial" font-size="9.00">Blue edge: outer/subpath input</text>
<text text-anchor="middle" x="194.4" y="-1111.8" font-family="Arial" font-size="9.00">Orange edge: inner input</text>
<text text-anchor="middle" x="194.4" y="-1101.8" font-family="Arial" font-size="9.00">Dashed cluster: relation/join group</text>
<text text-anchor="middle" x="194.4" y="-1091.8" font-family="Arial" font-size="9.00">Green node: selected plan</text>
<text text-anchor="middle" x="194.4" y="-1081.8" font-family="Arial" font-size="9.00">Black edge: relation path progression</text>
</g>
</g>
</svg>
