<?xml version="1.0" encoding="UTF-8" standalone="no"?>
<!DOCTYPE svg PUBLIC "-//W3C//DTD SVG 1.1//EN"
 "http://www.w3.org/Graphics/SVG/1.1/DTD/svg11.dtd">
<!-- Generated by graphviz version 2.43.0 (0)
 -->
<!-- Title: %3 Pages: 1 -->
<svg width="815pt" height="833pt"
 viewBox="0.00 0.00 815.22 833.00" xmlns="http://www.w3.org/2000/svg" xmlns:xlink="http://www.w3.org/1999/xlink">
<g id="graph0" class="graph" transform="scale(1 1) rotate(0) translate(4 829)">
<title>%3</title>
<polygon fill="white" stroke="transparent" points="-4,4 -4,-829 811.22,-829 811.22,4 -4,4"/>
<g id="clust1" class="cluster">
<title>cluster_left</title>
<polygon fill="none" stroke="black" points="56.72,-8 56.72,-658 329.72,-658 329.72,-8 56.72,-8"/>
</g>
<g id="clust2" class="cluster">
<title>cluster_relations</title>
<polygon fill="none" stroke="black" points="64.72,-16 64.72,-650 321.72,-650 321.72,-16 64.72,-16"/>
</g>
<g id="clust3" class="cluster">
<title>cluster_rel_0</title>
<path fill="none" stroke="#a6a6a6" stroke-width="1.2" stroke-dasharray="5,2" d="M84.72,-337C84.72,-337 301.72,-337 301.72,-337 307.72,-337 313.72,-343 313.72,-349 313.72,-349 313.72,-630 313.72,-630 313.72,-636 307.72,-642 301.72,-642 301.72,-642 84.72,-642 84.72,-642 78.72,-642 72.72,-636 72.72,-630 72.72,-630 72.72,-349 72.72,-349 72.72,-343 78.72,-337 84.72,-337"/>
<text text-anchor="middle" x="193.22" y="-630" font-family="Arial" font-size="10.00">PID 3917080 • Relation RTI 1 (public.test1 (26144))</text>
</g>
<g id="clust4" class="cluster">
<title>cluster_rel_1</title>
<path fill="none" stroke="#a6a6a6" stroke-width="1.2" stroke-dasharray="5,2" d="M84.72,-24C84.72,-24 301.72,-24 301.72,-24 307.72,-24 313.72,-30 313.72,-36 313.72,-36 313.72,-317 313.72,-317 313.72,-323 307.72,-329 301.72,-329 301.72,-329 84.72,-329 84.72,-329 78.72,-329 72.72,-323 72.72,-317 72.72,-317 72.72,-36 72.72,-36 72.72,-30 78.72,-24 84.72,-24"/>
<text text-anchor="middle" x="193.22" y="-317" font-family="Arial" font-size="10.00">PID 3917080 • Relation RTI 2 (public.test2 (26149))</text>
</g>
<g id="clust5" class="cluster">
<title>cluster_join_0</title>
<path fill="none" stroke="#6e7b8b" stroke-width="1.2" stroke-dasharray="5,2" d="M480.22,-413C480.22,-413 787.22,-413 787.22,-413 793.22,-413 799.22,-419 799.22,-425 799.22,-425 799.22,-514 799.22,-514 799.22,-520 793.22,-526 787.22,-526 787.22,-526 480.22,-526 480.22,-526 474.22,-526 468.22,-520 468.22,-514 468.22,-514 468.22,-425 468.22,-425 468.22,-419 474.22,-413 480.22,-413"/>
<text text-anchor="middle" x="633.72" y="-514" font-family="Arial" font-size="10.00">PID 3917080 • JOIN_LEFT (outer: RTI 1, inner: RTI 2)</text>
</g>
<!-- plan_all_0 -->
<g id="node1" class="node">
<title>plan_all_0</title>
<path fill="lightblue" stroke="black" d="M245.72,-615C245.72,-615 140.72,-615 140.72,-615 134.72,-615 128.72,-609 128.72,-603 128.72,-603 128.72,-569 128.72,-569 128.72,-563 134.72,-557 140.72,-557 140.72,-557 245.72,-557 245.72,-557 251.72,-557 257.72,-563 257.72,-569 257.72,-569 257.72,-603 257.72,-603 257.72,-609 251.72,-615 245.72,-615"/>
<text text-anchor="middle" x="193.22" y="-603.8" font-family="Arial" font-size="9.00">T_SeqScan</text>
<text text-anchor="middle" x="193.22" y="-593.8" font-family="Arial" font-size="9.00">Startup: 0.00</text>
<text text-anchor="middle" x="193.22" y="-583.8" font-family="Arial" font-size="9.00">Total: 17.50</text>
<text text-anchor="middle" x="193.22" y="-573.8" font-family="Arial" font-size="9.00">Rows: 1</text>
<text text-anchor="middle" x="193.22" y="-563.8" font-family="Arial" font-size="9.00">Parent: public.test1 (26144)</text>
</g>
<!-- plan_all_1 -->
<g id="node2" class="node">
<title>plan_all_1</title>
<path fill="lightgreen" stroke="black" stroke-width="3" d="M245.72,-514C245.72,-514 140.72,-514 140.72,-514 134.72,-514 128.72,-508 128.72,-502 128.72,-502 128.72,-458 128.72,-458 128.72,-452 134.72,-446 140.72,-446 140.72,-446 245.72,-446 245.72,-446 251.72,-446 257.72,-452 257.72,-458 257.72,-458 257.72,-502 257.72,-502 257.72,-508 251.72,-514 245.72,-514"/>
<text text-anchor="middle" x="193.22" y="-502.8" font-family="Arial" font-size="9.00">T_IndexOnlyScan</text>
<text text-anchor="middle" x="193.22" y="-492.8" font-family="Arial" font-size="9.00">[CHOSEN]</text>
<text text-anchor="middle" x="193.22" y="-482.8" font-family="Arial" font-size="9.00">Startup: 0.28</text>
<text text-anchor="middle" x="193.22" y="-472.8" font-family="Arial" font-size="9.00">Total: 8.29</text>
<text text-anchor="middle" x="193.22" y="-462.8" font-family="Arial" font-size="9.00">Rows: 1</text>
<text text-anchor="middle" x="193.22" y="-452.8" font-family="Arial" font-size="9.00">Parent: public.test1 (26144)</text>
</g>
<!-- plan_all_0&#45;&gt;plan_all_1 -->
<g id="edge1" class="edge">
<title>plan_all_0&#45;&gt;plan_all_1</title>
<path fill="none" stroke="#7f7f7f" stroke-dasharray="5,2" d="M193.22,-556.9C193.22,-542.72 193.22,-528.54 193.22,-514.37"/>
<text text-anchor="middle" x="188.22" y="-528.43" font-family="Arial" font-size="9.00">alt</text>
</g>
<!-- plan_all_3 -->
<g id="node4" class="node">
<title>plan_all_3</title>
<path fill="lightblue" stroke="black" d="M245.72,-302C245.72,-302 140.72,-302 140.72,-302 134.72,-302 128.72,-296 128.72,-290 128.72,-290 128.72,-256 128.72,-256 128.72,-250 134.72,-244 140.72,-244 140.72,-244 245.72,-244 245.72,-244 251.72,-244 257.72,-250 257.72,-256 257.72,-256 257.72,-290 257.72,-290 257.72,-296 251.72,-302 245.72,-302"/>
<text text-anchor="middle" x="193.22" y="-290.8" font-family="Arial" font-size="9.00">T_SeqScan</text>
<text text-anchor="middle" x="193.22" y="-280.8" font-family="Arial" font-size="9.00">Startup: 0.00</text>
<text text-anchor="middle" x="193.22" y="-270.8" font-family="Arial" font-size="9.00">Total: 17.50</text>
<text text-anchor="middle" x="193.22" y="-260.8" font-family="Arial" font-size="9.00">Rows: 1</text>
<text text-anchor="middle" x="193.22" y="-250.8" font-family="Arial" font-size="9.00">Parent: public.test2 (26149)</text>
</g>
<!-- plan_all_0&#45;&gt;plan_all_3 -->
<!-- plan_all_2 -->
<g id="node3" class="node">
<title>plan_all_2</title>
<path fill="lightblue" stroke="black" d="M245.72,-403C245.72,-403 140.72,-403 140.72,-403 134.72,-403 128.72,-397 128.72,-391 128.72,-391 128.72,-357 128.72,-357 128.72,-351 134.72,-345 140.72,-345 140.72,-345 245.72,-345 245.72,-345 251.72,-345 257.72,-351 257.72,-357 257.72,-357 257.72,-391 257.72,-391 257.72,-397 251.72,-403 245.72,-403"/>
<text text-anchor="middle" x="193.22" y="-391.8" font-family="Arial" font-size="9.00">T_BitmapHeapScan</text>
<text text-anchor="middle" x="193.22" y="-381.8" font-family="Arial" font-size="9.00">Startup: 4.28</text>
<text text-anchor="middle" x="193.22" y="-371.8" font-family="Arial" font-size="9.00">Total: 8.30</text>
<text text-anchor="middle" x="193.22" y="-361.8" font-family="Arial" font-size="9.00">Rows: 1</text>
<text text-anchor="middle" x="193.22" y="-351.8" font-family="Arial" font-size="9.00">Parent: public.test1 (26144)</text>
</g>
<!-- plan_all_1&#45;&gt;plan_all_2 -->
<g id="edge2" class="edge">
<title>plan_all_1&#45;&gt;plan_all_2</title>
<path fill="none" stroke="#7f7f7f" stroke-dasharray="5,2" d="M193.22,-445.89C193.22,-431.73 193.22,-417.56 193.22,-403.4"/>
<text text-anchor="middle" x="188.22" y="-417.44" font-family="Arial" font-size="9.00">alt</text>
</g>
<!-- plan_all_4 -->
<g id="node5" class="node">
<title>plan_all_4</title>
<path fill="lightgreen" stroke="black" stroke-width="3" d="M245.72,-201C245.72,-201 140.72,-201 140.72,-201 134.72,-201 128.72,-195 128.72,-189 128.72,-189 128.72,-145 128.72,-145 128.72,-139 134.72,-133 140.72,-133 140.72,-133 245.72,-133 245.72,-133 251.72,-133 257.72,-139 257.72,-145 257.72,-145 257.72,-189 257.72,-189 257.72,-195 251.72,-201 245.72,-201"/>
<text text-anchor="middle" x="193.22" y="-189.8" font-family="Arial" font-size="9.00">T_IndexOnlyScan</text>
<text text-anchor="middle" x="193.22" y="-179.8" font-family="Arial" font-size="9.00">[CHOSEN]</text>
<text text-anchor="middle" x="193.22" y="-169.8" font-family="Arial" font-size="9.00">Startup: 0.28</text>
<text text-anchor="middle" x="193.22" y="-159.8" font-family="Arial" font-size="9.00">Total: 8.29</text>
<text text-anchor="middle" x="193.22" y="-149.8" font-family="Arial" font-size="9.00">Rows: 1</text>
<text text-anchor="middle" x="193.22" y="-139.8" font-family="Arial" font-size="9.00">Parent: public.test2 (26149)</text>
</g>
<!-- plan_all_1&#45;&gt;plan_all_4 -->
<!-- plan_all_6 -->
<g id="node7" class="node">
<title>plan_all_6</title>
<path fill="lightgreen" stroke="black" stroke-width="3" d="M589.22,-499C589.22,-499 488.22,-499 488.22,-499 482.22,-499 476.22,-493 476.22,-487 476.22,-487 476.22,-433 476.22,-433 476.22,-427 482.22,-421 488.22,-421 488.22,-421 589.22,-421 589.22,-421 595.22,-421 601.22,-427 601.22,-433 601.22,-433 601.22,-487 601.22,-487 601.22,-493 595.22,-499 589.22,-499"/>
<text text-anchor="middle" x="538.72" y="-487.8" font-family="Arial" font-size="9.00">T_NestLoop</text>
<text text-anchor="middle" x="538.72" y="-477.8" font-family="Arial" font-size="9.00">[CHOSEN]</text>
<text text-anchor="middle" x="538.72" y="-467.8" font-family="Arial" font-size="9.00">Startup: 0.55</text>
<text text-anchor="middle" x="538.72" y="-457.8" font-family="Arial" font-size="9.00">Total: 16.60</text>
<text text-anchor="middle" x="538.72" y="-447.8" font-family="Arial" font-size="9.00">Rows: 1</text>
<text text-anchor="middle" x="538.72" y="-437.8" font-family="Arial" font-size="9.00">Outer: public.test1 (26144)</text>
<text text-anchor="middle" x="538.72" y="-427.8" font-family="Arial" font-size="9.00">Inner: public.test2 (26149)</text>
</g>
<!-- plan_all_1&#45;&gt;plan_all_6 -->
<g id="edge5" class="edge">
<title>plan_all_1&#45;&gt;plan_all_6</title>
<path fill="none" stroke="#4f94cd" d="M258.03,-476.29C317.87,-472.8 407.13,-467.6 468.63,-464.02"/>
<polygon fill="#4f94cd" stroke="#4f94cd" points="469.15,-466.45 475.99,-463.59 468.86,-461.56 469.15,-466.45"/>
<text text-anchor="middle" x="356.1" y="-462.73" font-family="Arial" font-size="9.00">outer</text>
</g>
<!-- plan_all_7 -->
<g id="node8" class="node">
<title>plan_all_7</title>
<path fill="lightblue" stroke="black" d="M779.22,-489C779.22,-489 678.22,-489 678.22,-489 672.22,-489 666.22,-483 666.22,-477 666.22,-477 666.22,-433 666.22,-433 666.22,-427 672.22,-421 678.22,-421 678.22,-421 779.22,-421 779.22,-421 785.22,-421 791.22,-427 791.22,-433 791.22,-433 791.22,-477 791.22,-477 791.22,-483 785.22,-489 779.22,-489"/>
<text text-anchor="middle" x="728.72" y="-477.8" font-family="Arial" font-size="9.00">T_NestLoop</text>
<text text-anchor="middle" x="728.72" y="-467.8" font-family="Arial" font-size="9.00">Startup: 0.55</text>
<text text-anchor="middle" x="728.72" y="-457.8" font-family="Arial" font-size="9.00">Total: 16.60</text>
<text text-anchor="middle" x="728.72" y="-447.8" font-family="Arial" font-size="9.00">Rows: 1</text>
<text text-anchor="middle" x="728.72" y="-437.8" font-family="Arial" font-size="9.00">Outer: public.test1 (26144)</text>
<text text-anchor="middle" x="728.72" y="-427.8" font-family="Arial" font-size="9.00">Inner: public.test2 (26149)</text>
</g>
<!-- plan_all_1&#45;&gt;plan_all_7 -->
<g id="edge7" class="edge">
<title>plan_all_1&#45;&gt;plan_all_7</title>
<path fill="none" stroke="#4f94cd" d="M257.76,-451.67C337.91,-419.56 479.96,-374.78 601.22,-400 620.75,-404.06 640.95,-411.3 659.33,-419.22"/>
<polygon fill="#4f94cd" stroke="#4f94cd" points="658.62,-421.58 666.02,-422.16 660.6,-417.1 658.62,-421.58"/>
<text text-anchor="middle" x="445.73" y="-390.07" font-family="Arial" font-size="9.00">outer</text>
</g>
<!-- plan_all_5 -->
<g id="node6" class="node">
<title>plan_all_5</title>
<path fill="lightblue" stroke="black" d="M245.72,-90C245.72,-90 140.72,-90 140.72,-90 134.72,-90 128.72,-84 128.72,-78 128.72,-78 128.72,-44 128.72,-44 128.72,-38 134.72,-32 140.72,-32 140.72,-32 245.72,-32 245.72,-32 251.72,-32 257.72,-38 257.72,-44 257.72,-44 257.72,-78 257.72,-78 257.72,-84 251.72,-90 245.72,-90"/>
<text text-anchor="middle" x="193.22" y="-78.8" font-family="Arial" font-size="9.00">T_BitmapHeapScan</text>
<text text-anchor="middle" x="193.22" y="-68.8" font-family="Arial" font-size="9.00">Startup: 4.28</text>
<text text-anchor="middle" x="193.22" y="-58.8" font-family="Arial" font-size="9.00">Total: 8.30</text>
<text text-anchor="middle" x="193.22" y="-48.8" font-family="Arial" font-size="9.00">Rows: 1</text>
<text text-anchor="middle" x="193.22" y="-38.8" font-family="Arial" font-size="9.00">Parent: public.test2 (26149)</text>
</g>
<!-- plan_all_2&#45;&gt;plan_all_5 -->
<!-- plan_all_3&#45;&gt;plan_all_4 -->
<g id="edge3" class="edge">
<title>plan_all_3&#45;&gt;plan_all_4</title>
<path fill="none" stroke="#7f7f7f" stroke-dasharray="5,2" d="M193.22,-243.9C193.22,-229.72 193.22,-215.54 193.22,-201.37"/>
<text text-anchor="middle" x="188.22" y="-215.43" font-family="Arial" font-size="9.00">alt</text>
</g>
<!-- plan_all_4&#45;&gt;plan_all_5 -->
<g id="edge4" class="edge">
<title>plan_all_4&#45;&gt;plan_all_5</title>
<path fill="none" stroke="#7f7f7f" stroke-dasharray="5,2" d="M193.22,-132.89C193.22,-118.73 193.22,-104.56 193.22,-90.4"/>
<text text-anchor="middle" x="188.22" y="-104.44" font-family="Arial" font-size="9.00">alt</text>
</g>
<!-- plan_all_4&#45;&gt;plan_all_6 -->
<g id="edge6" class="edge">
<title>plan_all_4&#45;&gt;plan_all_6</title>
<path fill="none" stroke="#cd6600" d="M258.03,-186.49C281.79,-195.46 308.19,-207.59 329.72,-223 404.74,-276.69 471.12,-362.38 507.73,-414.69"/>
<polygon fill="#cd6600" stroke="#cd6600" points="505.82,-416.23 511.83,-420.58 509.84,-413.43 505.82,-416.23"/>
<text text-anchor="middle" x="391.38" y="-279.06" font-family="Arial" font-size="9.00">inner</text>
</g>
<!-- plan_all_4&#45;&gt;plan_all_7 -->
<g id="edge8" class="edge">
<title>plan_all_4&#45;&gt;plan_all_7</title>
<path fill="none" stroke="#cd6600" d="M257.75,-191.18C280.73,-200.47 306.68,-211.59 329.72,-223 453.63,-284.37 591.7,-368.66 668.29,-416.92"/>
<polygon fill="#cd6600" stroke="#cd6600" points="667.38,-419.24 674.61,-420.91 669.99,-415.1 667.38,-419.24"/>
<text text-anchor="middle" x="459.38" y="-290.99" font-family="Arial" font-size="9.00">inner</text>
</g>
<!-- plan_all_6&#45;&gt;plan_all_7 -->
<!-- stats -->
<g id="node9" class="node">
<title>stats</title>
<polygon fill="lightyellow" stroke="black" points="269.22,-714 111.22,-714 111.22,-666 275.22,-666 275.22,-708 269.22,-714"/>
<polyline fill="none" stroke="black" points="269.22,-714 269.22,-708 "/>
<polyline fill="none" stroke="black" points="275.22,-708 269.22,-708 "/>
<text text-anchor="middle" x="193.22" y="-702.8" font-family="Arial" font-size="9.00">Statistics</text>
<text text-anchor="middle" x="193.22" y="-692.8" font-family="Arial" font-size="9.00">Total paths considered: 8</text>
<text text-anchor="middle" x="193.22" y="-682.8" font-family="Arial" font-size="9.00">Cheapest: T_IndexOnlyScan (8.29)</text>
<text text-anchor="middle" x="193.22" y="-672.8" font-family="Arial" font-size="9.00">Most expensive: T_SeqScan (17.50)</text>
</g>
<!-- legend -->
<g id="node10" class="node">
<title>legend</title>
<polygon fill="white" stroke="black" points="292.22,-825 88.22,-825 88.22,-757 298.22,-757 298.22,-819 292.22,-825"/>
<polyline fill="none" stroke="black" points="292.22,-825 292.22,-819 "/>
<polyline fill="none" stroke="black" points="298.22,-819 292.22,-819 "/>
<text text-anchor="middle" x="193.22" y="-813.8" font-family="Arial" font-size="9.00">Legend</text>
<text text-anchor="middle" x="193.22" y="-803.8" font-family="Arial" font-size="9.00">Blue edge: outer input</text>
<text text-anchor="middle" x="193.22" y="-793.8" font-family="Arial" font-size="9.00">Orange edge: inner input</text>
<text text-anchor="middle" x="193.22" y="-783.8" font-family="Arial" font-size="9.00">Dashed cluster: relation/join group</text>
<text text-anchor="middle" x="193.22" y="-773.8" font-family="Arial" font-size="9.00">Green node: selected plan</text>
<text text-anchor="middle" x="193.22" y="-763.8" font-family="Arial" font-size="9.00">Dashed edge (alt): next alternative for same RTI</text>
</g>
</g>
</svg>
