<?xml version="1.0" encoding="UTF-8" standalone="no"?>
<!DOCTYPE svg PUBLIC "-//W3C//DTD SVG 1.1//EN"
 "http://www.w3.org/Graphics/SVG/1.1/DTD/svg11.dtd">
<!-- Generated by graphviz version 2.43.0 (0)
 -->
<!-- Title: %3 Pages: 1 -->
<svg width="1320pt" height="1487pt"
 viewBox="0.00 0.00 1320.04 1487.00" xmlns="http://www.w3.org/2000/svg" xmlns:xlink="http://www.w3.org/1999/xlink">
<g id="graph0" class="graph" transform="scale(1 1) rotate(0) translate(4 1483)">
<title>%3</title>
<polygon fill="white" stroke="transparent" points="-4,4 -4,-1483 1316.04,-1483 1316.04,4 -4,4"/>
<g id="clust1" class="cluster">
<title>cluster_left</title>
<polygon fill="none" stroke="black" points="61.54,-229 61.54,-879 334.54,-879 334.54,-229 61.54,-229"/>
</g>
<g id="clust2" class="cluster">
<title>cluster_relations</title>
<polygon fill="none" stroke="black" points="69.54,-237 69.54,-871 326.54,-871 326.54,-237 69.54,-237"/>
</g>
<g id="clust3" class="cluster">
<title>cluster_rel_0</title>
<path fill="none" stroke="#a6a6a6" stroke-width="1.2" stroke-dasharray="5,2" d="M89.54,-659C89.54,-659 306.54,-659 306.54,-659 312.54,-659 318.54,-665 318.54,-671 318.54,-671 318.54,-851 318.54,-851 318.54,-857 312.54,-863 306.54,-863 306.54,-863 89.54,-863 89.54,-863 83.54,-863 77.54,-857 77.54,-851 77.54,-851 77.54,-671 77.54,-671 77.54,-665 83.54,-659 89.54,-659"/>
<text text-anchor="middle" x="198.04" y="-851" font-family="Arial" font-size="10.00">PID 3917080 • Relation RTI 1 (public.test1 (26144))</text>
</g>
<g id="clust4" class="cluster">
<title>cluster_rel_1</title>
<path fill="none" stroke="#a6a6a6" stroke-width="1.2" stroke-dasharray="5,2" d="M89.54,-245C89.54,-245 306.54,-245 306.54,-245 312.54,-245 318.54,-251 318.54,-257 318.54,-257 318.54,-639 318.54,-639 318.54,-645 312.54,-651 306.54,-651 306.54,-651 89.54,-651 89.54,-651 83.54,-651 77.54,-645 77.54,-639 77.54,-639 77.54,-257 77.54,-257 77.54,-251 83.54,-245 89.54,-245"/>
<text text-anchor="middle" x="198.04" y="-639" font-family="Arial" font-size="10.00">PID 3917080 • Relation RTI 2 (public.test2 (26149))</text>
</g>
<g id="clust5" class="cluster">
<title>cluster_join_0</title>
<path fill="none" stroke="#6e7b8b" stroke-width="1.2" stroke-dasharray="5,2" d="M485.04,-405C485.04,-405 1292.04,-405 1292.04,-405 1298.04,-405 1304.04,-411 1304.04,-417 1304.04,-417 1304.04,-728 1304.04,-728 1304.04,-734 1298.04,-740 1292.04,-740 1292.04,-740 485.04,-740 485.04,-740 479.04,-740 473.04,-734 473.04,-728 473.04,-728 473.04,-417 473.04,-417 473.04,-411 479.04,-405 485.04,-405"/>
<text text-anchor="middle" x="888.54" y="-728" font-family="Arial" font-size="10.00">PID 3917080 • JOIN_LEFT (outer: RTI 1, inner: RTI 2)</text>
</g>
<g id="clust6" class="cluster">
<title>cluster_join_1</title>
<path fill="none" stroke="#6e7b8b" stroke-width="1.2" stroke-dasharray="5,2" d="M675.04,-294C675.04,-294 912.04,-294 912.04,-294 918.04,-294 924.04,-300 924.04,-306 924.04,-306 924.04,-385 924.04,-385 924.04,-391 918.04,-397 912.04,-397 912.04,-397 675.04,-397 675.04,-397 669.04,-397 663.04,-391 663.04,-385 663.04,-385 663.04,-306 663.04,-306 663.04,-300 669.04,-294 675.04,-294"/>
<text text-anchor="middle" x="793.54" y="-385" font-family="Arial" font-size="10.00">PID 3917080 • JOIN_RIGHT (outer: RTI 2, inner: RTI 1)</text>
</g>
<!-- plan_all_0 -->
<g id="node1" class="node">
<title>plan_all_0</title>
<path fill="lightgreen" stroke="black" stroke-width="3" d="M250.54,-836C250.54,-836 145.54,-836 145.54,-836 139.54,-836 133.54,-830 133.54,-824 133.54,-824 133.54,-780 133.54,-780 133.54,-774 139.54,-768 145.54,-768 145.54,-768 250.54,-768 250.54,-768 256.54,-768 262.54,-774 262.54,-780 262.54,-780 262.54,-824 262.54,-824 262.54,-830 256.54,-836 250.54,-836"/>
<text text-anchor="middle" x="198.04" y="-824.8" font-family="Arial" font-size="9.00">T_SeqScan</text>
<text text-anchor="middle" x="198.04" y="-814.8" font-family="Arial" font-size="9.00">[CHOSEN]</text>
<text text-anchor="middle" x="198.04" y="-804.8" font-family="Arial" font-size="9.00">Startup: 0.00</text>
<text text-anchor="middle" x="198.04" y="-794.8" font-family="Arial" font-size="9.00">Total: 15.00</text>
<text text-anchor="middle" x="198.04" y="-784.8" font-family="Arial" font-size="9.00">Rows: 1000</text>
<text text-anchor="middle" x="198.04" y="-774.8" font-family="Arial" font-size="9.00">Parent: public.test1 (26144)</text>
</g>
<!-- plan_all_1 -->
<g id="node2" class="node">
<title>plan_all_1</title>
<path fill="lightblue" stroke="black" d="M250.54,-725C250.54,-725 145.54,-725 145.54,-725 139.54,-725 133.54,-719 133.54,-713 133.54,-713 133.54,-679 133.54,-679 133.54,-673 139.54,-667 145.54,-667 145.54,-667 250.54,-667 250.54,-667 256.54,-667 262.54,-673 262.54,-679 262.54,-679 262.54,-713 262.54,-713 262.54,-719 256.54,-725 250.54,-725"/>
<text text-anchor="middle" x="198.04" y="-713.8" font-family="Arial" font-size="9.00">T_IndexOnlyScan</text>
<text text-anchor="middle" x="198.04" y="-703.8" font-family="Arial" font-size="9.00">Startup: 0.28</text>
<text text-anchor="middle" x="198.04" y="-693.8" font-family="Arial" font-size="9.00">Total: 43.27</text>
<text text-anchor="middle" x="198.04" y="-683.8" font-family="Arial" font-size="9.00">Rows: 1000</text>
<text text-anchor="middle" x="198.04" y="-673.8" font-family="Arial" font-size="9.00">Parent: public.test1 (26144)</text>
</g>
<!-- plan_all_0&#45;&gt;plan_all_1 -->
<g id="edge1" class="edge">
<title>plan_all_0&#45;&gt;plan_all_1</title>
<path fill="none" stroke="#7f7f7f" stroke-dasharray="5,2" d="M198.04,-767.89C198.04,-753.73 198.04,-739.56 198.04,-725.4"/>
<text text-anchor="middle" x="193.04" y="-739.44" font-family="Arial" font-size="9.00">alt</text>
</g>
<!-- plan_all_2 -->
<g id="node3" class="node">
<title>plan_all_2</title>
<path fill="lightgreen" stroke="black" stroke-width="3" d="M250.54,-624C250.54,-624 145.54,-624 145.54,-624 139.54,-624 133.54,-618 133.54,-612 133.54,-612 133.54,-568 133.54,-568 133.54,-562 139.54,-556 145.54,-556 145.54,-556 250.54,-556 250.54,-556 256.54,-556 262.54,-562 262.54,-568 262.54,-568 262.54,-612 262.54,-612 262.54,-618 256.54,-624 250.54,-624"/>
<text text-anchor="middle" x="198.04" y="-612.8" font-family="Arial" font-size="9.00">T_SeqScan</text>
<text text-anchor="middle" x="198.04" y="-602.8" font-family="Arial" font-size="9.00">[CHOSEN]</text>
<text text-anchor="middle" x="198.04" y="-592.8" font-family="Arial" font-size="9.00">Startup: 0.00</text>
<text text-anchor="middle" x="198.04" y="-582.8" font-family="Arial" font-size="9.00">Total: 15.00</text>
<text text-anchor="middle" x="198.04" y="-572.8" font-family="Arial" font-size="9.00">Rows: 1000</text>
<text text-anchor="middle" x="198.04" y="-562.8" font-family="Arial" font-size="9.00">Parent: public.test2 (26149)</text>
</g>
<!-- plan_all_0&#45;&gt;plan_all_2 -->
<!-- plan_all_6 -->
<g id="node7" class="node">
<title>plan_all_6</title>
<path fill="lightblue" stroke="black" d="M1094.04,-481C1094.04,-481 993.04,-481 993.04,-481 987.04,-481 981.04,-475 981.04,-469 981.04,-469 981.04,-425 981.04,-425 981.04,-419 987.04,-413 993.04,-413 993.04,-413 1094.04,-413 1094.04,-413 1100.04,-413 1106.04,-419 1106.04,-425 1106.04,-425 1106.04,-469 1106.04,-469 1106.04,-475 1100.04,-481 1094.04,-481"/>
<text text-anchor="middle" x="1043.54" y="-469.8" font-family="Arial" font-size="9.00">T_MergeJoin</text>
<text text-anchor="middle" x="1043.54" y="-459.8" font-family="Arial" font-size="9.00">Startup: 129.66</text>
<text text-anchor="middle" x="1043.54" y="-449.8" font-family="Arial" font-size="9.00">Total: 149.66</text>
<text text-anchor="middle" x="1043.54" y="-439.8" font-family="Arial" font-size="9.00">Rows: 1000</text>
<text text-anchor="middle" x="1043.54" y="-429.8" font-family="Arial" font-size="9.00">Outer: public.test1 (26144)</text>
<text text-anchor="middle" x="1043.54" y="-419.8" font-family="Arial" font-size="9.00">Inner: public.test2 (26149)</text>
</g>
<!-- plan_all_0&#45;&gt;plan_all_6 -->
<g id="edge5" class="edge">
<title>plan_all_0&#45;&gt;plan_all_6</title>
<path fill="none" stroke="#4f94cd" d="M262.75,-788.56C288.05,-780.33 315.58,-767.33 334.54,-747 469.73,-602.01 325.15,-455.02 473.04,-323 623.13,-189.02 744.76,-192.69 924.04,-284 973.99,-309.44 1007.83,-366.89 1026.17,-406.31"/>
<polygon fill="#4f94cd" stroke="#4f94cd" points="1024.06,-407.61 1029.19,-412.97 1028.52,-405.58 1024.06,-407.61"/>
<text text-anchor="middle" x="388.03" y="-522.93" font-family="Arial" font-size="9.00">outer</text>
</g>
<!-- plan_all_7 -->
<g id="node8" class="node">
<title>plan_all_7</title>
<path fill="lightblue" stroke="black" d="M1094.04,-713C1094.04,-713 993.04,-713 993.04,-713 987.04,-713 981.04,-707 981.04,-701 981.04,-701 981.04,-657 981.04,-657 981.04,-651 987.04,-645 993.04,-645 993.04,-645 1094.04,-645 1094.04,-645 1100.04,-645 1106.04,-651 1106.04,-657 1106.04,-657 1106.04,-701 1106.04,-701 1106.04,-707 1100.04,-713 1094.04,-713"/>
<text text-anchor="middle" x="1043.54" y="-701.8" font-family="Arial" font-size="9.00">T_NestLoop</text>
<text text-anchor="middle" x="1043.54" y="-691.8" font-family="Arial" font-size="9.00">Startup: 0.00</text>
<text text-anchor="middle" x="1043.54" y="-681.8" font-family="Arial" font-size="9.00">Total: 27487.55</text>
<text text-anchor="middle" x="1043.54" y="-671.8" font-family="Arial" font-size="9.00">Rows: 1000</text>
<text text-anchor="middle" x="1043.54" y="-661.8" font-family="Arial" font-size="9.00">Outer: public.test1 (26144)</text>
<text text-anchor="middle" x="1043.54" y="-651.8" font-family="Arial" font-size="9.00">Inner: public.test2 (26149)</text>
</g>
<!-- plan_all_0&#45;&gt;plan_all_7 -->
<g id="edge7" class="edge">
<title>plan_all_0&#45;&gt;plan_all_7</title>
<path fill="none" stroke="#4f94cd" d="M262.81,-818.26C288.75,-828 316.74,-843.09 334.54,-866 450.1,-1014.8 240.28,-1349.86 416.04,-1282 711.77,-1167.82 943.88,-835.22 1017.76,-719.36"/>
<polygon fill="#4f94cd" stroke="#4f94cd" points="1019.89,-720.58 1021.57,-713.35 1015.75,-717.95 1019.89,-720.58"/>
<text text-anchor="middle" x="839.77" y="-937.31" font-family="Arial" font-size="9.00">outer</text>
</g>
<!-- plan_all_8 -->
<g id="node9" class="node">
<title>plan_all_8</title>
<path fill="lightblue" stroke="black" d="M594.04,-713C594.04,-713 493.04,-713 493.04,-713 487.04,-713 481.04,-707 481.04,-701 481.04,-701 481.04,-657 481.04,-657 481.04,-651 487.04,-645 493.04,-645 493.04,-645 594.04,-645 594.04,-645 600.04,-645 606.04,-651 606.04,-657 606.04,-657 606.04,-701 606.04,-701 606.04,-707 600.04,-713 594.04,-713"/>
<text text-anchor="middle" x="543.54" y="-701.8" font-family="Arial" font-size="9.00">T_NestLoop</text>
<text text-anchor="middle" x="543.54" y="-691.8" font-family="Arial" font-size="9.00">Startup: 0.00</text>
<text text-anchor="middle" x="543.54" y="-681.8" font-family="Arial" font-size="9.00">Total: 15017.53</text>
<text text-anchor="middle" x="543.54" y="-671.8" font-family="Arial" font-size="9.00">Rows: 1000</text>
<text text-anchor="middle" x="543.54" y="-661.8" font-family="Arial" font-size="9.00">Outer: public.test1 (26144)</text>
<text text-anchor="middle" x="543.54" y="-651.8" font-family="Arial" font-size="9.00">Inner: public.test2 (26149)</text>
</g>
<!-- plan_all_0&#45;&gt;plan_all_8 -->
<g id="edge9" class="edge">
<title>plan_all_0&#45;&gt;plan_all_8</title>
<path fill="none" stroke="#4f94cd" d="M262.66,-823.52C286.93,-833.81 313.74,-847.89 334.54,-866 384,-909.06 361.61,-1025.58 416.04,-989 506.58,-928.16 532.35,-789.93 539.66,-720.47"/>
<polygon fill="#4f94cd" stroke="#4f94cd" points="542.13,-720.37 540.39,-713.16 537.26,-719.88 542.13,-720.37"/>
<text text-anchor="middle" x="323.55" y="-858.81" font-family="Arial" font-size="9.00">outer</text>
</g>
<!-- plan_all_9 -->
<g id="node10" class="node">
<title>plan_all_9</title>
<path fill="lightblue" stroke="black" d="M1284.04,-713C1284.04,-713 1183.04,-713 1183.04,-713 1177.04,-713 1171.04,-707 1171.04,-701 1171.04,-701 1171.04,-657 1171.04,-657 1171.04,-651 1177.04,-645 1183.04,-645 1183.04,-645 1284.04,-645 1284.04,-645 1290.04,-645 1296.04,-651 1296.04,-657 1296.04,-657 1296.04,-701 1296.04,-701 1296.04,-707 1290.04,-713 1284.04,-713"/>
<text text-anchor="middle" x="1233.54" y="-701.8" font-family="Arial" font-size="9.00">T_NestLoop</text>
<text text-anchor="middle" x="1233.54" y="-691.8" font-family="Arial" font-size="9.00">Startup: 0.28</text>
<text text-anchor="middle" x="1233.54" y="-681.8" font-family="Arial" font-size="9.00">Total: 27515.83</text>
<text text-anchor="middle" x="1233.54" y="-671.8" font-family="Arial" font-size="9.00">Rows: 1000</text>
<text text-anchor="middle" x="1233.54" y="-661.8" font-family="Arial" font-size="9.00">Outer: public.test1 (26144)</text>
<text text-anchor="middle" x="1233.54" y="-651.8" font-family="Arial" font-size="9.00">Inner: public.test2 (26149)</text>
</g>
<!-- plan_all_0&#45;&gt;plan_all_9 -->
<g id="edge11" class="edge">
<title>plan_all_0&#45;&gt;plan_all_9</title>
<path fill="none" stroke="#4f94cd" d="M262.6,-818.01C288.67,-827.73 316.82,-842.87 334.54,-866 509.49,-1094.4 254.84,-1479 542.54,-1479 542.54,-1479 542.54,-1479 794.54,-1479 1144.22,-1479 1216.54,-883.65 1229.81,-720.12"/>
<polygon fill="#4f94cd" stroke="#4f94cd" points="1232.25,-720.29 1230.36,-713.12 1227.37,-719.9 1232.25,-720.29"/>
<text text-anchor="middle" x="359.58" y="-920.43" font-family="Arial" font-size="9.00">outer</text>
</g>
<!-- plan_all_10 -->
<g id="node11" class="node">
<title>plan_all_10</title>
<path fill="lightblue" stroke="black" d="M844.04,-713C844.04,-713 743.04,-713 743.04,-713 737.04,-713 731.04,-707 731.04,-701 731.04,-701 731.04,-657 731.04,-657 731.04,-651 737.04,-645 743.04,-645 743.04,-645 844.04,-645 844.04,-645 850.04,-645 856.04,-651 856.04,-657 856.04,-657 856.04,-701 856.04,-701 856.04,-707 850.04,-713 844.04,-713"/>
<text text-anchor="middle" x="793.54" y="-701.8" font-family="Arial" font-size="9.00">T_NestLoop</text>
<text text-anchor="middle" x="793.54" y="-691.8" font-family="Arial" font-size="9.00">Startup: 0.28</text>
<text text-anchor="middle" x="793.54" y="-681.8" font-family="Arial" font-size="9.00">Total: 15045.80</text>
<text text-anchor="middle" x="793.54" y="-671.8" font-family="Arial" font-size="9.00">Rows: 1000</text>
<text text-anchor="middle" x="793.54" y="-661.8" font-family="Arial" font-size="9.00">Outer: public.test1 (26144)</text>
<text text-anchor="middle" x="793.54" y="-651.8" font-family="Arial" font-size="9.00">Inner: public.test2 (26149)</text>
</g>
<!-- plan_all_0&#45;&gt;plan_all_10 -->
<g id="edge13" class="edge">
<title>plan_all_0&#45;&gt;plan_all_10</title>
<path fill="none" stroke="#4f94cd" d="M262.64,-818.39C288.55,-828.15 316.57,-843.23 334.54,-866 442.62,-1002.96 245.57,-1287.17 416.04,-1250 506.78,-1230.21 542.42,-1230.66 606.04,-1163 729,-1032.21 773.55,-811.62 787.25,-720.4"/>
<polygon fill="#4f94cd" stroke="#4f94cd" points="789.7,-720.56 788.29,-713.28 784.85,-719.85 789.7,-720.56"/>
<text text-anchor="middle" x="332.53" y="-871.63" font-family="Arial" font-size="9.00">outer</text>
</g>
<!-- plan_all_11 -->
<g id="node12" class="node">
<title>plan_all_11</title>
<path fill="lightblue" stroke="black" d="M844.04,-602C844.04,-602 743.04,-602 743.04,-602 737.04,-602 731.04,-596 731.04,-590 731.04,-590 731.04,-546 731.04,-546 731.04,-540 737.04,-534 743.04,-534 743.04,-534 844.04,-534 844.04,-534 850.04,-534 856.04,-540 856.04,-546 856.04,-546 856.04,-590 856.04,-590 856.04,-596 850.04,-602 844.04,-602"/>
<text text-anchor="middle" x="793.54" y="-590.8" font-family="Arial" font-size="9.00">T_MergeJoin</text>
<text text-anchor="middle" x="793.54" y="-580.8" font-family="Arial" font-size="9.00">Startup: 65.10</text>
<text text-anchor="middle" x="793.54" y="-570.8" font-family="Arial" font-size="9.00">Total: 125.60</text>
<text text-anchor="middle" x="793.54" y="-560.8" font-family="Arial" font-size="9.00">Rows: 1000</text>
<text text-anchor="middle" x="793.54" y="-550.8" font-family="Arial" font-size="9.00">Outer: public.test1 (26144)</text>
<text text-anchor="middle" x="793.54" y="-540.8" font-family="Arial" font-size="9.00">Inner: public.test2 (26149)</text>
</g>
<!-- plan_all_0&#45;&gt;plan_all_11 -->
<g id="edge15" class="edge">
<title>plan_all_0&#45;&gt;plan_all_11</title>
<path fill="none" stroke="#4f94cd" d="M262.59,-822.04C287.27,-832.21 314.39,-846.6 334.54,-866 390.6,-919.99 346.04,-1055.04 416.04,-1021 539.01,-961.2 539.4,-898.41 606.04,-779 641.8,-714.91 612.6,-677.33 663.04,-624 679.51,-606.58 702.32,-594.3 724.21,-585.77"/>
<polygon fill="#4f94cd" stroke="#4f94cd" points="725.26,-587.99 730.96,-583.24 723.55,-583.4 725.26,-587.99"/>
<text text-anchor="middle" x="613.84" y="-718.8" font-family="Arial" font-size="9.00">outer</text>
</g>
<!-- plan_all_12 -->
<g id="node13" class="node">
<title>plan_all_12</title>
<path fill="lightblue" stroke="black" d="M594.04,-602C594.04,-602 493.04,-602 493.04,-602 487.04,-602 481.04,-596 481.04,-590 481.04,-590 481.04,-546 481.04,-546 481.04,-540 487.04,-534 493.04,-534 493.04,-534 594.04,-534 594.04,-534 600.04,-534 606.04,-540 606.04,-546 606.04,-546 606.04,-590 606.04,-590 606.04,-596 600.04,-602 594.04,-602"/>
<text text-anchor="middle" x="543.54" y="-590.8" font-family="Arial" font-size="9.00">T_MergeJoin</text>
<text text-anchor="middle" x="543.54" y="-580.8" font-family="Arial" font-size="9.00">Startup: 0.55</text>
<text text-anchor="middle" x="543.54" y="-570.8" font-family="Arial" font-size="9.00">Total: 101.55</text>
<text text-anchor="middle" x="543.54" y="-560.8" font-family="Arial" font-size="9.00">Rows: 1000</text>
<text text-anchor="middle" x="543.54" y="-550.8" font-family="Arial" font-size="9.00">Outer: public.test1 (26144)</text>
<text text-anchor="middle" x="543.54" y="-540.8" font-family="Arial" font-size="9.00">Inner: public.test2 (26149)</text>
</g>
<!-- plan_all_0&#45;&gt;plan_all_12 -->
<g id="edge17" class="edge">
<title>plan_all_0&#45;&gt;plan_all_12</title>
<path fill="none" stroke="#4f94cd" d="M262.79,-831.91C325.01,-861.05 410.94,-901.1 415.04,-902 415.47,-902.1 415.69,-902.28 416.04,-902 513.77,-822.27 407.39,-731.7 473.04,-624 476.67,-618.05 481.17,-612.45 486.12,-607.28"/>
<polygon fill="#4f94cd" stroke="#4f94cd" points="487.95,-608.92 491.21,-602.25 484.51,-605.43 487.95,-608.92"/>
<text text-anchor="middle" x="439.2" y="-707.78" font-family="Arial" font-size="9.00">outer</text>
</g>
<!-- plan_all_13 -->
<g id="node14" class="node">
<title>plan_all_13</title>
<path fill="lightgreen" stroke="black" stroke-width="3" d="M594.04,-491C594.04,-491 493.04,-491 493.04,-491 487.04,-491 481.04,-485 481.04,-479 481.04,-479 481.04,-425 481.04,-425 481.04,-419 487.04,-413 493.04,-413 493.04,-413 594.04,-413 594.04,-413 600.04,-413 606.04,-419 606.04,-425 606.04,-425 606.04,-479 606.04,-479 606.04,-485 600.04,-491 594.04,-491"/>
<text text-anchor="middle" x="543.54" y="-479.8" font-family="Arial" font-size="9.00">T_HashJoin</text>
<text text-anchor="middle" x="543.54" y="-469.8" font-family="Arial" font-size="9.00">[CHOSEN]</text>
<text text-anchor="middle" x="543.54" y="-459.8" font-family="Arial" font-size="9.00">Startup: 27.50</text>
<text text-anchor="middle" x="543.54" y="-449.8" font-family="Arial" font-size="9.00">Total: 45.14</text>
<text text-anchor="middle" x="543.54" y="-439.8" font-family="Arial" font-size="9.00">Rows: 1000</text>
<text text-anchor="middle" x="543.54" y="-429.8" font-family="Arial" font-size="9.00">Outer: public.test1 (26144)</text>
<text text-anchor="middle" x="543.54" y="-419.8" font-family="Arial" font-size="9.00">Inner: public.test2 (26149)</text>
</g>
<!-- plan_all_0&#45;&gt;plan_all_13 -->
<g id="edge19" class="edge">
<title>plan_all_0&#45;&gt;plan_all_13</title>
<path fill="none" stroke="#4f94cd" d="M262.78,-827.06C310.32,-841.18 374.05,-849.8 416.04,-815 521.2,-727.83 405.35,-631.64 473.04,-513 476.31,-507.27 480.32,-501.8 484.76,-496.66"/>
<polygon fill="#4f94cd" stroke="#4f94cd" points="486.81,-498.05 489.72,-491.22 483.19,-494.74 486.81,-498.05"/>
<text text-anchor="middle" x="447.59" y="-668.61" font-family="Arial" font-size="9.00">outer</text>
</g>
<!-- plan_all_14 -->
<g id="node15" class="node">
<title>plan_all_14</title>
<path fill="lightblue" stroke="black" d="M844.04,-370C844.04,-370 743.04,-370 743.04,-370 737.04,-370 731.04,-364 731.04,-358 731.04,-358 731.04,-314 731.04,-314 731.04,-308 737.04,-302 743.04,-302 743.04,-302 844.04,-302 844.04,-302 850.04,-302 856.04,-308 856.04,-314 856.04,-314 856.04,-358 856.04,-358 856.04,-364 850.04,-370 844.04,-370"/>
<text text-anchor="middle" x="793.54" y="-358.8" font-family="Arial" font-size="9.00">T_HashJoin</text>
<text text-anchor="middle" x="793.54" y="-348.8" font-family="Arial" font-size="9.00">Startup: 27.50</text>
<text text-anchor="middle" x="793.54" y="-338.8" font-family="Arial" font-size="9.00">Total: 45.14</text>
<text text-anchor="middle" x="793.54" y="-328.8" font-family="Arial" font-size="9.00">Rows: 1000</text>
<text text-anchor="middle" x="793.54" y="-318.8" font-family="Arial" font-size="9.00">Outer: public.test2 (26149)</text>
<text text-anchor="middle" x="793.54" y="-308.8" font-family="Arial" font-size="9.00">Inner: public.test1 (26144)</text>
</g>
<!-- plan_all_0&#45;&gt;plan_all_14 -->
<g id="edge22" class="edge">
<title>plan_all_0&#45;&gt;plan_all_14</title>
<path fill="none" stroke="#cd6600" d="M262.66,-797.43C311.94,-790.38 378.02,-772.61 416.04,-728 513.44,-613.72 367.56,-501.87 473.04,-395 537.97,-329.21 650.69,-323.47 723.41,-327.86"/>
<polygon fill="#cd6600" stroke="#cd6600" points="723.61,-330.33 730.76,-328.35 723.94,-325.44 723.61,-330.33"/>
<text text-anchor="middle" x="430.51" y="-551.51" font-family="Arial" font-size="9.00">inner</text>
</g>
<!-- plan_all_3 -->
<g id="node4" class="node">
<title>plan_all_3</title>
<path fill="lightblue" stroke="black" d="M250.54,-513C250.54,-513 145.54,-513 145.54,-513 139.54,-513 133.54,-507 133.54,-501 133.54,-501 133.54,-467 133.54,-467 133.54,-461 139.54,-455 145.54,-455 145.54,-455 250.54,-455 250.54,-455 256.54,-455 262.54,-461 262.54,-467 262.54,-467 262.54,-501 262.54,-501 262.54,-507 256.54,-513 250.54,-513"/>
<text text-anchor="middle" x="198.04" y="-501.8" font-family="Arial" font-size="9.00">T_IndexOnlyScan</text>
<text text-anchor="middle" x="198.04" y="-491.8" font-family="Arial" font-size="9.00">Startup: 0.28</text>
<text text-anchor="middle" x="198.04" y="-481.8" font-family="Arial" font-size="9.00">Total: 43.27</text>
<text text-anchor="middle" x="198.04" y="-471.8" font-family="Arial" font-size="9.00">Rows: 1000</text>
<text text-anchor="middle" x="198.04" y="-461.8" font-family="Arial" font-size="9.00">Parent: public.test2 (26149)</text>
</g>
<!-- plan_all_1&#45;&gt;plan_all_3 -->
<!-- plan_all_2&#45;&gt;plan_all_3 -->
<g id="edge2" class="edge">
<title>plan_all_2&#45;&gt;plan_all_3</title>
<path fill="none" stroke="#7f7f7f" stroke-dasharray="5,2" d="M198.04,-555.89C198.04,-541.73 198.04,-527.56 198.04,-513.4"/>
<text text-anchor="middle" x="193.04" y="-527.44" font-family="Arial" font-size="9.00">alt</text>
</g>
<!-- plan_all_2&#45;&gt;plan_all_6 -->
<g id="edge6" class="edge">
<title>plan_all_2&#45;&gt;plan_all_6</title>
<path fill="none" stroke="#cd6600" d="M262.86,-576.23C288.03,-567.96 315.43,-555.02 334.54,-535 462.39,-401.02 321.88,-249 473.04,-142 636.64,-26.19 758.62,-28.8 924.04,-142 1011.79,-202.05 1034.57,-337.34 1040.48,-405.74"/>
<polygon fill="#cd6600" stroke="#cd6600" points="1038.05,-406.17 1041.06,-412.95 1042.94,-405.77 1038.05,-406.17"/>
<text text-anchor="middle" x="377.87" y="-424.89" font-family="Arial" font-size="9.00">inner</text>
</g>
<!-- plan_all_2&#45;&gt;plan_all_7 -->
<g id="edge8" class="edge">
<title>plan_all_2&#45;&gt;plan_all_7</title>
<path fill="none" stroke="#cd6600" d="M262.61,-609.04C286.87,-618.42 313.69,-631.54 334.54,-649 408.46,-710.91 381.98,-784.27 473.04,-816 653.11,-878.74 874.93,-776.06 980.73,-716.64"/>
<polygon fill="#cd6600" stroke="#cd6600" points="982.03,-718.72 986.92,-713.14 979.62,-714.45 982.03,-718.72"/>
<text text-anchor="middle" x="628.76" y="-826.45" font-family="Arial" font-size="9.00">inner</text>
</g>
<!-- plan_all_2&#45;&gt;plan_all_8 -->
<g id="edge10" class="edge">
<title>plan_all_2&#45;&gt;plan_all_8</title>
<path fill="none" stroke="#cd6600" d="M262.82,-566C285.71,-556.89 311.54,-546.04 334.54,-535 371.84,-517.09 381.52,-467.18 416.04,-490 470.02,-525.7 433.78,-572.55 473.04,-624 477.31,-629.6 482.27,-634.95 487.54,-639.97"/>
<polygon fill="#cd6600" stroke="#cd6600" points="486.09,-641.95 492.9,-644.87 489.39,-638.34 486.09,-641.95"/>
<text text-anchor="middle" x="444.09" y="-578.89" font-family="Arial" font-size="9.00">inner</text>
</g>
<!-- plan_all_2&#45;&gt;plan_all_9 -->
<g id="edge12" class="edge">
<title>plan_all_2&#45;&gt;plan_all_9</title>
<path fill="none" stroke="#cd6600" d="M262.55,-577.64C288.28,-569.57 316.19,-556.39 334.54,-535 500.61,-341.34 287.42,0 542.54,0 542.54,0 542.54,0 794.54,0 1099.75,0 1202.54,-490.47 1226.52,-637.7"/>
<polygon fill="#cd6600" stroke="#cd6600" points="1224.15,-638.34 1227.67,-644.86 1228.98,-637.56 1224.15,-638.34"/>
<text text-anchor="middle" x="367.27" y="-455.39" font-family="Arial" font-size="9.00">inner</text>
</g>
<!-- plan_all_2&#45;&gt;plan_all_10 -->
<g id="edge14" class="edge">
<title>plan_all_2&#45;&gt;plan_all_10</title>
<path fill="none" stroke="#cd6600" d="M262.73,-612.46C286.22,-622.08 312.46,-634.47 334.54,-649 405.05,-695.42 394.54,-747.93 473.04,-779 565.31,-815.52 676.62,-758.84 740.53,-717.04"/>
<polygon fill="#cd6600" stroke="#cd6600" points="742.08,-718.95 746.57,-713.04 739.38,-714.87 742.08,-718.95"/>
<text text-anchor="middle" x="404.86" y="-732.28" font-family="Arial" font-size="9.00">inner</text>
</g>
<!-- plan_all_2&#45;&gt;plan_all_11 -->
<g id="edge16" class="edge">
<title>plan_all_2&#45;&gt;plan_all_11</title>
<path fill="none" stroke="#cd6600" d="M262.74,-566.51C309.34,-553.67 371.87,-545.98 416.04,-577 477.13,-619.91 411.95,-692.09 473.04,-735 521.41,-768.97 555.59,-765.81 606.04,-735 653.37,-706.1 622.55,-661.89 663.04,-624 680.22,-607.92 702.74,-596.02 724.17,-587.44"/>
<polygon fill="#cd6600" stroke="#cd6600" points="725.14,-589.69 730.78,-584.87 723.37,-585.12 725.14,-589.69"/>
<text text-anchor="middle" x="427.2" y="-595.43" font-family="Arial" font-size="9.00">inner</text>
</g>
<!-- plan_all_2&#45;&gt;plan_all_12 -->
<g id="edge18" class="edge">
<title>plan_all_2&#45;&gt;plan_all_12</title>
<path fill="none" stroke="#cd6600" d="M262.62,-573.55C287.02,-564.97 313.93,-552.51 334.54,-535 386.9,-490.5 355.12,-436.64 415.04,-403 463.23,-375.94 437.87,-470.36 473.04,-513 477.59,-518.52 482.78,-523.85 488.23,-528.87"/>
<polygon fill="#cd6600" stroke="#cd6600" points="486.89,-530.97 493.75,-533.79 490.15,-527.31 486.89,-530.97"/>
<text text-anchor="middle" x="334.12" y="-517.48" font-family="Arial" font-size="9.00">inner</text>
</g>
<!-- plan_all_2&#45;&gt;plan_all_13 -->
<g id="edge20" class="edge">
<title>plan_all_2&#45;&gt;plan_all_13</title>
<path fill="none" stroke="#cd6600" d="M262.56,-574C287.1,-565.47 314.12,-552.92 334.54,-535 389.06,-487.15 352.35,-429.52 415.04,-393 440.99,-377.88 471.47,-390.96 496.12,-408.6"/>
<polygon fill="#cd6600" stroke="#cd6600" points="494.85,-410.71 501.93,-412.92 497.78,-406.78 494.85,-410.71"/>
<text text-anchor="middle" x="353.84" y="-480.72" font-family="Arial" font-size="9.00">inner</text>
</g>
<!-- plan_all_2&#45;&gt;plan_all_14 -->
<g id="edge21" class="edge">
<title>plan_all_2&#45;&gt;plan_all_14</title>
<path fill="none" stroke="#4f94cd" d="M262.82,-574.3C287.4,-565.81 314.38,-553.21 334.54,-535 420,-457.8 368.29,-363.87 473.04,-316 553.31,-279.32 656.93,-295.84 724.05,-313.67"/>
<polygon fill="#4f94cd" stroke="#4f94cd" points="723.43,-316.05 730.83,-315.51 724.72,-311.32 723.43,-316.05"/>
<text text-anchor="middle" x="385.57" y="-407.24" font-family="Arial" font-size="9.00">outer</text>
</g>
<!-- plan_all_4 -->
<g id="node5" class="node">
<title>plan_all_4</title>
<path fill="lightblue" stroke="black" d="M250.54,-412C250.54,-412 145.54,-412 145.54,-412 139.54,-412 133.54,-406 133.54,-400 133.54,-400 133.54,-366 133.54,-366 133.54,-360 139.54,-354 145.54,-354 145.54,-354 250.54,-354 250.54,-354 256.54,-354 262.54,-360 262.54,-366 262.54,-366 262.54,-400 262.54,-400 262.54,-406 256.54,-412 250.54,-412"/>
<text text-anchor="middle" x="198.04" y="-400.8" font-family="Arial" font-size="9.00">T_IndexOnlyScan</text>
<text text-anchor="middle" x="198.04" y="-390.8" font-family="Arial" font-size="9.00">Startup: 0.28</text>
<text text-anchor="middle" x="198.04" y="-380.8" font-family="Arial" font-size="9.00">Total: 0.33</text>
<text text-anchor="middle" x="198.04" y="-370.8" font-family="Arial" font-size="9.00">Rows: 1</text>
<text text-anchor="middle" x="198.04" y="-360.8" font-family="Arial" font-size="9.00">Parent: public.test2 (26149)</text>
</g>
<!-- plan_all_3&#45;&gt;plan_all_4 -->
<g id="edge3" class="edge">
<title>plan_all_3&#45;&gt;plan_all_4</title>
<path fill="none" stroke="#7f7f7f" stroke-dasharray="5,2" d="M198.04,-454.83C198.04,-440.62 198.04,-426.41 198.04,-412.2"/>
<text text-anchor="middle" x="193.04" y="-426.31" font-family="Arial" font-size="9.00">alt</text>
</g>
<!-- plan_all_4&#45;&gt;plan_all_1 -->
<!-- plan_all_5 -->
<g id="node6" class="node">
<title>plan_all_5</title>
<path fill="lightblue" stroke="black" d="M250.54,-311C250.54,-311 145.54,-311 145.54,-311 139.54,-311 133.54,-305 133.54,-299 133.54,-299 133.54,-265 133.54,-265 133.54,-259 139.54,-253 145.54,-253 145.54,-253 250.54,-253 250.54,-253 256.54,-253 262.54,-259 262.54,-265 262.54,-265 262.54,-299 262.54,-299 262.54,-305 256.54,-311 250.54,-311"/>
<text text-anchor="middle" x="198.04" y="-299.8" font-family="Arial" font-size="9.00">T_BitmapHeapScan</text>
<text text-anchor="middle" x="198.04" y="-289.8" font-family="Arial" font-size="9.00">Startup: 0.30</text>
<text text-anchor="middle" x="198.04" y="-279.8" font-family="Arial" font-size="9.00">Total: 4.32</text>
<text text-anchor="middle" x="198.04" y="-269.8" font-family="Arial" font-size="9.00">Rows: 1</text>
<text text-anchor="middle" x="198.04" y="-259.8" font-family="Arial" font-size="9.00">Parent: public.test2 (26149)</text>
</g>
<!-- plan_all_4&#45;&gt;plan_all_5 -->
<g id="edge4" class="edge">
<title>plan_all_4&#45;&gt;plan_all_5</title>
<path fill="none" stroke="#7f7f7f" stroke-dasharray="5,2" d="M198.04,-353.83C198.04,-339.62 198.04,-325.41 198.04,-311.2"/>
<text text-anchor="middle" x="193.04" y="-325.31" font-family="Arial" font-size="9.00">alt</text>
</g>
<!-- plan_all_7&#45;&gt;plan_all_9 -->
<!-- plan_all_8&#45;&gt;plan_all_10 -->
<!-- plan_all_10&#45;&gt;plan_all_7 -->
<!-- plan_all_11&#45;&gt;plan_all_6 -->
<!-- plan_all_12&#45;&gt;plan_all_11 -->
<!-- plan_all_13&#45;&gt;plan_all_14 -->
<!-- stats -->
<g id="node16" class="node">
<title>stats</title>
<polygon fill="lightyellow" stroke="black" points="283.04,-935 107.04,-935 107.04,-887 289.04,-887 289.04,-929 283.04,-935"/>
<polyline fill="none" stroke="black" points="283.04,-935 283.04,-929 "/>
<polyline fill="none" stroke="black" points="289.04,-929 283.04,-929 "/>
<text text-anchor="middle" x="198.04" y="-923.8" font-family="Arial" font-size="9.00">Statistics</text>
<text text-anchor="middle" x="198.04" y="-913.8" font-family="Arial" font-size="9.00">Total paths considered: 15</text>
<text text-anchor="middle" x="198.04" y="-903.8" font-family="Arial" font-size="9.00">Cheapest: T_IndexOnlyScan (0.33)</text>
<text text-anchor="middle" x="198.04" y="-893.8" font-family="Arial" font-size="9.00">Most expensive: T_NestLoop (27515.83)</text>
</g>
<!-- legend -->
<g id="node17" class="node">
<title>legend</title>
<polygon fill="white" stroke="black" points="297.04,-1046 93.04,-1046 93.04,-978 303.04,-978 303.04,-1040 297.04,-1046"/>
<polyline fill="none" stroke="black" points="297.04,-1046 297.04,-1040 "/>
<polyline fill="none" stroke="black" points="303.04,-1040 297.04,-1040 "/>
<text text-anchor="middle" x="198.04" y="-1034.8" font-family="Arial" font-size="9.00">Legend</text>
<text text-anchor="middle" x="198.04" y="-1024.8" font-family="Arial" font-size="9.00">Blue edge: outer input</text>
<text text-anchor="middle" x="198.04" y="-1014.8" font-family="Arial" font-size="9.00">Orange edge: inner input</text>
<text text-anchor="middle" x="198.04" y="-1004.8" font-family="Arial" font-size="9.00">Dashed cluster: relation/join group</text>
<text text-anchor="middle" x="198.04" y="-994.8" font-family="Arial" font-size="9.00">Green node: selected plan</text>
<text text-anchor="middle" x="198.04" y="-984.8" font-family="Arial" font-size="9.00">Dashed edge (alt): next alternative for same RTI</text>
</g>
</g>
</svg>
