<?xml version="1.0" encoding="UTF-8" standalone="no"?>
<!DOCTYPE svg PUBLIC "-//W3C//DTD SVG 1.1//EN"
 "http://www.w3.org/Graphics/SVG/1.1/DTD/svg11.dtd">
<!-- Generated by graphviz version 2.43.0 (0)
 -->
<!-- Title: %3 Pages: 1 -->
<svg width="533pt" height="419pt"
 viewBox="0.00 0.00 533.00 419.00" xmlns="http://www.w3.org/2000/svg" xmlns:xlink="http://www.w3.org/1999/xlink">
<g id="graph0" class="graph" transform="scale(1 1) rotate(0) translate(4 415)">
<title>%3</title>
<polygon fill="white" stroke="transparent" points="-4,4 -4,-415 529,-415 529,4 -4,4"/>
<g id="clust1" class="cluster">
<title>cluster_left</title>
<polygon fill="none" stroke="black" points="0,-8 0,-244 273,-244 273,-8 0,-8"/>
</g>
<g id="clust2" class="cluster">
<title>cluster_relations</title>
<polygon fill="none" stroke="black" points="8,-16 8,-236 265,-236 265,-16 8,-16"/>
</g>
<g id="clust3" class="cluster">
<title>cluster_rel_0</title>
<path fill="none" stroke="#a6a6a6" stroke-width="1.2" stroke-dasharray="5,2" d="M28,-24C28,-24 245,-24 245,-24 251,-24 257,-30 257,-36 257,-36 257,-216 257,-216 257,-222 251,-228 245,-228 245,-228 28,-228 28,-228 22,-228 16,-222 16,-216 16,-216 16,-36 16,-36 16,-30 22,-24 28,-24"/>
<text text-anchor="middle" x="136.5" y="-216" font-family="Arial" font-size="10.00">PID 1723791 • Relation RTI 1 (public.test1 (26144))</text>
</g>
<!-- plan_1723791_0 -->
<g id="node1" class="node">
<title>plan_1723791_0</title>
<path fill="lightblue" stroke="black" d="M189,-201C189,-201 84,-201 84,-201 78,-201 72,-195 72,-189 72,-189 72,-155 72,-155 72,-149 78,-143 84,-143 84,-143 189,-143 189,-143 195,-143 201,-149 201,-155 201,-155 201,-189 201,-189 201,-195 195,-201 189,-201"/>
<text text-anchor="middle" x="136.5" y="-189.8" font-family="Arial" font-size="9.00">T_SeqScan</text>
<text text-anchor="middle" x="136.5" y="-179.8" font-family="Arial" font-size="9.00">Startup: 0.000</text>
<text text-anchor="middle" x="136.5" y="-169.8" font-family="Arial" font-size="9.00">Total: 15.000</text>
<text text-anchor="middle" x="136.5" y="-159.8" font-family="Arial" font-size="9.00">Rows: 1000</text>
<text text-anchor="middle" x="136.5" y="-149.8" font-family="Arial" font-size="9.00">Parent: public.test1 (26144)</text>
</g>
<!-- plan_1723791_1 -->
<g id="node2" class="node">
<title>plan_1723791_1</title>
<path fill="lightgreen" stroke="black" stroke-width="3" d="M189,-100C189,-100 84,-100 84,-100 78,-100 72,-94 72,-88 72,-88 72,-44 72,-44 72,-38 78,-32 84,-32 84,-32 189,-32 189,-32 195,-32 201,-38 201,-44 201,-44 201,-88 201,-88 201,-94 195,-100 189,-100"/>
<text text-anchor="middle" x="136.5" y="-88.8" font-family="Arial" font-size="9.00">T_IndexOnlyScan</text>
<text text-anchor="middle" x="136.5" y="-78.8" font-family="Arial" font-size="9.00">[CHOSEN]</text>
<text text-anchor="middle" x="136.5" y="-68.8" font-family="Arial" font-size="9.00">Startup: 0.275</text>
<text text-anchor="middle" x="136.5" y="-58.8" font-family="Arial" font-size="9.00">Total: 43.275</text>
<text text-anchor="middle" x="136.5" y="-48.8" font-family="Arial" font-size="9.00">Rows: 1000</text>
<text text-anchor="middle" x="136.5" y="-38.8" font-family="Arial" font-size="9.00">Parent: public.test1 (26144)</text>
</g>
<!-- plan_1723791_0&#45;&gt;plan_1723791_1 -->
<g id="edge1" class="edge">
<title>plan_1723791_0&#45;&gt;plan_1723791_1</title>
<path fill="none" stroke="#7f7f7f" stroke-dasharray="5,2" d="M136.5,-142.9C136.5,-128.72 136.5,-114.54 136.5,-100.37"/>
<text text-anchor="middle" x="131.5" y="-114.43" font-family="Arial" font-size="9.00">alt</text>
</g>
<!-- plan_1723791_3 -->
<g id="node3" class="node">
<title>plan_1723791_3</title>
<path fill="lightblue" stroke="black" d="M513,-201C513,-201 412,-201 412,-201 406,-201 400,-195 400,-189 400,-189 400,-155 400,-155 400,-149 406,-143 412,-143 412,-143 513,-143 513,-143 519,-143 525,-149 525,-155 525,-155 525,-189 525,-189 525,-195 519,-201 513,-201"/>
<text text-anchor="middle" x="462.5" y="-189.8" font-family="Arial" font-size="9.00">T_Sort</text>
<text text-anchor="middle" x="462.5" y="-179.8" font-family="Arial" font-size="9.00">Startup: 64.829</text>
<text text-anchor="middle" x="462.5" y="-169.8" font-family="Arial" font-size="9.00">Total: 67.329</text>
<text text-anchor="middle" x="462.5" y="-159.8" font-family="Arial" font-size="9.00">Rows: 1000</text>
<text text-anchor="middle" x="462.5" y="-149.8" font-family="Arial" font-size="9.00">Outer: public.test1 (26144)</text>
</g>
<!-- plan_1723791_0&#45;&gt;plan_1723791_3 -->
<g id="edge2" class="edge">
<title>plan_1723791_0&#45;&gt;plan_1723791_3</title>
<path fill="none" stroke="#4f94cd" d="M201.13,-172C256.35,-172 336.13,-172 392.8,-172"/>
<polygon fill="#4f94cd" stroke="#4f94cd" points="392.94,-174.45 399.94,-172 392.94,-169.55 392.94,-174.45"/>
<text text-anchor="middle" x="283.4" y="-164.8" font-family="Arial" font-size="9.00">subpath</text>
</g>
<!-- stats -->
<g id="node4" class="node">
<title>stats</title>
<polygon fill="lightyellow" stroke="black" points="207,-300 60,-300 60,-252 213,-252 213,-294 207,-300"/>
<polyline fill="none" stroke="black" points="207,-300 207,-294 "/>
<polyline fill="none" stroke="black" points="213,-294 207,-294 "/>
<text text-anchor="middle" x="136.5" y="-288.8" font-family="Arial" font-size="9.00">Statistics</text>
<text text-anchor="middle" x="136.5" y="-278.8" font-family="Arial" font-size="9.00">Total paths considered: 6</text>
<text text-anchor="middle" x="136.5" y="-268.8" font-family="Arial" font-size="9.00">Cheapest: T_SeqScan (15.00)</text>
<text text-anchor="middle" x="136.5" y="-258.8" font-family="Arial" font-size="9.00">Most expensive: T_Result (67.33)</text>
</g>
<!-- legend -->
<g id="node5" class="node">
<title>legend</title>
<polygon fill="white" stroke="black" points="215,-411 52,-411 52,-343 221,-343 221,-405 215,-411"/>
<polyline fill="none" stroke="black" points="215,-411 215,-405 "/>
<polyline fill="none" stroke="black" points="221,-405 215,-405 "/>
<text text-anchor="middle" x="136.5" y="-399.8" font-family="Arial" font-size="9.00">Legend</text>
<text text-anchor="middle" x="136.5" y="-389.8" font-family="Arial" font-size="9.00">Blue edge: outer/subpath input</text>
<text text-anchor="middle" x="136.5" y="-379.8" font-family="Arial" font-size="9.00">Orange edge: inner input</text>
<text text-anchor="middle" x="136.5" y="-369.8" font-family="Arial" font-size="9.00">Dashed cluster: relation/join group</text>
<text text-anchor="middle" x="136.5" y="-359.8" font-family="Arial" font-size="9.00">Green node: selected plan</text>
<text text-anchor="middle" x="136.5" y="-349.8" font-family="Arial" font-size="9.00">Black edge: relation path progression</text>
</g>
</g>
</svg>
