<?xml version="1.0" encoding="UTF-8" standalone="no"?>
<!DOCTYPE svg PUBLIC "-//W3C//DTD SVG 1.1//EN"
 "http://www.w3.org/Graphics/SVG/1.1/DTD/svg11.dtd">
<!-- Generated by graphviz version 2.43.0 (0)
 -->
<!-- Title: %3 Pages: 1 -->
<svg width="883pt" height="419pt"
 viewBox="0.00 0.00 883.00 419.00" xmlns="http://www.w3.org/2000/svg" xmlns:xlink="http://www.w3.org/1999/xlink">
<g id="graph0" class="graph" transform="scale(1 1) rotate(0) translate(4 415)">
<title>%3</title>
<polygon fill="white" stroke="transparent" points="-4,4 -4,-415 879,-415 879,4 -4,4"/>
<g id="clust1" class="cluster">
<title>cluster_left</title>
<polygon fill="none" stroke="black" points="0,-8 0,-244 273,-244 273,-8 0,-8"/>
</g>
<g id="clust2" class="cluster">
<title>cluster_relations</title>
<polygon fill="none" stroke="black" points="8,-16 8,-236 265,-236 265,-16 8,-16"/>
</g>
<g id="clust3" class="cluster">
<title>cluster_rel_0</title>
<path fill="none" stroke="#a6a6a6" stroke-width="1.2" stroke-dasharray="5,2" d="M28,-24C28,-24 245,-24 245,-24 251,-24 257,-30 257,-36 257,-36 257,-216 257,-216 257,-222 251,-228 245,-228 245,-228 28,-228 28,-228 22,-228 16,-222 16,-216 16,-216 16,-36 16,-36 16,-30 22,-24 28,-24"/>
<text text-anchor="middle" x="136.5" y="-216" font-family="Arial" font-size="10.00">PID 1723791 • Relation RTI 1 (public.test1 (26144))</text>
</g>
<g id="clust4" class="cluster">
<title>cluster_parent_rel_0</title>
<path fill="none" stroke="#8c8c8c" stroke-width="1.2" stroke-dasharray="5,2" d="M404,-118C404,-118 855,-118 855,-118 861,-118 867,-124 867,-130 867,-130 867,-310 867,-310 867,-316 861,-322 855,-322 855,-322 404,-322 404,-322 398,-322 392,-316 392,-310 392,-310 392,-130 392,-130 392,-124 398,-118 404,-118"/>
<text text-anchor="middle" x="629.5" y="-310" font-family="Arial" font-size="10.00">PID 1723791 • Derived relation 187651256160888</text>
</g>
<!-- plan_1723791_0 -->
<g id="node1" class="node">
<title>plan_1723791_0</title>
<path fill="lightgreen" stroke="black" stroke-width="3" d="M189,-201C189,-201 84,-201 84,-201 78,-201 72,-195 72,-189 72,-189 72,-145 72,-145 72,-139 78,-133 84,-133 84,-133 189,-133 189,-133 195,-133 201,-139 201,-145 201,-145 201,-189 201,-189 201,-195 195,-201 189,-201"/>
<text text-anchor="middle" x="136.5" y="-189.8" font-family="Arial" font-size="9.00">T_SeqScan</text>
<text text-anchor="middle" x="136.5" y="-179.8" font-family="Arial" font-size="9.00">[CHOSEN]</text>
<text text-anchor="middle" x="136.5" y="-169.8" font-family="Arial" font-size="9.00">Startup: 0.000</text>
<text text-anchor="middle" x="136.5" y="-159.8" font-family="Arial" font-size="9.00">Total: 15.000</text>
<text text-anchor="middle" x="136.5" y="-149.8" font-family="Arial" font-size="9.00">Rows: 1000</text>
<text text-anchor="middle" x="136.5" y="-139.8" font-family="Arial" font-size="9.00">Parent: public.test1 (26144)</text>
</g>
<!-- plan_1723791_1 -->
<g id="node2" class="node">
<title>plan_1723791_1</title>
<path fill="lightblue" stroke="black" d="M189,-90C189,-90 84,-90 84,-90 78,-90 72,-84 72,-78 72,-78 72,-44 72,-44 72,-38 78,-32 84,-32 84,-32 189,-32 189,-32 195,-32 201,-38 201,-44 201,-44 201,-78 201,-78 201,-84 195,-90 189,-90"/>
<text text-anchor="middle" x="136.5" y="-78.8" font-family="Arial" font-size="9.00">T_IndexOnlyScan</text>
<text text-anchor="middle" x="136.5" y="-68.8" font-family="Arial" font-size="9.00">Startup: 0.275</text>
<text text-anchor="middle" x="136.5" y="-58.8" font-family="Arial" font-size="9.00">Total: 43.275</text>
<text text-anchor="middle" x="136.5" y="-48.8" font-family="Arial" font-size="9.00">Rows: 1000</text>
<text text-anchor="middle" x="136.5" y="-38.8" font-family="Arial" font-size="9.00">Parent: public.test1 (26144)</text>
</g>
<!-- plan_1723791_0&#45;&gt;plan_1723791_1 -->
<g id="edge1" class="edge">
<title>plan_1723791_0&#45;&gt;plan_1723791_1</title>
<path fill="none" stroke="#7f7f7f" stroke-dasharray="5,2" d="M136.5,-132.89C136.5,-118.73 136.5,-104.56 136.5,-90.4"/>
<text text-anchor="middle" x="131.5" y="-104.44" font-family="Arial" font-size="9.00">alt</text>
</g>
<!-- plan_1723791_3 -->
<g id="node4" class="node">
<title>plan_1723791_3</title>
<path fill="lightblue" stroke="black" d="M513,-295C513,-295 412,-295 412,-295 406,-295 400,-289 400,-283 400,-283 400,-249 400,-249 400,-243 406,-237 412,-237 412,-237 513,-237 513,-237 519,-237 525,-243 525,-249 525,-249 525,-283 525,-283 525,-289 519,-295 513,-295"/>
<text text-anchor="middle" x="462.5" y="-283.8" font-family="Arial" font-size="9.00">T_Sort</text>
<text text-anchor="middle" x="462.5" y="-273.8" font-family="Arial" font-size="9.00">Startup: 64.829</text>
<text text-anchor="middle" x="462.5" y="-263.8" font-family="Arial" font-size="9.00">Total: 67.329</text>
<text text-anchor="middle" x="462.5" y="-253.8" font-family="Arial" font-size="9.00">Rows: 1000</text>
<text text-anchor="middle" x="462.5" y="-243.8" font-family="Arial" font-size="9.00">Outer: public.test1 (26144)</text>
</g>
<!-- plan_1723791_0&#45;&gt;plan_1723791_3 -->
<g id="edge3" class="edge">
<title>plan_1723791_0&#45;&gt;plan_1723791_3</title>
<path fill="none" stroke="#4f94cd" d="M201.13,-186.44C256.47,-203.35 336.46,-227.79 393.15,-245.11"/>
<polygon fill="#4f94cd" stroke="#4f94cd" points="392.53,-247.49 399.94,-247.19 393.97,-242.8 392.53,-247.49"/>
<text text-anchor="middle" x="283.62" y="-209.64" font-family="Arial" font-size="9.00">subpath</text>
</g>
<!-- plan_1723791_5 -->
<g id="node6" class="node">
<title>plan_1723791_5</title>
<path fill="lightgreen" stroke="black" stroke-width="3" d="M513,-194C513,-194 412,-194 412,-194 406,-194 400,-188 400,-182 400,-182 400,-138 400,-138 400,-132 406,-126 412,-126 412,-126 513,-126 513,-126 519,-126 525,-132 525,-138 525,-138 525,-182 525,-182 525,-188 519,-194 513,-194"/>
<text text-anchor="middle" x="462.5" y="-182.8" font-family="Arial" font-size="9.00">T_Agg</text>
<text text-anchor="middle" x="462.5" y="-172.8" font-family="Arial" font-size="9.00">[CHOSEN]</text>
<text text-anchor="middle" x="462.5" y="-162.8" font-family="Arial" font-size="9.00">Startup: 20.000</text>
<text text-anchor="middle" x="462.5" y="-152.8" font-family="Arial" font-size="9.00">Total: 30.000</text>
<text text-anchor="middle" x="462.5" y="-142.8" font-family="Arial" font-size="9.00">Rows: 1000</text>
<text text-anchor="middle" x="462.5" y="-132.8" font-family="Arial" font-size="9.00">Outer: public.test1 (26144)</text>
</g>
<!-- plan_1723791_0&#45;&gt;plan_1723791_5 -->
<g id="edge5" class="edge">
<title>plan_1723791_0&#45;&gt;plan_1723791_5</title>
<path fill="none" stroke="#4f94cd" d="M201.13,-165.63C256.35,-164.43 336.13,-162.71 392.8,-161.48"/>
<polygon fill="#4f94cd" stroke="#4f94cd" points="393,-163.93 399.94,-161.33 392.89,-159.03 393,-163.93"/>
<text text-anchor="middle" x="283.4" y="-156.28" font-family="Arial" font-size="9.00">subpath</text>
</g>
<!-- plan_1723791_4 -->
<g id="node5" class="node">
<title>plan_1723791_4</title>
<path fill="lightblue" stroke="black" d="M703,-189C703,-189 602,-189 602,-189 596,-189 590,-183 590,-177 590,-177 590,-143 590,-143 590,-137 596,-131 602,-131 602,-131 703,-131 703,-131 709,-131 715,-137 715,-143 715,-143 715,-177 715,-177 715,-183 709,-189 703,-189"/>
<text text-anchor="middle" x="652.5" y="-177.8" font-family="Arial" font-size="9.00">T_Agg</text>
<text text-anchor="middle" x="652.5" y="-167.8" font-family="Arial" font-size="9.00">Startup: 0.275</text>
<text text-anchor="middle" x="652.5" y="-157.8" font-family="Arial" font-size="9.00">Total: 58.275</text>
<text text-anchor="middle" x="652.5" y="-147.8" font-family="Arial" font-size="9.00">Rows: 1000</text>
<text text-anchor="middle" x="652.5" y="-137.8" font-family="Arial" font-size="9.00">Outer: public.test1 (26144)</text>
</g>
<!-- plan_1723791_1&#45;&gt;plan_1723791_4 -->
<g id="edge4" class="edge">
<title>plan_1723791_1&#45;&gt;plan_1723791_4</title>
<path fill="none" stroke="#4f94cd" d="M201.33,-62.47C279.02,-65.57 413.65,-75.19 525,-105 546.1,-110.65 568.21,-119.25 587.95,-127.99"/>
<polygon fill="#4f94cd" stroke="#4f94cd" points="587.16,-130.32 594.55,-130.95 589.16,-125.85 587.16,-130.32"/>
<text text-anchor="middle" x="383.35" y="-72.95" font-family="Arial" font-size="9.00">subpath</text>
</g>
<!-- plan_1723791_2 -->
<g id="node3" class="node">
<title>plan_1723791_2</title>
<path fill="lightblue" stroke="black" d="M847,-228C847,-228 792,-228 792,-228 786,-228 780,-222 780,-216 780,-216 780,-192 780,-192 780,-186 786,-180 792,-180 792,-180 847,-180 847,-180 853,-180 859,-186 859,-192 859,-192 859,-216 859,-216 859,-222 853,-228 847,-228"/>
<text text-anchor="middle" x="819.5" y="-216.8" font-family="Arial" font-size="9.00">T_Agg</text>
<text text-anchor="middle" x="819.5" y="-206.8" font-family="Arial" font-size="9.00">Startup: 64.829</text>
<text text-anchor="middle" x="819.5" y="-196.8" font-family="Arial" font-size="9.00">Total: 82.329</text>
<text text-anchor="middle" x="819.5" y="-186.8" font-family="Arial" font-size="9.00">Rows: 1000</text>
</g>
<!-- plan_1723791_3&#45;&gt;plan_1723791_2 -->
<g id="edge2" class="edge">
<title>plan_1723791_3&#45;&gt;plan_1723791_2</title>
<path fill="none" stroke="#4f94cd" d="M525.34,-255.2C595.92,-242.87 709.72,-223 772.76,-211.99"/>
<polygon fill="#4f94cd" stroke="#4f94cd" points="773.35,-214.37 779.82,-210.75 772.51,-209.55 773.35,-214.37"/>
<text text-anchor="middle" x="635.41" y="-225.81" font-family="Arial" font-size="9.00">subpath</text>
</g>
<!-- plan_1723791_4&#45;&gt;plan_1723791_2 -->
<!-- plan_1723791_5&#45;&gt;plan_1723791_4 -->
<!-- stats -->
<g id="node7" class="node">
<title>stats</title>
<polygon fill="lightyellow" stroke="black" points="202,-300 65,-300 65,-252 208,-252 208,-294 202,-300"/>
<polyline fill="none" stroke="black" points="202,-300 202,-294 "/>
<polyline fill="none" stroke="black" points="208,-294 202,-294 "/>
<text text-anchor="middle" x="136.5" y="-288.8" font-family="Arial" font-size="9.00">Statistics</text>
<text text-anchor="middle" x="136.5" y="-278.8" font-family="Arial" font-size="9.00">Total paths considered: 6</text>
<text text-anchor="middle" x="136.5" y="-268.8" font-family="Arial" font-size="9.00">Cheapest: T_SeqScan (15.00)</text>
<text text-anchor="middle" x="136.5" y="-258.8" font-family="Arial" font-size="9.00">Most expensive: T_Agg (82.33)</text>
</g>
<!-- legend -->
<g id="node8" class="node">
<title>legend</title>
<polygon fill="white" stroke="black" points="215,-411 52,-411 52,-343 221,-343 221,-405 215,-411"/>
<polyline fill="none" stroke="black" points="215,-411 215,-405 "/>
<polyline fill="none" stroke="black" points="221,-405 215,-405 "/>
<text text-anchor="middle" x="136.5" y="-399.8" font-family="Arial" font-size="9.00">Legend</text>
<text text-anchor="middle" x="136.5" y="-389.8" font-family="Arial" font-size="9.00">Blue edge: outer/subpath input</text>
<text text-anchor="middle" x="136.5" y="-379.8" font-family="Arial" font-size="9.00">Orange edge: inner input</text>
<text text-anchor="middle" x="136.5" y="-369.8" font-family="Arial" font-size="9.00">Dashed cluster: relation/join group</text>
<text text-anchor="middle" x="136.5" y="-359.8" font-family="Arial" font-size="9.00">Green node: selected plan</text>
<text text-anchor="middle" x="136.5" y="-349.8" font-family="Arial" font-size="9.00">Black edge: relation path progression</text>
</g>
</g>
</svg>
