<?xml version="1.0" encoding="UTF-8" standalone="no"?>
<!DOCTYPE svg PUBLIC "-//W3C//DTD SVG 1.1//EN"
 "http://www.w3.org/Graphics/SVG/1.1/DTD/svg11.dtd">
<!-- Generated by graphviz version 2.43.0 (0)
 -->
<!-- Title: %3 Pages: 1 -->
<svg width="281pt" height="520pt"
 viewBox="0.00 0.00 281.00 520.00" xmlns="http://www.w3.org/2000/svg" xmlns:xlink="http://www.w3.org/1999/xlink">
<g id="graph0" class="graph" transform="scale(1 1) rotate(0) translate(4 516)">
<title>%3</title>
<polygon fill="white" stroke="transparent" points="-4,4 -4,-516 277,-516 277,4 -4,4"/>
<g id="clust1" class="cluster">
<title>cluster_left</title>
<polygon fill="none" stroke="black" points="0,-8 0,-345 273,-345 273,-8 0,-8"/>
</g>
<g id="clust2" class="cluster">
<title>cluster_relations</title>
<polygon fill="none" stroke="black" points="8,-16 8,-337 265,-337 265,-16 8,-16"/>
</g>
<g id="clust3" class="cluster">
<title>cluster_rel_0</title>
<path fill="none" stroke="#a6a6a6" stroke-width="1.2" stroke-dasharray="5,2" d="M28,-24C28,-24 245,-24 245,-24 251,-24 257,-30 257,-36 257,-36 257,-317 257,-317 257,-323 251,-329 245,-329 245,-329 28,-329 28,-329 22,-329 16,-323 16,-317 16,-317 16,-36 16,-36 16,-30 22,-24 28,-24"/>
<text text-anchor="middle" x="136.5" y="-317" font-family="Arial" font-size="10.00">PID 3917080 • Relation RTI 1 (public.test1 (26144))</text>
</g>
<!-- plan_all_0 -->
<g id="node1" class="node">
<title>plan_all_0</title>
<path fill="lightgreen" stroke="black" stroke-width="3" d="M189,-302C189,-302 84,-302 84,-302 78,-302 72,-296 72,-290 72,-290 72,-246 72,-246 72,-240 78,-234 84,-234 84,-234 189,-234 189,-234 195,-234 201,-240 201,-246 201,-246 201,-290 201,-290 201,-296 195,-302 189,-302"/>
<text text-anchor="middle" x="136.5" y="-290.8" font-family="Arial" font-size="9.00">T_SeqScan</text>
<text text-anchor="middle" x="136.5" y="-280.8" font-family="Arial" font-size="9.00">[CHOSEN]</text>
<text text-anchor="middle" x="136.5" y="-270.8" font-family="Arial" font-size="9.00">Startup: 0.00</text>
<text text-anchor="middle" x="136.5" y="-260.8" font-family="Arial" font-size="9.00">Total: 15.00</text>
<text text-anchor="middle" x="136.5" y="-250.8" font-family="Arial" font-size="9.00">Rows: 1000</text>
<text text-anchor="middle" x="136.5" y="-240.8" font-family="Arial" font-size="9.00">Parent: public.test1 (26144)</text>
</g>
<!-- plan_all_1 -->
<g id="node2" class="node">
<title>plan_all_1</title>
<path fill="lightblue" stroke="black" d="M189,-191C189,-191 84,-191 84,-191 78,-191 72,-185 72,-179 72,-179 72,-145 72,-145 72,-139 78,-133 84,-133 84,-133 189,-133 189,-133 195,-133 201,-139 201,-145 201,-145 201,-179 201,-179 201,-185 195,-191 189,-191"/>
<text text-anchor="middle" x="136.5" y="-179.8" font-family="Arial" font-size="9.00">T_IndexOnlyScan</text>
<text text-anchor="middle" x="136.5" y="-169.8" font-family="Arial" font-size="9.00">Startup: 0.28</text>
<text text-anchor="middle" x="136.5" y="-159.8" font-family="Arial" font-size="9.00">Total: 43.27</text>
<text text-anchor="middle" x="136.5" y="-149.8" font-family="Arial" font-size="9.00">Rows: 1000</text>
<text text-anchor="middle" x="136.5" y="-139.8" font-family="Arial" font-size="9.00">Parent: public.test1 (26144)</text>
</g>
<!-- plan_all_0&#45;&gt;plan_all_1 -->
<g id="edge1" class="edge">
<title>plan_all_0&#45;&gt;plan_all_1</title>
<path fill="none" stroke="#7f7f7f" stroke-dasharray="5,2" d="M136.5,-233.89C136.5,-219.73 136.5,-205.56 136.5,-191.4"/>
<text text-anchor="middle" x="131.5" y="-205.44" font-family="Arial" font-size="9.00">alt</text>
</g>
<!-- plan_all_2 -->
<g id="node3" class="node">
<title>plan_all_2</title>
<path fill="lightblue" stroke="black" d="M189,-90C189,-90 84,-90 84,-90 78,-90 72,-84 72,-78 72,-78 72,-44 72,-44 72,-38 78,-32 84,-32 84,-32 189,-32 189,-32 195,-32 201,-38 201,-44 201,-44 201,-78 201,-78 201,-84 195,-90 189,-90"/>
<text text-anchor="middle" x="136.5" y="-78.8" font-family="Arial" font-size="9.00">T_BitmapHeapScan</text>
<text text-anchor="middle" x="136.5" y="-68.8" font-family="Arial" font-size="9.00">Startup: 25.52</text>
<text text-anchor="middle" x="136.5" y="-58.8" font-family="Arial" font-size="9.00">Total: 40.52</text>
<text text-anchor="middle" x="136.5" y="-48.8" font-family="Arial" font-size="9.00">Rows: 1000</text>
<text text-anchor="middle" x="136.5" y="-38.8" font-family="Arial" font-size="9.00">Parent: public.test1 (26144)</text>
</g>
<!-- plan_all_1&#45;&gt;plan_all_2 -->
<g id="edge2" class="edge">
<title>plan_all_1&#45;&gt;plan_all_2</title>
<path fill="none" stroke="#7f7f7f" stroke-dasharray="5,2" d="M136.5,-132.83C136.5,-118.62 136.5,-104.41 136.5,-90.2"/>
<text text-anchor="middle" x="131.5" y="-104.31" font-family="Arial" font-size="9.00">alt</text>
</g>
<!-- stats -->
<g id="node4" class="node">
<title>stats</title>
<polygon fill="lightyellow" stroke="black" points="225,-401 42,-401 42,-353 231,-353 231,-395 225,-401"/>
<polyline fill="none" stroke="black" points="225,-401 225,-395 "/>
<polyline fill="none" stroke="black" points="231,-395 225,-395 "/>
<text text-anchor="middle" x="136.5" y="-389.8" font-family="Arial" font-size="9.00">Statistics</text>
<text text-anchor="middle" x="136.5" y="-379.8" font-family="Arial" font-size="9.00">Total paths considered: 4</text>
<text text-anchor="middle" x="136.5" y="-369.8" font-family="Arial" font-size="9.00">Cheapest: T_SeqScan (15.00)</text>
<text text-anchor="middle" x="136.5" y="-359.8" font-family="Arial" font-size="9.00">Most expensive: T_IndexOnlyScan (43.27)</text>
</g>
<!-- legend -->
<g id="node5" class="node">
<title>legend</title>
<polygon fill="white" stroke="black" points="235.5,-512 31.5,-512 31.5,-444 241.5,-444 241.5,-506 235.5,-512"/>
<polyline fill="none" stroke="black" points="235.5,-512 235.5,-506 "/>
<polyline fill="none" stroke="black" points="241.5,-506 235.5,-506 "/>
<text text-anchor="middle" x="136.5" y="-500.8" font-family="Arial" font-size="9.00">Legend</text>
<text text-anchor="middle" x="136.5" y="-490.8" font-family="Arial" font-size="9.00">Blue edge: outer input</text>
<text text-anchor="middle" x="136.5" y="-480.8" font-family="Arial" font-size="9.00">Orange edge: inner input</text>
<text text-anchor="middle" x="136.5" y="-470.8" font-family="Arial" font-size="9.00">Dashed cluster: relation/join group</text>
<text text-anchor="middle" x="136.5" y="-460.8" font-family="Arial" font-size="9.00">Green node: selected plan</text>
<text text-anchor="middle" x="136.5" y="-450.8" font-family="Arial" font-size="9.00">Dashed edge (alt): next alternative for same RTI</text>
</g>
</g>
</svg>
