<?xml version="1.0" encoding="UTF-8" standalone="no"?>
<!DOCTYPE svg PUBLIC "-//W3C//DTD SVG 1.1//EN"
 "http://www.w3.org/Graphics/SVG/1.1/DTD/svg11.dtd">
<!-- Generated by graphviz version 2.43.0 (0)
 -->
<!-- Title: %3 Pages: 1 -->
<svg width="1470pt" height="1332pt"
 viewBox="0.00 0.00 1470.00 1332.09" xmlns="http://www.w3.org/2000/svg" xmlns:xlink="http://www.w3.org/1999/xlink">
<g id="graph0" class="graph" transform="scale(1 1) rotate(0) translate(4 1328.09)">
<title>%3</title>
<polygon fill="white" stroke="transparent" points="-4,4 -4,-1328.09 1466,-1328.09 1466,4 -4,4"/>
<g id="clust1" class="cluster">
<title>cluster_rel_0</title>
<path fill="none" stroke="#a6a6a6" stroke-width="1.2" stroke-dasharray="5,2" d="M16,-704C16,-704 195,-704 195,-704 201,-704 207,-710 207,-716 207,-716 207,-896 207,-896 207,-902 201,-908 195,-908 195,-908 16,-908 16,-908 10,-908 4,-902 4,-896 4,-896 4,-716 4,-716 4,-710 10,-704 16,-704"/>
<text text-anchor="middle" x="105.5" y="-896" font-family="Arial" font-size="10.00">PID 2561512 • Relation RTI 1 (OID 17945)</text>
</g>
<g id="clust2" class="cluster">
<title>cluster_rel_1</title>
<path fill="none" stroke="#a6a6a6" stroke-width="1.2" stroke-dasharray="5,2" d="M279,-502C279,-502 458,-502 458,-502 464,-502 470,-508 470,-514 470,-514 470,-896 470,-896 470,-902 464,-908 458,-908 458,-908 279,-908 279,-908 273,-908 267,-902 267,-896 267,-896 267,-514 267,-514 267,-508 273,-502 279,-502"/>
<text text-anchor="middle" x="368.5" y="-896" font-family="Arial" font-size="10.00">PID 2561512 • Relation RTI 2 (OID 17945)</text>
</g>
<g id="clust3" class="cluster">
<title>cluster_join_0</title>
<path fill="none" stroke="#6e7b8b" stroke-width="1.2" stroke-dasharray="5,2" d="M597,-763C597,-763 1289,-763 1289,-763 1295,-763 1301,-769 1301,-775 1301,-775 1301,-975 1301,-975 1301,-981 1295,-987 1289,-987 1289,-987 597,-987 597,-987 591,-987 585,-981 585,-975 585,-975 585,-775 585,-775 585,-769 591,-763 597,-763"/>
<text text-anchor="middle" x="943" y="-975" font-family="Arial" font-size="10.00">PID 2561512 • JOIN_LEFT (outer: RTI 1, inner: RTI 2)</text>
</g>
<g id="clust4" class="cluster">
<title>cluster_join_1</title>
<path fill="none" stroke="#6e7b8b" stroke-width="1.2" stroke-dasharray="5,2" d="M750,-454C750,-454 1442,-454 1442,-454 1448,-454 1454,-460 1454,-466 1454,-466 1454,-656 1454,-656 1454,-662 1448,-668 1442,-668 1442,-668 750,-668 750,-668 744,-668 738,-662 738,-656 738,-656 738,-466 738,-466 738,-460 744,-454 750,-454"/>
<text text-anchor="middle" x="1096" y="-656" font-family="Arial" font-size="10.00">PID 2561512 • JOIN_RIGHT (outer: RTI 2, inner: RTI 1)</text>
</g>
<!-- plan_all_0 -->
<g id="node1" class="node">
<title>plan_all_0</title>
<path fill="lightblue" stroke="black" d="M139,-881C139,-881 71,-881 71,-881 65,-881 59,-875 59,-869 59,-869 59,-835 59,-835 59,-829 65,-823 71,-823 71,-823 139,-823 139,-823 145,-823 151,-829 151,-835 151,-835 151,-869 151,-869 151,-875 145,-881 139,-881"/>
<text text-anchor="middle" x="105" y="-869.8" font-family="Arial" font-size="9.00">T_SeqScan</text>
<text text-anchor="middle" x="105" y="-859.8" font-family="Arial" font-size="9.00">Startup: 0.00</text>
<text text-anchor="middle" x="105" y="-849.8" font-family="Arial" font-size="9.00">Total: 35.50</text>
<text text-anchor="middle" x="105" y="-839.8" font-family="Arial" font-size="9.00">Rows: 2550</text>
<text text-anchor="middle" x="105" y="-829.8" font-family="Arial" font-size="9.00">Parent OID: 17945</text>
</g>
<!-- plan_all_1 -->
<g id="node2" class="node">
<title>plan_all_1</title>
<path fill="lightgreen" stroke="black" stroke-width="3" d="M139,-780C139,-780 71,-780 71,-780 65,-780 59,-774 59,-768 59,-768 59,-724 59,-724 59,-718 65,-712 71,-712 71,-712 139,-712 139,-712 145,-712 151,-718 151,-724 151,-724 151,-768 151,-768 151,-774 145,-780 139,-780"/>
<text text-anchor="middle" x="105" y="-768.8" font-family="Arial" font-size="9.00">T_IndexOnlyScan</text>
<text text-anchor="middle" x="105" y="-758.8" font-family="Arial" font-size="9.00">[CHOSEN]</text>
<text text-anchor="middle" x="105" y="-748.8" font-family="Arial" font-size="9.00">Startup: 0.15</text>
<text text-anchor="middle" x="105" y="-738.8" font-family="Arial" font-size="9.00">Total: 82.41</text>
<text text-anchor="middle" x="105" y="-728.8" font-family="Arial" font-size="9.00">Rows: 2550</text>
<text text-anchor="middle" x="105" y="-718.8" font-family="Arial" font-size="9.00">Parent OID: 17945</text>
</g>
<!-- plan_all_0&#45;&gt;plan_all_1 -->
<g id="edge1" class="edge">
<title>plan_all_0&#45;&gt;plan_all_1</title>
<path fill="none" stroke="#7f7f7f" stroke-dasharray="5,2" d="M105,-822.9C105,-811.16 105,-799.42 105,-787.68"/>
<polygon fill="#7f7f7f" stroke="#7f7f7f" points="107.45,-787.37 105,-780.37 102.55,-787.37 107.45,-787.37"/>
<text text-anchor="middle" x="100" y="-794.24" font-family="Arial" font-size="9.00">alt</text>
</g>
<!-- plan_all_2 -->
<g id="node3" class="node">
<title>plan_all_2</title>
<path fill="lightblue" stroke="black" d="M402.5,-881C402.5,-881 334.5,-881 334.5,-881 328.5,-881 322.5,-875 322.5,-869 322.5,-869 322.5,-835 322.5,-835 322.5,-829 328.5,-823 334.5,-823 334.5,-823 402.5,-823 402.5,-823 408.5,-823 414.5,-829 414.5,-835 414.5,-835 414.5,-869 414.5,-869 414.5,-875 408.5,-881 402.5,-881"/>
<text text-anchor="middle" x="368.5" y="-869.8" font-family="Arial" font-size="9.00">T_SeqScan</text>
<text text-anchor="middle" x="368.5" y="-859.8" font-family="Arial" font-size="9.00">Startup: 0.00</text>
<text text-anchor="middle" x="368.5" y="-849.8" font-family="Arial" font-size="9.00">Total: 35.50</text>
<text text-anchor="middle" x="368.5" y="-839.8" font-family="Arial" font-size="9.00">Rows: 2550</text>
<text text-anchor="middle" x="368.5" y="-829.8" font-family="Arial" font-size="9.00">Parent OID: 17945</text>
</g>
<!-- plan_all_0&#45;&gt;plan_all_2 -->
<!-- plan_all_3 -->
<g id="node4" class="node">
<title>plan_all_3</title>
<path fill="lightgreen" stroke="black" stroke-width="3" d="M402.5,-780C402.5,-780 334.5,-780 334.5,-780 328.5,-780 322.5,-774 322.5,-768 322.5,-768 322.5,-724 322.5,-724 322.5,-718 328.5,-712 334.5,-712 334.5,-712 402.5,-712 402.5,-712 408.5,-712 414.5,-718 414.5,-724 414.5,-724 414.5,-768 414.5,-768 414.5,-774 408.5,-780 402.5,-780"/>
<text text-anchor="middle" x="368.5" y="-768.8" font-family="Arial" font-size="9.00">T_IndexOnlyScan</text>
<text text-anchor="middle" x="368.5" y="-758.8" font-family="Arial" font-size="9.00">[CHOSEN]</text>
<text text-anchor="middle" x="368.5" y="-748.8" font-family="Arial" font-size="9.00">Startup: 0.15</text>
<text text-anchor="middle" x="368.5" y="-738.8" font-family="Arial" font-size="9.00">Total: 82.41</text>
<text text-anchor="middle" x="368.5" y="-728.8" font-family="Arial" font-size="9.00">Rows: 2550</text>
<text text-anchor="middle" x="368.5" y="-718.8" font-family="Arial" font-size="9.00">Parent OID: 17945</text>
</g>
<!-- plan_all_1&#45;&gt;plan_all_3 -->
<!-- plan_all_6 -->
<g id="node7" class="node">
<title>plan_all_6</title>
<path fill="lightblue" stroke="black" d="M1281,-899C1281,-899 1217,-899 1217,-899 1211,-899 1205,-893 1205,-887 1205,-887 1205,-843 1205,-843 1205,-837 1211,-831 1217,-831 1217,-831 1281,-831 1281,-831 1287,-831 1293,-837 1293,-843 1293,-843 1293,-887 1293,-887 1293,-893 1287,-899 1281,-899"/>
<text text-anchor="middle" x="1249" y="-887.8" font-family="Arial" font-size="9.00">T_MergeJoin</text>
<text text-anchor="middle" x="1249" y="-877.8" font-family="Arial" font-size="9.00">Startup: 359.57</text>
<text text-anchor="middle" x="1249" y="-867.8" font-family="Arial" font-size="9.00">Total: 860.00</text>
<text text-anchor="middle" x="1249" y="-857.8" font-family="Arial" font-size="9.00">Rows: 32512</text>
<text text-anchor="middle" x="1249" y="-847.8" font-family="Arial" font-size="9.00">Outer OID: 17945</text>
<text text-anchor="middle" x="1249" y="-837.8" font-family="Arial" font-size="9.00">Inner OID: 17945</text>
</g>
<!-- plan_all_1&#45;&gt;plan_all_6 -->
<g id="edge5" class="edge">
<title>plan_all_1&#45;&gt;plan_all_6</title>
<path fill="none" stroke="#4f94cd" d="M151.03,-759.77C172.15,-768.53 195.76,-782.06 210,-802 300.56,-928.84 181.39,-1017.77 267,-1148 342.44,-1262.76 389.66,-1315 527,-1315 527,-1315 527,-1315 944,-1315 1031.87,-1315 1074.32,-1347.38 1140,-1289 1197.47,-1237.92 1231.58,-1002.5 1243.34,-906.21"/>
<polygon fill="#4f94cd" stroke="#4f94cd" points="1245.78,-906.49 1244.18,-899.25 1240.91,-905.91 1245.78,-906.49"/>
<text text-anchor="middle" x="256.07" y="-884.07" font-family="Arial" font-size="9.00">outer</text>
</g>
<!-- plan_all_7 -->
<g id="node8" class="node">
<title>plan_all_7</title>
<path fill="lightblue" stroke="black" d="M975,-839C975,-839 911,-839 911,-839 905,-839 899,-833 899,-827 899,-827 899,-783 899,-783 899,-777 905,-771 911,-771 911,-771 975,-771 975,-771 981,-771 987,-777 987,-783 987,-783 987,-827 987,-827 987,-833 981,-839 975,-839"/>
<text text-anchor="middle" x="943" y="-827.8" font-family="Arial" font-size="9.00">T_MergeJoin</text>
<text text-anchor="middle" x="943" y="-817.8" font-family="Arial" font-size="9.00">Startup: 179.94</text>
<text text-anchor="middle" x="943" y="-807.8" font-family="Arial" font-size="9.00">Total: 756.24</text>
<text text-anchor="middle" x="943" y="-797.8" font-family="Arial" font-size="9.00">Rows: 32512</text>
<text text-anchor="middle" x="943" y="-787.8" font-family="Arial" font-size="9.00">Outer OID: 17945</text>
<text text-anchor="middle" x="943" y="-777.8" font-family="Arial" font-size="9.00">Inner OID: 17945</text>
</g>
<!-- plan_all_1&#45;&gt;plan_all_7 -->
<g id="edge7" class="edge">
<title>plan_all_1&#45;&gt;plan_all_7</title>
<path fill="none" stroke="#4f94cd" d="M151.23,-760.87C171.88,-769.78 195.02,-783.13 210,-802 270.13,-877.75 214.71,-930.65 267,-1012 348.23,-1138.37 376.77,-1228 527,-1228 527,-1228 527,-1228 638,-1228 725.87,-1228 767.85,-1259.85 834,-1202 887.86,-1154.9 923.56,-938.42 936.54,-846.48"/>
<polygon fill="#4f94cd" stroke="#4f94cd" points="939,-846.56 937.54,-839.29 934.15,-845.89 939,-846.56"/>
<text text-anchor="middle" x="227.09" y="-853.45" font-family="Arial" font-size="9.00">outer</text>
</g>
<!-- plan_all_8 -->
<g id="node9" class="node">
<title>plan_all_8</title>
<path fill="lightgreen" stroke="black" stroke-width="3" d="M669,-960C669,-960 605,-960 605,-960 599,-960 593,-954 593,-948 593,-948 593,-894 593,-894 593,-888 599,-882 605,-882 605,-882 669,-882 669,-882 675,-882 681,-888 681,-894 681,-894 681,-948 681,-948 681,-954 675,-960 669,-960"/>
<text text-anchor="middle" x="637" y="-948.8" font-family="Arial" font-size="9.00">T_MergeJoin</text>
<text text-anchor="middle" x="637" y="-938.8" font-family="Arial" font-size="9.00">[CHOSEN]</text>
<text text-anchor="middle" x="637" y="-928.8" font-family="Arial" font-size="9.00">Startup: 0.31</text>
<text text-anchor="middle" x="637" y="-918.8" font-family="Arial" font-size="9.00">Total: 658.87</text>
<text text-anchor="middle" x="637" y="-908.8" font-family="Arial" font-size="9.00">Rows: 32512</text>
<text text-anchor="middle" x="637" y="-898.8" font-family="Arial" font-size="9.00">Outer OID: 17945</text>
<text text-anchor="middle" x="637" y="-888.8" font-family="Arial" font-size="9.00">Inner OID: 17945</text>
</g>
<!-- plan_all_1&#45;&gt;plan_all_8 -->
<g id="edge9" class="edge">
<title>plan_all_1&#45;&gt;plan_all_8</title>
<path fill="none" stroke="#4f94cd" d="M151.16,-761.59C171.54,-770.62 194.47,-783.85 210,-802 259.61,-860 204.71,-919.89 267,-964 363.18,-1032.12 510.06,-981.08 586.26,-946.29"/>
<polygon fill="#4f94cd" stroke="#4f94cd" points="587.64,-948.35 592.96,-943.19 585.58,-943.9 587.64,-948.35"/>
<text text-anchor="middle" x="222.75" y="-881.01" font-family="Arial" font-size="9.00">outer</text>
</g>
<!-- plan_all_9 -->
<g id="node10" class="node">
<title>plan_all_9</title>
<path fill="lightblue" stroke="black" d="M669,-839C669,-839 605,-839 605,-839 599,-839 593,-833 593,-827 593,-827 593,-783 593,-783 593,-777 599,-771 605,-771 605,-771 669,-771 669,-771 675,-771 681,-777 681,-783 681,-783 681,-827 681,-827 681,-833 675,-839 669,-839"/>
<text text-anchor="middle" x="637" y="-827.8" font-family="Arial" font-size="9.00">T_HashJoin</text>
<text text-anchor="middle" x="637" y="-817.8" font-family="Arial" font-size="9.00">Startup: 67.38</text>
<text text-anchor="middle" x="637" y="-807.8" font-family="Arial" font-size="9.00">Total: 1247.18</text>
<text text-anchor="middle" x="637" y="-797.8" font-family="Arial" font-size="9.00">Rows: 32512</text>
<text text-anchor="middle" x="637" y="-787.8" font-family="Arial" font-size="9.00">Outer OID: 17945</text>
<text text-anchor="middle" x="637" y="-777.8" font-family="Arial" font-size="9.00">Inner OID: 17945</text>
</g>
<!-- plan_all_1&#45;&gt;plan_all_9 -->
<g id="edge11" class="edge">
<title>plan_all_1&#45;&gt;plan_all_9</title>
<path fill="none" stroke="#4f94cd" d="M151,-762.8C170.99,-771.99 193.64,-785.02 210,-802 249.86,-843.37 218.24,-887.63 267,-918 343.58,-965.7 383.78,-944.56 470,-918 517.24,-903.45 563.08,-870.35 594.57,-843.71"/>
<polygon fill="#4f94cd" stroke="#4f94cd" points="596.17,-845.57 599.89,-839.16 592.98,-841.85 596.17,-845.57"/>
<text text-anchor="middle" x="224.16" y="-866.93" font-family="Arial" font-size="9.00">outer</text>
</g>
<!-- plan_all_10 -->
<g id="node11" class="node">
<title>plan_all_10</title>
<path fill="lightblue" stroke="black" d="M1434,-530C1434,-530 1370,-530 1370,-530 1364,-530 1358,-524 1358,-518 1358,-518 1358,-474 1358,-474 1358,-468 1364,-462 1370,-462 1370,-462 1434,-462 1434,-462 1440,-462 1446,-468 1446,-474 1446,-474 1446,-518 1446,-518 1446,-524 1440,-530 1434,-530"/>
<text text-anchor="middle" x="1402" y="-518.8" font-family="Arial" font-size="9.00">T_MergeJoin</text>
<text text-anchor="middle" x="1402" y="-508.8" font-family="Arial" font-size="9.00">Startup: 359.57</text>
<text text-anchor="middle" x="1402" y="-498.8" font-family="Arial" font-size="9.00">Total: 860.00</text>
<text text-anchor="middle" x="1402" y="-488.8" font-family="Arial" font-size="9.00">Rows: 32512</text>
<text text-anchor="middle" x="1402" y="-478.8" font-family="Arial" font-size="9.00">Outer OID: 17945</text>
<text text-anchor="middle" x="1402" y="-468.8" font-family="Arial" font-size="9.00">Inner OID: 17945</text>
</g>
<!-- plan_all_1&#45;&gt;plan_all_10 -->
<g id="edge14" class="edge">
<title>plan_all_1&#45;&gt;plan_all_10</title>
<path fill="none" stroke="#cd6600" d="M110.05,-711.6C124.96,-590.39 180.48,-185.54 267,-93 349.84,-4.39 405.7,-10 527,-10 527,-10 527,-10 1097,-10 1306.1,-10 1376.74,-337.35 1395.35,-454.73"/>
<polygon fill="#cd6600" stroke="#cd6600" points="1392.96,-455.28 1396.45,-461.83 1397.8,-454.53 1392.96,-455.28"/>
<text text-anchor="middle" x="587.25" y="-2.8" font-family="Arial" font-size="9.00">inner</text>
</g>
<!-- plan_all_11 -->
<g id="node12" class="node">
<title>plan_all_11</title>
<path fill="lightblue" stroke="black" d="M1128,-585C1128,-585 1064,-585 1064,-585 1058,-585 1052,-579 1052,-573 1052,-573 1052,-529 1052,-529 1052,-523 1058,-517 1064,-517 1064,-517 1128,-517 1128,-517 1134,-517 1140,-523 1140,-529 1140,-529 1140,-573 1140,-573 1140,-579 1134,-585 1128,-585"/>
<text text-anchor="middle" x="1096" y="-573.8" font-family="Arial" font-size="9.00">T_MergeJoin</text>
<text text-anchor="middle" x="1096" y="-563.8" font-family="Arial" font-size="9.00">Startup: 179.94</text>
<text text-anchor="middle" x="1096" y="-553.8" font-family="Arial" font-size="9.00">Total: 756.24</text>
<text text-anchor="middle" x="1096" y="-543.8" font-family="Arial" font-size="9.00">Rows: 32512</text>
<text text-anchor="middle" x="1096" y="-533.8" font-family="Arial" font-size="9.00">Outer OID: 17945</text>
<text text-anchor="middle" x="1096" y="-523.8" font-family="Arial" font-size="9.00">Inner OID: 17945</text>
</g>
<!-- plan_all_1&#45;&gt;plan_all_11 -->
<g id="edge16" class="edge">
<title>plan_all_1&#45;&gt;plan_all_11</title>
<path fill="none" stroke="#cd6600" d="M111.03,-711.57C132.76,-577.39 231.2,-97 527,-97 527,-97 527,-97 791,-97 988.71,-97 1065.99,-397.93 1087.89,-509.79"/>
<polygon fill="#cd6600" stroke="#cd6600" points="1085.52,-510.46 1089.25,-516.88 1090.34,-509.54 1085.52,-510.46"/>
<text text-anchor="middle" x="159.18" y="-462.72" font-family="Arial" font-size="9.00">inner</text>
</g>
<!-- plan_all_12 -->
<g id="node13" class="node">
<title>plan_all_12</title>
<path fill="lightblue" stroke="black" d="M822,-641C822,-641 758,-641 758,-641 752,-641 746,-635 746,-629 746,-629 746,-585 746,-585 746,-579 752,-573 758,-573 758,-573 822,-573 822,-573 828,-573 834,-579 834,-585 834,-585 834,-629 834,-629 834,-635 828,-641 822,-641"/>
<text text-anchor="middle" x="790" y="-629.8" font-family="Arial" font-size="9.00">T_MergeJoin</text>
<text text-anchor="middle" x="790" y="-619.8" font-family="Arial" font-size="9.00">Startup: 0.31</text>
<text text-anchor="middle" x="790" y="-609.8" font-family="Arial" font-size="9.00">Total: 658.87</text>
<text text-anchor="middle" x="790" y="-599.8" font-family="Arial" font-size="9.00">Rows: 32512</text>
<text text-anchor="middle" x="790" y="-589.8" font-family="Arial" font-size="9.00">Outer OID: 17945</text>
<text text-anchor="middle" x="790" y="-579.8" font-family="Arial" font-size="9.00">Inner OID: 17945</text>
</g>
<!-- plan_all_1&#45;&gt;plan_all_12 -->
<g id="edge18" class="edge">
<title>plan_all_1&#45;&gt;plan_all_12</title>
<path fill="none" stroke="#cd6600" d="M115.84,-711.77C134.48,-654.12 181,-539.31 267,-492 424.73,-405.23 643.16,-516 739.72,-574.75"/>
<polygon fill="#cd6600" stroke="#cd6600" points="738.65,-576.97 745.9,-578.55 741.22,-572.8 738.65,-576.97"/>
<text text-anchor="middle" x="444.74" y="-456.69" font-family="Arial" font-size="9.00">inner</text>
</g>
<!-- plan_all_13 -->
<g id="node14" class="node">
<title>plan_all_13</title>
<path fill="lightblue" stroke="black" d="M822,-530C822,-530 758,-530 758,-530 752,-530 746,-524 746,-518 746,-518 746,-474 746,-474 746,-468 752,-462 758,-462 758,-462 822,-462 822,-462 828,-462 834,-468 834,-474 834,-474 834,-518 834,-518 834,-524 828,-530 822,-530"/>
<text text-anchor="middle" x="790" y="-518.8" font-family="Arial" font-size="9.00">T_HashJoin</text>
<text text-anchor="middle" x="790" y="-508.8" font-family="Arial" font-size="9.00">Startup: 67.38</text>
<text text-anchor="middle" x="790" y="-498.8" font-family="Arial" font-size="9.00">Total: 1247.18</text>
<text text-anchor="middle" x="790" y="-488.8" font-family="Arial" font-size="9.00">Rows: 32512</text>
<text text-anchor="middle" x="790" y="-478.8" font-family="Arial" font-size="9.00">Outer OID: 17945</text>
<text text-anchor="middle" x="790" y="-468.8" font-family="Arial" font-size="9.00">Inner OID: 17945</text>
</g>
<!-- plan_all_1&#45;&gt;plan_all_13 -->
<g id="edge20" class="edge">
<title>plan_all_1&#45;&gt;plan_all_13</title>
<path fill="none" stroke="#cd6600" d="M112.67,-711.92C127.4,-647.03 169.49,-507.06 267,-449 418.9,-358.56 640.89,-432.47 739.1,-473.36"/>
<polygon fill="#cd6600" stroke="#cd6600" points="738.27,-475.66 745.67,-476.12 740.17,-471.15 738.27,-475.66"/>
<text text-anchor="middle" x="409.4" y="-399.3" font-family="Arial" font-size="9.00">inner</text>
</g>
<!-- plan_all_2&#45;&gt;plan_all_3 -->
<g id="edge2" class="edge">
<title>plan_all_2&#45;&gt;plan_all_3</title>
<path fill="none" stroke="#7f7f7f" stroke-dasharray="5,2" d="M368.5,-822.9C368.5,-811.16 368.5,-799.42 368.5,-787.68"/>
<polygon fill="#7f7f7f" stroke="#7f7f7f" points="370.95,-787.37 368.5,-780.37 366.05,-787.37 370.95,-787.37"/>
<text text-anchor="middle" x="363.5" y="-794.24" font-family="Arial" font-size="9.00">alt</text>
</g>
<!-- plan_all_4 -->
<g id="node5" class="node">
<title>plan_all_4</title>
<path fill="lightblue" stroke="black" d="M402.5,-669C402.5,-669 334.5,-669 334.5,-669 328.5,-669 322.5,-663 322.5,-657 322.5,-657 322.5,-623 322.5,-623 322.5,-617 328.5,-611 334.5,-611 334.5,-611 402.5,-611 402.5,-611 408.5,-611 414.5,-617 414.5,-623 414.5,-623 414.5,-657 414.5,-657 414.5,-663 408.5,-669 402.5,-669"/>
<text text-anchor="middle" x="368.5" y="-657.8" font-family="Arial" font-size="9.00">T_IndexOnlyScan</text>
<text text-anchor="middle" x="368.5" y="-647.8" font-family="Arial" font-size="9.00">Startup: 0.15</text>
<text text-anchor="middle" x="368.5" y="-637.8" font-family="Arial" font-size="9.00">Total: 0.40</text>
<text text-anchor="middle" x="368.5" y="-627.8" font-family="Arial" font-size="9.00">Rows: 13</text>
<text text-anchor="middle" x="368.5" y="-617.8" font-family="Arial" font-size="9.00">Parent OID: 17945</text>
</g>
<!-- plan_all_3&#45;&gt;plan_all_4 -->
<g id="edge3" class="edge">
<title>plan_all_3&#45;&gt;plan_all_4</title>
<path fill="none" stroke="#7f7f7f" stroke-dasharray="5,2" d="M368.5,-711.89C368.5,-700.16 368.5,-688.43 368.5,-676.7"/>
<polygon fill="#7f7f7f" stroke="#7f7f7f" points="370.95,-676.4 368.5,-669.4 366.05,-676.4 370.95,-676.4"/>
<text text-anchor="middle" x="363.5" y="-683.25" font-family="Arial" font-size="9.00">alt</text>
</g>
<!-- plan_all_3&#45;&gt;plan_all_6 -->
<g id="edge6" class="edge">
<title>plan_all_3&#45;&gt;plan_all_6</title>
<path fill="none" stroke="#cd6600" d="M414.51,-763.81C433.45,-773.02 454.61,-785.77 470,-802 585.44,-923.73 468.24,-1141 636,-1141 636,-1141 636,-1141 944,-1141 1031.87,-1141 1069.91,-1168 1140,-1115 1207.09,-1064.27 1233.09,-963.33 1242.71,-906.45"/>
<polygon fill="#cd6600" stroke="#cd6600" points="1245.15,-906.7 1243.86,-899.4 1240.31,-905.92 1245.15,-906.7"/>
<text text-anchor="middle" x="510.05" y="-899.14" font-family="Arial" font-size="9.00">inner</text>
</g>
<!-- plan_all_3&#45;&gt;plan_all_7 -->
<g id="edge8" class="edge">
<title>plan_all_3&#45;&gt;plan_all_7</title>
<path fill="none" stroke="#cd6600" d="M414.55,-743.84C475.27,-741.55 586.66,-739.56 681,-750 755.22,-758.22 839.5,-777.91 891.72,-791.35"/>
<polygon fill="#cd6600" stroke="#cd6600" points="891.16,-793.74 898.55,-793.13 892.39,-789 891.16,-793.74"/>
<text text-anchor="middle" x="670.01" y="-742.8" font-family="Arial" font-size="9.00">inner</text>
</g>
<!-- plan_all_3&#45;&gt;plan_all_8 -->
<g id="edge10" class="edge">
<title>plan_all_3&#45;&gt;plan_all_8</title>
<path fill="none" stroke="#cd6600" d="M414.66,-769.74C432.2,-779.33 452.29,-790.77 470,-802 510.45,-827.65 554.44,-859.37 586.96,-883.61"/>
<polygon fill="#cd6600" stroke="#cd6600" points="585.82,-885.82 592.9,-888.04 588.76,-881.89 585.82,-885.82"/>
<text text-anchor="middle" x="495.09" y="-818.57" font-family="Arial" font-size="9.00">inner</text>
</g>
<!-- plan_all_3&#45;&gt;plan_all_9 -->
<g id="edge12" class="edge">
<title>plan_all_3&#45;&gt;plan_all_9</title>
<path fill="none" stroke="#cd6600" d="M414.71,-756.01C462.12,-766.51 536.46,-782.96 585.7,-793.87"/>
<polygon fill="#cd6600" stroke="#cd6600" points="585.42,-796.31 592.78,-795.43 586.48,-791.53 585.42,-796.31"/>
<text text-anchor="middle" x="492.84" y="-768.54" font-family="Arial" font-size="9.00">inner</text>
</g>
<!-- plan_all_3&#45;&gt;plan_all_10 -->
<g id="edge13" class="edge">
<title>plan_all_3&#45;&gt;plan_all_10</title>
<path fill="none" stroke="#4f94cd" d="M414.59,-730.1C434,-721.26 455.51,-708.44 470,-691 621.52,-508.62 398.9,-184 636,-184 636,-184 636,-184 1097,-184 1246.66,-184 1346.6,-370.43 1384.25,-455.07"/>
<polygon fill="#4f94cd" stroke="#4f94cd" points="1382.12,-456.3 1387.18,-461.72 1386.6,-454.32 1382.12,-456.3"/>
<text text-anchor="middle" x="513.84" y="-545.32" font-family="Arial" font-size="9.00">outer</text>
</g>
<!-- plan_all_3&#45;&gt;plan_all_11 -->
<g id="edge15" class="edge">
<title>plan_all_3&#45;&gt;plan_all_11</title>
<path fill="none" stroke="#4f94cd" d="M414.71,-728.49C433.57,-719.47 454.62,-706.98 470,-691 584.67,-571.85 470.63,-358 636,-358 636,-358 636,-358 791,-358 904.55,-358 1010.01,-455.16 1061.7,-511.61"/>
<polygon fill="#4f94cd" stroke="#4f94cd" points="1060.01,-513.4 1066.53,-516.94 1063.64,-510.11 1060.01,-513.4"/>
<text text-anchor="middle" x="511.74" y="-573.29" font-family="Arial" font-size="9.00">outer</text>
</g>
<!-- plan_all_3&#45;&gt;plan_all_12 -->
<g id="edge17" class="edge">
<title>plan_all_3&#45;&gt;plan_all_12</title>
<path fill="none" stroke="#4f94cd" d="M414.78,-722.68C445.79,-707.38 488.16,-687.72 527,-674 599.02,-648.56 685.32,-628.39 738.66,-617.07"/>
<polygon fill="#4f94cd" stroke="#4f94cd" points="739.3,-619.44 745.64,-615.6 738.29,-614.65 739.3,-619.44"/>
<text text-anchor="middle" x="565.71" y="-650.63" font-family="Arial" font-size="9.00">outer</text>
</g>
<!-- plan_all_3&#45;&gt;plan_all_13 -->
<g id="edge19" class="edge">
<title>plan_all_3&#45;&gt;plan_all_13</title>
<path fill="none" stroke="#4f94cd" d="M414.81,-721.86C432.18,-712.43 452.12,-701.4 470,-691 521.92,-660.79 533.78,-651.38 585,-620 637.78,-587.67 698.4,-550.86 739.75,-525.8"/>
<polygon fill="#4f94cd" stroke="#4f94cd" points="741.25,-527.76 745.97,-522.04 738.71,-523.57 741.25,-527.76"/>
<text text-anchor="middle" x="574.04" y="-612.78" font-family="Arial" font-size="9.00">outer</text>
</g>
<!-- plan_all_4&#45;&gt;plan_all_1 -->
<!-- plan_all_5 -->
<g id="node6" class="node">
<title>plan_all_5</title>
<path fill="lightblue" stroke="black" d="M406,-568C406,-568 331,-568 331,-568 325,-568 319,-562 319,-556 319,-556 319,-522 319,-522 319,-516 325,-510 331,-510 331,-510 406,-510 406,-510 412,-510 418,-516 418,-522 418,-522 418,-556 418,-556 418,-562 412,-568 406,-568"/>
<text text-anchor="middle" x="368.5" y="-556.8" font-family="Arial" font-size="9.00">T_BitmapHeapScan</text>
<text text-anchor="middle" x="368.5" y="-546.8" font-family="Arial" font-size="9.00">Startup: 0.26</text>
<text text-anchor="middle" x="368.5" y="-536.8" font-family="Arial" font-size="9.00">Total: 4.42</text>
<text text-anchor="middle" x="368.5" y="-526.8" font-family="Arial" font-size="9.00">Rows: 13</text>
<text text-anchor="middle" x="368.5" y="-516.8" font-family="Arial" font-size="9.00">Parent OID: 17945</text>
</g>
<!-- plan_all_4&#45;&gt;plan_all_5 -->
<g id="edge4" class="edge">
<title>plan_all_4&#45;&gt;plan_all_5</title>
<path fill="none" stroke="#7f7f7f" stroke-dasharray="5,2" d="M368.5,-610.83C368.5,-599.06 368.5,-587.29 368.5,-575.52"/>
<polygon fill="#7f7f7f" stroke="#7f7f7f" points="370.95,-575.2 368.5,-568.2 366.05,-575.2 370.95,-575.2"/>
<text text-anchor="middle" x="363.5" y="-582.11" font-family="Arial" font-size="9.00">alt</text>
</g>
<!-- plan_all_6&#45;&gt;plan_all_10 -->
<!-- plan_all_7&#45;&gt;plan_all_11 -->
<!-- plan_all_8&#45;&gt;plan_all_12 -->
<!-- plan_all_9&#45;&gt;plan_all_13 -->
<!-- plan_all_11&#45;&gt;plan_all_6 -->
<!-- plan_all_12&#45;&gt;plan_all_7 -->
<!-- stats -->
<g id="node15" class="node">
<title>stats</title>
<polygon fill="lightyellow" stroke="black" points="187,-972 17,-972 17,-924 193,-924 193,-966 187,-972"/>
<polyline fill="none" stroke="black" points="187,-972 187,-966 "/>
<polyline fill="none" stroke="black" points="193,-966 187,-966 "/>
<text text-anchor="middle" x="105" y="-960.8" font-family="Arial" font-size="9.00">Statistics</text>
<text text-anchor="middle" x="105" y="-950.8" font-family="Arial" font-size="9.00">Total plans considered: 14</text>
<text text-anchor="middle" x="105" y="-940.8" font-family="Arial" font-size="9.00">Cheapest: T_IndexOnlyScan (0.40)</text>
<text text-anchor="middle" x="105" y="-930.8" font-family="Arial" font-size="9.00">Most expensive: T_HashJoin (1247.18)</text>
</g>
<!-- legend -->
<g id="node16" class="node">
<title>legend</title>
<polygon fill="white" stroke="black" points="204,-1083 0,-1083 0,-1015 210,-1015 210,-1077 204,-1083"/>
<polyline fill="none" stroke="black" points="204,-1083 204,-1077 "/>
<polyline fill="none" stroke="black" points="210,-1077 204,-1077 "/>
<text text-anchor="middle" x="105" y="-1071.8" font-family="Arial" font-size="9.00">Legend</text>
<text text-anchor="middle" x="105" y="-1061.8" font-family="Arial" font-size="9.00">Blue edge: outer input</text>
<text text-anchor="middle" x="105" y="-1051.8" font-family="Arial" font-size="9.00">Orange edge: inner input</text>
<text text-anchor="middle" x="105" y="-1041.8" font-family="Arial" font-size="9.00">Dashed cluster: relation/join group</text>
<text text-anchor="middle" x="105" y="-1031.8" font-family="Arial" font-size="9.00">Green node: selected plan</text>
<text text-anchor="middle" x="105" y="-1021.8" font-family="Arial" font-size="9.00">Dashed edge (alt): next alternative for same RTI</text>
</g>
</g>
</svg>
