<?xml version="1.0" encoding="UTF-8" standalone="no"?>
<!DOCTYPE svg PUBLIC "-//W3C//DTD SVG 1.1//EN"
 "http://www.w3.org/Graphics/SVG/1.1/DTD/svg11.dtd">
<!-- Generated by graphviz version 2.43.0 (0)
 -->
<!-- Title: %3 Pages: 1 -->
<svg width="1317pt" height="1420pt"
 viewBox="0.00 0.00 1317.04 1419.78" xmlns="http://www.w3.org/2000/svg" xmlns:xlink="http://www.w3.org/1999/xlink">
<g id="graph0" class="graph" transform="scale(1 1) rotate(0) translate(4 1415.78)">
<title>%3</title>
<polygon fill="white" stroke="transparent" points="-4,4 -4,-1415.78 1313.04,-1415.78 1313.04,4 -4,4"/>
<g id="clust1" class="cluster">
<title>cluster_left</title>
<polygon fill="none" stroke="black" points="61.54,-243 61.54,-893 297.04,-893 297.04,-243 61.54,-243"/>
</g>
<g id="clust2" class="cluster">
<title>cluster_relations</title>
<polygon fill="none" stroke="black" points="69.54,-251 69.54,-885 289.04,-885 289.04,-251 69.54,-251"/>
</g>
<g id="clust3" class="cluster">
<title>cluster_rel_0</title>
<path fill="none" stroke="#a6a6a6" stroke-width="1.2" stroke-dasharray="5,2" d="M90.04,-673C90.04,-673 269.04,-673 269.04,-673 275.04,-673 281.04,-679 281.04,-685 281.04,-685 281.04,-865 281.04,-865 281.04,-871 275.04,-877 269.04,-877 269.04,-877 90.04,-877 90.04,-877 84.04,-877 78.04,-871 78.04,-865 78.04,-865 78.04,-685 78.04,-685 78.04,-679 84.04,-673 90.04,-673"/>
<text text-anchor="middle" x="179.54" y="-865" font-family="Arial" font-size="10.00">PID 2561512 • Relation RTI 1 (OID 17945)</text>
</g>
<g id="clust4" class="cluster">
<title>cluster_rel_1</title>
<path fill="none" stroke="#a6a6a6" stroke-width="1.2" stroke-dasharray="5,2" d="M89.54,-259C89.54,-259 268.54,-259 268.54,-259 274.54,-259 280.54,-265 280.54,-271 280.54,-271 280.54,-653 280.54,-653 280.54,-659 274.54,-665 268.54,-665 268.54,-665 89.54,-665 89.54,-665 83.54,-665 77.54,-659 77.54,-653 77.54,-653 77.54,-271 77.54,-271 77.54,-265 83.54,-259 89.54,-259"/>
<text text-anchor="middle" x="179.04" y="-653" font-family="Arial" font-size="10.00">PID 2561512 • Relation RTI 2 (OID 17945)</text>
</g>
<g id="clust5" class="cluster">
<title>cluster_join_0</title>
<path fill="none" stroke="#6e7b8b" stroke-width="1.2" stroke-dasharray="5,2" d="M444.04,-695C444.04,-695 1136.04,-695 1136.04,-695 1142.04,-695 1148.04,-701 1148.04,-707 1148.04,-707 1148.04,-907 1148.04,-907 1148.04,-913 1142.04,-919 1136.04,-919 1136.04,-919 444.04,-919 444.04,-919 438.04,-919 432.04,-913 432.04,-907 432.04,-907 432.04,-707 432.04,-707 432.04,-701 438.04,-695 444.04,-695"/>
<text text-anchor="middle" x="790.04" y="-907" font-family="Arial" font-size="10.00">PID 2561512 • JOIN_LEFT (outer: RTI 1, inner: RTI 2)</text>
</g>
<g id="clust6" class="cluster">
<title>cluster_join_1</title>
<path fill="none" stroke="#6e7b8b" stroke-width="1.2" stroke-dasharray="5,2" d="M597.04,-1006C597.04,-1006 1289.04,-1006 1289.04,-1006 1295.04,-1006 1301.04,-1012 1301.04,-1018 1301.04,-1018 1301.04,-1208 1301.04,-1208 1301.04,-1214 1295.04,-1220 1289.04,-1220 1289.04,-1220 597.04,-1220 597.04,-1220 591.04,-1220 585.04,-1214 585.04,-1208 585.04,-1208 585.04,-1018 585.04,-1018 585.04,-1012 591.04,-1006 597.04,-1006"/>
<text text-anchor="middle" x="943.04" y="-1208" font-family="Arial" font-size="10.00">PID 2561512 • JOIN_RIGHT (outer: RTI 2, inner: RTI 1)</text>
</g>
<!-- plan_all_0 -->
<g id="node1" class="node">
<title>plan_all_0</title>
<path fill="lightblue" stroke="black" d="M213.04,-850C213.04,-850 145.04,-850 145.04,-850 139.04,-850 133.04,-844 133.04,-838 133.04,-838 133.04,-804 133.04,-804 133.04,-798 139.04,-792 145.04,-792 145.04,-792 213.04,-792 213.04,-792 219.04,-792 225.04,-798 225.04,-804 225.04,-804 225.04,-838 225.04,-838 225.04,-844 219.04,-850 213.04,-850"/>
<text text-anchor="middle" x="179.04" y="-838.8" font-family="Arial" font-size="9.00">T_SeqScan</text>
<text text-anchor="middle" x="179.04" y="-828.8" font-family="Arial" font-size="9.00">Startup: 0.00</text>
<text text-anchor="middle" x="179.04" y="-818.8" font-family="Arial" font-size="9.00">Total: 35.50</text>
<text text-anchor="middle" x="179.04" y="-808.8" font-family="Arial" font-size="9.00">Rows: 2550</text>
<text text-anchor="middle" x="179.04" y="-798.8" font-family="Arial" font-size="9.00">Parent OID: 17945</text>
</g>
<!-- plan_all_1 -->
<g id="node2" class="node">
<title>plan_all_1</title>
<path fill="lightgreen" stroke="black" stroke-width="3" d="M213.04,-749C213.04,-749 145.04,-749 145.04,-749 139.04,-749 133.04,-743 133.04,-737 133.04,-737 133.04,-693 133.04,-693 133.04,-687 139.04,-681 145.04,-681 145.04,-681 213.04,-681 213.04,-681 219.04,-681 225.04,-687 225.04,-693 225.04,-693 225.04,-737 225.04,-737 225.04,-743 219.04,-749 213.04,-749"/>
<text text-anchor="middle" x="179.04" y="-737.8" font-family="Arial" font-size="9.00">T_IndexOnlyScan</text>
<text text-anchor="middle" x="179.04" y="-727.8" font-family="Arial" font-size="9.00">[CHOSEN]</text>
<text text-anchor="middle" x="179.04" y="-717.8" font-family="Arial" font-size="9.00">Startup: 0.15</text>
<text text-anchor="middle" x="179.04" y="-707.8" font-family="Arial" font-size="9.00">Total: 82.41</text>
<text text-anchor="middle" x="179.04" y="-697.8" font-family="Arial" font-size="9.00">Rows: 2550</text>
<text text-anchor="middle" x="179.04" y="-687.8" font-family="Arial" font-size="9.00">Parent OID: 17945</text>
</g>
<!-- plan_all_0&#45;&gt;plan_all_1 -->
<g id="edge1" class="edge">
<title>plan_all_0&#45;&gt;plan_all_1</title>
<path fill="none" stroke="#7f7f7f" stroke-dasharray="5,2" d="M179.04,-791.9C179.04,-777.72 179.04,-763.54 179.04,-749.37"/>
<text text-anchor="middle" x="174.04" y="-763.43" font-family="Arial" font-size="9.00">alt</text>
</g>
<!-- plan_all_2 -->
<g id="node3" class="node">
<title>plan_all_2</title>
<path fill="lightblue" stroke="black" d="M213.04,-638C213.04,-638 145.04,-638 145.04,-638 139.04,-638 133.04,-632 133.04,-626 133.04,-626 133.04,-592 133.04,-592 133.04,-586 139.04,-580 145.04,-580 145.04,-580 213.04,-580 213.04,-580 219.04,-580 225.04,-586 225.04,-592 225.04,-592 225.04,-626 225.04,-626 225.04,-632 219.04,-638 213.04,-638"/>
<text text-anchor="middle" x="179.04" y="-626.8" font-family="Arial" font-size="9.00">T_SeqScan</text>
<text text-anchor="middle" x="179.04" y="-616.8" font-family="Arial" font-size="9.00">Startup: 0.00</text>
<text text-anchor="middle" x="179.04" y="-606.8" font-family="Arial" font-size="9.00">Total: 35.50</text>
<text text-anchor="middle" x="179.04" y="-596.8" font-family="Arial" font-size="9.00">Rows: 2550</text>
<text text-anchor="middle" x="179.04" y="-586.8" font-family="Arial" font-size="9.00">Parent OID: 17945</text>
</g>
<!-- plan_all_0&#45;&gt;plan_all_2 -->
<!-- plan_all_3 -->
<g id="node4" class="node">
<title>plan_all_3</title>
<path fill="lightgreen" stroke="black" stroke-width="3" d="M213.04,-537C213.04,-537 145.04,-537 145.04,-537 139.04,-537 133.04,-531 133.04,-525 133.04,-525 133.04,-481 133.04,-481 133.04,-475 139.04,-469 145.04,-469 145.04,-469 213.04,-469 213.04,-469 219.04,-469 225.04,-475 225.04,-481 225.04,-481 225.04,-525 225.04,-525 225.04,-531 219.04,-537 213.04,-537"/>
<text text-anchor="middle" x="179.04" y="-525.8" font-family="Arial" font-size="9.00">T_IndexOnlyScan</text>
<text text-anchor="middle" x="179.04" y="-515.8" font-family="Arial" font-size="9.00">[CHOSEN]</text>
<text text-anchor="middle" x="179.04" y="-505.8" font-family="Arial" font-size="9.00">Startup: 0.15</text>
<text text-anchor="middle" x="179.04" y="-495.8" font-family="Arial" font-size="9.00">Total: 82.41</text>
<text text-anchor="middle" x="179.04" y="-485.8" font-family="Arial" font-size="9.00">Rows: 2550</text>
<text text-anchor="middle" x="179.04" y="-475.8" font-family="Arial" font-size="9.00">Parent OID: 17945</text>
</g>
<!-- plan_all_1&#45;&gt;plan_all_3 -->
<!-- plan_all_6 -->
<g id="node7" class="node">
<title>plan_all_6</title>
<path fill="lightblue" stroke="black" d="M1128.04,-831C1128.04,-831 1064.04,-831 1064.04,-831 1058.04,-831 1052.04,-825 1052.04,-819 1052.04,-819 1052.04,-775 1052.04,-775 1052.04,-769 1058.04,-763 1064.04,-763 1064.04,-763 1128.04,-763 1128.04,-763 1134.04,-763 1140.04,-769 1140.04,-775 1140.04,-775 1140.04,-819 1140.04,-819 1140.04,-825 1134.04,-831 1128.04,-831"/>
<text text-anchor="middle" x="1096.04" y="-819.8" font-family="Arial" font-size="9.00">T_MergeJoin</text>
<text text-anchor="middle" x="1096.04" y="-809.8" font-family="Arial" font-size="9.00">Startup: 359.57</text>
<text text-anchor="middle" x="1096.04" y="-799.8" font-family="Arial" font-size="9.00">Total: 860.00</text>
<text text-anchor="middle" x="1096.04" y="-789.8" font-family="Arial" font-size="9.00">Rows: 32512</text>
<text text-anchor="middle" x="1096.04" y="-779.8" font-family="Arial" font-size="9.00">Outer OID: 17945</text>
<text text-anchor="middle" x="1096.04" y="-769.8" font-family="Arial" font-size="9.00">Inner OID: 17945</text>
</g>
<!-- plan_all_1&#45;&gt;plan_all_6 -->
<g id="edge5" class="edge">
<title>plan_all_1&#45;&gt;plan_all_6</title>
<path fill="none" stroke="#4f94cd" d="M225.12,-699.84C246.89,-692.45 273.36,-683.38 297.04,-675 448.28,-621.49 475.61,-551 636.04,-551 636.04,-551 636.04,-551 791.04,-551 920.21,-551 1025.29,-686.88 1070.74,-756.66"/>
<polygon fill="#4f94cd" stroke="#4f94cd" points="1068.85,-758.24 1074.7,-762.79 1072.96,-755.58 1068.85,-758.24"/>
<text text-anchor="middle" x="638.72" y="-543.8" font-family="Arial" font-size="9.00">outer</text>
</g>
<!-- plan_all_7 -->
<g id="node8" class="node">
<title>plan_all_7</title>
<path fill="lightblue" stroke="black" d="M822.04,-827C822.04,-827 758.04,-827 758.04,-827 752.04,-827 746.04,-821 746.04,-815 746.04,-815 746.04,-771 746.04,-771 746.04,-765 752.04,-759 758.04,-759 758.04,-759 822.04,-759 822.04,-759 828.04,-759 834.04,-765 834.04,-771 834.04,-771 834.04,-815 834.04,-815 834.04,-821 828.04,-827 822.04,-827"/>
<text text-anchor="middle" x="790.04" y="-815.8" font-family="Arial" font-size="9.00">T_MergeJoin</text>
<text text-anchor="middle" x="790.04" y="-805.8" font-family="Arial" font-size="9.00">Startup: 179.94</text>
<text text-anchor="middle" x="790.04" y="-795.8" font-family="Arial" font-size="9.00">Total: 756.24</text>
<text text-anchor="middle" x="790.04" y="-785.8" font-family="Arial" font-size="9.00">Rows: 32512</text>
<text text-anchor="middle" x="790.04" y="-775.8" font-family="Arial" font-size="9.00">Outer OID: 17945</text>
<text text-anchor="middle" x="790.04" y="-765.8" font-family="Arial" font-size="9.00">Inner OID: 17945</text>
</g>
<!-- plan_all_1&#45;&gt;plan_all_7 -->
<g id="edge7" class="edge">
<title>plan_all_1&#45;&gt;plan_all_7</title>
<path fill="none" stroke="#4f94cd" d="M225.07,-718.87C264.37,-722.05 322.92,-726.29 374.04,-728 406.92,-729.1 401.01,-692.96 432.04,-682 472.27,-667.79 486.23,-673.48 528.04,-682 605.54,-697.8 688.54,-737.47 739.62,-764.84"/>
<polygon fill="#4f94cd" stroke="#4f94cd" points="738.68,-767.11 746,-768.28 741,-762.8 738.68,-767.11"/>
<text text-anchor="middle" x="486.46" y="-668.53" font-family="Arial" font-size="9.00">outer</text>
</g>
<!-- plan_all_8 -->
<g id="node9" class="node">
<title>plan_all_8</title>
<path fill="lightgreen" stroke="black" stroke-width="3" d="M516.04,-892C516.04,-892 452.04,-892 452.04,-892 446.04,-892 440.04,-886 440.04,-880 440.04,-880 440.04,-826 440.04,-826 440.04,-820 446.04,-814 452.04,-814 452.04,-814 516.04,-814 516.04,-814 522.04,-814 528.04,-820 528.04,-826 528.04,-826 528.04,-880 528.04,-880 528.04,-886 522.04,-892 516.04,-892"/>
<text text-anchor="middle" x="484.04" y="-880.8" font-family="Arial" font-size="9.00">T_MergeJoin</text>
<text text-anchor="middle" x="484.04" y="-870.8" font-family="Arial" font-size="9.00">[CHOSEN]</text>
<text text-anchor="middle" x="484.04" y="-860.8" font-family="Arial" font-size="9.00">Startup: 0.31</text>
<text text-anchor="middle" x="484.04" y="-850.8" font-family="Arial" font-size="9.00">Total: 658.87</text>
<text text-anchor="middle" x="484.04" y="-840.8" font-family="Arial" font-size="9.00">Rows: 32512</text>
<text text-anchor="middle" x="484.04" y="-830.8" font-family="Arial" font-size="9.00">Outer OID: 17945</text>
<text text-anchor="middle" x="484.04" y="-820.8" font-family="Arial" font-size="9.00">Inner OID: 17945</text>
</g>
<!-- plan_all_1&#45;&gt;plan_all_8 -->
<g id="edge9" class="edge">
<title>plan_all_1&#45;&gt;plan_all_8</title>
<path fill="none" stroke="#4f94cd" d="M225.3,-732.47C247.84,-742.19 274.93,-755.46 297.04,-771 336.38,-798.65 330.07,-827.53 374.04,-847 392.17,-855.03 413.69,-857.5 432.8,-857.61"/>
<polygon fill="#4f94cd" stroke="#4f94cd" points="433.01,-860.06 439.99,-857.54 432.97,-855.16 433.01,-860.06"/>
<text text-anchor="middle" x="314.77" y="-792.96" font-family="Arial" font-size="9.00">outer</text>
</g>
<!-- plan_all_9 -->
<g id="node10" class="node">
<title>plan_all_9</title>
<path fill="lightblue" stroke="black" d="M516.04,-771C516.04,-771 452.04,-771 452.04,-771 446.04,-771 440.04,-765 440.04,-759 440.04,-759 440.04,-715 440.04,-715 440.04,-709 446.04,-703 452.04,-703 452.04,-703 516.04,-703 516.04,-703 522.04,-703 528.04,-709 528.04,-715 528.04,-715 528.04,-759 528.04,-759 528.04,-765 522.04,-771 516.04,-771"/>
<text text-anchor="middle" x="484.04" y="-759.8" font-family="Arial" font-size="9.00">T_HashJoin</text>
<text text-anchor="middle" x="484.04" y="-749.8" font-family="Arial" font-size="9.00">Startup: 67.38</text>
<text text-anchor="middle" x="484.04" y="-739.8" font-family="Arial" font-size="9.00">Total: 1247.18</text>
<text text-anchor="middle" x="484.04" y="-729.8" font-family="Arial" font-size="9.00">Rows: 32512</text>
<text text-anchor="middle" x="484.04" y="-719.8" font-family="Arial" font-size="9.00">Outer OID: 17945</text>
<text text-anchor="middle" x="484.04" y="-709.8" font-family="Arial" font-size="9.00">Inner OID: 17945</text>
</g>
<!-- plan_all_1&#45;&gt;plan_all_9 -->
<g id="edge11" class="edge">
<title>plan_all_1&#45;&gt;plan_all_9</title>
<path fill="none" stroke="#4f94cd" d="M225.14,-735.65C247.03,-745.91 273.6,-758.72 297.04,-771 331.95,-789.3 335.94,-804.88 374.04,-815 389.09,-819 418.21,-797.48 442.56,-776.05"/>
<polygon fill="#4f94cd" stroke="#4f94cd" points="444.41,-777.68 448,-771.19 441.15,-774.03 444.41,-777.68"/>
<text text-anchor="middle" x="307.47" y="-777" font-family="Arial" font-size="9.00">outer</text>
</g>
<!-- plan_all_10 -->
<g id="node11" class="node">
<title>plan_all_10</title>
<path fill="lightblue" stroke="black" d="M1281.04,-1082C1281.04,-1082 1217.04,-1082 1217.04,-1082 1211.04,-1082 1205.04,-1076 1205.04,-1070 1205.04,-1070 1205.04,-1026 1205.04,-1026 1205.04,-1020 1211.04,-1014 1217.04,-1014 1217.04,-1014 1281.04,-1014 1281.04,-1014 1287.04,-1014 1293.04,-1020 1293.04,-1026 1293.04,-1026 1293.04,-1070 1293.04,-1070 1293.04,-1076 1287.04,-1082 1281.04,-1082"/>
<text text-anchor="middle" x="1249.04" y="-1070.8" font-family="Arial" font-size="9.00">T_MergeJoin</text>
<text text-anchor="middle" x="1249.04" y="-1060.8" font-family="Arial" font-size="9.00">Startup: 359.57</text>
<text text-anchor="middle" x="1249.04" y="-1050.8" font-family="Arial" font-size="9.00">Total: 860.00</text>
<text text-anchor="middle" x="1249.04" y="-1040.8" font-family="Arial" font-size="9.00">Rows: 32512</text>
<text text-anchor="middle" x="1249.04" y="-1030.8" font-family="Arial" font-size="9.00">Outer OID: 17945</text>
<text text-anchor="middle" x="1249.04" y="-1020.8" font-family="Arial" font-size="9.00">Inner OID: 17945</text>
</g>
<!-- plan_all_1&#45;&gt;plan_all_10 -->
<g id="edge14" class="edge">
<title>plan_all_1&#45;&gt;plan_all_10</title>
<path fill="none" stroke="#cd6600" d="M225.15,-704.08C247.66,-697.53 274.76,-687.93 297.04,-675 366.21,-634.85 359,-588.61 432.04,-556 595.87,-482.86 657.46,-487.18 834.04,-519 989.39,-547 1056.03,-556.73 1148.04,-685 1219.96,-785.27 1240.19,-935.04 1245.85,-1006.79"/>
<polygon fill="#cd6600" stroke="#cd6600" points="1243.42,-1007.1 1246.38,-1013.9 1248.3,-1006.73 1243.42,-1007.1"/>
<text text-anchor="middle" x="823.04" y="-511.8" font-family="Arial" font-size="9.00">inner</text>
</g>
<!-- plan_all_11 -->
<g id="node12" class="node">
<title>plan_all_11</title>
<path fill="lightblue" stroke="black" d="M975.04,-1082C975.04,-1082 911.04,-1082 911.04,-1082 905.04,-1082 899.04,-1076 899.04,-1070 899.04,-1070 899.04,-1026 899.04,-1026 899.04,-1020 905.04,-1014 911.04,-1014 911.04,-1014 975.04,-1014 975.04,-1014 981.04,-1014 987.04,-1020 987.04,-1026 987.04,-1026 987.04,-1070 987.04,-1070 987.04,-1076 981.04,-1082 975.04,-1082"/>
<text text-anchor="middle" x="943.04" y="-1070.8" font-family="Arial" font-size="9.00">T_MergeJoin</text>
<text text-anchor="middle" x="943.04" y="-1060.8" font-family="Arial" font-size="9.00">Startup: 179.94</text>
<text text-anchor="middle" x="943.04" y="-1050.8" font-family="Arial" font-size="9.00">Total: 756.24</text>
<text text-anchor="middle" x="943.04" y="-1040.8" font-family="Arial" font-size="9.00">Rows: 32512</text>
<text text-anchor="middle" x="943.04" y="-1030.8" font-family="Arial" font-size="9.00">Outer OID: 17945</text>
<text text-anchor="middle" x="943.04" y="-1020.8" font-family="Arial" font-size="9.00">Inner OID: 17945</text>
</g>
<!-- plan_all_1&#45;&gt;plan_all_11 -->
<g id="edge16" class="edge">
<title>plan_all_1&#45;&gt;plan_all_11</title>
<path fill="none" stroke="#cd6600" d="M225.08,-730.32C248.22,-739.67 275.92,-753.25 297.04,-771 367.75,-830.43 349.7,-887.14 432.04,-929 587.65,-1008.11 796.71,-1035.49 891.52,-1044.24"/>
<polygon fill="#cd6600" stroke="#cd6600" points="891.51,-1046.7 898.7,-1044.89 891.95,-1041.82 891.51,-1046.7"/>
<text text-anchor="middle" x="521.57" y="-964.06" font-family="Arial" font-size="9.00">inner</text>
</g>
<!-- plan_all_12 -->
<g id="node13" class="node">
<title>plan_all_12</title>
<path fill="lightblue" stroke="black" d="M669.04,-1193C669.04,-1193 605.04,-1193 605.04,-1193 599.04,-1193 593.04,-1187 593.04,-1181 593.04,-1181 593.04,-1137 593.04,-1137 593.04,-1131 599.04,-1125 605.04,-1125 605.04,-1125 669.04,-1125 669.04,-1125 675.04,-1125 681.04,-1131 681.04,-1137 681.04,-1137 681.04,-1181 681.04,-1181 681.04,-1187 675.04,-1193 669.04,-1193"/>
<text text-anchor="middle" x="637.04" y="-1181.8" font-family="Arial" font-size="9.00">T_MergeJoin</text>
<text text-anchor="middle" x="637.04" y="-1171.8" font-family="Arial" font-size="9.00">Startup: 0.31</text>
<text text-anchor="middle" x="637.04" y="-1161.8" font-family="Arial" font-size="9.00">Total: 658.87</text>
<text text-anchor="middle" x="637.04" y="-1151.8" font-family="Arial" font-size="9.00">Rows: 32512</text>
<text text-anchor="middle" x="637.04" y="-1141.8" font-family="Arial" font-size="9.00">Outer OID: 17945</text>
<text text-anchor="middle" x="637.04" y="-1131.8" font-family="Arial" font-size="9.00">Inner OID: 17945</text>
</g>
<!-- plan_all_1&#45;&gt;plan_all_12 -->
<g id="edge18" class="edge">
<title>plan_all_1&#45;&gt;plan_all_12</title>
<path fill="none" stroke="#cd6600" d="M225.13,-725.72C250.07,-733.98 279.48,-748 297.04,-771 413.25,-923.24 241.4,-1056.83 374.04,-1195 428.34,-1251.56 526.79,-1216.64 586.32,-1187.12"/>
<polygon fill="#cd6600" stroke="#cd6600" points="587.52,-1189.26 592.66,-1183.92 585.31,-1184.88 587.52,-1189.26"/>
<text text-anchor="middle" x="325.35" y="-937.53" font-family="Arial" font-size="9.00">inner</text>
</g>
<!-- plan_all_13 -->
<g id="node14" class="node">
<title>plan_all_13</title>
<path fill="lightblue" stroke="black" d="M669.04,-1082C669.04,-1082 605.04,-1082 605.04,-1082 599.04,-1082 593.04,-1076 593.04,-1070 593.04,-1070 593.04,-1026 593.04,-1026 593.04,-1020 599.04,-1014 605.04,-1014 605.04,-1014 669.04,-1014 669.04,-1014 675.04,-1014 681.04,-1020 681.04,-1026 681.04,-1026 681.04,-1070 681.04,-1070 681.04,-1076 675.04,-1082 669.04,-1082"/>
<text text-anchor="middle" x="637.04" y="-1070.8" font-family="Arial" font-size="9.00">T_HashJoin</text>
<text text-anchor="middle" x="637.04" y="-1060.8" font-family="Arial" font-size="9.00">Startup: 67.38</text>
<text text-anchor="middle" x="637.04" y="-1050.8" font-family="Arial" font-size="9.00">Total: 1247.18</text>
<text text-anchor="middle" x="637.04" y="-1040.8" font-family="Arial" font-size="9.00">Rows: 32512</text>
<text text-anchor="middle" x="637.04" y="-1030.8" font-family="Arial" font-size="9.00">Outer OID: 17945</text>
<text text-anchor="middle" x="637.04" y="-1020.8" font-family="Arial" font-size="9.00">Inner OID: 17945</text>
</g>
<!-- plan_all_1&#45;&gt;plan_all_13 -->
<g id="edge20" class="edge">
<title>plan_all_1&#45;&gt;plan_all_13</title>
<path fill="none" stroke="#cd6600" d="M225.3,-725.91C250.13,-734.21 279.38,-748.21 297.04,-771 405.78,-911.35 236.92,-1050.2 374.04,-1163 426.89,-1206.48 465.22,-1190.18 528.04,-1163 563.21,-1147.78 592.2,-1114.84 611.25,-1088.1"/>
<polygon fill="#cd6600" stroke="#cd6600" points="613.41,-1089.3 615.4,-1082.15 609.39,-1086.49 613.41,-1089.3"/>
<text text-anchor="middle" x="324.55" y="-892.58" font-family="Arial" font-size="9.00">inner</text>
</g>
<!-- plan_all_2&#45;&gt;plan_all_3 -->
<g id="edge2" class="edge">
<title>plan_all_2&#45;&gt;plan_all_3</title>
<path fill="none" stroke="#7f7f7f" stroke-dasharray="5,2" d="M179.04,-579.9C179.04,-565.72 179.04,-551.54 179.04,-537.37"/>
<text text-anchor="middle" x="174.04" y="-551.43" font-family="Arial" font-size="9.00">alt</text>
</g>
<!-- plan_all_4 -->
<g id="node5" class="node">
<title>plan_all_4</title>
<path fill="lightblue" stroke="black" d="M213.04,-426C213.04,-426 145.04,-426 145.04,-426 139.04,-426 133.04,-420 133.04,-414 133.04,-414 133.04,-380 133.04,-380 133.04,-374 139.04,-368 145.04,-368 145.04,-368 213.04,-368 213.04,-368 219.04,-368 225.04,-374 225.04,-380 225.04,-380 225.04,-414 225.04,-414 225.04,-420 219.04,-426 213.04,-426"/>
<text text-anchor="middle" x="179.04" y="-414.8" font-family="Arial" font-size="9.00">T_IndexOnlyScan</text>
<text text-anchor="middle" x="179.04" y="-404.8" font-family="Arial" font-size="9.00">Startup: 0.15</text>
<text text-anchor="middle" x="179.04" y="-394.8" font-family="Arial" font-size="9.00">Total: 0.40</text>
<text text-anchor="middle" x="179.04" y="-384.8" font-family="Arial" font-size="9.00">Rows: 13</text>
<text text-anchor="middle" x="179.04" y="-374.8" font-family="Arial" font-size="9.00">Parent OID: 17945</text>
</g>
<!-- plan_all_3&#45;&gt;plan_all_4 -->
<g id="edge3" class="edge">
<title>plan_all_3&#45;&gt;plan_all_4</title>
<path fill="none" stroke="#7f7f7f" stroke-dasharray="5,2" d="M179.04,-468.89C179.04,-454.73 179.04,-440.56 179.04,-426.4"/>
<text text-anchor="middle" x="174.04" y="-440.44" font-family="Arial" font-size="9.00">alt</text>
</g>
<!-- plan_all_3&#45;&gt;plan_all_6 -->
<g id="edge6" class="edge">
<title>plan_all_3&#45;&gt;plan_all_6</title>
<path fill="none" stroke="#cd6600" d="M225.07,-489.78C248.77,-481.01 276.99,-467.47 297.04,-448 351.37,-395.25 309.51,-335.64 374.04,-296 433.6,-259.4 462.39,-303.98 528.04,-328 745.79,-407.68 826.46,-408.73 987.04,-576 1037.07,-628.12 1068.14,-707.87 1083.46,-755.97"/>
<polygon fill="#cd6600" stroke="#cd6600" points="1081.18,-756.88 1085.61,-762.83 1085.86,-755.42 1081.18,-756.88"/>
<text text-anchor="middle" x="733.25" y="-397.05" font-family="Arial" font-size="9.00">inner</text>
</g>
<!-- plan_all_3&#45;&gt;plan_all_7 -->
<g id="edge8" class="edge">
<title>plan_all_3&#45;&gt;plan_all_7</title>
<path fill="none" stroke="#cd6600" d="M225.14,-489.45C248.72,-480.61 276.8,-467.11 297.04,-448 349.39,-398.57 309.68,-275.78 375.04,-306 580.33,-400.93 721.15,-653.4 770.03,-752.38"/>
<polygon fill="#cd6600" stroke="#cd6600" points="767.98,-753.75 773.26,-758.95 772.38,-751.59 767.98,-753.75"/>
<text text-anchor="middle" x="620.21" y="-520.5" font-family="Arial" font-size="9.00">inner</text>
</g>
<!-- plan_all_3&#45;&gt;plan_all_8 -->
<g id="edge10" class="edge">
<title>plan_all_3&#45;&gt;plan_all_8</title>
<path fill="none" stroke="#cd6600" d="M225.22,-482.9C247.13,-472.87 273.7,-460.28 297.04,-448 332.46,-429.37 344.76,-376.83 375.04,-403 441.3,-460.28 395.94,-713.2 432.04,-793 434.33,-798.08 437.19,-803.06 440.38,-807.85"/>
<polygon fill="#cd6600" stroke="#cd6600" points="438.54,-809.49 444.57,-813.81 442.55,-806.67 438.54,-809.49"/>
<text text-anchor="middle" x="404.58" y="-640.12" font-family="Arial" font-size="9.00">inner</text>
</g>
<!-- plan_all_3&#45;&gt;plan_all_9 -->
<g id="edge12" class="edge">
<title>plan_all_3&#45;&gt;plan_all_9</title>
<path fill="none" stroke="#cd6600" d="M225.19,-489.09C248.64,-480.17 276.59,-466.71 297.04,-448 347.31,-402 321.2,-274.23 375.04,-316 435.45,-362.87 467.9,-599.41 478.8,-695.92"/>
<polygon fill="#cd6600" stroke="#cd6600" points="476.36,-696.21 479.57,-702.89 481.23,-695.66 476.36,-696.21"/>
<text text-anchor="middle" x="451.65" y="-570.83" font-family="Arial" font-size="9.00">inner</text>
</g>
<!-- plan_all_3&#45;&gt;plan_all_10 -->
<g id="edge13" class="edge">
<title>plan_all_3&#45;&gt;plan_all_10</title>
<path fill="none" stroke="#4f94cd" d="M225.08,-490.57C249.08,-481.99 277.58,-468.37 297.04,-448 445.94,-292.1 267.45,0 483.04,0 483.04,0 483.04,0 944.04,0 1157.5,0 1230.72,-812.09 1245.19,-1006.54"/>
<polygon fill="#4f94cd" stroke="#4f94cd" points="1242.76,-1006.93 1245.72,-1013.73 1247.65,-1006.57 1242.76,-1006.93"/>
<text text-anchor="middle" x="1201.09" y="-681.02" font-family="Arial" font-size="9.00">outer</text>
</g>
<!-- plan_all_3&#45;&gt;plan_all_11 -->
<g id="edge15" class="edge">
<title>plan_all_3&#45;&gt;plan_all_11</title>
<path fill="none" stroke="#4f94cd" d="M225.12,-514.38C249.74,-522.82 278.84,-536.79 297.04,-559 385.12,-666.46 338.91,-727.57 374.04,-862 399.17,-958.17 395.6,-985.52 432.04,-1078 485.17,-1212.85 460.81,-1291.33 585.04,-1366 679.89,-1423.01 744.08,-1430.45 834.04,-1366 923.32,-1302.03 939.69,-1160 942.1,-1089.44"/>
<polygon fill="#4f94cd" stroke="#4f94cd" points="944.56,-1089.09 942.31,-1082.02 939.66,-1088.95 944.56,-1089.09"/>
<text text-anchor="middle" x="363.04" y="-854.82" font-family="Arial" font-size="9.00">outer</text>
</g>
<!-- plan_all_3&#45;&gt;plan_all_12 -->
<g id="edge17" class="edge">
<title>plan_all_3&#45;&gt;plan_all_12</title>
<path fill="none" stroke="#4f94cd" d="M225.29,-514.92C249.66,-523.49 278.45,-537.42 297.04,-559 430.53,-713.99 316.93,-829.91 432.04,-999 472.03,-1057.75 540.31,-1104.9 586.75,-1132.41"/>
<polygon fill="#4f94cd" stroke="#4f94cd" points="585.6,-1134.57 592.87,-1135.99 588.07,-1130.34 585.6,-1134.57"/>
<text text-anchor="middle" x="363.06" y="-820.81" font-family="Arial" font-size="9.00">outer</text>
</g>
<!-- plan_all_3&#45;&gt;plan_all_13 -->
<g id="edge19" class="edge">
<title>plan_all_3&#45;&gt;plan_all_13</title>
<path fill="none" stroke="#4f94cd" d="M225.35,-483.48C269.1,-468.03 334.51,-454.39 375.04,-490 522.84,-619.86 323.24,-765.07 432.04,-929 468.13,-983.38 538.2,-1016.14 586.05,-1033.14"/>
<polygon fill="#4f94cd" stroke="#4f94cd" points="585.52,-1035.55 592.94,-1035.54 587.13,-1030.93 585.52,-1035.55"/>
<text text-anchor="middle" x="392.96" y="-751.27" font-family="Arial" font-size="9.00">outer</text>
</g>
<!-- plan_all_4&#45;&gt;plan_all_1 -->
<!-- plan_all_5 -->
<g id="node6" class="node">
<title>plan_all_5</title>
<path fill="lightblue" stroke="black" d="M216.54,-325C216.54,-325 141.54,-325 141.54,-325 135.54,-325 129.54,-319 129.54,-313 129.54,-313 129.54,-279 129.54,-279 129.54,-273 135.54,-267 141.54,-267 141.54,-267 216.54,-267 216.54,-267 222.54,-267 228.54,-273 228.54,-279 228.54,-279 228.54,-313 228.54,-313 228.54,-319 222.54,-325 216.54,-325"/>
<text text-anchor="middle" x="179.04" y="-313.8" font-family="Arial" font-size="9.00">T_BitmapHeapScan</text>
<text text-anchor="middle" x="179.04" y="-303.8" font-family="Arial" font-size="9.00">Startup: 0.26</text>
<text text-anchor="middle" x="179.04" y="-293.8" font-family="Arial" font-size="9.00">Total: 4.42</text>
<text text-anchor="middle" x="179.04" y="-283.8" font-family="Arial" font-size="9.00">Rows: 13</text>
<text text-anchor="middle" x="179.04" y="-273.8" font-family="Arial" font-size="9.00">Parent OID: 17945</text>
</g>
<!-- plan_all_4&#45;&gt;plan_all_5 -->
<g id="edge4" class="edge">
<title>plan_all_4&#45;&gt;plan_all_5</title>
<path fill="none" stroke="#7f7f7f" stroke-dasharray="5,2" d="M179.04,-367.83C179.04,-353.62 179.04,-339.41 179.04,-325.2"/>
<text text-anchor="middle" x="174.04" y="-339.31" font-family="Arial" font-size="9.00">alt</text>
</g>
<!-- plan_all_6&#45;&gt;plan_all_10 -->
<!-- plan_all_7&#45;&gt;plan_all_11 -->
<!-- plan_all_8&#45;&gt;plan_all_12 -->
<!-- plan_all_9&#45;&gt;plan_all_13 -->
<!-- plan_all_11&#45;&gt;plan_all_6 -->
<!-- plan_all_12&#45;&gt;plan_all_7 -->
<!-- stats -->
<g id="node15" class="node">
<title>stats</title>
<polygon fill="lightyellow" stroke="black" points="261.04,-949 91.04,-949 91.04,-901 267.04,-901 267.04,-943 261.04,-949"/>
<polyline fill="none" stroke="black" points="261.04,-949 261.04,-943 "/>
<polyline fill="none" stroke="black" points="267.04,-943 261.04,-943 "/>
<text text-anchor="middle" x="179.04" y="-937.8" font-family="Arial" font-size="9.00">Statistics</text>
<text text-anchor="middle" x="179.04" y="-927.8" font-family="Arial" font-size="9.00">Total paths considered: 14</text>
<text text-anchor="middle" x="179.04" y="-917.8" font-family="Arial" font-size="9.00">Cheapest: T_IndexOnlyScan (0.40)</text>
<text text-anchor="middle" x="179.04" y="-907.8" font-family="Arial" font-size="9.00">Most expensive: T_HashJoin (1247.18)</text>
</g>
<!-- legend -->
<g id="node16" class="node">
<title>legend</title>
<polygon fill="white" stroke="black" points="278.04,-1060 74.04,-1060 74.04,-992 284.04,-992 284.04,-1054 278.04,-1060"/>
<polyline fill="none" stroke="black" points="278.04,-1060 278.04,-1054 "/>
<polyline fill="none" stroke="black" points="284.04,-1054 278.04,-1054 "/>
<text text-anchor="middle" x="179.04" y="-1048.8" font-family="Arial" font-size="9.00">Legend</text>
<text text-anchor="middle" x="179.04" y="-1038.8" font-family="Arial" font-size="9.00">Blue edge: outer input</text>
<text text-anchor="middle" x="179.04" y="-1028.8" font-family="Arial" font-size="9.00">Orange edge: inner input</text>
<text text-anchor="middle" x="179.04" y="-1018.8" font-family="Arial" font-size="9.00">Dashed cluster: relation/join group</text>
<text text-anchor="middle" x="179.04" y="-1008.8" font-family="Arial" font-size="9.00">Green node: selected plan</text>
<text text-anchor="middle" x="179.04" y="-998.8" font-family="Arial" font-size="9.00">Dashed edge (alt): next alternative for same RTI</text>
</g>
</g>
</svg>
